<svg width="107" height="92" viewBox="0 0 107 92" fill="none" xmlns="http://www.w3.org/2000/svg">
<path d="M19.1357 43.7634C20.1319 44.7596 23.5587 46.752 29.2966 46.752C36.1401 46.752 47.3367 33.6927 50.426 27.303C50.6601 26.819 50.4287 26.2581 49.9313 26.0541C45.8589 24.3842 37.27 21.6484 29.2966 21.6484C18.538 21.6484 14.3541 33.0048 16.1472 38.3841" stroke="#006FD1" stroke-width="3" stroke-linecap="round" stroke-linejoin="round"./>
<path d="M34.0783 33.0039C21.1281 34.797 -3.21836 45.197 2.99774 72.4523C5.18932 78.2301 13.3978 89.427 28.6989 87.9926C47.8254 86.1994 49.6185 70.0615 48.4231 66.4753C47.2277 62.889 44.8369 54.5212 31.6875 56.3143" stroke="#006FD1" stroke-width="3" stroke-linecap="round" stroke-linejoin="round"./>
<path d="M31.6874 14.4766C36.6682 9.29649 51.5311 -0.346447 71.1358 2.52253C95.6416 6.10874 111.182 33.6035 102.814 58.1093C94.4462 82.6151 74.722 95.1669 45.4345 87.9945" stroke="#006FD1" stroke-width="3" stroke-linecap="round" stroke-linejoin="round"./>
</svg>
