<svg width="114" height="74" viewBox="0 0 114 74" fill="none" xmlns="http://www.w3.org/2000/svg">
<circle cx="85" cy="56" r="16" stroke="#006FD1" stroke-width="3"./>
<path d="M20.3257 1.6478C20.4196 1.5532 20.5473 1.5 20.6806 1.5H61.3595C61.4976 1.5 61.6295 1.55711 61.724 1.65778L62.8111 0.637323L61.724 1.65779L76.7439 17.6578C77.0436 17.977 76.8172 18.5 76.3794 18.5H4.80245C4.35791 18.5 4.13442 17.9633 4.44754 17.6478L20.3257 1.6478Z" stroke="#006FD1" stroke-width="3" stroke-linejoin="round"./>
<path d="M4 18.5L39.2628 58.1706C39.6569 58.6141 40.3483 58.6188 40.7485 58.1807L77 18.5" stroke="#006FD1" stroke-width="3" stroke-linecap="round" stroke-linejoin="round"./>
<path d="M25 18.5L39.7295 37.0307C40.1259 37.5294 40.8813 37.5352 41.2854 37.0428L56.5 18.5" stroke="#006FD1" stroke-width="3" stroke-linecap="round" stroke-linejoin="round"./>
<path d="M41 38V49" stroke="#006FD1" stroke-width="3" stroke-linecap="round" stroke-linejoin="round"./>
<path d="M45 66.5L84.3361 21.7552C84.7022 21.3388 85.3371 21.2997 85.7515 21.668L93.2106 28.2983C93.6394 28.6795 94.3003 28.6224 94.6575 28.1734L111.5 7" stroke="#006FD1" stroke-width="3" stroke-linecap="round" stroke-linejoin="round"./>
<path d="M102.5 6.5H111.5C112.052 6.5 112.5 6.94772 112.5 7.5V17" stroke="#006FD1" stroke-width="3" stroke-linecap="round" stroke-linejoin="round"./>
<path d="M82.5 46.5V65.3755C82.5 65.974 83.0223 66.4393 83.607 66.3112C86.5914 65.6577 91 63.5866 91 59" stroke="#006FD1" stroke-width="3" stroke-linecap="round" stroke-linejoin="round"./>
<path d="M78 58L89 53" stroke="#006FD1" stroke-width="3" stroke-linecap="round" stroke-linejoin="round"./>
<path d="M78 54L89 49" stroke="#006FD1" stroke-width="3" stroke-linecap="round" stroke-linejoin="round"./>
</svg>
