<svg width="69" height="91" viewBox="0 0 69 91" fill="none" xmlns="http://www.w3.org/2000/svg">
<path d="M13.5238 89.0011V89.0011C13.5238 82.0581 19.1522 76.4297 26.0952 76.4297H43.9048C50.8478 76.4297 56.4762 82.0581 56.4762 89.0011V89.0011" stroke="#006FD1" stroke-width="3" stroke-linecap="round"./>
<circle cx="35.5238" cy="39.7615" r="5.2381" stroke="#006FD1" stroke-width="3"./>
<path d="M29.9089 40.2852C21.3534 43.7772 3.82319 51.5994 2.147 54.9518C0.0517646 59.1423 21.0041 54.9518 23.6232 53.3804C25.7184 52.1233 30.0835 46.2217 32.0041 43.428" stroke="#006FD1" stroke-width="3" stroke-linecap="round" stroke-linejoin="round"./>
<path d="M39.8612 44.5763C47.1632 50.2396 62.7026 61.51 66.4439 61.2855C71.1206 61.0047 57.0153 44.9547 54.3449 43.4722C52.2086 42.2863 44.9151 41.4568 41.5354 41.1903" stroke="#006FD1" stroke-width="3" stroke-linecap="round" stroke-linejoin="round"./>
<path d="M37.7445 33.4081C38.9981 24.2527 40.9889 5.16007 38.9238 2.03226C36.3423 -1.87751 29.4952 18.363 29.5466 21.4169C29.5877 23.86 32.516 30.5911 33.9751 33.6512" stroke="#006FD1" stroke-width="3" stroke-linecap="round" stroke-linejoin="round"./>
<path d="M24.5237 24.0469C21.7301 25.9675 16.1428 31.2754 16.1428 37.1421" stroke="#006FD1" stroke-width="3" stroke-linecap="round" stroke-linejoin="round"./>
<path d="M25.0476 17.7617C20.1587 19.1585 10.3809 25.8284 10.3809 41.3331" stroke="#006FD1" stroke-width="3" stroke-linecap="round" stroke-linejoin="round"./>
<path d="M44.9524 24.0469C47.746 25.9675 53.3333 31.2754 53.3333 37.1421" stroke="#006FD1" stroke-width="3" stroke-linecap="round" stroke-linejoin="round"./>
<path d="M44.4285 17.7617C49.3174 19.1585 59.0952 25.8284 59.0952 41.3331" stroke="#006FD1" stroke-width="3" stroke-linecap="round" stroke-linejoin="round"./>
<path d="M35.5238 45V76.4286" stroke="#006FD1" stroke-width="3" stroke-linecap="round" stroke-linejoin="round"./>
</svg>
