<svg width="96" height="90" viewBox="0 0 96 90" fill="none" xmlns="http://www.w3.org/2000/svg">
<path d="M43.651 21.2088C45.5764 17.8802 50.3817 17.8802 52.3071 21.2088L74.166 58.9977C76.0941 62.3311 73.6887 66.5013 69.8379 66.5013H26.1202C22.2694 66.5013 19.864 62.3311 21.7921 58.9977L43.651 21.2088Z" stroke="#006FD1" stroke-width="3"/>
<path d="M45.0416 45.9729V36.2109C45.0416 34.5886 46.3568 33.2734 47.9791 33.2734C49.6015 33.2734 50.9166 34.5886 50.9166 36.2109V45.9729C50.9166 47.5952 49.6015 48.9104 47.9791 48.9104C46.3568 48.9104 45.0416 47.5952 45.0416 45.9729Z" stroke="#006FD1" stroke-width="3" stroke-linecap="round"/>
<ellipse cx="47.9791" cy="55.7522" rx="2.93749" ry="2.93193" stroke="#006FD1" stroke-width="3"/>
<path d="M43.0832 70.8984V74.8077H37.2083L46.9999 84.5808" stroke="#006FD1" stroke-width="3" stroke-linecap="round" stroke-linejoin="round"/>
<path d="M50.9166 70.8984V74.8077H56.7916L46.9999 84.5808" stroke="#006FD1" stroke-width="3" stroke-linecap="round" stroke-linejoin="round"/>
<path d="M51.8958 15.6836L51.8958 11.7744L57.7708 11.7744L47.9791 2.00126" stroke="#006FD1" stroke-width="3" stroke-linecap="round" stroke-linejoin="round"/>
<path d="M44.0624 15.6836L44.0624 11.7744L38.1874 11.7744L47.979 2.00126" stroke="#006FD1" stroke-width="3" stroke-linecap="round" stroke-linejoin="round"/>
<path d="M71.3249 70.9006L79.383 78.9432L75.2287 83.0895L89.0762 83.0896" stroke="#006FD1" stroke-width="3" stroke-linecap="round" stroke-linejoin="round"/>
<path d="M77.354 65.8615L84.922 73.4146L89.0762 69.2682L89.0762 83.0895" stroke="#006FD1" stroke-width="3" stroke-linecap="round" stroke-linejoin="round"/>
<path d="M64.5265 32.4943L72.5844 24.4516L76.7386 28.598L76.7386 14.7767" stroke="#006FD1" stroke-width="3" stroke-linecap="round" stroke-linejoin="round"/>
<path d="M59.4779 26.4787L67.0453 18.925L62.8911 14.7787L76.7385 14.7787" stroke="#006FD1" stroke-width="3" stroke-linecap="round" stroke-linejoin="round"/>
<path d="M29.9066 32.4943L21.8487 24.4516L17.6945 28.598L17.6945 14.7767" stroke="#006FD1" stroke-width="3" stroke-linecap="round" stroke-linejoin="round"/>
<path d="M34.9552 26.4787L27.3878 18.925L31.542 14.7787L17.6946 14.7787" stroke="#006FD1" stroke-width="3" stroke-linecap="round" stroke-linejoin="round"/>
<path d="M23.9895 46.9565L16.6458 46.9565L16.6458 52.8203L6.85413 43.0472" stroke="#006FD1" stroke-width="3" stroke-linecap="round" stroke-linejoin="round"/>
<path d="M27.3481 39.1377L16.6458 39.1373L16.6458 33.2734L6.85416 43.0465" stroke="#006FD1" stroke-width="3" stroke-linecap="round" stroke-linejoin="round"/>
<path d="M70.9894 46.9565L76.9997 46.9565L76.9997 52.8203L86.7913 43.0472" stroke="#006FD1" stroke-width="3" stroke-linecap="round" stroke-linejoin="round"/>
<path d="M66.2972 39.1377L76.9996 39.1373L76.9996 33.2734L86.7912 43.0465" stroke="#006FD1" stroke-width="3" stroke-linecap="round" stroke-linejoin="round"/>
<path d="M24.6751 70.9006L16.617 78.9432L20.7713 83.0895L6.9238 83.0896" stroke="#006FD1" stroke-width="3" stroke-linecap="round" stroke-linejoin="round"/>
<path d="M18.646 65.8615L11.078 73.4146L6.92376 69.2682L6.92376 83.0895" stroke="#006FD1" stroke-width="3" stroke-linecap="round" stroke-linejoin="round"/>
</svg>
