<svg width="100" height="86" viewBox="0 0 100 86" fill="none" xmlns="http://www.w3.org/2000/svg">
<circle cx="50.527" cy="14.1996" r="5.83237" stroke="#006FD1" stroke-width="3"/>
<circle cx="68.0241" cy="7.30606" r="5.30216" stroke="#006FD1" stroke-width="3"/>
<circle cx="34.0904" cy="7.30606" r="5.30216" stroke="#006FD1" stroke-width="3"/>
<path d="M39.3925 41.2422V28.2148C39.3925 25.4534 41.6311 23.2148 44.3925 23.2148H55.6011C58.3626 23.2148 60.6011 25.4534 60.6011 28.2148V41.2422" stroke="#006FD1" stroke-width="3" stroke-linecap="round" stroke-linejoin="round"/>
<circle cx="39.9227" cy="71.4656" r="1.5" fill="#006FD1" stroke="#006FD1" stroke-width="0.181294"/>
<path d="M23.3094 77.8793C22.8951 77.1619 23.141 76.2445 23.8584 75.8303L40.3553 66.3058C41.0727 65.8916 41.9901 66.1374 42.4043 66.8548L45.908 72.9233L26.813 83.9478L23.3094 77.8793Z" stroke="#006FD1" stroke-width="3"/>
<path d="M39.3924 65.6304C38.1552 62.8026 34.9386 56.6167 31.9694 54.4959C28.2579 51.8448 24.5464 49.7239 23.4859 48.1333C22.4255 46.5426 19.2442 37.529 14.4723 40.1801C10.6547 42.3009 13.5886 48.1332 15.5327 50.7843L19.2442 57.1469" stroke="#006FD1" stroke-width="3" stroke-linecap="round" stroke-linejoin="round"/>
<path d="M12.3515 41.2403C11.6445 37.7056 10.1246 30.3179 9.70042 29.0454C9.17021 27.4547 8.63999 24.2734 5.98891 24.2734C3.33784 24.2734 2.2774 25.3339 2.2774 30.636C2.2774 35.9382 4.39827 50.254 4.39827 51.8447C4.39827 53.4353 5.4587 58.7375 5.98891 59.7979C6.51913 60.8583 10.2306 64.5698 12.3515 65.6303C14.4724 66.6907 23.486 73.0533 24.0162 74.6439" stroke="#006FD1" stroke-width="3" stroke-linecap="round" stroke-linejoin="round"/>
<circle cx="1.59065" cy="1.59065" r="1.5" transform="matrix(-1 0 0 1 61.7425 69.875)" fill="#006FD1" stroke="#006FD1" stroke-width="0.181294"/>
<path d="M76.7652 77.8793C77.1794 77.1619 76.9336 76.2445 76.2162 75.8303L59.7193 66.3058C59.0018 65.8916 58.0845 66.1374 57.6702 66.8548L54.1666 72.9233L73.2616 83.9478L76.7652 77.8793Z" stroke="#006FD1" stroke-width="3"/>
<path d="M60.6822 65.6304C61.9193 62.8026 65.136 56.6167 68.1052 54.4959C71.8167 51.8448 75.5282 49.7239 76.5886 48.1333C77.6491 46.5426 80.8304 37.529 85.6023 40.1801C89.4199 42.3009 86.486 48.1332 84.5419 50.7843L80.8304 57.1469" stroke="#006FD1" stroke-width="3" stroke-linecap="round" stroke-linejoin="round"/>
<path d="M87.7231 41.2403C88.43 37.7056 89.95 30.3179 90.3742 29.0454C90.9044 27.4547 91.4346 24.2734 94.0857 24.2734C96.7367 24.2734 97.7972 25.3339 97.7972 30.636C97.7972 35.9382 95.6763 50.254 95.6763 51.8447C95.6763 53.4353 94.6159 58.7375 94.0857 59.7979C93.5555 60.8583 89.8439 64.5698 87.7231 65.6303C85.6022 66.6907 76.5886 73.0533 76.0583 74.6439" stroke="#006FD1" stroke-width="3" stroke-linecap="round" stroke-linejoin="round"/>
<path d="M44.6946 16.8477H28.2579C26.6673 16.8477 23.592 17.9081 24.0162 22.1498C24.4404 26.3915 25.9603 37.7028 26.6673 42.8282" stroke="#006FD1" stroke-width="3" stroke-linecap="round" stroke-linejoin="round"/>
<path d="M34.6205 16.8477V23.2102" stroke="#006FD1" stroke-width="3" stroke-linecap="round" stroke-linejoin="round"/>
<path d="M57.4198 16.8477H73.8565C75.4471 16.8477 78.5224 17.9081 78.0982 22.1498C77.674 26.3915 76.1541 37.7028 75.4471 42.8282" stroke="#006FD1" stroke-width="3" stroke-linecap="round" stroke-linejoin="round"/>
<path d="M67.4939 16.8477V23.2102" stroke="#006FD1" stroke-width="3" stroke-linecap="round" stroke-linejoin="round"/>
</svg>
