<svg width="100" height="92" viewBox="0 0 100 92" fill="none" xmlns="http://www.w3.org/2000/svg">
<path d="M56.3999 74.6291C55.1199 69.0783 56.6559 54.9025 73.0399 42.6055" stroke="#006FD1" stroke-width="3" stroke-linecap="round"./>
<path d="M55.12 74.6293C47.8667 69.719 33.744 53.3656 35.28 27.2344" stroke="#006FD1" stroke-width="3" stroke-linecap="round"./>
<path d="M37.8399 50.93C34.8533 52.2109 27.3439 52.339 21.1999 42.6039C13.5199 30.4349 30.7999 4.816 30.7999 2.25411C30.7999 -0.307782 50.6399 16.985 52.5599 32.3563C53.1999 42.6049 47.4399 47.7287 46.1599 49.6501" stroke="#006FD1" stroke-width="3" stroke-linecap="round"./>
<path d="M61.52 54.7758C59.1733 52.6409 55.632 46.3215 60.24 38.1235C64.848 29.9255 79.2266 28.7299 85.84 29.1569C85.2 34.7077 83.024 47.0903 79.44 52.2141C76.88 56.3131 68.9866 57.7648 65.36 57.9783" stroke="#006FD1" stroke-width="3" stroke-linecap="round"./>
<path d="M2 90.0002V90.0002C2 81.5109 8.88198 74.6289 17.3713 74.6289H82.6287C91.118 74.6289 98 81.5109 98 90.0002V90.0002" stroke="#006FD1" stroke-width="3" stroke-linecap="round"./>
</svg>
