<svg width="24" height="24" viewBox="0 0 24 24" fill="none" xmlns="http://www.w3.org/2000/svg">
<path d="M0 11.7857C0 5.27705 5.27705 0 11.7857 0C18.2944 0 23.5714 5.27705 23.5714 11.7857C23.5714 18.2944 18.2944 23.5714 11.7857 23.5714C5.28 23.5636 0.00785714 18.2904 0 11.7857ZM2.35714 11.7857C2.35714 16.993 6.57839 21.2143 11.7857 21.2143C16.993 21.2143 21.2143 16.993 21.2143 11.7857C21.2143 6.57839 16.993 2.35714 11.7857 2.35714C6.58134 2.36304 2.36304 6.58232 2.35714 11.7857ZM6.28571 11.7857C6.28571 10.327 6.86518 8.92808 7.89663 7.89663C8.92808 6.86518 10.327 6.28571 11.7857 6.28571C13.2444 6.28571 14.6434 6.86518 15.6748 7.89663C16.7063 8.92808 17.2857 10.327 17.2857 11.7857C17.2857 13.2444 16.7063 14.6434 15.6748 15.6748C14.6434 16.7063 13.2444 17.2857 11.7857 17.2857C10.327 17.2857 8.92808 16.7063 7.89663 15.6748C6.86518 14.6434 6.28571 13.2444 6.28571 11.7857Z" fill="white"./>
</svg>
