<svg width="16" height="16" viewBox="0 0 16 16" fill="none" xmlns="http://www.w3.org/2000/svg">
<path d="M14.8885 9.125L8.28846 15.725C8.18846 15.825 8.08013 15.896 7.96346 15.938C7.84679 15.9793 7.72179 16 7.58846 16C7.45513 16 7.33013 15.9793 7.21346 15.938C7.09679 15.896 6.98846 15.825 6.88846 15.725L0.288461 9.125C0.105128 8.94167 0.00912789 8.71267 0.00046121 8.438C-0.0075388 8.16267 0.0884608 7.925 0.288461 7.725C0.471794 7.525 0.700794 7.42067 0.975461 7.412C1.25079 7.404 1.48846 7.5 1.68846 7.7L6.58846 12.6L6.58846 1.425C6.58846 1.14167 6.68413 0.904 6.87546 0.712C7.06746 0.520666 7.30513 0.424999 7.58846 0.424999C7.87179 0.424999 8.10913 0.520666 8.30046 0.712C8.49246 0.904 8.58846 1.14167 8.58846 1.425L8.58846 12.6L13.4885 7.7C13.6718 7.51667 13.9051 7.42067 14.1885 7.412C14.4718 7.404 14.7051 7.5 14.8885 7.7C15.0885 7.88333 15.1885 8.11667 15.1885 8.4C15.1885 8.68333 15.0885 8.925 14.8885 9.125Z" fill="#D9D9D9"./>
</svg>
