<svg width="17" height="17" viewBox="0 0 17 17" fill="none" xmlns="http://www.w3.org/2000/svg">
<path d="M15.4731 3.30884L12.7209 0.546634C12.3617 0.208008 11.891 0.0137097 11.3983 0.000698371C10.9057 -0.012313 10.4254 0.156871 10.049 0.476067L1.0087 9.54899C0.684016 9.87759 0.481854 10.3083 0.436146 10.7688L0.00422176 14.9726C-0.00930957 15.1202 0.00978086 15.2691 0.0601321 15.4085C0.110483 15.5479 0.190855 15.6744 0.29552 15.7791C0.389378 15.8725 0.50069 15.9464 0.623073 15.9966C0.745456 16.0467 0.876502 16.0722 1.0087 16.0714H1.0991L5.28776 15.6883C5.7466 15.6425 6.17575 15.4396 6.50318 15.1137L15.5435 6.04079C15.8943 5.66877 16.084 5.17232 16.0708 4.66023C16.0576 4.14814 15.8427 3.66218 15.4731 3.30884ZM5.10696 13.6721L2.09353 13.9544L2.36474 10.9301L8.04003 5.30488L10.7521 8.02675L5.10696 13.6721ZM12.0579 6.6759L9.36593 3.97418L11.3247 1.95798L14.0669 4.7101L12.0579 6.6759Z" fill="#D9D9D9"./>
</svg>
