<svg width="55" height="61" viewBox="0 0 55 61" fill="none" xmlns="http://www.w3.org/2000/svg">
<path fill-rule="evenodd" clip-rule="evenodd" d="M4.11087 49.4162V49.3821C4.87621 49.1965 5.01261 48.7077 5.01261 47.9803C5.01261 46.5898 4.38745 46.3359 3.14851 46.3359H0V52.6633H3.25838C4.59205 52.6633 5.16416 52.2995 5.16416 50.9015C5.16416 50.0982 4.99366 49.5148 4.11087 49.4162ZM1.21621 47.3741H2.92876C3.52739 47.3741 3.7964 47.4233 3.7964 48.0977C3.7964 48.7721 3.64484 48.9843 2.96286 48.9843H1.21621V47.3741ZM2.87571 51.6251H1.21621V49.905H3.08031C3.7964 49.905 3.94795 50.1058 3.94795 50.7992C3.94795 51.5759 3.60317 51.6251 2.87571 51.6251Z" fill="#004280"/>
<path fill-rule="evenodd" clip-rule="evenodd" d="M10.0632 46.3344V50.8317C10.0632 51.5137 9.76009 51.6728 8.63102 51.6728C7.50195 51.6728 7.22158 51.4796 7.22158 50.8317V46.3344H6.00537V50.8317C6.00537 52.6011 7.14581 52.711 8.63102 52.711C10.1162 52.711 11.2794 52.5935 11.2794 50.8317V46.3344H10.0632ZM7.36556 44.8984V45.641H8.1991V44.8984H7.36556ZM9.08568 44.8984V45.641H9.93059V44.8984H9.08568Z" fill="#004280"/>
<path fill-rule="evenodd" clip-rule="evenodd" d="M17.523 46.3359H16.1212L14.5943 49.0336H14.5678L13.0674 46.3359H11.6845L13.9691 50.2346V52.6633H15.1853V50.2346L17.523 46.3359Z" fill="#004280"/>
<path fill-rule="evenodd" clip-rule="evenodd" d="M21.994 46.3344V50.8317C21.994 51.5137 21.6871 51.6728 20.5581 51.6728C19.429 51.6728 19.1524 51.4796 19.1524 50.8317V46.3344H17.9362V50.8317C17.9362 52.6011 19.0729 52.711 20.5581 52.711C22.0433 52.711 23.2103 52.5935 23.2103 50.8317V46.3344H21.994ZM19.2926 44.8984V45.641H20.1299V44.8984H19.2926ZM21.0165 44.8984V45.641H21.8576V44.8984H21.0165Z" fill="#004280"/>
<path fill-rule="evenodd" clip-rule="evenodd" d="M25.4798 46.3359H24.2636V52.6633H25.4798V49.9543H26.0444L28.3707 52.6633H29.909L27.0825 49.4238L29.6475 46.3359H28.1509L26.0444 48.9161H25.4798V46.3359Z" fill="#004280"/>
<path fill-rule="evenodd" clip-rule="evenodd" d="M32.6141 48.9486C31.3827 48.8728 31.2236 48.8463 31.2236 48.0734C31.2236 47.3952 31.4168 47.2777 32.6217 47.2777C33.4742 47.2777 33.7545 47.3042 33.7545 47.9862V48.1908H34.9708V47.9862C34.9708 46.3267 33.9137 46.2812 32.6217 46.2812C31.1062 46.2812 30.0074 46.3343 30.0074 48.0734C30.0074 49.9109 31.0872 49.8617 32.455 49.945C33.3984 49.9943 33.8796 49.8768 33.8796 50.7786C33.8796 51.5136 33.728 51.7182 32.6217 51.7182C31.5153 51.7182 31.1895 51.6652 31.1895 50.9415V50.646H29.9733V50.9415C29.9733 52.7563 31.2236 52.7109 32.6217 52.7109C34.2509 52.7109 35.0958 52.5593 35.0958 50.7786C35.0958 49.1683 34.5653 49.066 32.6141 48.9486ZM32.8263 52.7639L31.8639 53.3436L32.0912 53.7339L33.1976 53.2944L32.8263 52.7639Z" fill="#004280"/>
<path fill-rule="evenodd" clip-rule="evenodd" d="M37.0169 47.3741H40.1389V46.3359H35.8045V52.6633H40.1654V51.6251H37.0169V49.9467H39.9798V48.9502H37.0169V47.3741Z" fill="#004280"/>
<path fill-rule="evenodd" clip-rule="evenodd" d="M46.4398 46.3359H45.2274V48.9275H42.2797V46.3359H41.0673V52.6633H42.2797V49.9618H45.2274V52.6633H46.4398V46.3359Z" fill="#004280"/>
<path fill-rule="evenodd" clip-rule="evenodd" d="M47.5119 46.3345V52.6618H48.7243V46.3345H47.5119ZM47.6976 45.4062V46.1489H48.5311V45.4062H47.6976Z" fill="#004280"/>
<path fill-rule="evenodd" clip-rule="evenodd" d="M53.7787 50.049V50.0149C54.8509 49.852 54.9002 49.17 54.9002 48.2341C54.9002 46.7982 54.3698 46.37 52.983 46.3359H49.755V52.6633H50.9674V50.5718H52.8315C53.415 50.5794 53.6347 50.9507 53.6347 51.4812V52.6633H54.8509V51.4812C54.8509 50.587 54.6388 50.1248 53.7787 50.049ZM52.5701 49.5337H50.9674V47.3741H52.6572C53.5248 47.3741 53.684 47.5332 53.684 48.4274C53.684 49.3215 53.4642 49.5337 52.5701 49.5337Z" fill="#004280"/>
<path fill-rule="evenodd" clip-rule="evenodd" d="M14.1815 38.2092V43.8015H14.818V38.2092H14.1815ZM14.1777 37.5234V38.0766H14.8332V37.5234H14.1777Z" fill="#004280"/>
<path fill-rule="evenodd" clip-rule="evenodd" d="M20.9901 38.2109H16.8073V38.7717H20.2134L16.7012 43.2501V43.8032H21.0621V43.2425H17.4703L20.9901 38.802V38.2109Z" fill="#004280"/>
<path fill-rule="evenodd" clip-rule="evenodd" d="M28.4424 38.6883H28.4576V43.8032H29.0941V38.2109H27.9953L26.0138 42.9962L24.0398 38.2109H22.941V43.8032H23.5776V38.6883H23.5927L25.7069 43.8032H26.3358L28.4424 38.6883Z" fill="#004280"/>
<path fill-rule="evenodd" clip-rule="evenodd" d="M31.3143 38.2092V43.8015H31.9471V38.2092H31.3143ZM31.3068 37.5234V38.0766H31.9622V37.5234H31.3068Z" fill="#004280"/>
<path fill-rule="evenodd" clip-rule="evenodd" d="M37.4944 41.314V41.2988C38.381 41.1852 38.472 40.6055 38.472 39.8212C38.472 38.5481 37.9415 38.2109 36.7329 38.2109H34.1565V43.8032H34.7892V41.5678H36.8238C37.593 41.5678 37.7634 41.9088 37.7634 42.6173V43.8032H38.3962V42.318C38.3962 41.7156 38.1196 41.3594 37.4944 41.314ZM36.7405 41.0071H34.7892V38.7717H36.7405C37.7407 38.7717 37.8392 39.0407 37.8392 39.7568C37.8392 40.6812 37.718 40.9768 36.7405 41.0071Z" fill="#004280"/>
<path fill-rule="evenodd" clip-rule="evenodd" d="M5.85292 57.8705V57.8553C6.4364 57.6621 6.55385 57.268 6.55385 56.677C6.55385 55.6995 6.30758 55.2031 5.25808 55.2031H2.42404V60.7916H5.39827C6.34547 60.7916 6.71677 60.2423 6.71677 59.2344C6.71677 58.5411 6.59932 58.0031 5.85292 57.8705ZM3.05677 55.7601H4.96634C5.62938 55.7601 5.92112 55.8434 5.92112 56.5974C5.92112 57.4688 5.65969 57.6393 4.89814 57.6393H3.05677V55.7601ZM5.06485 60.2347H3.05677V58.1963H5.13684C5.97417 58.1849 6.08404 58.5562 6.08404 59.2951C6.08404 60.1513 5.75063 60.2347 5.06485 60.2347Z" fill="#004280"/>
<path fill-rule="evenodd" clip-rule="evenodd" d="M9.24776 55.7601H12.2068V55.2031H8.61124V60.7916H12.2068V60.2347H9.24776V58.1849H12.078V57.6621H9.24776V55.7601Z" fill="#004280"/>
<path fill-rule="evenodd" clip-rule="evenodd" d="M14.8364 55.2031H14.2037V60.7916H17.6856V60.2347H14.8364V55.2031Z" fill="#004280"/>
<path fill-rule="evenodd" clip-rule="evenodd" d="M19.9054 55.7601H22.8645V55.2031H19.2727V60.7916H22.8645V60.2347H19.9054V58.1849H22.7395V57.6621H19.9054V55.7601Z" fill="#004280"/>
<path fill-rule="evenodd" clip-rule="evenodd" d="M27.5023 55.2031H24.7819V60.7916H27.65C29.3285 60.7916 29.4156 59.242 29.4156 58.6888V57.3552C29.4156 55.2903 28.1805 55.2031 27.5023 55.2031ZM28.7829 58.579C28.7677 59.5754 28.62 60.2347 27.5023 60.2347H25.4146V55.7601H27.6046C28.673 55.7601 28.7829 56.7982 28.7829 57.1089V58.579Z" fill="#004280"/>
<path fill-rule="evenodd" clip-rule="evenodd" d="M31.4771 55.2014V60.7899H32.1098V55.2014H31.4771ZM31.4695 54.5156V55.065H32.125V54.5156H31.4695Z" fill="#004280"/>
<path fill-rule="evenodd" clip-rule="evenodd" d="M38.5547 55.2031H37.8045L36.1488 57.8174L34.4931 55.2031H33.7542L35.804 58.4577V60.7916H36.4405V58.4577L38.5547 55.2031Z" fill="#004280"/>
<path fill-rule="evenodd" clip-rule="evenodd" d="M40.6153 55.7601H43.5744V55.2031H39.9788V60.7916H43.5744V60.2347H40.6153V58.1849H43.4456V57.6621H40.6153V55.7601Z" fill="#004280"/>
<path fill-rule="evenodd" clip-rule="evenodd" d="M47.3289 58.206C48.3518 58.2894 48.8254 58.1075 48.8254 59.176C48.8254 60.2444 48.4958 60.2709 47.3061 60.2709C46.1164 60.2709 45.8815 60.2709 45.8967 59.0396H45.264C45.1465 60.6574 45.8815 60.8279 47.3061 60.8279C48.7307 60.8279 49.462 60.7748 49.462 59.1949C49.462 57.615 48.7914 57.7173 47.4653 57.6453C46.4233 57.615 45.9156 57.7059 45.9156 56.6374C45.9156 55.8607 46.0861 55.7054 47.3251 55.7054C48.564 55.7054 48.6966 55.7433 48.7269 56.7208H49.3597C49.4279 55.2015 48.5564 55.1484 47.3478 55.1484C45.9687 55.1484 45.2829 55.281 45.2829 56.7738C45.2829 58.2666 46.2301 58.1151 47.3327 58.206H47.3289Z" fill="#004280"/>
<path fill-rule="evenodd" clip-rule="evenodd" d="M51.4024 55.2014V60.7899H52.0351V55.2014H51.4024ZM51.3948 54.5156V55.065H52.0503V54.5156H51.3948Z" fill="#004280"/>
<path fill-rule="evenodd" clip-rule="evenodd" d="M23.7631 24.256H23.7745C23.7745 24.256 23.7669 24.2522 23.7631 24.256ZM37.6378 36.3158V36.062H36.736V35.7968H33.6368C33.6368 35.7513 33.6406 35.6983 33.6178 35.6717C33.7163 35.6225 33.8035 35.5581 33.8414 35.4596C33.8679 35.3838 33.8414 35.3724 33.8186 35.3232C33.758 35.2133 33.9588 35.1186 34.0384 35.0996V35.0655C34.0384 35.0655 34.0573 35.0617 34.0649 35.0617C34.0725 35.0617 34.0763 35.0579 34.0839 35.0579V35.0504C34.0308 34.9973 33.8527 35.0125 33.7391 35.0125V34.842C33.7391 34.842 33.6974 34.823 33.7088 34.7852L33.7542 34.7283V34.5351L33.6633 34.501V34.4101C33.6368 34.3949 33.6216 34.3911 33.5762 34.3911C33.5762 34.3381 33.5458 34.3305 33.5383 34.2964V33.1067C33.5421 32.94 33.5458 32.7695 33.5496 32.599V32.5914L33.6065 32.6028C33.7088 32.5535 33.6444 32.4474 33.6709 32.3641C33.6974 32.3376 33.7239 32.3111 33.7467 32.2845C33.7429 32.2656 33.7429 32.2504 33.7391 32.2315V30.1287C33.7277 30.106 33.7163 30.0794 33.7163 30.0378H33.758C33.758 30.0378 33.7618 30.0188 33.7656 30.0112H33.8111C33.8111 30.0112 33.8186 29.9999 33.8224 29.9961C33.8376 29.962 33.8035 29.9393 33.7959 29.9052C33.8489 29.8445 33.9778 29.8597 34.0194 29.7953V29.7384C34.0043 29.7081 33.974 29.693 33.9323 29.6854L33.9247 29.6778V29.0413C33.83 29.0527 33.777 29.1247 33.777 29.2118H33.705V29.3179C33.7808 29.352 33.83 29.424 33.7656 29.496C33.7088 29.5073 33.6595 29.4998 33.614 29.4884C33.5875 29.4505 33.614 29.4202 33.6027 29.3785C33.5875 29.3596 33.5724 29.3406 33.561 29.3217C33.5572 29.3217 33.5534 29.3179 33.5496 29.3179C33.489 29.3823 33.5155 29.477 33.4246 29.5149C33.3829 29.5149 33.3602 29.5073 33.3337 29.5035C33.2768 29.4391 33.2958 29.3293 33.4019 29.3217V29.2004H33.3223C33.292 28.9731 33.0419 28.9845 33.0078 29.1966H32.8866C32.879 28.6548 32.3448 28.2116 31.8333 28.0941C31.7613 28.0789 31.6363 27.8743 31.7462 27.8327V27.7834C31.7462 27.7834 31.7272 27.7683 31.7045 27.7607C31.731 27.719 31.8409 27.7379 31.8712 27.6925C31.8712 27.6773 31.875 27.666 31.875 27.6508C31.8371 27.6281 31.7727 27.6053 31.7196 27.5902C31.7196 27.4955 31.6666 27.4424 31.6817 27.3591C31.7045 27.2909 31.731 27.2265 31.7537 27.1583C31.7158 27.0863 31.678 27.0105 31.6401 26.9385C31.6363 26.9385 31.6325 26.9347 31.6287 26.9347C31.5832 27.0067 31.534 27.0787 31.4885 27.1545C31.4696 27.2227 31.6098 27.3818 31.5681 27.4727C31.5491 27.5182 31.5188 27.503 31.5188 27.5902C31.4771 27.6053 31.3976 27.6205 31.3711 27.647C31.3673 27.6698 31.3673 27.6773 31.3711 27.6963C31.4241 27.7114 31.4809 27.7266 31.534 27.7417H31.5453C31.534 27.7683 31.5112 27.7607 31.4961 27.7834V27.8251C31.4961 27.8251 31.515 27.844 31.5453 27.844C31.5832 28.0827 31.1854 28.185 30.9884 28.2608C30.9884 28.1547 30.9732 28.1737 30.9353 28.1168C30.9353 28.0752 30.9391 28.0335 30.9391 27.9956C30.9278 27.9842 30.9164 27.9766 30.9088 27.9691V26.4611C30.9088 26.4611 30.9278 26.4535 30.9391 26.446C30.9278 26.4194 30.9164 26.3891 30.9088 26.3588C30.924 26.3285 30.9202 26.3361 30.9543 26.3285C30.9657 26.2793 30.9619 26.1391 30.9846 26.1163C30.9808 26.086 30.9808 26.0936 30.9543 26.0822V25.1994C30.9543 25.1047 30.924 24.938 31.0111 24.9115C31.0263 24.8774 30.9998 24.8584 31.0111 24.8168C31.0225 24.7978 31.0376 24.7789 31.0528 24.7561C31.1134 24.7561 31.1703 24.7524 31.2309 24.7524C31.2612 24.741 31.2536 24.7183 31.3029 24.7145C31.2991 24.6842 31.2953 24.6842 31.3218 24.6766C31.3142 24.6349 31.2612 24.6008 31.2271 24.5819V23.9037C31.1816 23.9112 31.1286 23.934 31.1134 23.9643C31.1096 23.9719 31.1096 23.9832 31.1058 23.9946L31.1399 24.0173C31.0793 24.0552 31.0073 24.0401 30.9619 24.0893L30.9732 24.1348C31.0149 24.1386 31.0642 24.1424 31.0869 24.1651C31.121 24.1954 31.1134 24.2484 31.0945 24.2863C31.068 24.3053 31.0263 24.3204 30.977 24.3091C30.9808 24.3507 30.977 24.3621 30.9467 24.3811C30.905 24.3886 30.8634 24.3886 30.8255 24.3811C30.8103 24.3583 30.8027 24.3394 30.8065 24.3053C30.727 24.2939 30.6095 24.2484 30.6929 24.1613C30.7194 24.131 30.7876 24.131 30.8141 24.1007C30.7952 24.0514 30.7459 24.0287 30.6663 24.0287C30.6701 24.006 30.6967 23.9908 30.6815 23.9453C30.6474 23.934 30.6171 23.9188 30.583 23.9075C30.5603 23.8847 30.4617 23.9264 30.4428 23.9643C30.4314 23.987 30.4428 24.0098 30.458 24.0249C30.4125 24.0552 30.3481 24.0438 30.3291 24.1007V24.112C30.3481 24.131 30.4201 24.1499 30.4428 24.1651C30.458 24.2106 30.4542 24.2409 30.439 24.2825C30.4087 24.3015 30.3898 24.3129 30.3291 24.3091C30.3329 24.3356 30.3291 24.3545 30.314 24.3659C30.2912 24.4 30.2041 24.4076 30.17 24.3811C30.1397 24.3659 30.1321 24.347 30.1359 24.3091C30.0753 24.3129 30.0374 24.2977 30.0185 24.2674C29.9881 24.2371 30.0033 24.1878 30.0298 24.1651C30.0488 24.1386 30.1018 24.131 30.1586 24.1348C30.1586 24.1196 30.1586 24.1007 30.1586 24.0855C30.1245 24.0552 30.0753 24.0287 30.0071 24.0249C30.0071 24.0211 30.0033 24.0173 30.0033 24.0173C30.026 24.0022 30.0336 23.9946 30.0336 23.9605C29.9995 23.9453 29.9616 23.9302 29.9275 23.915C29.8934 23.8809 29.8025 23.934 29.7722 23.9681C29.776 23.9984 29.7873 24.006 29.8025 24.0249C29.7532 24.059 29.6926 24.0552 29.6623 24.1083C29.6888 24.131 29.757 24.1575 29.7873 24.1727C29.8063 24.2333 29.7835 24.2636 29.7494 24.3015C29.7078 24.3091 29.685 24.3091 29.6509 24.2939C29.6585 24.3129 29.6661 24.3356 29.6585 24.3583C29.6471 24.3697 29.6358 24.3773 29.6244 24.3886C29.5752 24.3962 29.5411 24.3962 29.5032 24.3886C29.4804 24.3621 29.4729 24.3356 29.4729 24.2863C29.3327 24.3356 29.291 24.1765 29.4729 24.131C29.4729 24.1158 29.4729 24.1007 29.4729 24.0855C29.4388 24.059 29.4009 24.0325 29.3403 24.0249C29.3478 23.9984 29.3478 23.9832 29.3403 23.9567C29.3062 23.9378 29.2645 23.9188 29.2152 23.9112C29.1698 23.8999 29.0523 23.9453 29.0447 23.9908C29.0561 24.0098 29.0712 24.0173 29.0902 24.0325H29.1016C29.0523 24.0514 28.9803 24.0514 28.9349 24.0628C28.9121 24.0893 28.9045 24.1083 28.9235 24.1386C29.022 24.1499 29.0675 24.1386 29.1243 24.1878C29.1432 24.256 29.1129 24.2977 29.0485 24.3129C28.9879 24.2939 28.9614 24.2636 28.8856 24.256C28.9273 24.2788 28.9652 24.2788 28.9765 24.328V24.3432C28.9538 24.3924 28.8022 24.4265 28.7189 24.3962C28.6848 24.3621 28.7113 24.0249 28.7151 23.9567C28.6924 23.9491 28.6658 23.9378 28.6431 23.9264V20.5809C28.6621 20.5809 28.6848 20.5809 28.7037 20.5809C28.7265 20.5543 28.753 20.5316 28.7795 20.5051C28.8174 20.4786 28.9045 20.4558 28.9311 20.4179C28.95 20.399 28.9424 20.3687 28.9349 20.3422C28.9121 20.3308 28.8932 20.3232 28.8477 20.327C28.8439 20.327 28.8401 20.327 28.8363 20.3308C28.8212 20.3498 28.8136 20.3649 28.8174 20.4028C28.7871 20.3838 28.7606 20.3649 28.7303 20.346C28.7568 20.3914 28.7568 20.4142 28.6772 20.4104C28.6848 20.4179 28.6924 20.4293 28.7037 20.4407C28.6962 20.452 28.6886 20.4672 28.681 20.4786C28.7265 20.4634 28.753 20.4369 28.8098 20.4293C28.8136 20.4331 28.8136 20.4369 28.8174 20.4407C28.7757 20.4786 28.7227 20.5506 28.6431 20.5581V20.3157H28.8856C28.9803 20.2171 28.9311 19.7208 28.9311 19.5427H28.9614V19.5011H28.6431C28.6431 19.2283 28.6014 18.8683 28.6583 18.622C28.6658 18.6031 28.6393 18.5955 28.6431 18.569C28.6545 18.5008 28.6772 18.444 28.7037 18.3985V17.5688H28.6204V13.1813H28.6507C28.6696 13.0904 28.6848 12.9805 28.681 12.8593H28.7568C28.7757 12.8403 28.7947 12.8176 28.8098 12.7986C28.7113 12.685 28.9273 12.4879 29.0106 12.4538V12.0977C28.9917 12.0598 28.9727 12.0219 28.9576 11.984H28.9879V11.6885H28.9349V11.6052H28.9765V9.29776C28.9765 9.29776 28.9424 9.29397 28.9235 9.29397V9.21441H28.9765V8.93025C28.9955 8.89994 29.0334 8.8772 29.0371 8.83174C29.003 8.81658 28.9576 8.80143 28.9386 8.77112C28.878 8.65366 29.0826 8.54 29.1773 8.52106V8.48317H29.238C29.238 8.48317 29.2417 8.44907 29.2417 8.43012C29.1963 8.40739 29.1508 8.38466 29.1091 8.35814V7.69888H28.9955C29.0106 7.75192 29.0258 7.80497 29.0447 7.85422H28.9765C28.9879 7.90727 28.9955 7.95652 29.0068 8.00578H28.9349C28.95 8.05503 28.9652 8.10807 28.9765 8.15733H28.681C28.6924 8.10429 28.6999 8.05503 28.7075 8.00199H28.6393C28.6507 7.95273 28.6621 7.90727 28.6772 7.8618L28.6204 7.85043H28.6128C28.6204 7.80118 28.6317 7.74814 28.6431 7.69888H28.4991C28.4878 7.67994 28.4764 7.66478 28.465 7.64584H28.2567C28.2074 7.58901 28.1619 7.53217 28.1165 7.47534H27.9498V6.74789C27.9498 6.61907 27.9346 6.45615 27.9649 6.35006C27.9763 6.3046 27.9157 6.1341 27.9308 6.1C27.9422 6.08484 27.9384 6.08863 27.9649 6.08484V6.05832H27.9952C27.9952 6.05832 27.999 6.04317 28.0028 6.0318H28.0293V6.00528H27.9308V4.92925H27.9649C27.9611 4.88758 27.9422 4.84969 27.9498 4.81938C27.9687 4.71329 28.0975 4.62994 28.2339 4.61857C28.2642 4.54279 28.1733 4.5087 28.1165 4.48975C28.0937 4.45186 28.1051 4.36851 28.1051 4.31168V3.8305H28.0937C28.0634 3.87596 28.0331 3.92522 28.0028 3.97447C28.0142 4.00099 28.0255 4.0313 28.0407 4.05783C28.0407 4.09193 27.9498 4.25106 27.9194 4.26242C27.9194 4.26621 27.9157 4.26621 27.9157 4.26621C27.8626 4.26242 27.8512 4.2359 27.8171 4.21317V3.95174H27.533C27.533 3.51224 27.317 3.19397 27.0101 2.99696C26.9116 2.94391 26.8169 2.89087 26.7184 2.83783C26.6502 2.80752 26.5403 2.79615 26.4986 2.74689C26.4456 2.69006 26.438 2.61429 26.4115 2.53851C26.4191 2.49304 26.4494 2.50441 26.4532 2.45894C26.4229 2.43621 26.4077 2.42863 26.4115 2.38696C26.5403 2.34528 26.5744 2.25056 26.5252 2.12553C26.5062 2.10658 26.5214 2.11037 26.5403 2.08385V2.0687C26.4911 2.05733 26.438 2.04596 26.3888 2.0346C26.3888 1.99292 26.4039 1.99671 26.438 1.98534C26.438 1.97776 26.4456 1.9664 26.4494 1.95882C26.4304 1.9323 26.4304 1.92472 26.385 1.92093C26.3888 1.84516 26.4835 1.81484 26.4759 1.73907C26.4683 1.6595 26.3812 1.62919 26.366 1.54584C26.4153 1.54584 26.4418 1.53447 26.4532 1.50795C26.4645 1.48901 26.457 1.46627 26.4494 1.45112C26.4229 1.43596 26.4039 1.4246 26.3622 1.42081V1.37913C26.4039 1.36776 26.438 1.36019 26.4607 1.33366C26.4494 1.26547 26.385 1.27304 26.3622 1.22379V0.269006C26.51 0.246273 26.5403 0.12882 26.4911 0.0189441C26.4835 0.0113665 26.4721 0.00757764 26.4645 0C26.5062 0.102298 26.4645 0.189441 26.3471 0.212174C26.1917 0.238696 26.1539 0.0909317 26.188 0C26.0629 0.0795652 26.1652 0.250062 26.294 0.269006V1.21621C26.2713 1.26547 26.2031 1.25789 26.1955 1.32988C26.2183 1.34882 26.241 1.36398 26.2865 1.36776C26.2903 1.36776 26.2903 1.37534 26.294 1.37534C26.2865 1.44733 26.1993 1.40944 26.1955 1.50037C26.2221 1.52311 26.2334 1.53826 26.2865 1.53826C26.2562 1.7277 26.0932 1.66329 26.2713 1.88683C26.2637 1.92093 26.2334 1.91714 26.2107 1.93609C26.2107 1.94366 26.2069 1.95124 26.2069 1.95503C26.2221 1.97776 26.2258 1.98534 26.2637 1.98913V2.02702L26.116 2.06112C26.1198 2.09143 26.1273 2.09143 26.1463 2.11037C26.0364 2.18615 26.1273 2.36043 26.2372 2.37559L26.2486 2.40969C26.2221 2.43242 26.2031 2.43621 26.1993 2.47789C26.2145 2.48547 26.2296 2.49304 26.2448 2.50441C26.2334 2.8113 25.919 2.81888 25.6992 2.95528C25.3734 3.1523 25.1119 3.47814 25.1233 3.94416H24.8353C24.8391 4.07677 24.8619 4.20938 24.7596 4.25863C24.6573 4.25106 24.7027 4.18665 24.6648 4.12602C24.6497 4.0995 24.6042 4.09571 24.6156 4.05025C24.627 4.02373 24.6383 3.99342 24.6535 3.96689L24.5626 3.8305C24.5626 3.8305 24.5588 3.82292 24.555 3.82292C24.555 4.03888 24.5512 4.25863 24.5512 4.4746C24.483 4.50491 24.4148 4.51627 24.4148 4.6072C24.6497 4.66783 24.6952 4.70193 24.6914 4.92168H24.7217V5.9977H24.627V6.02422H24.6535V6.04696C24.6535 6.04696 24.6762 6.05075 24.6914 6.05075V6.07727C24.6914 6.07727 24.7103 6.08106 24.7217 6.08106C24.733 6.12652 24.68 6.29702 24.6914 6.34248C24.7179 6.44857 24.7065 6.6077 24.7065 6.73652V7.46776H24.5436C24.4981 7.52081 24.4565 7.57385 24.411 7.63068C24.3617 7.64584 24.2557 7.63826 24.1875 7.63826C24.1761 7.6572 24.1685 7.67236 24.1571 7.6913H24.0094C24.0208 7.74056 24.0321 7.7936 24.0435 7.84286C24.0245 7.84665 24.0018 7.84664 23.9829 7.84664C23.9829 7.85043 23.9791 7.85043 23.9791 7.85422C23.9904 7.89969 24.0018 7.94515 24.017 7.99441H23.945C23.9563 8.04745 23.9639 8.09671 23.9715 8.14975H23.676C23.6911 8.1005 23.7063 8.04745 23.7176 7.9982H23.6494C23.657 7.94894 23.6684 7.89969 23.676 7.84664H23.6116C23.6267 7.79739 23.6457 7.74435 23.6608 7.6913H23.5471V8.34677C23.5017 8.3695 23.4562 8.39602 23.4108 8.41876V8.4718C23.4335 8.4718 23.4562 8.4718 23.4752 8.4718V8.50969C23.6153 8.54 23.7214 8.61578 23.7176 8.75975C23.6949 8.78248 23.6798 8.79385 23.6381 8.80522C23.6305 8.81658 23.6078 8.82416 23.6153 8.84689C23.6229 8.86584 23.6646 8.90373 23.676 8.91888V9.20304H23.729V9.28261H23.6835C23.6798 10.0517 23.6798 10.8247 23.676 11.5938H23.7176V11.6771H23.6646V11.9727H23.6987C23.6798 12.0106 23.6608 12.0484 23.6457 12.0863V12.4349C23.7176 12.4955 23.9563 12.6622 23.8427 12.7873C23.8616 12.8062 23.8806 12.8214 23.8957 12.8403C23.9109 12.8517 23.945 12.8479 23.9715 12.8479C23.9715 12.9691 23.9867 13.079 24.0056 13.1699H24.0321V17.5574H23.9526V18.3871C23.9791 18.4326 24.0018 18.4894 24.0094 18.5576C24.0132 18.5842 23.9904 18.5917 23.9942 18.6107C24.0511 18.857 24.0132 19.2169 24.0094 19.4897H23.6911V19.5314H23.7252V20.2702C23.7896 20.3119 23.8919 20.3081 24.0094 20.3043V20.5468C23.9336 20.5392 23.8768 20.4672 23.8389 20.4293C23.8768 20.4066 23.9374 20.4558 23.9715 20.4672C23.9677 20.4558 23.9601 20.4407 23.9526 20.4293C23.9601 20.4179 23.9677 20.4066 23.9791 20.399C23.9526 20.3952 23.9298 20.3952 23.9033 20.3914L23.926 20.3346C23.8957 20.3535 23.8654 20.3725 23.8389 20.3914C23.8427 20.3535 23.8389 20.3308 23.8048 20.3194C23.7821 20.3081 23.7517 20.3194 23.729 20.3232C23.7139 20.346 23.7101 20.3687 23.7139 20.4028C23.7631 20.4369 23.8237 20.4596 23.8768 20.4937C23.8957 20.5165 23.9147 20.5392 23.9336 20.5581C23.945 20.5695 24.0094 20.5733 24.0094 20.5733V23.9188C23.9867 23.9302 23.9639 23.9378 23.9412 23.9453C23.9412 24.0931 23.945 24.2409 23.945 24.3886C23.854 24.4076 23.6987 24.4 23.676 24.3318C23.6608 24.2901 23.7252 24.2712 23.7555 24.2522C23.6873 24.2598 23.6646 24.2863 23.6078 24.3053C23.5888 24.3015 23.5737 24.2977 23.5585 24.2939C23.5396 24.2712 23.5093 24.2257 23.532 24.1878C23.5623 24.112 23.6343 24.1537 23.7176 24.131C23.7252 24.131 23.729 24.1272 23.7366 24.1272C23.7442 24.1045 23.7442 24.1007 23.7404 24.0742C23.6949 24.0438 23.6419 24.0287 23.5509 24.0287C23.5812 24.0173 23.5926 24.006 23.6116 23.987C23.604 23.9302 23.5017 23.9075 23.4373 23.8999C23.4032 23.915 23.3501 23.9188 23.3274 23.9453C23.3047 23.9643 23.3047 23.9794 23.3085 24.0098C23.3122 24.0098 23.3122 24.0135 23.316 24.0173C23.2668 24.0514 23.2175 24.0401 23.1796 24.0817C23.1834 24.0931 23.1834 24.1045 23.1872 24.112C23.2137 24.1461 23.2744 24.131 23.2933 24.1727C23.335 24.2598 23.2592 24.3091 23.1796 24.2788C23.1796 24.3204 23.1758 24.3432 23.1645 24.3697C23.1266 24.3886 23.0849 24.4 23.0357 24.3848C23.0205 24.3773 23.0091 24.3659 22.9978 24.3583C22.9902 24.3318 22.994 24.3129 23.0016 24.2901C22.975 24.3015 22.9485 24.3129 22.9144 24.2977C22.797 24.256 22.8727 24.1196 22.9864 24.1158C22.9864 24.112 22.9902 24.1083 22.9902 24.1045C22.9599 24.0514 22.903 24.0552 22.85 24.0211C22.922 23.9416 22.8197 23.9226 22.7477 23.8885C22.725 23.915 22.6795 23.934 22.634 23.9416C22.6113 23.9719 22.6189 23.9946 22.653 24.0135C22.6037 24.0438 22.5317 24.0363 22.5014 24.0817C22.4976 24.0969 22.4976 24.112 22.4939 24.1272C22.5431 24.1386 22.5924 24.1424 22.6303 24.1537C22.6416 24.1802 22.6644 24.2106 22.653 24.2484C22.634 24.2863 22.5924 24.3091 22.5204 24.3053C22.5242 24.3318 22.5204 24.3507 22.5052 24.3621C22.4863 24.3962 22.3953 24.4038 22.3612 24.3773C22.3309 24.3621 22.3271 24.3432 22.3271 24.3053C22.2855 24.3053 22.2665 24.3015 22.2362 24.2939C22.2097 24.2636 22.1832 24.2106 22.2135 24.1689C22.2362 24.1348 22.2779 24.1272 22.3271 24.1158C22.3309 24.1083 22.3309 24.1045 22.3347 24.0969C22.293 24.0514 22.2476 24.0552 22.1983 24.0211C22.2135 24.0022 22.2211 23.9908 22.2211 23.9605C22.1832 23.9302 22.1339 23.9075 22.0922 23.8847C22.0544 23.9188 21.9937 23.9226 21.9672 23.9643C21.9672 23.9984 21.971 24.006 21.9975 24.0173C21.9331 24.0552 21.8763 24.0287 21.8422 24.0969C21.8687 24.1234 21.9369 24.1158 21.9672 24.1424C22.0392 24.2181 21.9672 24.3091 21.8535 24.3053C21.8498 24.328 21.846 24.347 21.8422 24.3659C21.8043 24.3848 21.7588 24.3848 21.7096 24.3773C21.683 24.3507 21.6793 24.347 21.6793 24.3053C21.6414 24.3166 21.6035 24.3015 21.5732 24.2939C21.5429 24.256 21.5315 24.1802 21.5845 24.1537C21.6035 24.1386 21.6452 24.1386 21.6755 24.131C21.6944 24.1196 21.6944 24.112 21.6982 24.0893C21.6717 24.0438 21.6035 24.0249 21.5239 24.0211C21.5239 24.0173 21.5201 24.0135 21.5201 24.0135C21.5467 23.9984 21.5504 23.9946 21.5504 23.9605C21.5201 23.934 21.4822 23.9075 21.433 23.8999V24.5743C21.3989 24.6008 21.3686 24.6273 21.3345 24.6576C21.3458 24.6804 21.3534 24.6728 21.3572 24.7107C21.4027 24.7145 21.3989 24.7372 21.4254 24.7486C21.4822 24.7486 21.5391 24.7524 21.5959 24.7524C21.6565 24.7789 21.6452 24.8357 21.6376 24.8963C21.7285 24.9418 21.702 25.0896 21.702 25.207V26.0747C21.702 26.0747 21.6944 26.0822 21.6755 26.086C21.6793 26.1163 21.6906 26.1125 21.6982 26.1277C21.7171 26.1732 21.6527 26.2338 21.702 26.2982C21.6944 26.3247 21.702 26.3285 21.7399 26.3247C21.7475 26.3588 21.7512 26.3967 21.7171 26.4194C21.7247 26.446 21.7285 26.4384 21.7437 26.4573C21.7475 26.6165 21.7475 26.7794 21.7512 26.9385V27.9653C21.7512 27.9653 21.7285 27.9804 21.7171 27.9918C21.7209 28.0297 21.7209 28.0714 21.7247 28.113C21.6793 28.1699 21.6679 28.1547 21.6717 28.257C21.4709 28.1775 21.0806 28.0827 21.1147 27.8402C21.1299 27.8365 21.145 27.8327 21.164 27.8289C21.164 27.8137 21.1678 27.7948 21.1678 27.7796C21.1526 27.7683 21.1412 27.7607 21.1147 27.7531V27.7379C21.1678 27.7266 21.2208 27.7114 21.2776 27.7001C21.289 27.6849 21.3004 27.6698 21.2928 27.647C21.2663 27.6053 21.1905 27.6205 21.1526 27.5864C21.1299 27.5675 21.1564 27.5371 21.1412 27.5068C21.1261 27.4955 21.1109 27.4841 21.092 27.4689C21.0541 27.378 21.1943 27.2189 21.1753 27.1507L21.0389 26.9347C21.0389 26.9347 21.0314 26.9309 21.0276 26.9309C20.9897 27.0067 20.948 27.0825 20.9101 27.1583C20.9329 27.2227 20.9556 27.2909 20.9783 27.3553C20.9935 27.4386 20.9404 27.4917 20.9404 27.5864C20.8988 27.6015 20.8571 27.6129 20.8116 27.6281C20.7927 27.647 20.7851 27.6508 20.7851 27.6887C20.8192 27.719 20.8836 27.7379 20.9518 27.7417C20.9556 27.7455 20.9556 27.7531 20.9594 27.7569C20.9442 27.7645 20.9291 27.7683 20.9139 27.772V27.8213C20.9139 27.8213 20.9367 27.8402 20.9632 27.8402C20.9632 28.0486 20.8571 28.0562 20.6942 28.1206C20.5994 28.1661 20.5085 28.2116 20.4138 28.257C20.1183 28.4275 19.7697 28.7799 19.7773 29.1929H19.6522C19.6409 29.1133 19.5765 28.9996 19.4514 29.0299C19.3832 29.0527 19.3491 29.1247 19.3416 29.1966H19.2582V29.3179C19.3529 29.3255 19.3832 29.4088 19.3453 29.4846C19.3226 29.4998 19.2771 29.5225 19.2317 29.5073C19.1597 29.4846 19.1408 29.3747 19.118 29.3141H19.1142C19.0536 29.3596 19.0801 29.405 19.0612 29.477C19.0081 29.5035 18.9172 29.5187 18.8755 29.477C18.8528 29.405 18.8755 29.3444 18.9475 29.3255C18.9627 29.3027 18.9589 29.2497 18.9589 29.2118H18.8869C18.8869 29.1247 18.8339 29.0527 18.7353 29.0413V29.6816C18.6709 29.7006 18.6368 29.7157 18.6406 29.7953C18.6975 29.8407 18.8376 29.8445 18.8604 29.9052C18.868 29.9355 18.8376 29.9582 18.8339 29.9961C18.8376 29.9999 18.8452 30.0037 18.849 30.0037C18.8642 30.0075 18.8831 30.0075 18.8983 30.0112V30.0302C18.8983 30.0302 18.9286 30.034 18.9475 30.0378C18.9475 30.0794 18.9362 30.106 18.9248 30.1287V32.2277L18.9134 32.2845C18.9399 32.3111 18.9627 32.3376 18.9892 32.3641C19.0157 32.4474 18.9551 32.5535 19.0536 32.6028C19.0726 32.599 19.0953 32.5952 19.1142 32.5914V32.8263C19.137 32.9211 19.1256 33.0537 19.1256 33.1635V34.2964C19.1142 34.3305 19.0877 34.3381 19.0877 34.3911H19.0233C19.0006 34.4176 18.9968 34.4517 19.0006 34.501L18.9096 34.5351V34.7283C18.9096 34.7283 18.9362 34.7662 18.9513 34.7852C18.9627 34.823 18.9324 34.8268 18.9248 34.842V35.0125C18.7998 35.0125 18.652 35.0049 18.58 35.0428C18.58 35.0504 18.5838 35.0542 18.5838 35.0617C18.5989 35.0617 18.6103 35.0655 18.6217 35.0655V35.0996C18.705 35.1186 18.9021 35.2133 18.8452 35.3232C18.8339 35.3459 18.7998 35.3383 18.8073 35.38C18.8225 35.5126 18.9058 35.6187 19.0309 35.6604C19.0385 35.6755 19.0309 35.7513 19.0309 35.7968H15.9278V36.062H15.0299V36.3158H14.1281V36.5697H38.5357V36.3158H37.6378ZM20.9177 33.4666C20.8571 33.4742 20.8078 33.4932 20.7624 33.5007L20.6601 33.4818L20.5464 33.4932L20.4062 33.4856C20.4062 33.4856 20.3911 33.5045 20.3911 33.5311C20.4934 33.6561 20.7055 33.8114 20.9063 33.8455L20.9139 34.2964C20.9026 34.3456 20.8685 34.3532 20.8912 34.3949H20.8116C20.7813 34.4252 20.7737 34.4479 20.7775 34.5048H20.2698V34.4063L20.1789 34.3987C20.1903 34.3722 20.194 34.3419 20.1903 34.304C20.141 34.2737 20.0842 34.2206 20.016 34.2055C19.944 34.2699 19.853 34.2699 19.8568 34.3987H19.7659V34.501H19.5954V34.4176C19.5689 34.4025 19.5537 34.3949 19.5007 34.3949C19.4969 34.3494 19.4742 34.3305 19.4628 34.2964V33.766C19.4628 33.353 19.4666 32.9476 19.4666 32.5725H19.6068C19.6371 32.5043 19.6257 32.3035 19.6712 32.2883C19.6674 32.2542 19.6485 32.2542 19.6068 32.258L19.6712 32.0837C19.603 32.0079 19.5386 31.9397 19.5007 31.8375C19.3188 31.3563 19.8455 30.9243 20.1751 30.769C20.4289 30.9963 20.6373 31.1441 20.7472 31.5002C20.7775 31.6063 20.8003 31.7693 20.7737 31.8981L20.7245 32.1102L20.804 32.258H20.7093L20.7624 32.3338C20.7624 32.3679 20.7548 32.3679 20.7358 32.383C20.7472 32.4323 20.7699 32.5157 20.7851 32.599C20.8154 32.6179 20.8381 32.6255 20.895 32.6255C20.9518 32.815 20.9177 33.1825 20.9177 33.4666ZM22.6378 27.9994H22.5583C22.5621 28.0676 22.5696 28.1244 22.509 28.1434C22.4901 28.1737 22.4976 28.2381 22.4976 28.2835H22.24C22.24 28.1661 22.2362 28.0562 22.1983 27.9691V26.4535C22.2135 26.4232 22.2324 26.3437 22.24 26.3058C22.2855 26.3058 22.2855 26.302 22.3196 26.302C22.3006 26.2414 22.3158 26.1391 22.3461 26.0974H22.3044L22.3385 26.0027L22.2438 25.942C22.1529 25.836 22.2514 25.7223 22.3385 25.6768C22.3234 25.6389 22.2893 25.6276 22.2779 25.5935C22.2286 25.4495 22.3461 25.3472 22.4484 25.3093C22.6303 25.4002 22.5734 25.5707 22.4294 25.6541C22.4939 25.7299 22.6681 25.7867 22.581 25.9193C22.5583 25.9534 22.5242 25.9837 22.4787 25.9951L22.509 26.0936C22.509 26.0936 22.4901 26.0974 22.4787 26.1088L22.5242 26.1466C22.509 26.1997 22.5128 26.2527 22.5204 26.3134C22.5469 26.3209 22.5583 26.3096 22.5999 26.3058C22.6113 26.3209 22.6189 26.3247 22.6227 26.3475C22.6454 26.355 22.6416 26.355 22.6644 26.3475C22.6681 26.8059 22.6719 27.4386 22.6719 27.9691C22.6517 27.9716 22.6404 27.9817 22.6378 27.9994ZM23.3956 27.9994H23.3122V28.1168L23.2554 28.1509V28.2835H23.0849V28.1509L23.0281 28.1244V28.007H22.9675C22.9258 27.8175 22.9523 27.5675 22.9523 27.3591C22.9523 27.0105 22.922 26.5861 22.994 26.3058C23.0357 26.3058 23.0432 26.302 23.0698 26.302C23.0698 26.2148 23.0622 26.1542 23.1039 26.0936H23.0584L23.0849 25.9913C22.9788 25.9724 22.9296 25.8322 22.994 25.7412L23.0925 25.673C23.0773 25.6465 23.0508 25.6314 23.0394 25.6124C22.9637 25.4798 23.1001 25.3283 23.2099 25.3093C23.3615 25.423 23.3539 25.5632 23.1834 25.6541C23.3047 25.7791 23.4903 25.836 23.244 25.9951C23.2251 26.0065 23.2592 26.0709 23.263 26.0974L23.2365 26.105C23.2365 26.105 23.2592 26.1315 23.2819 26.1429C23.2706 26.1959 23.2516 26.2452 23.2819 26.3058C23.2971 26.3247 23.3198 26.3058 23.3615 26.3058L23.388 26.355L23.4259 26.3437L23.4335 27.9691C23.4032 27.9729 23.3994 27.9729 23.3956 27.9994ZM29.5032 28.0032H29.4463V28.1206L29.3971 28.1509C29.3744 28.1699 29.3857 28.2494 29.3857 28.2835H29.219V28.1509L29.1584 28.1206V27.9994H29.0788C29.0788 27.9729 29.0712 27.9729 29.0409 27.9691V26.3475L29.0788 26.355C29.0788 26.355 29.094 26.3323 29.1016 26.3171C29.1319 26.3058 29.1584 26.3096 29.1849 26.3209C29.219 26.2679 29.2076 26.1921 29.1925 26.1504L29.2342 26.1201V26.105L29.2076 26.0898L29.2417 25.9951C29.0485 25.9458 29.1167 25.7261 29.2721 25.6844L29.2872 25.6579C29.2001 25.5707 29.0902 25.5253 29.1925 25.3775C29.2114 25.3472 29.2304 25.3169 29.2796 25.3093C29.435 25.4154 29.5032 25.4912 29.3819 25.6693L29.4767 25.7412C29.5486 25.8284 29.4918 25.9724 29.3857 25.9913L29.4122 26.0936H29.3706C29.4047 26.158 29.4009 26.2148 29.4009 26.302C29.5486 26.2868 29.5221 26.552 29.5221 26.6922V27.5334C29.5221 27.6887 29.5335 27.8706 29.5032 28.0032ZM30.2761 26.9271V27.9691C30.2382 28.0524 30.2344 28.1661 30.2344 28.2797H29.973V28.1471L29.9237 28.1206C29.9237 28.1206 29.9124 28.0335 29.9162 27.9994H29.8404C29.829 27.9766 29.8328 27.9729 29.8025 27.9691V26.3475L29.8404 26.355L29.8555 26.3209C29.8858 26.3058 29.9048 26.3096 29.9351 26.3209C29.9389 26.2641 29.9692 26.1959 29.9465 26.1504L29.9957 26.1088C29.9957 26.1088 29.9881 26.0974 29.9616 26.0936L29.9957 25.9951C29.9427 25.9799 29.9124 25.9458 29.8858 25.9042C29.8101 25.7602 30.0071 25.7412 30.045 25.6579C29.9389 25.5518 29.7987 25.4306 30.0222 25.3093C30.1245 25.351 30.2571 25.4647 30.1889 25.6048C30.1776 25.6314 30.1473 25.6389 30.1359 25.673L30.2268 25.7375C30.3216 25.8398 30.223 25.9534 30.1359 25.9951L30.17 26.0898H30.1208C30.1624 26.1466 30.1624 26.2262 30.1511 26.302C30.1852 26.302 30.1852 26.3096 30.2268 26.3058C30.2988 26.4573 30.2761 26.7112 30.2761 26.9271ZM33.0003 34.2964C32.9889 34.3305 32.9624 34.3494 32.9624 34.3949H32.8904C32.8676 34.4214 32.8639 34.4479 32.8639 34.501H32.6971V34.3987H32.6062C32.61 34.2964 32.5342 34.2434 32.4509 34.2168C32.4092 34.1979 32.3372 34.2661 32.2993 34.2812C32.269 34.3116 32.2539 34.3532 32.2842 34.3949H32.197C32.1932 34.4366 32.1932 34.4707 32.1894 34.5048H31.6855V34.4214C31.6514 34.4025 31.6363 34.3949 31.5719 34.3949C31.5908 34.357 31.5643 34.3419 31.5378 34.3116C31.5643 34.2926 31.5491 33.9137 31.5491 33.8493C31.6893 33.8001 31.8106 33.7394 31.9204 33.6674C31.9697 33.6258 32.0227 33.5803 32.072 33.5386V33.497C32.0493 33.4856 31.8409 33.4742 31.803 33.4818C31.7689 33.4856 31.7348 33.4932 31.7007 33.5007C31.6552 33.4932 31.606 33.4742 31.5453 33.4666C31.5416 33.2545 31.5453 33.0082 31.5643 32.8225C31.5681 32.7847 31.5378 32.6748 31.5643 32.6331C31.5946 32.6142 31.659 32.6293 31.678 32.599C31.6855 32.5498 31.6893 32.4967 31.6931 32.4475C31.7083 32.4171 31.7196 32.4209 31.7272 32.383C31.7158 32.3755 31.7196 32.3755 31.7007 32.3717C31.6969 32.3224 31.7196 32.3073 31.7537 32.2883V32.258H31.6552C31.6855 32.2088 31.7121 32.1595 31.7386 32.1102C31.7272 32.0686 31.7158 32.0307 31.7045 31.989C31.6817 31.9056 31.6628 31.7844 31.6855 31.6821C31.7499 31.3373 31.875 31.1441 32.0871 30.9281C32.1402 30.8789 32.2084 30.8069 32.2842 30.7766C32.3296 30.7576 32.5721 30.9357 32.6176 30.9736C32.8449 31.1593 33.1101 31.5419 32.9283 31.8981C32.8942 31.9663 32.8563 32.0345 32.7881 32.0761C32.8108 32.1368 32.8335 32.1974 32.8525 32.258H32.7843C32.7843 32.258 32.7805 32.2694 32.7805 32.277C32.8601 32.3527 32.7881 32.5081 32.8525 32.5649C32.8752 32.5801 32.9548 32.5763 32.9927 32.5725C32.9965 32.9476 33.0003 33.353 33.0003 33.766V34.2964Z" fill="#004280"/>
</svg>
