<svg width="4" height="9" viewBox="0 0 4 9" fill="none" xmlns="http://www.w3.org/2000/svg">
<path d="M2.70005 1.8C3.19711 1.8 3.60005 1.39706 3.60005 0.9C3.60005 0.402944 3.19711 0 2.70005 0C2.20299 0 1.80005 0.402944 1.80005 0.9C1.80005 1.39706 2.20299 1.8 2.70005 1.8Z" fill="white"/>
<path d="M3.50002 6.80169C3.47279 6.78039 3.44219 6.76563 3.40999 6.75827C3.3778 6.75092 3.34467 6.75112 3.31254 6.75886C3.28041 6.7666 3.24994 6.78172 3.2229 6.80335C3.19587 6.82497 3.17283 6.85266 3.15512 6.88478C2.91696 7.29499 2.62521 7.65945 2.29041 7.965C2.20911 8.03664 1.90609 8.30884 1.77798 8.25153C1.68929 8.22002 1.74103 8.01658 1.75827 7.93062L1.88884 7.48077C1.94304 7.29739 2.88659 4.0424 2.99006 3.66991C3.1428 3.1255 3.07628 2.58968 2.37909 2.71862C2.1894 2.74154 0.265353 3.03094 0.230863 3.03381C0.198511 3.03625 0.16689 3.04609 0.137806 3.06274C0.108721 3.0794 0.0827424 3.10256 0.061353 3.1309C0.0399636 3.15924 0.0235824 3.19219 0.0131446 3.22789C0.00270685 3.26359 -0.00158298 3.30133 0.000519901 3.33896C0.00262278 3.37659 0.0110773 3.41337 0.0254007 3.44719C0.0397241 3.48102 0.0596357 3.51124 0.083999 3.53611C0.108362 3.56099 0.1367 3.58004 0.167394 3.59218C0.198088 3.60432 0.230538 3.60931 0.26289 3.60687C0.26289 3.60687 1.00196 3.49512 1.08326 3.48653C1.1249 3.4818 1.16683 3.49118 1.20398 3.51355C1.24114 3.53593 1.27194 3.57032 1.29266 3.6126C1.3373 3.77309 1.33118 3.94685 1.27542 4.10257C1.21136 4.3891 0.198837 7.70713 0.166811 7.8991C0.132461 8.05975 0.141998 8.22886 0.194096 8.38291C0.246195 8.53696 0.338266 8.66831 0.457511 8.7587C0.681329 8.9322 0.947823 9.01572 1.21629 8.99652C1.47732 8.99281 1.73547 8.93256 1.97753 8.81887C2.59096 8.53234 3.23149 7.77016 3.569 7.17131C3.59806 7.11047 3.60709 7.0394 3.59439 6.97138C3.5817 6.90336 3.54815 6.84304 3.50002 6.80169Z" fill="white"/>
</svg>
