<svg width="253" height="69" viewBox="0 0 253 69" fill="none" xmlns="http://www.w3.org/2000/svg">
<path d="M93.1643 6.54059H88.3878L96.8096 28.5522H100.989L109.442 6.54059H104.697L98.915 22.7348L93.1643 6.54059Z" fill="#004280"./>
<path d="M126.221 10.8171V6.54059H111.482V28.5522H126.221V24.2757H115.945V19.3388H124.901V15.1251H115.945V10.8171H126.221Z" fill="#004280"./>
<path d="M141.248 20.4393C143.888 19.4645 145.742 17.1376 145.742 13.7415C145.742 9.21343 142.443 6.54059 138.294 6.54059H129.527V28.5522H133.989V20.9425H136.912L140.997 28.5522H145.931L141.248 20.4393ZM138.389 10.7228C140.086 10.7228 141.343 11.8548 141.343 13.7415C141.343 15.6282 140.086 16.7603 138.389 16.7603H133.989V10.7228H138.389Z" fill="#004280"./>
<path d="M153.354 6.54059H148.891V28.5522H153.354V6.54059ZM148.766 2.32694C148.766 3.74197 149.771 4.62244 151.091 4.62244C152.379 4.62244 153.448 3.74197 153.448 2.32694C153.448 0.911909 152.379 0 151.091 0C149.771 0 148.766 0.911909 148.766 2.32694Z" fill="#004280"./>
<path fill-rule="evenodd" clip-rule="evenodd" d="M1.28121 56.7419H3.24306C4.00377 56.7419 4.16392 56.954 4.16392 57.7599C4.16392 58.6082 3.80359 58.6931 3.04287 58.6931H1.28121V56.7419ZM3.44325 59.8383C4.84457 59.8383 5.44513 59.4141 5.44513 57.8448C5.44513 56.954 5.28498 56.2754 4.32408 56.1905V56.1481C5.12483 55.9361 5.28498 55.3847 5.28498 54.5788C5.28498 53.0094 4.64438 52.7549 3.32313 52.7549H0V59.8383H3.44325ZM1.28121 53.9001H3.08291C3.72351 53.9001 4.00377 53.9425 4.00377 54.706C4.00377 55.4695 3.84362 55.6816 3.12294 55.6816H1.28121V53.9001Z" fill="#004280"./>
<path fill-rule="evenodd" clip-rule="evenodd" d="M10.65 52.7549V57.8023C10.65 58.5658 10.3297 58.7355 9.1286 58.7355C7.88743 58.7355 7.64721 58.5234 7.64721 57.8023V52.7549H6.366V57.8023C6.366 59.7959 7.56713 59.9231 9.1286 59.9231C10.7702 59.9231 11.9312 59.7959 11.9312 57.8023V52.7549H10.65ZM8.64815 51.1431V51.9914H7.76732V51.1431H8.64815ZM10.4899 51.1431V51.9914H9.60906V51.1431H10.4899Z" fill="#004280"./>
<path fill-rule="evenodd" clip-rule="evenodd" d="M18.4974 52.7549H17.0561L15.4145 55.7664L13.813 52.7549H12.3316L14.7739 57.1237V59.8383H16.0551V57.1237L18.4974 52.7549Z" fill="#004280"./>
<path fill-rule="evenodd" clip-rule="evenodd" d="M23.2219 52.7549V57.8023C23.2219 58.5658 22.9016 58.7355 21.7005 58.7355C20.4593 58.7355 20.2191 58.5234 20.2191 57.8023V52.7549H18.9379V57.8023C18.9379 59.7959 20.139 59.9231 21.7005 59.9231C23.342 59.9231 24.5031 59.7959 24.5031 57.8023V52.7549H23.2219ZM21.26 51.1431V51.9914H20.3792V51.1431H21.26ZM23.1018 51.1431V51.9914H22.2209V51.1431H23.1018Z" fill="#004280"./>
<path fill-rule="evenodd" clip-rule="evenodd" d="M26.9054 52.7549H25.6242V59.8383H26.9054V56.7844H27.5059L29.9883 59.8383H31.5898L28.627 56.1905L31.3095 52.7549H29.748L27.5059 55.6391H26.9054V52.7549Z" fill="#004280"./>
<path fill-rule="evenodd" clip-rule="evenodd" d="M31.6699 57.5903V57.9296C31.6699 59.9655 32.9911 59.9231 34.4725 59.9231C36.1941 59.9231 37.0749 59.7534 37.0749 57.7599C37.0749 55.9361 36.5144 55.8512 34.4725 55.724C33.1512 55.6391 32.9911 55.5967 32.9911 54.7484C32.9911 53.9849 33.1913 53.8577 34.4725 53.8577C35.3533 53.8577 35.6736 53.9001 35.6736 54.6636V54.8757H36.9548V54.6636C36.9548 52.7973 35.8338 52.7549 34.4725 52.7549C32.871 52.7549 31.7099 52.7973 31.7099 54.7484C31.7099 56.8268 32.871 56.7419 34.3123 56.8268C35.3133 56.8692 35.8338 56.7419 35.8338 57.7599C35.8338 58.5658 35.6736 58.8203 34.5125 58.8203C33.3114 58.8203 32.9911 58.7779 32.9911 57.972V57.6327H31.6699V57.5903ZM34.6727 59.9655L33.6717 60.6017L33.912 61.0259L35.0731 60.5169L34.6727 59.9655Z" fill="#004280"./>
<path fill-rule="evenodd" clip-rule="evenodd" d="M39.1169 53.9001H42.4V52.7549H37.8357V59.8383H42.44V58.6506H39.1169V56.7844H42.2398V55.6816H39.1169V53.9001Z" fill="#004280"./>
<path fill-rule="evenodd" clip-rule="evenodd" d="M49.0863 52.7549H47.8051V55.6391H44.6821V52.7549H43.4009V59.8383H44.6821V56.8268H47.8051V59.8383H49.0863V52.7549Z" fill="#004280"./>
<path fill-rule="evenodd" clip-rule="evenodd" d="M51.4885 52.7549H50.2073V59.8383H51.4885V52.7549ZM51.2883 51.6945H50.4075V52.5428H51.2883V51.6945Z" fill="#004280"./>
<path fill-rule="evenodd" clip-rule="evenodd" d="M55.8126 57.5054C56.4132 57.5054 56.6534 57.9296 56.6534 58.5234V59.8383H57.9346V58.5234C57.9346 57.5054 57.6944 56.9964 56.8135 56.9116V56.8692C57.9346 56.6995 58.0147 55.9361 58.0147 54.8757C58.0147 53.2639 57.4542 52.7973 55.9728 52.7549H52.5695V59.8383H53.8507V57.5054H55.8126ZM53.8507 56.3178V53.9001H55.6525C56.5733 53.9001 56.7335 54.0698 56.7335 55.0877C56.7335 56.1057 56.4932 56.3178 55.5724 56.3178H53.8507Z" fill="#004280"./>
<path fill-rule="evenodd" clip-rule="evenodd" d="M15.6548 43.6356H14.9741V49.913H15.6548V43.6356ZM15.6548 42.8721H14.9741V43.5083H15.6548V42.8721Z" fill="#004280"./>
<path fill-rule="evenodd" clip-rule="evenodd" d="M22.1809 43.6356H17.7768V44.2718H21.3401L17.6566 49.2768V49.913H22.261V49.2768H18.4574L22.1809 44.3142V43.6356Z" fill="#004280"./>
<path fill-rule="evenodd" clip-rule="evenodd" d="M30.0683 44.187V49.913H30.749V43.6356H29.5879L27.5059 49.0223L25.3839 43.6356H24.2629V49.913H24.9035V44.187H24.9435L27.1856 49.913H27.8262L30.0683 44.187Z" fill="#004280"./>
<path fill-rule="evenodd" clip-rule="evenodd" d="M33.7518 43.6356H33.0712V49.913H33.7518V43.6356ZM33.7919 42.8721H33.1112V43.5083H33.7919V42.8721Z" fill="#004280"./>
<path fill-rule="evenodd" clip-rule="evenodd" d="M36.7546 47.4106H38.9167C39.7174 47.4106 39.9176 47.7923 39.9176 48.5982V49.9131H40.5983V48.2589C40.5983 47.5802 40.318 47.1985 39.6374 47.1136C40.5582 46.9864 40.6783 46.3502 40.6783 45.4594C40.6783 44.0173 40.1178 43.678 38.8366 43.678H36.114V49.9555H36.7947V47.4106H36.7546ZM36.7546 46.7743V44.2718H38.8366C39.8776 44.2718 39.9977 44.5687 39.9977 45.3746C39.9977 46.3926 39.8776 46.7319 38.8366 46.7743H36.7546Z" fill="#004280"./>
<path fill-rule="evenodd" clip-rule="evenodd" d="M3.24306 66.0309H5.44513C6.32596 66.0309 6.44608 66.4127 6.44608 67.261C6.44608 68.2365 6.08574 68.3214 5.36506 68.3214H3.24306V66.0309ZM5.7254 68.9152C6.72634 68.9152 7.12672 68.2789 7.12672 67.1761C7.12672 66.4127 7.0066 65.8188 6.20585 65.6492C6.80642 65.4371 6.92653 64.9705 6.92653 64.3343C6.92653 63.2315 6.6863 62.6801 5.56525 62.6801H2.56242V68.9576H5.7254V68.9152ZM3.24306 63.3163H5.24494C5.96562 63.3163 6.24589 63.4012 6.24589 64.2495C6.24589 65.225 5.96562 65.4371 5.16487 65.4371H3.24306V63.3163Z" fill="#004280"./>
<path fill-rule="evenodd" clip-rule="evenodd" d="M9.76921 63.3163H12.8921V62.6801H9.08856V68.9152H12.8921V68.3214H9.76921V66.0309H12.772V65.4371H9.76921V63.3163Z" fill="#004280"./>
<path fill-rule="evenodd" clip-rule="evenodd" d="M15.6948 62.6801H15.0141V68.9152H18.6976V68.3214H15.6948V62.6801Z" fill="#004280"./>
<path fill-rule="evenodd" clip-rule="evenodd" d="M21.0198 63.3163H24.1428V62.6801H20.3792V68.9152H24.1428V68.3214H21.0198V66.0309H24.0226V65.4371H21.0198V63.3163Z" fill="#004280"./>
<path fill-rule="evenodd" clip-rule="evenodd" d="M26.1847 68.9152H29.2276C30.9892 68.9152 31.1093 67.1761 31.1093 66.5823V65.0978C31.1093 62.7649 29.7881 62.6801 29.0674 62.6801H26.1847V68.9152ZM26.8653 63.3163H29.1875C30.3086 63.3163 30.4287 64.4616 30.4287 64.8433V66.4975C30.4287 67.6003 30.2685 68.3638 29.0674 68.3638H26.8653V63.3163Z" fill="#004280"./>
<path fill-rule="evenodd" clip-rule="evenodd" d="M33.912 62.6801H33.2313V68.9576H33.912V62.6801ZM33.952 61.9166H33.2714V62.5529H33.952V61.9166Z" fill="#004280"./>
<path fill-rule="evenodd" clip-rule="evenodd" d="M40.7584 62.6801H39.9577L38.196 65.6068L36.4343 62.6801H35.6736L37.8357 66.3278V68.9152H38.5163V66.3278L40.7584 62.6801Z" fill="#004280"./>
<path fill-rule="evenodd" clip-rule="evenodd" d="M42.9204 63.3163H46.0434V62.6801H42.2398V68.9152H46.0434V68.3214H42.9204V66.0309H45.9233V65.4371H42.9204V63.3163Z" fill="#004280"./>
<path fill-rule="evenodd" clip-rule="evenodd" d="M50.0071 66.0309C51.0882 66.1158 51.6087 65.9037 51.6087 67.1337C51.6087 68.3638 51.2483 68.3638 50.0071 68.3638C48.766 68.3638 48.4857 68.3638 48.5257 67.0065H47.8451C47.725 68.8303 48.4857 69 50.0071 69C51.4885 69 52.2893 68.9576 52.2893 67.1761C52.2893 65.4795 51.5686 65.5219 50.1673 65.4371C49.0462 65.3947 48.5257 65.5219 48.5257 64.2919C48.5257 63.4436 48.7259 63.2315 50.0071 63.2315C51.2483 63.2315 51.4485 63.2739 51.4885 64.3767H52.1692C52.2493 62.6801 51.3284 62.5953 50.0472 62.5953C48.6058 62.5953 47.8851 62.7649 47.8851 64.4191C47.8451 66.0733 48.846 65.9461 50.0071 66.0309Z" fill="#004280"./>
<path fill-rule="evenodd" clip-rule="evenodd" d="M54.9718 62.6801H54.2912V68.9576H54.9718V62.6801ZM55.0119 61.9166H54.3312V62.5529H55.0119V61.9166Z" fill="#004280"./>
<path fill-rule="evenodd" clip-rule="evenodd" d="M29.1074 5.29204C29.2275 5.29204 29.3076 5.29204 29.4277 5.29204C29.4277 5.37687 29.4277 5.50412 29.4277 5.58895C29.4678 5.63137 29.4678 5.63137 29.5479 5.63137C29.5879 5.63137 29.668 5.41929 29.668 5.41929C29.668 5.37687 29.6279 5.37687 29.6279 5.33446C29.668 5.29204 29.708 5.20721 29.708 5.1648C29.708 5.33446 29.708 5.50412 29.708 5.7162C29.708 5.75861 29.708 5.88586 29.708 5.92827C29.7881 5.92827 29.8682 5.97069 29.8281 6.05552C29.668 6.05552 29.5478 6.18277 29.5078 6.2676C29.5078 6.31001 29.5078 6.35243 29.5078 6.39484H29.4678C29.4678 6.77658 29.4678 7.20074 29.4678 7.58247C29.5078 7.58247 29.5478 7.58247 29.5879 7.58247C29.5879 7.58247 29.5879 7.58247 29.5879 7.62489C29.5879 7.62489 29.5879 7.62489 29.5479 7.62489C29.5479 7.62489 29.5479 7.62489 29.5479 7.66731H29.5078C29.5078 7.66731 29.5078 7.66731 29.5078 7.70972C29.4678 7.70972 29.4678 7.70972 29.4678 7.70972C29.4678 7.75214 29.5078 7.9218 29.5078 8.00663C29.4678 8.13387 29.5078 8.30354 29.5078 8.4732C29.5078 8.72769 29.5078 9.0246 29.5078 9.27909C29.5478 9.27909 29.6279 9.27909 29.668 9.27909C29.708 9.36392 29.748 9.40634 29.8281 9.49117C29.9082 9.49117 29.9883 9.49117 30.0683 9.49117L30.1084 9.53358C30.1484 9.53358 30.2285 9.53358 30.2685 9.53358C30.2685 9.576 30.2285 9.66083 30.2285 9.70325H30.2685C30.2685 9.74566 30.2285 9.78808 30.2285 9.87291C30.2685 9.87291 30.2685 9.87291 30.3086 9.87291C30.3086 9.91532 30.3086 10.0002 30.2685 10.0426C30.3886 10.0426 30.4687 10.0426 30.5888 10.0426C30.5888 10.0002 30.5488 9.91532 30.5488 9.87291C30.5888 9.87291 30.5888 9.87291 30.6289 9.87291C30.6289 9.83049 30.6289 9.74566 30.5888 9.70325C30.6289 9.70325 30.6289 9.70325 30.6689 9.70325C30.6689 9.66083 30.6289 9.576 30.6289 9.53358C30.6689 9.53358 30.7089 9.53358 30.749 9.53358C30.749 9.78808 30.749 10.0426 30.749 10.2546C30.789 10.2971 30.8291 10.2971 30.9091 10.3395V10.3819C30.8691 10.3819 30.8691 10.3819 30.8291 10.3819V10.4243C30.7089 10.4243 30.5088 10.594 30.5888 10.7212C30.5888 10.7636 30.6689 10.7636 30.7089 10.806C30.7089 10.8485 30.6689 10.8909 30.6289 10.9333C30.6289 11.0605 30.6289 11.1454 30.6289 11.2726H30.5888C30.5888 11.315 30.5888 11.315 30.5888 11.3574H30.6289C30.6289 12.2058 30.6289 13.0965 30.6289 13.9448H30.5888C30.5888 13.9872 30.5888 13.9872 30.5888 14.0296H30.6289C30.6289 14.1569 30.6289 14.2417 30.6289 14.3689H30.5888C30.5888 14.4114 30.6289 14.4538 30.6289 14.4962C30.6289 14.6234 30.6289 14.7507 30.6289 14.8779C30.5488 14.9203 30.3086 15.1324 30.4287 15.2597C30.4287 15.3021 30.3886 15.3021 30.3886 15.3445C30.3486 15.3445 30.3486 15.3445 30.3086 15.3445C30.3086 15.4717 30.3086 15.599 30.2685 15.6838C30.2685 15.6838 30.2685 15.6838 30.2285 15.6838C30.2285 17.338 30.2285 18.9498 30.2285 20.604C30.2685 20.604 30.2685 20.604 30.3086 20.604C30.3086 20.9009 30.3086 21.2402 30.3086 21.5371C30.2685 21.5796 30.2685 21.6644 30.2285 21.7492C30.2285 21.7916 30.2685 21.7916 30.2285 21.7916C30.1484 22.0885 30.2285 22.4703 30.2285 22.7672C30.3486 22.7672 30.4687 22.7672 30.5488 22.7672V22.8096H30.5088C30.5088 23.0217 30.5488 23.5731 30.4687 23.6579C30.3886 23.6579 30.3086 23.6579 30.2285 23.6579C30.2285 23.7427 30.2285 23.8276 30.2285 23.9124C30.3086 23.9124 30.3886 23.8276 30.4287 23.7852C30.3486 23.7852 30.3486 23.8276 30.3086 23.8276C30.3086 23.8276 30.3086 23.7852 30.3486 23.7852C30.3486 23.7852 30.3486 23.7427 30.3086 23.7427C30.3886 23.7427 30.3886 23.7427 30.3486 23.6579C30.3886 23.7003 30.4287 23.7003 30.4287 23.7427C30.4287 23.7003 30.4287 23.7003 30.4687 23.6579C30.5088 23.6579 30.5488 23.6579 30.5488 23.6579C30.5488 23.7003 30.5488 23.7003 30.5488 23.7427C30.5488 23.7852 30.4687 23.7852 30.4287 23.8276C30.3886 23.87 30.3886 23.87 30.3486 23.9124C30.3086 23.9124 30.3086 23.9124 30.2685 23.9124C30.2685 25.1425 30.2685 26.4149 30.2685 27.645C30.3086 27.645 30.3086 27.6874 30.3486 27.6874C30.3486 27.7722 30.3086 28.154 30.3486 28.1964C30.4287 28.2388 30.5888 28.1964 30.6289 28.154C30.6289 28.1115 30.5888 28.1115 30.5488 28.0691C30.6289 28.0691 30.6689 28.1115 30.7089 28.1115C30.789 28.1115 30.789 28.0267 30.789 27.9843C30.7089 27.9419 30.6689 27.9419 30.5888 27.9419C30.5888 27.8995 30.5888 27.8995 30.5888 27.857C30.6289 27.857 30.7089 27.857 30.749 27.8146C30.7089 27.8146 30.7089 27.7722 30.7089 27.7722C30.7089 27.7298 30.8291 27.6874 30.9091 27.6874C30.9492 27.6874 30.9892 27.7298 31.0292 27.7298C31.0292 27.7722 31.0292 27.7722 31.0292 27.8146C31.1093 27.8146 31.1494 27.857 31.1894 27.8995V27.9419C30.9892 27.9843 31.0292 28.1539 31.1894 28.1115C31.1894 28.1539 31.1894 28.1964 31.2294 28.2388C31.2695 28.2388 31.3095 28.2388 31.3496 28.2388L31.3896 28.1964C31.3896 28.154 31.3896 28.1539 31.3896 28.1115C31.4296 28.1115 31.4296 28.1115 31.5097 28.1115C31.5497 28.0691 31.5898 28.0267 31.5497 27.9843C31.5097 27.9843 31.4296 27.9419 31.4296 27.8995C31.4697 27.857 31.5097 27.857 31.5898 27.8146C31.5898 27.8146 31.5497 27.7722 31.5497 27.7298C31.5898 27.6874 31.6698 27.645 31.7099 27.6874C31.7499 27.6874 31.79 27.7298 31.83 27.7298C31.83 27.7722 31.83 27.7722 31.79 27.8146C31.87 27.8146 31.9101 27.857 31.9501 27.8995V27.9419C31.87 27.9419 31.83 27.9419 31.83 27.9843C31.79 28.0267 31.79 28.0691 31.83 28.1115C31.83 28.1539 31.9101 28.154 31.9501 28.154C31.9501 28.1964 31.9501 28.2388 31.9902 28.2388C32.0302 28.2812 32.1103 28.2812 32.1503 28.2388C32.1503 28.2388 32.1503 28.1964 32.1503 28.154C32.2304 28.154 32.2304 28.1539 32.2704 28.1115C32.2704 28.0691 32.3105 28.0267 32.2704 27.9843C32.2304 27.9843 32.1503 27.9419 32.1503 27.9419C32.1903 27.8995 32.2304 27.8995 32.2704 27.857C32.2704 27.857 32.2304 27.8146 32.2704 27.7722C32.2704 27.7298 32.3905 27.6874 32.4306 27.6874C32.4706 27.6874 32.5106 27.7298 32.5507 27.7298C32.5507 27.7722 32.5507 27.8146 32.5507 27.8146C32.6308 27.8146 32.6708 27.857 32.7108 27.8995C32.6708 27.9419 32.5907 27.9419 32.5907 27.9843C32.5106 28.0691 32.6308 28.154 32.7108 28.154C32.7108 28.1964 32.7108 28.1964 32.7509 28.2388C32.7909 28.2388 32.8309 28.2388 32.871 28.2388C32.911 28.2388 32.911 28.1964 32.911 28.154C32.9511 28.154 32.9911 28.1539 33.0311 28.1115C33.0311 28.0691 33.0712 28.0267 33.0311 27.9843C32.9911 27.9419 32.9511 27.9419 32.911 27.9419V27.8995C32.9511 27.857 33.0311 27.857 33.1112 27.8146C33.1112 27.8146 33.0712 27.8146 33.0712 27.7722V27.7298C33.0712 27.6874 33.1512 27.6874 33.1913 27.645C33.1913 27.8995 33.1913 28.154 33.1913 28.4084C33.2313 28.4509 33.2714 28.4509 33.3114 28.5357C33.2714 28.5357 33.2714 28.5357 33.2714 28.5781C33.2313 28.5781 33.2313 28.6205 33.1913 28.6205C33.1112 28.6205 33.0712 28.6205 32.9911 28.6205C32.9911 28.6629 32.9511 28.6629 32.9511 28.7053C32.9511 28.7478 32.9511 28.7902 32.9511 28.7902C32.871 28.8326 32.911 29.0023 32.911 29.1295C32.911 29.4688 32.911 29.8082 32.911 30.1051C32.9511 30.1051 32.9511 30.1051 32.9511 30.1475C32.911 30.1899 32.9511 30.3171 32.911 30.402C32.871 30.402 32.871 30.402 32.871 30.4444C32.871 30.4868 32.911 30.5292 32.911 30.5292H32.871C32.871 31.0806 32.871 31.6744 32.871 32.2258C32.871 32.2258 32.911 32.2258 32.911 32.2682C32.911 32.3107 32.911 32.3531 32.911 32.3955C32.9511 32.4379 32.9511 32.4379 32.9511 32.5652C33.1512 32.4803 33.5917 32.3531 33.5516 32.0986C33.5116 32.0986 33.5116 32.0986 33.5116 32.0562V32.0138C33.5116 31.9713 33.5516 32.0138 33.5516 31.9713C33.5116 31.9713 33.4315 31.9289 33.3915 31.9289C33.3915 31.8865 33.3915 31.8865 33.3915 31.8865C33.4315 31.8441 33.5116 31.8441 33.5516 31.8017C33.5516 31.7168 33.5917 31.7168 33.5917 31.6744C33.6317 31.5896 33.4715 31.3775 33.5116 31.3351C33.5516 31.2503 33.5917 31.1654 33.6717 31.0806C33.7118 31.1654 33.7518 31.2503 33.7919 31.3351C33.7518 31.4199 33.7518 31.5048 33.7118 31.5472C33.7118 31.632 33.7518 31.7168 33.7518 31.8017C33.7919 31.8017 33.8719 31.8441 33.912 31.8865V31.9289C33.8719 31.9713 33.7518 31.9713 33.7518 32.0138C33.7919 32.0138 33.7919 32.0138 33.7919 32.0562V32.0986C33.6717 32.141 33.7919 32.3531 33.8719 32.3955C34.3924 32.5227 34.993 33.0317 34.993 33.6255C35.033 33.6255 35.0731 33.6255 35.1131 33.6255C35.1531 33.371 35.3934 33.371 35.4334 33.6255C35.4734 33.6255 35.4734 33.6255 35.5135 33.6255C35.5135 33.668 35.5135 33.7104 35.5135 33.7528C35.3934 33.7528 35.3934 33.88 35.4334 33.9649C35.4734 33.9649 35.4734 33.9649 35.5135 33.9649C35.5935 33.9224 35.5935 33.7952 35.6336 33.7528C35.6336 33.7952 35.6736 33.7952 35.6736 33.8376C35.6736 33.88 35.6736 33.9224 35.6736 33.9649C35.7137 33.9649 35.7937 34.0073 35.8338 33.9649C35.9138 33.88 35.8338 33.7952 35.7537 33.7528C35.7537 33.7104 35.7537 33.668 35.7537 33.6255C35.7937 33.6255 35.7937 33.6255 35.8338 33.6255C35.8338 33.5407 35.8738 33.4559 35.9939 33.4135C35.9939 33.668 35.9939 33.88 35.9939 34.1345C36.034 34.1345 36.074 34.1769 36.074 34.1769C36.074 34.2194 36.074 34.2194 36.074 34.2618C36.034 34.3466 35.9138 34.3042 35.8338 34.389C35.8338 34.4314 35.8738 34.4738 35.8738 34.4738H35.8338C35.8338 34.4738 35.8338 34.4739 35.8338 34.5163H35.7937C35.7937 34.5587 35.7937 34.6011 35.8338 34.6011C35.8338 35.2797 35.8338 35.9584 35.8338 36.637C35.8338 36.7643 35.8338 36.8491 35.8338 36.9764V37.0188C35.7937 37.0612 35.7937 37.0612 35.7537 37.1036C35.7137 37.1884 35.7937 37.3157 35.6736 37.3581C35.6336 37.3581 35.6336 37.3581 35.5935 37.3581C35.5935 37.5278 35.5935 37.7398 35.5935 37.9095C35.5935 38.3337 35.5935 38.8002 35.5935 39.2244C35.5935 39.2668 35.6336 39.2668 35.6336 39.3516C35.6736 39.3516 35.7137 39.3516 35.7137 39.3516C35.7137 39.394 35.7137 39.4365 35.7137 39.4365C35.7537 39.4365 35.7937 39.4789 35.7937 39.4789C35.7937 39.5637 35.7937 39.6061 35.7937 39.6909C35.7937 39.6909 35.7537 39.7334 35.7537 39.7758C35.7537 39.8182 35.7937 39.8182 35.7937 39.8606C35.7937 39.903 35.7937 39.9879 35.7937 40.0727C35.9138 40.0727 36.114 40.0727 36.1541 40.1151C36.1541 40.1151 36.1541 40.1151 36.114 40.1151V40.1575C36.034 40.1575 35.8338 40.2848 35.8738 40.412C35.9138 40.4544 35.9138 40.4968 35.9138 40.5817C35.8738 40.7089 35.7937 40.7513 35.6736 40.8362C35.7137 40.8786 35.6736 40.921 35.6736 40.9634C36.7546 40.9634 37.8757 40.9634 38.9567 40.9634C38.9567 41.0482 38.9567 41.1755 38.9567 41.2603C39.277 41.2603 39.5973 41.2603 39.9176 41.2603C39.9176 41.3451 39.9176 41.43 39.9176 41.5572C40.2379 41.5572 40.5582 41.5572 40.8785 41.5572C40.8785 41.6421 40.8785 41.7269 40.8785 41.8541C32.2704 41.8541 23.7023 41.8541 15.0942 41.8541C15.0942 41.7693 15.0942 41.6845 15.0942 41.5572C15.4145 41.5572 15.7348 41.5572 16.0551 41.5572C16.0551 41.4724 16.0551 41.3876 16.0551 41.2603C16.3754 41.2603 16.6957 41.2603 17.016 41.2603C17.016 41.1755 17.016 41.0482 17.016 40.9634C18.0971 40.9634 19.2181 40.9634 20.2991 40.9634C20.2991 40.921 20.2991 40.8362 20.2991 40.7937C20.179 40.7513 20.0589 40.6241 20.0589 40.4968C20.0589 40.4544 20.0989 40.4544 20.0989 40.412C20.179 40.2848 19.9388 40.1999 19.8587 40.1575V40.1151H19.8187C19.8988 40.0727 20.0589 40.0727 20.179 40.0727C20.179 39.9879 20.179 39.9454 20.179 39.8606C20.179 39.8606 20.2191 39.8182 20.2191 39.7758C20.2191 39.7334 20.179 39.7334 20.179 39.6909C20.179 39.6061 20.179 39.5637 20.179 39.4789C20.2191 39.4789 20.2591 39.4365 20.2591 39.4365C20.2591 39.394 20.2591 39.3516 20.2991 39.3092C20.3392 39.3092 20.3392 39.3092 20.3792 39.3092C20.3792 39.2668 20.4192 39.2244 20.4192 39.182C20.4192 39.0123 20.4192 38.8002 20.4192 38.6306C20.4192 38.3761 20.4192 38.164 20.4192 37.9095C20.4192 37.7822 20.4192 37.655 20.4192 37.5278C20.4192 37.4429 20.4192 37.3581 20.4192 37.2733C20.3792 37.2733 20.3792 37.2733 20.3392 37.2733C20.2191 37.2309 20.2991 37.1036 20.2591 37.0188C20.2191 36.9764 20.2191 36.9764 20.179 36.9339V36.8915C20.179 36.7643 20.179 36.6794 20.179 36.5522C20.179 35.8736 20.179 35.1949 20.179 34.5587C20.179 34.5163 20.2191 34.5163 20.2191 34.4738H20.179C20.179 34.4738 20.179 34.4738 20.179 34.4314H20.139C20.139 34.389 20.179 34.3466 20.179 34.3466C20.139 34.2618 20.0189 34.2618 19.9388 34.2194C19.9388 34.1345 19.9788 34.1345 20.0589 34.0921C20.0589 33.8376 20.0589 33.6255 20.0589 33.371C20.179 33.371 20.2191 33.4559 20.2191 33.5831C20.2591 33.5831 20.2591 33.5831 20.2991 33.5831C20.2991 33.6255 20.2991 33.668 20.2991 33.7104C20.2191 33.7104 20.2191 33.7952 20.2191 33.88C20.2591 33.9224 20.3792 33.9224 20.4192 33.88C20.4593 33.7952 20.4192 33.7528 20.4593 33.7104C20.4993 33.7952 20.4993 33.9224 20.5794 33.9224C20.6194 33.9224 20.6595 33.9224 20.6995 33.88C20.7395 33.7952 20.6995 33.7104 20.6194 33.7104C20.6194 33.668 20.6194 33.6255 20.6194 33.5831C20.6595 33.5831 20.6595 33.5831 20.6995 33.5831C20.6995 33.4983 20.7395 33.4135 20.8196 33.4135C20.9397 33.371 21.0198 33.4983 21.0198 33.5831C21.0599 33.5831 21.0999 33.5831 21.1399 33.5831C21.1399 33.1166 21.5003 32.7348 21.8206 32.5227C21.9006 32.4803 22.0208 32.4379 22.1008 32.3531C22.261 32.2682 22.3811 32.2682 22.3811 32.0562C22.3411 32.0562 22.3411 32.0562 22.3411 32.0138V31.9713H22.3811C22.301 31.9713 22.261 31.9289 22.2209 31.9289C22.2209 31.8865 22.2209 31.8865 22.261 31.8441C22.301 31.8441 22.3411 31.8017 22.3811 31.8017C22.3811 31.7168 22.4211 31.632 22.4211 31.5472C22.3811 31.4624 22.3811 31.4199 22.3411 31.3351C22.3811 31.2503 22.4211 31.1654 22.4612 31.0806C22.5012 31.1654 22.5412 31.2503 22.6213 31.3351C22.6614 31.4199 22.5012 31.5896 22.5412 31.6744L22.5813 31.7168C22.5813 31.7593 22.5813 31.8017 22.5813 31.8017C22.6213 31.8441 22.7014 31.8441 22.7414 31.8865C22.7414 31.9289 22.7414 31.9289 22.7414 31.9289C22.7014 31.9289 22.6213 31.9713 22.5813 31.9713C22.6213 31.9713 22.6213 31.9713 22.6213 32.0138V32.0562H22.5813C22.5412 32.3107 22.9416 32.4379 23.1819 32.5227C23.1819 32.3955 23.1819 32.4379 23.2219 32.3531C23.2219 32.3107 23.2219 32.2682 23.2219 32.2258C23.2219 32.2258 23.2619 32.2258 23.2619 32.1834C23.2619 31.8017 23.2619 31.4199 23.2619 31.0382C23.2619 30.8685 23.2619 30.6989 23.2619 30.4868C23.2619 30.4868 23.2219 30.4868 23.2219 30.4444C23.2619 30.402 23.2619 30.3596 23.2619 30.3596C23.2219 30.3596 23.2219 30.3596 23.2219 30.3171C23.1819 30.2323 23.2219 30.1899 23.2219 30.1051C23.2219 30.1051 23.1819 30.1051 23.1819 30.0626C23.2219 30.0626 23.1819 30.0626 23.2219 30.0626C23.2219 29.7233 23.2219 29.4264 23.2219 29.0871C23.2219 28.9598 23.2619 28.7902 23.1418 28.7478C23.1418 28.6629 23.1418 28.6205 23.1018 28.5781C23.0617 28.5781 22.9817 28.5781 22.9416 28.5781C22.9016 28.5781 22.9016 28.5357 22.8615 28.5357C22.8615 28.4933 22.8615 28.4933 22.8215 28.4933C22.8615 28.4509 22.9016 28.4509 22.9416 28.4084C22.9416 28.154 22.9416 27.8995 22.9416 27.645C22.9817 27.645 23.0217 27.6874 23.0617 27.7298C23.0617 27.7722 23.0617 27.7722 23.0217 27.7722C23.1018 27.7722 23.1819 27.8146 23.2219 27.857C23.2219 27.8995 23.2219 27.8995 23.1819 27.8995C23.1418 27.8995 23.1018 27.8995 23.1018 27.9419C23.0617 27.9843 23.0617 28.0691 23.1018 28.1115C23.1418 28.1115 23.1819 28.1539 23.2219 28.1115C23.2219 28.1539 23.2219 28.154 23.2619 28.1964C23.302 28.1964 23.382 28.1964 23.4221 28.1964C23.4221 28.154 23.4221 28.1539 23.4221 28.1115C23.5422 28.1115 23.6223 28.0267 23.5422 27.9419C23.5022 27.8995 23.4221 27.8995 23.4221 27.8995C23.4621 27.8146 23.5022 27.857 23.5822 27.8146C23.5422 27.8146 23.5422 27.7722 23.5422 27.7722C23.5822 27.7298 23.6223 27.7298 23.6623 27.6874C23.7023 27.7298 23.7424 27.7298 23.7824 27.7722C23.7824 27.8146 23.7824 27.8146 23.7424 27.857C23.7824 27.8995 23.8625 27.8995 23.9025 27.9419C23.9025 27.9419 23.9025 27.9419 23.9025 27.9843C23.8625 27.9843 23.8225 27.9843 23.7824 28.0267C23.7424 28.0691 23.7824 28.1115 23.8225 28.154C23.8625 28.154 23.8625 28.154 23.9025 28.154C23.9025 28.1964 23.9025 28.2388 23.9426 28.2388C23.9826 28.2812 24.0627 28.2812 24.1027 28.2388C24.1027 28.2388 24.1027 28.1964 24.1027 28.154C24.1828 28.154 24.2228 28.1539 24.2228 28.1115C24.2228 28.0691 24.2228 28.0267 24.1828 27.9843C24.1428 27.9843 24.1027 27.9843 24.0226 27.9419V27.8995C24.0627 27.857 24.1428 27.857 24.1828 27.8146C24.1428 27.8146 24.1428 27.7722 24.1828 27.7298C24.2228 27.7298 24.2629 27.6874 24.3029 27.6874C24.383 27.7298 24.5031 27.7298 24.423 27.8146C24.4631 27.857 24.5431 27.857 24.5832 27.8995C24.4631 27.8995 24.383 28.0691 24.5031 28.1115C24.5431 28.1115 24.5832 28.1115 24.5832 28.1115C24.5832 28.1539 24.5832 28.154 24.5832 28.1964C24.5832 28.1964 24.6232 28.1964 24.6232 28.2388C24.6632 28.2388 24.7033 28.2388 24.7433 28.2388C24.7433 28.1964 24.7433 28.1964 24.7433 28.154C24.8234 28.1964 24.9035 28.1115 24.8634 28.0267C24.8234 27.9843 24.7834 27.9843 24.7433 27.9419V27.8995C24.7834 27.857 24.8234 27.857 24.9035 27.8146C24.9035 27.7722 24.9035 27.7722 24.9035 27.7298C24.9435 27.6874 24.9835 27.6874 25.0236 27.6874C25.1037 27.6874 25.1837 27.7298 25.2238 27.7722C25.1837 27.7722 25.1837 27.8146 25.1437 27.8146C25.2238 27.8146 25.3039 27.8146 25.3439 27.857C25.3439 27.8995 25.3439 27.8995 25.3439 27.8995C25.2638 27.9419 25.1837 27.8995 25.1437 27.9843C25.1037 28.0267 25.1437 28.0691 25.1837 28.1115H25.2238C25.3039 28.1115 25.3039 28.0691 25.3839 28.0691C25.3439 28.0691 25.2638 28.1115 25.3039 28.154C25.3439 28.2388 25.504 28.2388 25.5841 28.2388C25.5841 28.0691 25.5841 27.8995 25.5841 27.7298C25.6242 27.7298 25.6242 27.7298 25.6642 27.6874C25.6642 26.7967 25.6642 25.9059 25.6642 25.0576C25.6642 24.6759 25.6642 24.3366 25.6642 23.9548H25.5841C25.5441 23.9124 25.5441 23.9124 25.504 23.87C25.464 23.8276 25.3839 23.7852 25.3439 23.7852C25.3439 23.7427 25.3439 23.7427 25.3439 23.7003C25.3839 23.7003 25.3839 23.7003 25.424 23.7003C25.464 23.7003 25.464 23.7427 25.464 23.7852C25.504 23.7852 25.5441 23.7427 25.5441 23.7003C25.5441 23.7427 25.5441 23.7427 25.504 23.7852C25.5441 23.7852 25.5441 23.7852 25.5841 23.7852C25.5841 23.7852 25.5841 23.8276 25.5441 23.8276C25.5441 23.8276 25.5441 23.87 25.5841 23.87C25.5441 23.87 25.504 23.7852 25.424 23.8276C25.464 23.87 25.5441 23.9548 25.6242 23.9548C25.6242 23.87 25.6242 23.7852 25.6242 23.7003C25.504 23.7003 25.3839 23.7003 25.3039 23.6579C25.3039 23.361 25.3039 23.1065 25.3039 22.8096H25.2638V22.7672C25.3839 22.7672 25.504 22.7672 25.5841 22.7672C25.5841 22.4703 25.6242 22.0461 25.5841 21.7916C25.5841 21.7492 25.6242 21.7492 25.5841 21.7492C25.5841 21.6644 25.5441 21.622 25.504 21.5371C25.504 21.2402 25.504 20.9009 25.504 20.604C25.5441 20.604 25.5441 20.604 25.5841 20.604C25.5841 18.9498 25.5841 17.338 25.5841 15.6838C25.5841 15.6838 25.5841 15.6838 25.5441 15.6838C25.504 15.599 25.504 15.4717 25.504 15.3445C25.464 15.3445 25.424 15.3445 25.424 15.3445L25.3839 15.3021C25.504 15.1748 25.2638 14.9628 25.1837 14.9203C25.1837 14.7931 25.1837 14.6659 25.1837 14.5386C25.1837 14.4962 25.2238 14.4538 25.2238 14.4114H25.1837C25.1837 14.2841 25.1837 14.1993 25.1837 14.072H25.2238C25.2238 14.0296 25.2238 14.0296 25.2238 13.9872H25.1837C25.1837 13.1389 25.1837 12.2482 25.1837 11.3999H25.2238C25.2238 11.3574 25.2238 11.3574 25.2238 11.315H25.1837C25.1837 11.1878 25.1837 11.103 25.1837 10.9757C25.1837 10.9757 25.1437 10.9333 25.1037 10.8909C25.1037 10.8485 25.1037 10.8485 25.1437 10.8485C25.1837 10.8485 25.1837 10.806 25.2238 10.806C25.2238 10.6364 25.1037 10.5516 24.9835 10.5091V10.4667C24.9435 10.4667 24.9435 10.4667 24.9035 10.4667V10.4243C24.9435 10.3819 24.9835 10.3819 25.0636 10.3395C25.0636 10.085 25.0636 9.83049 25.0636 9.61841C25.1037 9.61841 25.1437 9.61841 25.1837 9.61841C25.1837 9.66083 25.1437 9.74566 25.1437 9.78808C25.1837 9.78808 25.1837 9.78808 25.2238 9.78808C25.2238 9.83049 25.2238 9.91532 25.1837 9.95774C25.2238 9.95774 25.2238 9.95774 25.2638 9.95774C25.2638 10.0002 25.2238 10.085 25.2238 10.1274C25.3439 10.1274 25.424 10.1274 25.5441 10.1274C25.5441 10.085 25.5441 10.0002 25.504 9.95774C25.5441 9.95774 25.5441 9.95774 25.5841 9.95774C25.5841 9.91532 25.5441 9.87291 25.5441 9.78808C25.5841 9.78808 25.5841 9.78808 25.6242 9.78808C25.6242 9.74566 25.5841 9.66083 25.5841 9.61841C25.6242 9.61841 25.7042 9.61841 25.7443 9.61841L25.7843 9.576C25.8644 9.576 25.9845 9.576 26.0245 9.576C26.0646 9.53358 26.1046 9.44875 26.1847 9.40634C26.2247 9.40634 26.3048 9.40634 26.3448 9.40634C26.3448 9.15185 26.3448 8.85494 26.3448 8.60044C26.3448 8.4732 26.3448 8.26112 26.3448 8.17629C26.3448 8.13387 26.3849 7.9218 26.3849 7.87938H26.3448C26.3448 7.87938 26.3448 7.87938 26.3448 7.83697H26.3048C26.3048 7.83697 26.3048 7.83697 26.3048 7.79455C26.3048 7.79455 26.3048 7.79455 26.2648 7.79455C26.2648 7.79455 26.2648 7.79455 26.2648 7.75214C26.3048 7.75214 26.3448 7.75214 26.3849 7.75214C26.3849 7.3704 26.3849 6.94624 26.3849 6.5645H26.3448C26.3448 6.31001 26.3048 6.2676 26.0646 6.22518C26.0646 6.14035 26.1446 6.09794 26.2247 6.09794C26.2247 5.84344 26.2247 5.63137 26.2247 5.37687C26.2648 5.41929 26.3048 5.4617 26.3048 5.54653C26.3048 5.58895 26.2648 5.58895 26.2648 5.63137C26.2648 5.67378 26.3048 5.67378 26.3048 5.7162C26.3448 5.80103 26.3048 5.84344 26.4249 5.88586C26.545 5.84344 26.505 5.67378 26.505 5.54653C26.6251 5.54653 26.7052 5.54653 26.8253 5.54653C26.8253 5.03755 27.1055 4.65581 27.4258 4.44373C27.6661 4.27407 27.9864 4.27407 27.9864 3.93475C27.9864 3.93475 27.9463 3.93475 27.9463 3.89233C27.9463 3.84992 27.9864 3.84992 27.9864 3.8075V3.76509C27.8663 3.76509 27.7862 3.55301 27.9063 3.46818C27.8663 3.46818 27.8663 3.46818 27.8663 3.42576C27.9063 3.42576 27.9864 3.38335 28.0264 3.38335V3.34093C27.9864 3.34093 27.9864 3.34093 27.9463 3.29852C27.9864 3.2561 27.9864 3.29852 28.0264 3.2561C27.8262 3.00161 28.0264 3.08644 28.0264 2.87436C27.9864 2.87436 27.9463 2.87436 27.9463 2.83195C27.9463 2.74712 28.0264 2.78953 28.0665 2.7047C28.0264 2.7047 27.9864 2.7047 27.9864 2.66229C27.9864 2.57746 28.0665 2.57746 28.1065 2.53504C28.1065 2.19572 28.1065 1.81398 28.1065 1.47465C27.9864 1.47465 27.8663 1.26258 27.9864 1.17775C27.9463 1.26258 27.9864 1.43224 28.1465 1.43224C27.9864 1.09292 28.0264 1.00809 27.9864 0.880839C27.9864 0.880839 27.9864 0.880839 28.0264 0.880839C28.0665 1.00809 28.0264 1.13533 27.9063 1.17775C27.9063 1.51707 27.9063 1.89881 27.9063 2.23813C27.9463 2.28055 27.9864 2.28055 28.0264 2.36538C27.9864 2.40779 27.9864 2.40779 27.9063 2.40779V2.45021C27.9463 2.45021 27.9864 2.45021 27.9864 2.49262C27.9864 2.49262 27.9864 2.53504 27.9864 2.57746C27.9864 2.61987 27.9463 2.61987 27.9063 2.61987C27.9063 2.7047 28.0264 2.74712 28.0264 2.83195C28.0264 2.91678 27.9463 2.95919 27.9463 3.04403C27.9864 3.04403 27.9864 3.04403 28.0264 3.08644C28.0264 3.08644 28.0264 3.08644 28.0264 3.12886C27.9864 3.12886 27.9864 3.12886 27.9864 3.17127C28.0264 3.17127 28.1065 3.21369 28.1465 3.21369C28.1465 3.2561 28.1065 3.2561 28.1465 3.2561C28.1866 3.38335 28.1465 3.5106 28.0264 3.55301C28.0264 3.59543 28.0264 3.59543 28.0665 3.63784C28.0665 3.68026 28.0264 3.68026 28.0264 3.72267C28.0665 3.8075 28.0665 3.89233 28.1065 3.97716C28.1465 4.01958 28.2666 4.062 28.3467 4.062C28.4668 4.10441 28.5469 4.18924 28.667 4.23166C28.8672 4.44373 29.1074 4.78306 29.1074 5.29204Z" fill="#004280"./>
<path fill-rule="evenodd" clip-rule="evenodd" d="M23.5022 32.5227C23.5022 32.3955 23.5022 32.2682 23.4621 32.1834V30.4868C23.4621 30.4444 23.5022 30.3596 23.5022 30.3171C23.5422 30.3171 23.5422 30.3171 23.5822 30.3171C23.5422 30.2323 23.5822 30.1475 23.6223 30.1051H23.5822L23.6223 30.0202L23.5422 29.9354C23.4621 29.8081 23.5422 29.6809 23.6223 29.6385C23.6223 29.5961 23.5822 29.5961 23.5422 29.5537C23.5022 29.384 23.6223 29.2992 23.7424 29.2143C23.9426 29.2992 23.8625 29.5112 23.7023 29.5961C23.7824 29.6809 23.9426 29.7233 23.8625 29.893C23.8225 29.9354 23.8225 29.9778 23.7424 29.9778L23.7824 30.1051C23.7424 30.1051 23.7424 30.1051 23.7424 30.1051L23.7824 30.1475C23.7824 30.1899 23.7824 30.2747 23.7824 30.3171C23.8225 30.3171 23.8225 30.3171 23.8625 30.3171C23.8625 30.3171 23.8625 30.3171 23.9025 30.3596C23.9426 30.3596 23.9426 30.3596 23.9426 30.3596C23.9426 30.8685 23.9426 31.5896 23.9426 32.1834C23.9025 32.1834 23.9025 32.1834 23.9025 32.2258H23.8225C23.8225 32.3107 23.8225 32.3531 23.7824 32.3955C23.7824 32.4379 23.7824 32.5227 23.7824 32.5651H23.5022V32.5227Z" fill="white"./>
<path fill-rule="evenodd" clip-rule="evenodd" d="M24.2629 32.2258C24.2228 32.0138 24.2629 31.7168 24.2629 31.5048C24.2629 31.123 24.2228 30.6565 24.3029 30.3171C24.343 30.3171 24.343 30.3171 24.383 30.3171C24.383 30.2323 24.383 30.1475 24.423 30.0626H24.383L24.423 29.9354C24.3029 29.9354 24.2629 29.7657 24.343 29.6385L24.4631 29.5537C24.4631 29.5112 24.423 29.5112 24.423 29.4688C24.343 29.2992 24.5031 29.1719 24.6232 29.1295C24.7834 29.2567 24.7834 29.4264 24.5832 29.5112C24.7033 29.6385 24.9035 29.7233 24.6633 29.893C24.6633 29.893 24.6633 29.9778 24.7033 30.0202H24.6633L24.7033 30.0626C24.7033 30.1051 24.6633 30.1899 24.7033 30.2323C24.7033 30.2323 24.7433 30.2323 24.7834 30.2323L24.8234 30.2747H24.8634V32.0986C24.8234 32.0986 24.8234 32.0986 24.8234 32.141H24.7433V32.2682L24.6633 32.3107V32.4379H24.5031V32.3107L24.423 32.2682V32.2258H24.2629Z" fill="white"./>
<path fill-rule="evenodd" clip-rule="evenodd" d="M30.8291 32.2258H30.749C30.749 32.1834 30.749 32.1834 30.7089 32.1834C30.7089 31.5896 30.7089 30.8685 30.7089 30.3596H30.749C30.749 30.3596 30.749 30.3171 30.789 30.3171C30.8291 30.3171 30.8691 30.3171 30.8691 30.3171C30.9091 30.2747 30.9091 30.1899 30.8691 30.1051L30.9091 30.0626H30.8691L30.9091 29.9778C30.7089 29.9354 30.789 29.6809 30.9492 29.6385V29.5961C30.8691 29.5112 30.749 29.4264 30.8291 29.2992C30.8691 29.2567 30.8691 29.2143 30.9091 29.2143C31.0693 29.3416 31.1494 29.4264 31.0292 29.5961L31.1494 29.6809C31.2294 29.7657 31.1494 29.9354 31.0693 29.9778L31.1093 30.1051H31.0693C31.1093 30.1899 31.1093 30.2323 31.1093 30.3596C31.2695 30.3596 31.2294 30.6565 31.2294 30.7837V31.7168C31.2294 31.8865 31.2294 32.0986 31.2294 32.2258H31.1494V32.3531L31.1093 32.3955C31.0693 32.4379 31.1093 32.5227 31.1093 32.5227H30.9492V32.3955L30.8291 32.3531V32.2258Z" fill="white"./>
<path fill-rule="evenodd" clip-rule="evenodd" d="M31.6298 32.2258H31.5497C31.5497 32.1834 31.5497 32.1834 31.5097 32.1834C31.5097 31.5896 31.5097 30.8685 31.5097 30.3596H31.5497V30.3171C31.5898 30.3171 31.5898 30.3171 31.6298 30.3171C31.6298 30.2323 31.6698 30.1899 31.6298 30.1051L31.6699 30.0626C31.6699 30.0626 31.6698 30.0626 31.6298 30.0626L31.6699 29.9354C31.6298 29.9354 31.5898 29.893 31.5497 29.8506C31.4697 29.6809 31.6698 29.6809 31.7099 29.5961C31.5898 29.4688 31.4697 29.3416 31.6699 29.2143C31.79 29.2568 31.9101 29.384 31.83 29.5537C31.83 29.5961 31.79 29.5961 31.79 29.6385L31.87 29.7233C31.9501 29.8506 31.87 29.9778 31.79 30.0202L31.83 30.1051H31.79C31.83 30.1475 31.83 30.2323 31.83 30.3596C31.87 30.3596 31.87 30.3596 31.9101 30.3596C31.9902 30.5292 31.9501 30.8261 31.9501 31.0382V32.2258C31.9101 32.3107 31.9101 32.4379 31.9101 32.5651H31.6298V32.3531C31.5898 32.3531 31.6298 32.2682 31.6298 32.2258Z" fill="white"./>
<path fill-rule="evenodd" clip-rule="evenodd" d="M20.5794 37.3581H20.7395C20.7796 37.2733 20.7395 37.0612 20.8196 37.0188C20.8196 36.9764 20.7796 36.9764 20.7395 36.9764L20.8196 36.7643C20.7395 36.6795 20.6595 36.5946 20.6194 36.5098C20.4192 35.9584 20.9798 35.4918 21.3401 35.3222C21.6204 35.5766 21.8206 35.7463 21.9407 36.1281C21.9807 36.2553 21.9807 36.425 21.9807 36.5946L21.9407 36.8491L22.0208 37.0188H21.9006L21.9407 37.1036C21.9407 37.146 21.9407 37.146 21.9006 37.146C21.9006 37.1884 21.9407 37.2733 21.9407 37.4005C21.9807 37.4005 21.9807 37.4429 22.0608 37.4429C22.1008 37.655 22.1008 38.0792 22.1008 38.3761C22.0208 38.3761 21.9807 38.4185 21.9407 38.4185L21.8206 38.3761H21.5403V38.4185C21.6604 38.5457 21.8606 38.7154 22.1008 38.7578V39.2668C22.1008 39.3092 22.0608 39.3516 22.0608 39.394H21.9807C21.9407 39.4365 21.9407 39.4365 21.9407 39.5213H21.4202V39.394H21.3401C21.3401 39.3516 21.3401 39.3092 21.3401 39.2668C21.3001 39.2244 21.22 39.182 21.1399 39.1395C21.0599 39.2244 20.9798 39.2244 20.9798 39.3516H20.8997V39.4789H20.7395V39.394C20.6995 39.394 20.6995 39.3516 20.6194 39.3516C20.6194 39.3092 20.5794 39.2668 20.5794 39.2244V38.6306C20.5794 38.2064 20.5794 37.7823 20.5794 37.3581Z" fill="white"./>
<path fill-rule="evenodd" clip-rule="evenodd" d="M33.5516 36.9764C33.5516 37.0188 33.5516 37.0188 33.5516 36.9764C33.5116 37.0188 33.5116 37.0612 33.5116 37.1036C33.5516 37.1036 33.5116 37.1036 33.5516 37.1036C33.5516 37.146 33.5516 37.146 33.5116 37.1884C33.5116 37.2309 33.5116 37.3157 33.5116 37.3581C33.4715 37.4005 33.4315 37.3581 33.3915 37.4005C33.3514 37.4429 33.3915 37.5702 33.3915 37.6126C33.3514 37.8247 33.3514 38.0792 33.3514 38.3337C33.4315 38.3337 33.4715 38.3761 33.5116 38.3761C33.5516 38.3761 33.5917 38.3761 33.6317 38.3337C33.6717 38.3337 33.912 38.3337 33.912 38.3337V38.3761C33.8719 38.4185 33.7919 38.4609 33.7518 38.5033C33.6317 38.5882 33.5116 38.6306 33.3514 38.7154C33.3514 38.8002 33.3514 39.2244 33.3514 39.2244C33.3915 39.2668 33.3915 39.2668 33.3915 39.3092C33.4715 39.3092 33.4715 39.3092 33.5116 39.3516C33.5116 39.394 33.5116 39.394 33.5116 39.4365C33.6717 39.4365 33.8719 39.4365 34.0321 39.4365C34.0321 39.394 34.0321 39.3516 34.0321 39.3092C34.0721 39.3092 34.1122 39.3092 34.1122 39.3092C34.0721 39.2668 34.1122 39.2244 34.1122 39.182C34.1522 39.182 34.2323 39.0971 34.2723 39.0971C34.3524 39.1395 34.4325 39.182 34.4325 39.3092C34.4725 39.3092 34.5125 39.3092 34.5125 39.3092C34.5125 39.3516 34.5125 39.394 34.5125 39.4365C34.5526 39.4365 34.6326 39.4365 34.6727 39.4365C34.6727 39.394 34.6727 39.3516 34.7127 39.3092C34.7528 39.3092 34.7528 39.3092 34.7928 39.3092C34.7928 39.2668 34.8328 39.2244 34.8328 39.182C34.8328 38.9699 34.8328 38.8002 34.8328 38.5882C34.8328 38.1216 34.8328 37.655 34.8328 37.2733C34.7928 37.2733 34.7127 37.2733 34.6727 37.2733C34.5926 37.1884 34.6727 37.0188 34.5926 36.9339C34.6326 36.9339 34.6326 36.9339 34.6727 36.9339C34.6326 36.8491 34.6326 36.8067 34.5926 36.7219C34.6727 36.6795 34.7127 36.5946 34.7528 36.5098C34.9529 36.1281 34.6727 35.6615 34.4325 35.4918C34.3924 35.4494 34.1122 35.2373 34.0721 35.2797C33.992 35.3222 33.912 35.407 33.8719 35.4494C33.6317 35.7039 33.5116 35.916 33.4315 36.2977C33.3915 36.425 33.4315 36.5522 33.4715 36.637C33.4715 36.6795 33.5116 36.7219 33.5116 36.7643C33.4715 36.8067 33.4715 36.8915 33.4315 36.9339C33.4715 36.9764 33.5116 36.9764 33.5516 36.9764Z" fill="white"./>
<path d="M72.5183 0.880839H73.727V69H72.5183V0.880839Z" fill="#004280"./>
<path d="M105.169 50.4501V46.1736H90.4304V68.1852H105.169V63.9086H94.8927V58.9717H103.849V54.7581H94.8927V50.4501H105.169Z" fill="#004280"./>
<path d="M126.638 68.1852V46.1736H122.176V60.4811L112.937 46.1736H108.475V68.1852H112.937V53.7833L122.176 68.1852H126.638Z" fill="#004280"./>
<path d="M133.458 46.1736H128.681L137.103 68.1852H141.283L149.736 46.1736H144.991L139.208 62.3678L133.458 46.1736Z" fill="#004280"./>
<path d="M159.457 46.1736H155.308L146.572 68.1852H151.318L152.857 64.1287H161.908L163.447 68.1852H168.193L159.457 46.1736ZM157.382 51.5821L160.399 60.1666H154.334L157.382 51.5821Z" fill="#004280"./>
<path d="M188.72 68.1852V46.1736H184.258V60.4811L175.019 46.1736H170.557V68.1852H175.019V53.7833L184.258 68.1852H188.72Z" fill="#004280"./>
<path d="M202.1 50.4501H208.291V46.1736H191.447V50.4501H197.638V68.1852H202.1V50.4501Z" fill="#004280"./>
<path d="M225.773 50.4501V46.1736H211.035V68.1852H225.773V63.9086H215.497V58.9717H224.453V54.7581H215.497V50.4501H225.773Z" fill="#004280"./>
<path d="M240.801 60.0723C243.44 59.0975 245.294 56.7706 245.294 53.3745C245.294 48.8464 241.995 46.1736 237.847 46.1736H229.079V68.1852H233.542V60.5754H236.464L240.549 68.1852H245.483L240.801 60.0723ZM237.941 50.3558C239.638 50.3558 240.895 51.4878 240.895 53.3745C240.895 55.2612 239.638 56.3932 237.941 56.3932H233.542V50.3558H237.941Z" fill="#004280"./>
<path d="M252.906 46.1736H248.443V68.1852H252.906V46.1736ZM248.318 41.9599C248.318 43.3749 249.323 44.2554 250.643 44.2554C251.932 44.2554 253 43.3749 253 41.9599C253 40.5449 251.932 39.633 250.643 39.633C249.323 39.633 248.318 40.5449 248.318 41.9599Z" fill="#004280"./>
</svg>
