<svg width="212" height="67" viewBox="0 0 212 67" fill="none" xmlns="http://www.w3.org/2000/svg">
<path d="M77.082 9.8H73.13L80.098 28H83.556L90.55 9.8H86.624L81.84 23.19L77.082 9.8ZM104.432 13.336V9.8H92.238V28H104.432V24.464H95.93V20.382H103.34V16.898H95.93V13.336H104.432ZM116.866 21.292C119.05 20.486 120.584 18.562 120.584 15.754C120.584 12.01 117.854 9.8 114.422 9.8H107.168V28H110.86V21.708H113.278L116.658 28H120.74L116.866 21.292ZM114.5 13.258C115.904 13.258 116.944 14.194 116.944 15.754C116.944 17.314 115.904 18.25 114.5 18.25H110.86V13.258H114.5ZM126.881 9.8H123.189V28H126.881V9.8ZM123.085 6.316C123.085 7.486 123.917 8.214 125.009 8.214C126.075 8.214 126.959 7.486 126.959 6.316C126.959 5.146 126.075 4.392 125.009 4.392C123.917 4.392 123.085 5.146 123.085 6.316Z" fill="white"/>
<path fill-rule="evenodd" clip-rule="evenodd" d="M1.06004 50.102H2.68323C3.31263 50.102 3.44513 50.2732 3.44513 50.9239C3.44513 51.6088 3.147 51.6773 2.5176 51.6773H1.06004V50.102ZM2.84886 52.602C4.00828 52.602 4.50518 52.2595 4.50518 50.9924C4.50518 50.2732 4.37267 49.7253 3.57764 49.6568V49.6225C4.24017 49.4513 4.37267 49.0061 4.37267 48.3554C4.37267 47.0883 3.84265 46.8828 2.74948 46.8828H0V52.602H2.84886ZM1.06004 47.8075H2.55072C3.08075 47.8075 3.31263 47.8417 3.31263 48.4582C3.31263 49.0746 3.18012 49.2458 2.58385 49.2458H1.06004V47.8075Z" fill="white"/>
<path fill-rule="evenodd" clip-rule="evenodd" d="M8.81111 46.8834V50.9587C8.81111 51.5752 8.5461 51.7122 7.55232 51.7122C6.5254 51.7122 6.32664 51.5409 6.32664 50.9587V46.8834H5.2666V50.9587C5.2666 52.5683 6.26039 52.6711 7.55232 52.6711C8.91049 52.6711 9.87116 52.5683 9.87116 50.9587V46.8834H8.81111V46.8834ZM7.1548 45.582V46.267H6.42602V45.582H7.1548ZM8.67861 45.582V46.267H7.94983V45.582H8.67861Z" fill="white"/>
<path fill-rule="evenodd" clip-rule="evenodd" d="M15.3046 46.8828H14.112L12.7538 49.3143L11.4288 46.8828H10.2031L12.2238 50.4102V52.602H13.2839V50.4102L15.3046 46.8828Z" fill="white"/>
<path fill-rule="evenodd" clip-rule="evenodd" d="M19.2135 46.8834V50.9587C19.2135 51.5752 18.9484 51.7122 17.9547 51.7122C16.9277 51.7122 16.729 51.5409 16.729 50.9587V46.8834H15.6689V50.9587C15.6689 52.5683 16.6627 52.6711 17.9547 52.6711C19.3128 52.6711 20.2735 52.5683 20.2735 50.9587V46.8834H19.2135V46.8834ZM17.5903 45.582V46.267H16.8615V45.582H17.5903ZM19.1141 45.582V46.267H18.3853V45.582H19.1141Z" fill="white"/>
<path fill-rule="evenodd" clip-rule="evenodd" d="M22.2612 46.8828H21.2012V52.602H22.2612V50.1362H22.7581L24.8119 52.602H26.137L23.6856 49.6568L25.9051 46.8828H24.6132L22.7581 49.2116H22.2612V46.8828Z" fill="white"/>
<path fill-rule="evenodd" clip-rule="evenodd" d="M26.2031 50.7869V51.0609C26.2031 52.7047 27.2963 52.6705 28.522 52.6705C29.9464 52.6705 30.6752 52.5335 30.6752 50.9239C30.6752 49.4513 30.2114 49.3828 28.522 49.2801C27.4288 49.2116 27.2963 49.1773 27.2963 48.4924C27.2963 47.876 27.4619 47.7732 28.522 47.7732C29.2507 47.7732 29.5158 47.8075 29.5158 48.4239V48.5951H30.5758V48.4239C30.5758 46.9171 29.6483 46.8828 28.522 46.8828C27.1969 46.8828 26.2363 46.9171 26.2363 48.4924C26.2363 50.1705 27.1969 50.102 28.3895 50.1705C29.2176 50.2047 29.6483 50.102 29.6483 50.9239C29.6483 51.5746 29.5158 51.7801 28.5551 51.7801C27.5613 51.7801 27.2963 51.7458 27.2963 51.0951V50.8212H26.2031V50.7869ZM28.6876 52.7047L27.8594 53.2184L28.0582 53.5609L29.0189 53.1499L28.6876 52.7047Z" fill="white"/>
<path fill-rule="evenodd" clip-rule="evenodd" d="M32.3647 47.8075H35.0811V46.8828H31.3047V52.602H35.1142V51.6431H32.3647V50.1362H34.9486V49.2458H32.3647V47.8075Z" fill="white"/>
<path fill-rule="evenodd" clip-rule="evenodd" d="M40.6131 46.8828H39.5531V49.2116H36.9692V46.8828H35.9092V52.602H36.9692V50.1705H39.5531V52.602H40.6131V46.8828Z" fill="white"/>
<path fill-rule="evenodd" clip-rule="evenodd" d="M42.6001 46.8835H41.54V52.6027H42.6001V46.8835ZM42.4345 46.0273H41.7057V46.7123H42.4345V46.0273Z" fill="white"/>
<path fill-rule="evenodd" clip-rule="evenodd" d="M46.1783 50.7184C46.6752 50.7184 46.874 51.0609 46.874 51.5403V52.602H47.934V51.5403C47.934 50.7184 47.7353 50.3075 47.0065 50.239V50.2047C47.934 50.0677 48.0003 49.4513 48.0003 48.5951C48.0003 47.2938 47.5365 46.9171 46.3109 46.8828H43.4951V52.602H44.5552V50.7184H46.1783ZM44.5552 49.7595V47.8075H46.0458C46.8078 47.8075 46.9403 47.9445 46.9403 48.7664C46.9403 49.5883 46.7415 49.7595 45.9796 49.7595H44.5552Z" fill="white"/>
<path fill-rule="evenodd" clip-rule="evenodd" d="M12.9528 39.5207H12.3896V44.5892H12.9528V39.5207ZM12.9528 38.9043H12.3896V39.418H12.9528V38.9043Z" fill="white"/>
<path fill-rule="evenodd" clip-rule="evenodd" d="M18.3527 39.5215H14.7088V40.0352H17.657L14.6094 44.0763V44.59H18.4189V44.0763H15.2719L18.3527 40.0694V39.5215Z" fill="white"/>
<path fill-rule="evenodd" clip-rule="evenodd" d="M24.8785 39.9667V44.59H25.4417V39.5215H24.481L22.7584 43.8708L21.0027 39.5215H20.0752V44.59H20.6052V39.9667H20.6383L22.4934 44.59H23.0234L24.8785 39.9667Z" fill="white"/>
<path fill-rule="evenodd" clip-rule="evenodd" d="M27.9255 39.5207H27.3623V44.5892H27.9255V39.5207ZM27.9586 38.9043H27.3954V39.418H27.9586V38.9043Z" fill="white"/>
<path fill-rule="evenodd" clip-rule="evenodd" d="M30.4099 42.5684H32.1987C32.8612 42.5684 33.0269 42.8766 33.0269 43.5273V44.5889H33.59V43.2533C33.59 42.7054 33.3581 42.3972 32.795 42.3287C33.5569 42.2259 33.6563 41.7122 33.6563 40.993C33.6563 39.8287 33.1925 39.5547 32.1325 39.5547H29.8799V44.6232H30.443V42.5684H30.4099ZM30.4099 42.0547V40.0341H32.1325C32.9938 40.0341 33.0931 40.2739 33.0931 40.9246C33.0931 41.7465 32.9938 42.0204 32.1325 42.0547H30.4099V42.0547Z" fill="white"/>
<path fill-rule="evenodd" clip-rule="evenodd" d="M2.68326 57.6039H4.50521C5.23399 57.6039 5.33337 57.9121 5.33337 58.5971C5.33337 59.3847 5.03523 59.4532 4.43896 59.4532H2.68326V57.6039ZM4.73709 59.9327C5.56525 59.9327 5.89651 59.419 5.89651 58.5286C5.89651 57.9121 5.79714 57.4327 5.13461 57.2957C5.6315 57.1245 5.73088 56.7478 5.73088 56.2341C5.73088 55.3436 5.53213 54.8984 4.60459 54.8984H2.12012V59.9669H4.73709V59.9327ZM2.68326 55.4121H4.33958C4.93585 55.4121 5.16774 55.4806 5.16774 56.1656C5.16774 56.9532 4.93585 57.1245 4.27333 57.1245H2.68326V55.4121Z" fill="white"/>
<path fill-rule="evenodd" clip-rule="evenodd" d="M8.08268 55.4121H10.6665V54.8984H7.51953V59.9327H10.6665V59.4532H8.08268V57.6039H10.5672V57.1245H8.08268V55.4121Z" fill="white"/>
<path fill-rule="evenodd" clip-rule="evenodd" d="M12.986 54.8984H12.4229V59.9327H15.4705V59.4532H12.986V54.8984Z" fill="white"/>
<path fill-rule="evenodd" clip-rule="evenodd" d="M17.3913 55.4121H19.9752V54.8984H16.8613V59.9327H19.9752V59.4532H17.3913V57.6039H19.8758V57.1245H17.3913V55.4121Z" fill="white"/>
<path fill-rule="evenodd" clip-rule="evenodd" d="M21.665 59.9327H24.1826C25.6402 59.9327 25.7396 58.5286 25.7396 58.0491V56.8505C25.7396 54.9669 24.6464 54.8984 24.0501 54.8984H21.665V59.9327ZM22.2282 59.4532V55.4121H24.1495C25.077 55.4121 25.1764 56.3368 25.1764 56.645V57.9806C25.1764 58.871 25.0439 59.4875 24.0501 59.4875H22.2282V59.4532Z" fill="white"/>
<path fill-rule="evenodd" clip-rule="evenodd" d="M28.0583 54.8977H27.4951V59.9662H28.0583V54.8977ZM28.0914 54.2812H27.5282V54.7949H28.0914V54.2812Z" fill="white"/>
<path fill-rule="evenodd" clip-rule="evenodd" d="M33.7227 54.8984H33.0601L31.6026 57.2615L30.145 54.8984H29.5156L31.3044 57.8436V59.9327H31.8676V57.8436L33.7227 54.8984Z" fill="white"/>
<path fill-rule="evenodd" clip-rule="evenodd" d="M35.5114 55.4121H38.0953V54.8984H34.9482V59.9327H38.0953V59.4532H35.5114V57.6039H37.9959V57.1245H35.5114V55.4121Z" fill="white"/>
<path fill-rule="evenodd" clip-rule="evenodd" d="M41.3752 57.6041C42.2696 57.6725 42.7002 57.5013 42.7002 58.4945C42.7002 59.4876 42.4021 59.4876 41.3752 59.4876C40.3483 59.4876 40.1164 59.4876 40.1495 58.3917H39.5864C39.487 59.8643 40.1164 60.0013 41.3752 60.0013C42.6009 60.0013 43.2634 59.9671 43.2634 58.5287C43.2634 57.1588 42.6671 57.1931 41.5077 57.1246C40.5802 57.0904 40.1495 57.1931 40.1495 56.1999C40.1495 55.515 40.3151 55.3438 41.3752 55.3438C42.4021 55.3438 42.5677 55.378 42.6009 56.2684H43.164C43.2303 54.8986 42.4684 54.8301 41.4083 54.8301C40.2158 54.8301 39.6195 54.9671 39.6195 56.3027C39.5864 57.6383 40.4145 57.5356 41.3752 57.6041Z" fill="white"/>
<path fill-rule="evenodd" clip-rule="evenodd" d="M45.4821 54.8977H44.9189V59.9662H45.4821V54.8977ZM45.5152 54.2812H44.9521V54.7949H45.5152V54.2812Z" fill="white"/>
<path fill-rule="evenodd" clip-rule="evenodd" d="M24.0825 8.56164C24.1819 8.56164 24.2481 8.56164 24.3475 8.56164C24.3475 8.63014 24.3475 8.73288 24.3475 8.80137C24.3806 8.83562 24.3806 8.83562 24.4469 8.83562C24.48 8.83562 24.5463 8.66438 24.5463 8.66438C24.5463 8.63014 24.5131 8.63014 24.5131 8.59589C24.5463 8.56164 24.5794 8.49315 24.5794 8.4589C24.5794 8.59589 24.5794 8.73288 24.5794 8.90411C24.5794 8.93836 24.5794 9.0411 24.5794 9.07534C24.6456 9.07534 24.7119 9.10959 24.6788 9.17808C24.5463 9.17808 24.4469 9.28082 24.4137 9.34932C24.4137 9.38356 24.4137 9.41781 24.4137 9.45205H24.3806C24.3806 9.76027 24.3806 10.1027 24.3806 10.411C24.4137 10.411 24.4469 10.411 24.48 10.411C24.48 10.411 24.48 10.411 24.48 10.4452C24.48 10.4452 24.48 10.4452 24.4469 10.4452C24.4469 10.4452 24.4469 10.4452 24.4469 10.4795H24.4137C24.4137 10.4795 24.4137 10.4795 24.4137 10.5137C24.3806 10.5137 24.3806 10.5137 24.3806 10.5137C24.3806 10.5479 24.4137 10.6849 24.4137 10.7534C24.3806 10.8562 24.4137 10.9932 24.4137 11.1301C24.4137 11.3356 24.4137 11.5753 24.4137 11.7808C24.4469 11.7808 24.5131 11.7808 24.5463 11.7808C24.5794 11.8493 24.6125 11.8836 24.6788 11.9521C24.745 11.9521 24.8113 11.9521 24.8775 11.9521L24.9106 11.9863C24.9438 11.9863 25.01 11.9863 25.0431 11.9863C25.0431 12.0205 25.01 12.089 25.01 12.1233H25.0431C25.0431 12.1575 25.01 12.1918 25.01 12.2603C25.0431 12.2603 25.0431 12.2603 25.0763 12.2603C25.0763 12.2945 25.0763 12.363 25.0431 12.3973C25.1425 12.3973 25.2088 12.3973 25.3082 12.3973C25.3082 12.363 25.275 12.2945 25.275 12.2603C25.3082 12.2603 25.3082 12.2603 25.3413 12.2603C25.3413 12.226 25.3413 12.1575 25.3082 12.1233C25.3413 12.1233 25.3413 12.1233 25.3744 12.1233C25.3744 12.089 25.3413 12.0205 25.3413 11.9863C25.3744 11.9863 25.4075 11.9863 25.4407 11.9863C25.4407 12.1918 25.4407 12.3973 25.4407 12.5685C25.4738 12.6027 25.5069 12.6027 25.5732 12.637V12.6712C25.54 12.6712 25.54 12.6712 25.5069 12.6712V12.7055C25.4075 12.7055 25.2419 12.8425 25.3082 12.9452C25.3082 12.9795 25.3744 12.9795 25.4075 13.0137C25.4075 13.0479 25.3744 13.0822 25.3413 13.1164C25.3413 13.2192 25.3413 13.2877 25.3413 13.3904H25.3082C25.3082 13.4247 25.3082 13.4247 25.3082 13.4589H25.3413C25.3413 14.1438 25.3413 14.863 25.3413 15.5479H25.3082C25.3082 15.5822 25.3082 15.5822 25.3082 15.6164H25.3413C25.3413 15.7192 25.3413 15.7877 25.3413 15.8904H25.3082C25.3082 15.9247 25.3413 15.9589 25.3413 15.9931C25.3413 16.0959 25.3413 16.1986 25.3413 16.3014C25.275 16.3356 25.0763 16.5068 25.1757 16.6096C25.1757 16.6438 25.1425 16.6438 25.1425 16.6781C25.1094 16.6781 25.1094 16.6781 25.0763 16.6781C25.0763 16.7808 25.0763 16.8836 25.0431 16.9521C25.0431 16.9521 25.0431 16.9521 25.01 16.9521C25.01 18.2877 25.01 19.589 25.01 20.9247C25.0431 20.9247 25.0431 20.9247 25.0763 20.9247C25.0763 21.1644 25.0763 21.4384 25.0763 21.6781C25.0431 21.7123 25.0431 21.7808 25.01 21.8493C25.01 21.8836 25.0431 21.8836 25.01 21.8836C24.9438 22.1233 25.01 22.4315 25.01 22.6712C25.1094 22.6712 25.2088 22.6712 25.275 22.6712V22.7055H25.2419C25.2419 22.8767 25.275 23.3219 25.2088 23.3904C25.1425 23.3904 25.0763 23.3904 25.01 23.3904C25.01 23.4589 25.01 23.5274 25.01 23.5959C25.0763 23.5959 25.1425 23.5274 25.1757 23.4932C25.1094 23.4932 25.1094 23.5274 25.0763 23.5274C25.0763 23.5274 25.0763 23.4932 25.1094 23.4932C25.1094 23.4932 25.1094 23.4589 25.0763 23.4589C25.1425 23.4589 25.1425 23.4589 25.1094 23.3904C25.1425 23.4247 25.1757 23.4247 25.1757 23.4589C25.1757 23.4247 25.1757 23.4247 25.2088 23.3904C25.2419 23.3904 25.275 23.3904 25.275 23.3904C25.275 23.4247 25.275 23.4247 25.275 23.4589C25.275 23.4932 25.2088 23.4931 25.1757 23.5274C25.1425 23.5616 25.1425 23.5616 25.1094 23.5959C25.0763 23.5959 25.0763 23.5959 25.0431 23.5959C25.0431 24.589 25.0431 25.6164 25.0431 26.6096C25.0763 26.6096 25.0763 26.6438 25.1094 26.6438C25.1094 26.7123 25.0763 27.0205 25.1094 27.0548C25.1757 27.089 25.3082 27.0548 25.3413 27.0205C25.3413 26.9863 25.3082 26.9863 25.275 26.9521C25.3413 26.9521 25.3744 26.9863 25.4075 26.9863C25.4738 26.9863 25.4738 26.9178 25.4738 26.8836C25.4075 26.8493 25.3744 26.8493 25.3082 26.8493C25.3082 26.8151 25.3082 26.8151 25.3082 26.7808C25.3413 26.7808 25.4075 26.7808 25.4407 26.7466C25.4075 26.7466 25.4075 26.7123 25.4075 26.7123C25.4075 26.6781 25.5069 26.6438 25.5732 26.6438C25.6063 26.6438 25.6394 26.6781 25.6725 26.6781C25.6725 26.7123 25.6725 26.7123 25.6725 26.7466C25.7388 26.7466 25.7719 26.7808 25.8051 26.8151V26.8493C25.6394 26.8836 25.6725 27.0205 25.8051 26.9863C25.8051 27.0205 25.8051 27.0548 25.8382 27.089C25.8713 27.089 25.9044 27.089 25.9376 27.089L25.9707 27.0548C25.9707 27.0205 25.9707 27.0205 25.9707 26.9863C26.0038 26.9863 26.0038 26.9863 26.0701 26.9863C26.1032 26.9521 26.1363 26.9178 26.1032 26.8836C26.0701 26.8836 26.0038 26.8493 26.0038 26.8151C26.0369 26.7808 26.0701 26.7808 26.1363 26.7466C26.1363 26.7466 26.1032 26.7123 26.1032 26.6781C26.1363 26.6438 26.2026 26.6096 26.2357 26.6438C26.2688 26.6438 26.3019 26.6781 26.3351 26.6781C26.3351 26.7123 26.3351 26.7123 26.3019 26.7466C26.3682 26.7466 26.4013 26.7808 26.4345 26.8151V26.8493C26.3682 26.8493 26.3351 26.8493 26.3351 26.8836C26.3019 26.9178 26.3019 26.9521 26.3351 26.9863C26.3351 27.0205 26.4013 27.0205 26.4345 27.0205C26.4345 27.0548 26.4345 27.089 26.4676 27.089C26.5007 27.1233 26.567 27.1233 26.6001 27.089C26.6001 27.089 26.6001 27.0548 26.6001 27.0205C26.6663 27.0205 26.6663 27.0205 26.6995 26.9863C26.6995 26.9521 26.7326 26.9178 26.6995 26.8836C26.6663 26.8836 26.6001 26.8493 26.6001 26.8493C26.6332 26.8151 26.6663 26.8151 26.6995 26.7808C26.6995 26.7808 26.6663 26.7466 26.6995 26.7123C26.6995 26.6781 26.7988 26.6438 26.832 26.6438C26.8651 26.6438 26.8982 26.6781 26.9313 26.6781C26.9313 26.7123 26.9313 26.7466 26.9313 26.7466C26.9976 26.7466 27.0307 26.7808 27.0638 26.8151C27.0307 26.8493 26.9645 26.8493 26.9645 26.8836C26.8982 26.9521 26.9976 27.0205 27.0638 27.0205C27.0638 27.0548 27.0639 27.0548 27.097 27.089C27.1301 27.089 27.1632 27.089 27.1964 27.089C27.2295 27.089 27.2295 27.0548 27.2295 27.0205C27.2626 27.0205 27.2957 27.0205 27.3289 26.9863C27.3289 26.9521 27.362 26.9178 27.3289 26.8836C27.2957 26.8493 27.2626 26.8493 27.2295 26.8493V26.8151C27.2626 26.7808 27.3289 26.7808 27.3951 26.7466C27.3951 26.7466 27.362 26.7466 27.362 26.7123V26.6781C27.362 26.6438 27.4282 26.6438 27.4614 26.6096C27.4614 26.8151 27.4614 27.0205 27.4614 27.226C27.4945 27.2603 27.5276 27.2603 27.5607 27.3288C27.5276 27.3288 27.5276 27.3288 27.5276 27.363C27.4945 27.363 27.4945 27.3973 27.4614 27.3973C27.3951 27.3973 27.362 27.3973 27.2957 27.3973C27.2957 27.4315 27.2626 27.4315 27.2626 27.4658C27.2626 27.5 27.2626 27.5342 27.2626 27.5342C27.1964 27.5685 27.2295 27.7055 27.2295 27.8082C27.2295 28.0822 27.2295 28.3562 27.2295 28.5959C27.2626 28.5959 27.2626 28.5959 27.2626 28.6301C27.2295 28.6644 27.2626 28.7671 27.2295 28.8356C27.1964 28.8356 27.1964 28.8356 27.1964 28.8699C27.1964 28.9041 27.2295 28.9384 27.2295 28.9384H27.1964C27.1964 29.3836 27.1964 29.863 27.1964 30.3082C27.1964 30.3082 27.2295 30.3082 27.2295 30.3425C27.2295 30.3767 27.2295 30.411 27.2295 30.4452C27.2626 30.4795 27.2626 30.4795 27.2626 30.5822C27.4282 30.5137 27.7926 30.411 27.7595 30.2055C27.7264 30.2055 27.7264 30.2055 27.7264 30.1712V30.137C27.7264 30.1027 27.7595 30.137 27.7595 30.1027C27.7264 30.1027 27.6601 30.0685 27.627 30.0685C27.627 30.0342 27.627 30.0342 27.627 30.0342C27.6601 30 27.7264 30 27.7595 29.9658C27.7595 29.8973 27.7926 29.8973 27.7926 29.863C27.8258 29.7945 27.6932 29.6233 27.7264 29.589C27.7595 29.5205 27.7926 29.4521 27.8589 29.3836C27.892 29.4521 27.9251 29.5205 27.9583 29.589C27.9251 29.6575 27.9251 29.726 27.892 29.7603C27.892 29.8288 27.9251 29.8973 27.9251 29.9658C27.9583 29.9658 28.0245 30 28.0576 30.0342V30.0685C28.0245 30.1027 27.9251 30.1027 27.9251 30.137C27.9583 30.137 27.9583 30.137 27.9583 30.1712V30.2055C27.8589 30.2397 27.9583 30.411 28.0245 30.4452C28.4552 30.5479 28.952 30.9589 28.952 31.4384C28.9852 31.4384 29.0183 31.4384 29.0514 31.4384C29.0846 31.2329 29.2833 31.2329 29.3164 31.4384C29.3496 31.4384 29.3496 31.4384 29.3827 31.4384C29.3827 31.4726 29.3827 31.5068 29.3827 31.5411C29.2833 31.5411 29.2833 31.6438 29.3164 31.7123C29.3496 31.7123 29.3496 31.7123 29.3827 31.7123C29.4489 31.6781 29.4489 31.5753 29.4821 31.5411C29.4821 31.5753 29.5152 31.5753 29.5152 31.6096C29.5152 31.6438 29.5152 31.6781 29.5152 31.7123C29.5483 31.7123 29.6146 31.7466 29.6477 31.7123C29.714 31.6438 29.6477 31.5753 29.5814 31.5411C29.5814 31.5068 29.5814 31.4726 29.5814 31.4384C29.6146 31.4384 29.6146 31.4384 29.6477 31.4384C29.6477 31.3699 29.6808 31.3014 29.7802 31.2671C29.7802 31.4726 29.7802 31.6438 29.7802 31.8493C29.8133 31.8493 29.8465 31.8836 29.8465 31.8836C29.8465 31.9178 29.8465 31.9178 29.8465 31.9521C29.8133 32.0205 29.714 31.9863 29.6477 32.0548C29.6477 32.089 29.6808 32.1233 29.6808 32.1233H29.6477C29.6477 32.1233 29.6477 32.1233 29.6477 32.1575H29.6146C29.6146 32.1918 29.6146 32.226 29.6477 32.226C29.6477 32.774 29.6477 33.3219 29.6477 33.8699C29.6477 33.9726 29.6477 34.0411 29.6477 34.1438V34.1781C29.6146 34.2123 29.6146 34.2123 29.5814 34.2466C29.5483 34.3151 29.6146 34.4178 29.5152 34.4521C29.4821 34.4521 29.4821 34.4521 29.4489 34.4521C29.4489 34.589 29.4489 34.7603 29.4489 34.8973C29.4489 35.2397 29.4489 35.6164 29.4489 35.9589C29.4489 35.9931 29.4821 35.9931 29.4821 36.0616C29.5152 36.0616 29.5483 36.0616 29.5483 36.0616C29.5483 36.0959 29.5483 36.1301 29.5483 36.1301C29.5814 36.1301 29.6146 36.1644 29.6146 36.1644C29.6146 36.2329 29.6146 36.2671 29.6146 36.3356C29.6146 36.3356 29.5814 36.3699 29.5814 36.4041C29.5814 36.4384 29.6146 36.4384 29.6146 36.4726C29.6146 36.5068 29.6146 36.5753 29.6146 36.6438C29.714 36.6438 29.8796 36.6438 29.9127 36.6781C29.9127 36.6781 29.9127 36.6781 29.8796 36.6781V36.7123C29.8133 36.7123 29.6477 36.8151 29.6808 36.9178C29.714 36.9521 29.714 36.9863 29.714 37.0548C29.6808 37.1575 29.6146 37.1918 29.5152 37.2603C29.5483 37.2945 29.5152 37.3288 29.5152 37.363C30.4096 37.363 31.3371 37.363 32.2316 37.363C32.2316 37.4315 32.2316 37.5342 32.2316 37.6027C32.4966 37.6027 32.7616 37.6027 33.0266 37.6027C33.0266 37.6712 33.0266 37.7397 33.0266 37.8425C33.2916 37.8425 33.5566 37.8425 33.8216 37.8425C33.8216 37.911 33.8216 37.9795 33.8216 38.0822C26.6995 38.0822 19.6104 38.0822 12.4883 38.0822C12.4883 38.0137 12.4883 37.9452 12.4883 37.8425C12.7533 37.8425 13.0183 37.8425 13.2833 37.8425C13.2833 37.774 13.2833 37.7055 13.2833 37.6027C13.5483 37.6027 13.8133 37.6027 14.0783 37.6027C14.0783 37.5342 14.0783 37.4315 14.0783 37.363C14.9728 37.363 15.9003 37.363 16.7947 37.363C16.7947 37.3288 16.7947 37.2603 16.7947 37.226C16.6953 37.1918 16.5959 37.089 16.5959 36.9863C16.5959 36.9521 16.6291 36.9521 16.6291 36.9178C16.6953 36.8151 16.4966 36.7466 16.4303 36.7123V36.6781H16.3972C16.4634 36.6438 16.5959 36.6438 16.6953 36.6438C16.6953 36.5753 16.6953 36.5411 16.6953 36.4726C16.6953 36.4726 16.7284 36.4384 16.7284 36.4041C16.7284 36.3699 16.6953 36.3699 16.6953 36.3356C16.6953 36.2671 16.6953 36.2329 16.6953 36.1644C16.7284 36.1644 16.7616 36.1301 16.7616 36.1301C16.7616 36.0959 16.7616 36.0616 16.7947 36.0274C16.8278 36.0274 16.8278 36.0274 16.861 36.0274C16.861 35.9932 16.8941 35.9589 16.8941 35.9247C16.8941 35.7877 16.8941 35.6164 16.8941 35.4795C16.8941 35.274 16.8941 35.1027 16.8941 34.8973C16.8941 34.7945 16.8941 34.6918 16.8941 34.589C16.8941 34.5205 16.8941 34.4521 16.8941 34.3836C16.861 34.3836 16.861 34.3836 16.8278 34.3836C16.7284 34.3493 16.7947 34.2466 16.7616 34.1781C16.7284 34.1438 16.7284 34.1438 16.6953 34.1096V34.0753C16.6953 33.9726 16.6953 33.9041 16.6953 33.8014C16.6953 33.2534 16.6953 32.7055 16.6953 32.1918C16.6953 32.1575 16.7284 32.1575 16.7284 32.1233H16.6953C16.6953 32.1233 16.6953 32.1233 16.6953 32.089H16.6622C16.6622 32.0548 16.6953 32.0205 16.6953 32.0205C16.6622 31.9521 16.5628 31.9521 16.4966 31.9178C16.4966 31.8493 16.5297 31.8493 16.5959 31.8151C16.5959 31.6096 16.5959 31.4384 16.5959 31.2329C16.6953 31.2329 16.7284 31.3014 16.7284 31.4041C16.7616 31.4041 16.7616 31.4041 16.7947 31.4041C16.7947 31.4384 16.7947 31.4726 16.7947 31.5068C16.7284 31.5068 16.7284 31.5753 16.7284 31.6438C16.7616 31.6781 16.861 31.6781 16.8941 31.6438C16.9272 31.5753 16.8941 31.5411 16.9272 31.5068C16.9603 31.5753 16.9603 31.6781 17.0266 31.6781C17.0597 31.6781 17.0928 31.6781 17.126 31.6438C17.1591 31.5753 17.126 31.5068 17.0597 31.5068C17.0597 31.4726 17.0597 31.4384 17.0597 31.4041C17.0928 31.4041 17.0928 31.4041 17.126 31.4041C17.126 31.3356 17.1591 31.2671 17.2253 31.2671C17.3247 31.2329 17.391 31.3356 17.391 31.4041C17.4241 31.4041 17.4572 31.4041 17.4904 31.4041C17.4904 31.0274 17.7885 30.7192 18.0535 30.5479C18.1198 30.5137 18.2191 30.4795 18.2854 30.411C18.4179 30.3425 18.5173 30.3425 18.5173 30.1712C18.4841 30.1712 18.4841 30.1712 18.4841 30.137V30.1027H18.5173C18.451 30.1027 18.4179 30.0685 18.3848 30.0685C18.3848 30.0342 18.3848 30.0342 18.4179 30C18.451 30 18.4841 29.9658 18.5173 29.9658C18.5173 29.8973 18.5504 29.8288 18.5504 29.7603C18.5173 29.6918 18.5173 29.6575 18.4841 29.589C18.5173 29.5205 18.5504 29.4521 18.5835 29.3836C18.6166 29.4521 18.6498 29.5205 18.716 29.589C18.7492 29.6575 18.6166 29.7945 18.6498 29.863L18.6829 29.8973C18.6829 29.9315 18.6829 29.9658 18.6829 29.9658C18.716 30 18.7823 30 18.8154 30.0342C18.8154 30.0685 18.8154 30.0685 18.8154 30.0685C18.7823 30.0685 18.716 30.1027 18.6829 30.1027C18.716 30.1027 18.716 30.1027 18.716 30.137V30.1712H18.6829C18.6498 30.3767 18.981 30.4795 19.1798 30.5479C19.1798 30.4452 19.1798 30.4795 19.2129 30.411C19.2129 30.3767 19.2129 30.3425 19.2129 30.3082C19.2129 30.3082 19.246 30.3082 19.246 30.274C19.246 29.9658 19.246 29.6575 19.246 29.3493C19.246 29.2123 19.246 29.0753 19.246 28.9041C19.246 28.9041 19.2129 28.9041 19.2129 28.8699C19.246 28.8356 19.246 28.8014 19.246 28.8014C19.2129 28.8014 19.2129 28.8014 19.2129 28.7671C19.1798 28.6986 19.2129 28.6644 19.2129 28.5959C19.2129 28.5959 19.1798 28.5959 19.1798 28.5616C19.2129 28.5616 19.1798 28.5616 19.2129 28.5616C19.2129 28.2877 19.2129 28.0479 19.2129 27.774C19.2129 27.6712 19.246 27.5342 19.1467 27.5C19.1467 27.4315 19.1467 27.3973 19.1135 27.363C19.0804 27.363 19.0142 27.363 18.981 27.363C18.9479 27.363 18.9479 27.3288 18.9148 27.3288C18.9148 27.2945 18.9148 27.2945 18.8817 27.2945C18.9148 27.2603 18.9479 27.2603 18.981 27.226C18.981 27.0205 18.981 26.8151 18.981 26.6096C19.0142 26.6096 19.0473 26.6438 19.0804 26.6781C19.0804 26.7123 19.0804 26.7123 19.0473 26.7123C19.1135 26.7123 19.1798 26.7466 19.2129 26.7808C19.2129 26.8151 19.2129 26.8151 19.1798 26.8151C19.1467 26.8151 19.1135 26.8151 19.1135 26.8493C19.0804 26.8836 19.0804 26.9521 19.1135 26.9863C19.1467 26.9863 19.1798 27.0205 19.2129 26.9863C19.2129 27.0205 19.2129 27.0205 19.246 27.0548C19.2792 27.0548 19.3454 27.0548 19.3786 27.0548C19.3786 27.0205 19.3786 27.0205 19.3786 26.9863C19.4779 26.9863 19.5442 26.9178 19.4779 26.8493C19.4448 26.8151 19.3786 26.8151 19.3786 26.8151C19.4117 26.7466 19.4448 26.7808 19.5111 26.7466C19.4779 26.7466 19.4779 26.7123 19.4779 26.7123C19.5111 26.6781 19.5442 26.6781 19.5773 26.6438C19.6104 26.6781 19.6436 26.6781 19.6767 26.7123C19.6767 26.7466 19.6767 26.7466 19.6436 26.7808C19.6767 26.8151 19.7429 26.8151 19.7761 26.8493C19.7761 26.8493 19.7761 26.8493 19.7761 26.8836C19.7429 26.8836 19.7098 26.8836 19.6767 26.9178C19.6436 26.9521 19.6767 26.9863 19.7098 27.0205C19.7429 27.0205 19.7429 27.0205 19.7761 27.0205C19.7761 27.0548 19.7761 27.089 19.8092 27.089C19.8423 27.1233 19.9086 27.1233 19.9417 27.089C19.9417 27.089 19.9417 27.0548 19.9417 27.0205C20.0079 27.0205 20.0411 27.0205 20.0411 26.9863C20.0411 26.9521 20.0411 26.9178 20.0079 26.8836C19.9748 26.8836 19.9417 26.8836 19.8754 26.8493V26.8151C19.9086 26.7808 19.9748 26.7808 20.0079 26.7466C19.9748 26.7466 19.9748 26.7123 20.0079 26.6781C20.0411 26.6781 20.0742 26.6438 20.1073 26.6438C20.1736 26.6781 20.273 26.6781 20.2067 26.7466C20.2398 26.7808 20.3061 26.7808 20.3392 26.8151C20.2398 26.8151 20.1736 26.9521 20.273 26.9863C20.3061 26.9863 20.3392 26.9863 20.3392 26.9863C20.3392 27.0205 20.3392 27.0205 20.3392 27.0548C20.3392 27.0548 20.3723 27.0548 20.3723 27.089C20.4055 27.089 20.4386 27.089 20.4717 27.089C20.4717 27.0548 20.4717 27.0548 20.4717 27.0205C20.538 27.0548 20.6042 26.9863 20.5711 26.9178C20.538 26.8836 20.5048 26.8836 20.4717 26.8493V26.8151C20.5048 26.7808 20.538 26.7808 20.6042 26.7466C20.6042 26.7123 20.6042 26.7123 20.6042 26.6781C20.6373 26.6438 20.6705 26.6438 20.7036 26.6438C20.7699 26.6438 20.8361 26.6781 20.8692 26.7123C20.8361 26.7123 20.8361 26.7466 20.803 26.7466C20.8692 26.7466 20.9355 26.7466 20.9686 26.7808C20.9686 26.8151 20.9686 26.8151 20.9686 26.8151C20.9024 26.8493 20.8361 26.8151 20.803 26.8836C20.7699 26.9178 20.803 26.9521 20.8361 26.9863H20.8692C20.9355 26.9863 20.9355 26.9521 21.0017 26.9521C20.9686 26.9521 20.9024 26.9863 20.9355 27.0205C20.9686 27.089 21.1011 27.089 21.1674 27.089C21.1674 26.9521 21.1674 26.8151 21.1674 26.6781C21.2005 26.6781 21.2005 26.6781 21.2336 26.6438C21.2336 25.9247 21.2336 25.2055 21.2336 24.5205C21.2336 24.2123 21.2336 23.9384 21.2336 23.6301H21.1674C21.1342 23.5959 21.1342 23.5959 21.1011 23.5616C21.068 23.5274 21.0017 23.4932 20.9686 23.4932C20.9686 23.4589 20.9686 23.4589 20.9686 23.4247C21.0017 23.4247 21.0017 23.4247 21.0349 23.4247C21.068 23.4247 21.068 23.4589 21.068 23.4932C21.1011 23.4932 21.1342 23.4589 21.1342 23.4247C21.1342 23.4589 21.1342 23.4589 21.1011 23.4932C21.1342 23.4932 21.1342 23.4932 21.1674 23.4932C21.1674 23.4932 21.1674 23.5274 21.1342 23.5274C21.1342 23.5274 21.1342 23.5616 21.1674 23.5616C21.1342 23.5616 21.1011 23.4931 21.0349 23.5274C21.068 23.5616 21.1342 23.6301 21.2005 23.6301C21.2005 23.5616 21.2005 23.4931 21.2005 23.4247C21.1011 23.4247 21.0017 23.4247 20.9355 23.3904C20.9355 23.1507 20.9355 22.9452 20.9355 22.7055H20.9024V22.6712C21.0017 22.6712 21.1011 22.6712 21.1674 22.6712C21.1674 22.4315 21.2005 22.089 21.1674 21.8836C21.1674 21.8493 21.2005 21.8493 21.1674 21.8493C21.1674 21.7808 21.1342 21.7466 21.1011 21.6781C21.1011 21.4384 21.1011 21.1644 21.1011 20.9247C21.1342 20.9247 21.1342 20.9247 21.1674 20.9247C21.1674 19.589 21.1674 18.2877 21.1674 16.9521C21.1674 16.9521 21.1674 16.9521 21.1342 16.9521C21.1011 16.8836 21.1011 16.7808 21.1011 16.6781C21.068 16.6781 21.0349 16.6781 21.0349 16.6781L21.0017 16.6438C21.1011 16.5411 20.9024 16.3699 20.8361 16.3356C20.8361 16.2329 20.8361 16.1301 20.8361 16.0274C20.8361 15.9932 20.8692 15.9589 20.8692 15.9247H20.8361C20.8361 15.8219 20.8361 15.7534 20.8361 15.6507H20.8692C20.8692 15.6164 20.8692 15.6164 20.8692 15.5822H20.8361C20.8361 14.8973 20.8361 14.1781 20.8361 13.4932H20.8692C20.8692 13.4589 20.8692 13.4589 20.8692 13.4247H20.8361C20.8361 13.3219 20.8361 13.2534 20.8361 13.1507C20.8361 13.1507 20.803 13.1164 20.7699 13.0822C20.7699 13.0479 20.7699 13.0479 20.803 13.0479C20.8361 13.0479 20.8361 13.0137 20.8692 13.0137C20.8692 12.8767 20.7699 12.8082 20.6705 12.774V12.7397C20.6373 12.7397 20.6373 12.7397 20.6042 12.7397V12.7055C20.6373 12.6712 20.6705 12.6712 20.7367 12.637C20.7367 12.4315 20.7367 12.226 20.7367 12.0548C20.7699 12.0548 20.803 12.0548 20.8361 12.0548C20.8361 12.089 20.803 12.1575 20.803 12.1918C20.8361 12.1918 20.8361 12.1918 20.8692 12.1918C20.8692 12.226 20.8692 12.2945 20.8361 12.3288C20.8692 12.3288 20.8692 12.3288 20.9024 12.3288C20.9024 12.363 20.8692 12.4315 20.8692 12.4658C20.9686 12.4658 21.0349 12.4658 21.1342 12.4658C21.1342 12.4315 21.1342 12.363 21.1011 12.3288C21.1342 12.3288 21.1342 12.3288 21.1674 12.3288C21.1674 12.2945 21.1342 12.2603 21.1342 12.1918C21.1674 12.1918 21.1674 12.1918 21.2005 12.1918C21.2005 12.1575 21.1674 12.089 21.1674 12.0548C21.2005 12.0548 21.2667 12.0548 21.2999 12.0548L21.333 12.0205C21.3993 12.0205 21.4986 12.0205 21.5318 12.0205C21.5649 11.9863 21.598 11.9178 21.6643 11.8836C21.6974 11.8836 21.7636 11.8836 21.7968 11.8836C21.7968 11.6781 21.7968 11.4384 21.7968 11.2329C21.7968 11.1301 21.7968 10.9589 21.7968 10.8904C21.7968 10.8562 21.8299 10.6849 21.8299 10.6507H21.7968C21.7968 10.6507 21.7968 10.6507 21.7968 10.6164H21.7636C21.7636 10.6164 21.7636 10.6164 21.7636 10.5822C21.7636 10.5822 21.7636 10.5822 21.7305 10.5822C21.7305 10.5822 21.7305 10.5822 21.7305 10.5479C21.7636 10.5479 21.7968 10.5479 21.8299 10.5479C21.8299 10.2397 21.8299 9.89726 21.8299 9.58904H21.7968C21.7968 9.38356 21.7636 9.34932 21.5649 9.31507C21.5649 9.24658 21.6311 9.21233 21.6974 9.21233C21.6974 9.00685 21.6974 8.83562 21.6974 8.63014C21.7305 8.66438 21.7636 8.69863 21.7636 8.76712C21.7636 8.80137 21.7305 8.80137 21.7305 8.83562C21.7305 8.86986 21.7636 8.86986 21.7636 8.90411C21.7968 8.9726 21.7636 9.00685 21.863 9.0411C21.9624 9.00685 21.9293 8.86986 21.9293 8.76712C22.0287 8.76712 22.0949 8.76712 22.1943 8.76712C22.1943 8.35616 22.4262 8.04795 22.6912 7.87671C22.8899 7.73973 23.1549 7.73973 23.1549 7.46575C23.1549 7.46575 23.1218 7.46575 23.1218 7.43151C23.1218 7.39726 23.1549 7.39726 23.1549 7.36301V7.32877C23.0556 7.32877 22.9893 7.15753 23.0887 7.08904C23.0556 7.08904 23.0556 7.08904 23.0556 7.05479C23.0887 7.05479 23.1549 7.02055 23.1881 7.02055V6.9863C23.1549 6.9863 23.1549 6.9863 23.1218 6.95205C23.1549 6.91781 23.1549 6.95205 23.1881 6.91781C23.0224 6.71233 23.1881 6.78082 23.1881 6.60959C23.1549 6.60959 23.1218 6.60959 23.1218 6.57534C23.1218 6.50685 23.1881 6.5411 23.2212 6.4726C23.1881 6.4726 23.1549 6.4726 23.1549 6.43836C23.1549 6.36986 23.2212 6.36986 23.2543 6.33562C23.2543 6.06164 23.2543 5.75342 23.2543 5.47945C23.1549 5.47945 23.0556 5.30822 23.1549 5.23973C23.1218 5.30822 23.1549 5.44521 23.2875 5.44521C23.1549 5.17123 23.1881 5.10274 23.1549 5C23.1549 5 23.1549 5 23.1881 5C23.2212 5.10274 23.1881 5.20548 23.0887 5.23973C23.0887 5.5137 23.0887 5.82192 23.0887 6.09589C23.1218 6.13014 23.1549 6.13014 23.1881 6.19863C23.1549 6.23288 23.1549 6.23288 23.0887 6.23288V6.26712C23.1218 6.26712 23.1549 6.26712 23.1549 6.30137C23.1549 6.30137 23.1549 6.33562 23.1549 6.36986C23.1549 6.40411 23.1218 6.40411 23.0887 6.40411C23.0887 6.4726 23.1881 6.50685 23.1881 6.57534C23.1881 6.64384 23.1218 6.67808 23.1218 6.74658C23.1549 6.74658 23.1549 6.74658 23.1881 6.78082C23.1881 6.78082 23.1881 6.78082 23.1881 6.81507C23.1549 6.81507 23.1549 6.81507 23.1549 6.84932C23.1881 6.84932 23.2543 6.88356 23.2875 6.88356C23.2875 6.91781 23.2543 6.91781 23.2875 6.91781C23.3206 7.02055 23.2875 7.12329 23.1881 7.15753C23.1881 7.19178 23.1881 7.19178 23.2212 7.22603C23.2212 7.26027 23.1881 7.26027 23.1881 7.29452C23.2212 7.36301 23.2212 7.43151 23.2543 7.5C23.2875 7.53425 23.3868 7.56849 23.4531 7.56849C23.5525 7.60274 23.6187 7.67123 23.7181 7.70548C23.8837 7.87671 24.0825 8.15068 24.0825 8.56164Z" fill="white"/>
<path fill-rule="evenodd" clip-rule="evenodd" d="M19.4452 30.5482C19.4452 30.4454 19.4452 30.3427 19.4121 30.2742V29.8633V28.9044C19.4121 28.8701 19.4452 28.8016 19.4452 28.7674C19.4784 28.7674 19.4784 28.7674 19.5115 28.7674C19.4784 28.6989 19.5115 28.6304 19.5446 28.5961H19.5115L19.5446 28.5276L19.4784 28.4591C19.4121 28.3564 19.4784 28.2537 19.5446 28.2194C19.5446 28.1852 19.5115 28.1852 19.4784 28.1509C19.4452 28.0139 19.5446 27.9454 19.644 27.877C19.8096 27.9454 19.7434 28.1167 19.6109 28.1852C19.6771 28.2537 19.8096 28.2879 19.7434 28.4249C19.7102 28.4591 19.7102 28.4934 19.644 28.4934L19.6771 28.5961C19.644 28.5961 19.644 28.5961 19.644 28.5961L19.6771 28.6304C19.6771 28.6646 19.6771 28.7331 19.6771 28.7674C19.7102 28.7674 19.7102 28.7674 19.7434 28.7674C19.7434 28.7674 19.7434 28.7674 19.7765 28.8016C19.8096 28.8016 19.8096 28.8016 19.8096 28.8016C19.8096 29.2126 19.8096 29.7948 19.8096 30.2742C19.7765 30.2742 19.7765 30.2742 19.7765 30.3085H19.7102C19.7102 30.377 19.7102 30.4112 19.6771 30.4454C19.6771 30.4797 19.6771 30.5482 19.6771 30.5824H19.4452V30.5482Z" fill="white"/>
<path fill-rule="evenodd" clip-rule="evenodd" d="M20.1405 30.3086H20.0743C20.0412 30.1374 20.0743 29.8976 20.0743 29.7264C20.0743 29.4182 20.0412 29.0415 20.1074 28.7675C20.1405 28.7675 20.1405 28.7675 20.1737 28.7675C20.1737 28.699 20.1737 28.6305 20.2068 28.562H20.1737L20.2068 28.4593C20.1074 28.4593 20.0743 28.3223 20.1405 28.2196L20.2399 28.1511C20.2399 28.1168 20.2068 28.1168 20.2068 28.0826C20.1405 27.9456 20.2731 27.8428 20.3724 27.8086C20.5049 27.9113 20.5049 28.0483 20.3393 28.1168C20.4387 28.2196 20.6043 28.288 20.4056 28.425C20.4056 28.425 20.4056 28.4935 20.4387 28.5278H20.4056L20.4387 28.562C20.4387 28.5963 20.4056 28.6648 20.4387 28.699C20.4387 28.699 20.4718 28.699 20.5049 28.699L20.5381 28.7333H20.5712V30.2059C20.5381 30.2059 20.5381 30.2059 20.5381 30.2401H20.4718V30.3428L20.4056 30.3771V30.4798H20.2731V30.3771L20.2068 30.3428V30.3086H20.1405Z" fill="white"/>
<path fill-rule="evenodd" clip-rule="evenodd" d="M25.5076 30.3085H25.4413C25.4413 30.2742 25.4413 30.2742 25.4082 30.2742C25.4082 29.7948 25.4082 29.2126 25.4082 28.8016H25.4413C25.4413 28.8016 25.4413 28.7674 25.4745 28.7674C25.5076 28.7674 25.5407 28.7674 25.5407 28.7674C25.5738 28.7331 25.5738 28.6646 25.5407 28.5961L25.5738 28.5619H25.5407L25.5738 28.4934C25.4082 28.4591 25.4745 28.2537 25.607 28.2194V28.1852C25.5407 28.1167 25.4413 28.0482 25.5076 27.9454C25.5407 27.9112 25.5407 27.877 25.5738 27.877C25.7063 27.9797 25.7726 28.0482 25.6732 28.1852L25.7726 28.2537C25.8388 28.3222 25.7726 28.4591 25.7063 28.4934L25.7395 28.5961H25.7063C25.7395 28.6646 25.7395 28.6989 25.7395 28.8016C25.872 28.8016 25.8388 29.0413 25.8388 29.1441V29.8975C25.8388 30.0345 25.8388 30.2057 25.8388 30.3085H25.7726V30.4112L25.7395 30.4454C25.7063 30.4797 25.7395 30.5482 25.7395 30.5482H25.607V30.4454L25.5076 30.4112V30.3085Z" fill="white"/>
<path fill-rule="evenodd" clip-rule="evenodd" d="M26.1697 30.3085H26.1034C26.1034 30.2742 26.1034 30.2742 26.0703 30.2742C26.0703 29.7948 26.0703 29.2126 26.0703 28.8016H26.1034V28.7674C26.1366 28.7674 26.1366 28.7674 26.1697 28.7674C26.1697 28.6989 26.2028 28.6646 26.1697 28.5961L26.2028 28.5619C26.2028 28.5619 26.2028 28.5619 26.1697 28.5619L26.2028 28.4591C26.1697 28.4591 26.1366 28.4249 26.1034 28.3907C26.0372 28.2537 26.2028 28.2537 26.2359 28.1852C26.1366 28.0824 26.0372 27.9797 26.2028 27.877C26.3022 27.9112 26.4016 28.0139 26.3353 28.1509C26.3353 28.1852 26.3022 28.1852 26.3022 28.2194L26.3685 28.2879C26.4347 28.3907 26.3685 28.4934 26.3022 28.5276L26.3353 28.5961H26.3022C26.3353 28.6304 26.3353 28.6989 26.3353 28.8016C26.3685 28.8016 26.3685 28.8016 26.4016 28.8016C26.4678 28.9386 26.4347 29.1783 26.4347 29.3496V30.3085C26.4016 30.377 26.4016 30.4797 26.4016 30.5824H26.1697V30.4797V30.4112C26.1366 30.4112 26.1697 30.3427 26.1697 30.3085Z" fill="white"/>
<path fill-rule="evenodd" clip-rule="evenodd" d="M17.027 34.4524H17.1595C17.1927 34.3839 17.1595 34.2127 17.2258 34.1785C17.2258 34.1442 17.1927 34.1442 17.1595 34.1442L17.2258 33.973C17.1595 33.9045 17.0933 33.836 17.0602 33.7675C16.8945 33.3223 17.3583 32.9456 17.6564 32.8086C17.8883 33.0141 18.054 33.1511 18.1533 33.4593C18.1865 33.562 18.1865 33.699 18.1865 33.836L18.1533 34.0415L18.2196 34.1785H18.1202L18.1533 34.247C18.1533 34.2812 18.1533 34.2812 18.1202 34.2812C18.1202 34.3154 18.1533 34.3839 18.1533 34.4867C18.1865 34.4867 18.1865 34.5209 18.2527 34.5209C18.2858 34.6922 18.2858 35.0346 18.2858 35.2743C18.2196 35.2743 18.1865 35.3086 18.1533 35.3086L18.054 35.2743H17.9546H17.8221V35.3086C17.9214 35.4113 18.0871 35.5483 18.2858 35.5826V35.9935C18.2858 36.0278 18.2527 36.062 18.2527 36.0963H18.1865C18.1533 36.1305 18.1533 36.1305 18.1533 36.199H17.7227V36.0963H17.6564C17.6564 36.062 17.6564 36.0278 17.6564 35.9935C17.6233 35.9593 17.5571 35.925 17.4908 35.8908C17.4246 35.9593 17.3583 35.9593 17.3583 36.062H17.292V36.1648H17.1595V36.0963C17.1264 36.0963 17.1264 36.062 17.0602 36.062C17.0602 36.0278 17.027 35.9935 17.027 35.9593V35.4798C17.027 35.1374 17.027 34.7949 17.027 34.4524Z" fill="white"/>
<path fill-rule="evenodd" clip-rule="evenodd" d="M27.7594 34.1439C27.7594 34.1781 27.7594 34.1781 27.7594 34.1439C27.7263 34.1781 27.7263 34.2124 27.7263 34.2466C27.7594 34.2466 27.7263 34.2466 27.7594 34.2466C27.7594 34.2809 27.7594 34.2809 27.7263 34.3151C27.7263 34.3494 27.7263 34.4179 27.7263 34.4521C27.6931 34.4864 27.66 34.4521 27.6269 34.4864C27.5937 34.5206 27.6269 34.6234 27.6269 34.6576C27.5937 34.8288 27.5938 35.0343 27.5938 35.2398C27.66 35.2398 27.6931 35.274 27.7263 35.274C27.7594 35.274 27.7925 35.274 27.8256 35.2398C27.8588 35.2398 28.0575 35.2398 28.0575 35.2398V35.274C28.0244 35.3083 27.9581 35.3425 27.925 35.3768C27.8256 35.4453 27.7263 35.4795 27.5938 35.548C27.5938 35.6165 27.5938 35.959 27.5938 35.959C27.6269 35.9932 27.6269 35.9932 27.6269 36.0275C27.6931 36.0275 27.6931 36.0275 27.7263 36.0617C27.7263 36.096 27.7263 36.096 27.7263 36.1302C27.8588 36.1302 28.0244 36.1302 28.1569 36.1302C28.1569 36.096 28.1569 36.0617 28.1569 36.0275C28.19 36.0275 28.2231 36.0275 28.2231 36.0275C28.19 35.9932 28.2231 35.959 28.2231 35.9247C28.2563 35.9247 28.3225 35.8562 28.3557 35.8562C28.4219 35.8905 28.4882 35.9247 28.4882 36.0275C28.5213 36.0275 28.5544 36.0275 28.5544 36.0275C28.5544 36.0617 28.5544 36.096 28.5544 36.1302C28.5875 36.1302 28.6538 36.1302 28.6869 36.1302C28.6869 36.096 28.6869 36.0617 28.72 36.0275C28.7532 36.0275 28.7532 36.0275 28.7863 36.0275C28.7863 35.9932 28.8194 35.959 28.8194 35.9247C28.8194 35.7535 28.8194 35.6165 28.8194 35.4453C28.8194 35.0686 28.8194 34.6918 28.8194 34.3836C28.7863 34.3836 28.72 34.3836 28.6869 34.3836C28.6207 34.3151 28.6869 34.1781 28.6207 34.1097C28.6538 34.1097 28.6538 34.1097 28.6869 34.1097C28.6538 34.0412 28.6538 34.0069 28.6207 33.9384C28.6869 33.9042 28.72 33.8357 28.7532 33.7672C28.9188 33.459 28.6869 33.0823 28.4882 32.9453C28.455 32.911 28.2231 32.7398 28.19 32.774C28.1238 32.8083 28.0575 32.8768 28.0244 32.911C27.8256 33.1165 27.7263 33.2877 27.66 33.596C27.6269 33.6987 27.66 33.8014 27.6931 33.8699C27.6931 33.9042 27.7263 33.9384 27.7263 33.9727C27.6931 34.0069 27.6931 34.0754 27.66 34.1097C27.6931 34.1439 27.7263 34.1439 27.7594 34.1439Z" fill="white"/>
<path d="M60 5H61V60H60V5Z" fill="white"/>
<path d="M87.014 45.336V41.8H74.82V60H87.014V56.464H78.512V52.382H85.922V48.898H78.512V45.336H87.014ZM104.778 60V41.8H101.086V53.63L93.4417 41.8H89.7497V60H93.4417V48.092L101.086 60H104.778ZM110.42 41.8H106.468L113.436 60H116.894L123.888 41.8H119.962L115.178 55.19L110.42 41.8ZM131.931 41.8H128.499L121.271 60H125.197L126.471 56.646H133.959L135.233 60H139.159L131.931 41.8ZM130.215 46.272L132.711 53.37H127.693L130.215 46.272ZM156.143 60V41.8H152.451V53.63L144.807 41.8H141.115V60H144.807V48.092L152.451 60H156.143ZM167.213 45.336H172.335V41.8H158.399V45.336H163.521V60H167.213V45.336ZM186.799 45.336V41.8H174.605V60H186.799V56.464H178.297V52.382H185.707V48.898H178.297V45.336H186.799ZM199.233 53.292C201.417 52.486 202.951 50.562 202.951 47.754C202.951 44.01 200.221 41.8 196.789 41.8H189.535V60H193.227V53.708H195.645L199.025 60H203.107L199.233 53.292ZM196.867 45.258C198.271 45.258 199.311 46.194 199.311 47.754C199.311 49.314 198.271 50.25 196.867 50.25H193.227V45.258H196.867ZM209.248 41.8H205.556V60H209.248V41.8ZM205.452 38.316C205.452 39.486 206.284 40.214 207.376 40.214C208.442 40.214 209.326 39.486 209.326 38.316C209.326 37.146 208.442 36.392 207.376 36.392C206.284 36.392 205.452 37.146 205.452 38.316Z" fill="white"/>
</svg>
