<svg width="24" height="24" viewBox="0 0 24 24" fill="none" xmlns="http://www.w3.org/2000/svg">
<g clip-path="url(#clip0_73_57)">
<path d="M15.4673 1.47314C14.4322 1.47288 13.4114 1.7151 12.4867 2.1804C11.562 2.64571 10.7591 3.32115 10.1425 4.15259C9.52585 4.98404 9.11254 5.94838 8.9357 6.96832C8.75886 7.98826 8.8234 9.03545 9.12414 10.026L1.47266 17.6775V22.0969H5.89203L13.5435 14.4453C14.4553 14.7222 15.4161 14.7992 16.3604 14.6711C17.3047 14.5431 18.2102 14.2129 19.0154 13.7032C19.8205 13.1935 20.5063 12.5162 21.0259 11.7174C21.5456 10.9187 21.887 10.0173 22.0268 9.07469C22.1666 8.13208 22.1015 7.17041 21.836 6.25523C21.5705 5.34005 21.1108 4.49286 20.4883 3.77141C19.8657 3.04996 19.095 2.47121 18.2285 2.0746C17.362 1.67799 16.4203 1.47284 15.4673 1.47314ZM15.4673 13.2581C14.9602 13.2578 14.4558 13.1828 13.9705 13.0356L13.1258 12.7794L12.5018 13.4034L10.1587 15.7465L9.14329 14.7313L8.10172 15.7728L9.11722 16.7883L7.9491 17.9565L6.9336 16.941L5.89203 17.9825L6.90753 18.998L5.28186 20.6238H2.94578V18.2877L10.1658 11.0677L10.7898 10.4435L10.534 9.5989C10.2192 8.56107 10.2396 7.4504 10.5924 6.42486C10.9453 5.39933 11.6125 4.51117 12.4992 3.88671C13.3859 3.26225 14.447 2.93331 15.5314 2.94666C16.6158 2.96001 17.6685 3.31499 18.5395 3.96109C19.4106 4.60719 20.0558 5.51151 20.3832 6.54542C20.7107 7.57933 20.7038 8.69018 20.3635 9.71994C20.0232 10.7497 19.3669 11.6459 18.4878 12.2812C17.6088 12.9164 16.5519 13.2583 15.4673 13.2581Z" fill="#D9D9D9"/>
<path d="M16.2036 8.83871C17.0172 8.83871 17.6767 8.17917 17.6767 7.36558C17.6767 6.552 17.0172 5.89246 16.2036 5.89246C15.39 5.89246 14.7305 6.552 14.7305 7.36558C14.7305 8.17917 15.39 8.83871 16.2036 8.83871Z" fill="#D9D9D9"/>
</g>
<defs>
<clipPath id="clip0_73_57">
<rect width="23.57" height="23.57" fill="white"/>
</clipPath>
</defs>
</svg>
