<svg width="18" height="18" viewBox="0 0 18 18" fill="none" xmlns="http://www.w3.org/2000/svg">
<path d="M16.2544 3.52816L14.1864 1.46214C14.0405 1.31562 13.8671 1.19937 13.6762 1.12006C13.4853 1.04075 13.2805 0.99995 13.0738 1C12.6524 1 12.2563 1.16505 11.9592 1.46214L9.73398 3.68738C9.58746 3.83325 9.47121 4.00664 9.39191 4.19758C9.3126 4.38852 9.2718 4.59325 9.27185 4.8C9.27185 5.22136 9.43689 5.61748 9.73398 5.91456L11.3612 7.54175C10.9803 8.38128 10.4507 9.14503 9.79806 9.79612C9.14703 10.4504 8.38336 10.9818 7.54369 11.365L5.91651 9.73786C5.77063 9.59135 5.59724 9.4751 5.4063 9.39579C5.21537 9.31648 5.01064 9.27568 4.80388 9.27573C4.38253 9.27573 3.98641 9.44078 3.68932 9.73786L1.46214 11.9612C1.31544 12.1073 1.19909 12.281 1.11978 12.4723C1.04047 12.6636 0.999759 12.8687 1 13.0757C1 13.4971 1.16505 13.8932 1.46214 14.1903L3.52621 16.2544C4 16.7301 4.65437 17 5.32621 17C5.46796 17 5.60388 16.9883 5.73787 16.965C8.35534 16.534 10.9515 15.1417 13.0466 13.0485C15.1398 10.9573 16.5301 8.36311 16.967 5.73786C17.099 4.93592 16.833 4.11068 16.2544 3.52816V3.52816Z" stroke="#A4A4A4" stroke-width="1.5"./>
</svg>
