<svg width="24" height="24" viewBox="0 0 24 24" fill="none" xmlns="http://www.w3.org/2000/svg">
<path d="M12.0008 14C13.7244 14 15.1217 12.6569 15.1217 11C15.1217 9.34315 13.7244 8 12.0008 8C10.2772 8 8.87988 9.34315 8.87988 11C8.87988 12.6569 10.2772 14 12.0008 14Z" stroke="#C1BEBE" stroke-width="2" stroke-linecap="round" stroke-linejoin="round"./>
<path d="M21.6302 9.962C22.1233 10.582 22.1233 11.419 21.6302 12.038C20.077 13.987 16.3507 18 12.0002 18C7.64964 18 3.9233 13.987 2.37014 12.038C2.13023 11.7411 2 11.3759 2 11C2 10.6241 2.13023 10.2589 2.37014 9.962C3.9233 8.013 7.64964 4 12.0002 4C16.3507 4 20.077 8.013 21.6302 9.962V9.962Z" stroke="#C1BEBE" stroke-width="2" stroke-linecap="round" stroke-linejoin="round"./>
<path d="M22.5 1L1 22.5" stroke="#FBFBFB" stroke-width="2" stroke-linecap="round"./>
</svg>
