<svg width="71" height="38" viewBox="0 0 71 38" fill="none" xmlns="http://www.w3.org/2000/svg">
<path d="M32.9451 14.8479L28.3711 19.4219L30.0337 21.0844L34.6077 16.5104L32.9451 14.8479Z" fill="#0069DF"./>
<path d="M38.3289 16.0938L36.2536 18.169L34.9952 16.9106L33.3394 18.5664L34.5978 19.8248L31.6836 22.7391L33.3394 24.3949L36.2426 21.4807L37.9094 23.1475L38.7042 22.3527C39.1789 21.8781 39.1789 21.0943 38.7042 20.6196L37.9094 19.8248L39.1127 18.6216C39.5873 18.147 39.5873 17.3632 39.1127 16.8886L38.3289 16.0938Z" fill="#0069DF"./>
<path d="M35.81 15.3169C36.2846 14.8423 36.2846 14.0585 35.81 13.5839L35.0152 12.7891L33.3594 14.4449L35.0152 16.1007L35.81 15.3169Z" fill="#0069DF"./>
<path d="M39.2016 12.7124L37.5391 14.375L42.1131 18.949L43.7757 17.2865L39.2016 12.7124Z" fill="#2D2D2D"./>
<path d="M44.1877 11.062L45.8545 9.39515L45.0597 8.60036C44.5851 8.1257 43.8013 8.1257 43.3267 8.60036L42.5319 9.39515L41.3286 8.19194C40.854 7.71727 40.0702 7.71727 39.5956 8.19194L38.8008 8.98672L40.8761 11.062L39.6176 12.3204L41.2735 13.9762L42.5319 12.7178L45.4461 15.632L47.1019 13.9762L44.1877 11.062Z" fill="#2D2D2D"./>
<path d="M38.8031 12.2992L38.0083 11.5044C37.5337 11.0298 36.7499 11.0298 36.2753 11.5044L35.4805 12.2992L37.1363 13.955L38.8031 12.2992Z" fill="#2D2D2D"./>
<path d="M40.0154 3.5588L35.4414 8.13281L37.104 9.79538L41.678 5.22137L40.0154 3.5588Z" fill="#2D2D2D"./>
<path d="M31.7172 8.55896L33.7925 6.48367L35.0509 7.74208L36.7067 6.08627L35.4483 4.82786L38.3625 1.91362L36.7067 0.257812L33.7925 3.17205L32.1256 1.50519L31.3308 2.29998C30.8562 2.77464 30.8562 3.55842 31.3308 4.03308L32.1256 4.82786L30.9224 6.03108C30.4477 6.50574 30.4477 7.28948 30.9224 7.76415L31.7172 8.55896Z" fill="#2D2D2D"./>
<path d="M36.6894 10.2105L35.0336 8.55469L34.2388 9.34947C33.7641 9.82414 33.7641 10.6079 34.2388 11.0825L35.0336 11.8773L36.6894 10.2105Z" fill="#2D2D2D"./>
<path d="M27.936 5.70462L26.2734 7.36719L30.8475 11.9412L32.51 10.2786L27.936 5.70462Z" fill="#2D2D2D"./>
<path d="M28.7342 16.4557C29.2089 16.9304 29.9926 16.9304 30.4673 16.4557L31.2621 15.6609L29.1868 13.5857L30.4452 12.3272L28.7894 10.6714L27.531 11.9299L24.6167 9.01562L22.9609 10.6714L25.8752 13.5857L24.2083 15.2525L25.0031 16.0473C25.4778 16.522 26.2615 16.522 26.7362 16.0473L27.531 15.2525L28.7342 16.4557Z" fill="#2D2D2D"./>
<path d="M31.25 12.3433L32.0448 13.1381C32.5195 13.6128 33.3032 13.6128 33.7779 13.1381L34.5727 12.3433L32.9169 10.6875L31.25 12.3433Z" fill="#2D2D2D"./>
<path d="M1.55323 35.2298H0.0078125V29.7656H1.55323V35.2298Z" fill="#2D2D2D"./>
<path d="M7.1074 30.8033C6.98598 30.9468 6.80936 31.1234 6.59963 31.3662C6.38989 31.5981 6.15808 31.863 5.91522 32.15C5.67237 32.437 5.42952 32.735 5.18667 33.0441C4.94382 33.3532 4.712 33.6512 4.5133 33.9493H7.15156V35.2408H2.63672V34.3246C2.78022 34.0707 2.95685 33.8058 3.16658 33.5188C3.36528 33.2318 3.58605 32.9448 3.80683 32.6467C4.0276 32.3597 4.25941 32.0727 4.48019 31.7967C4.70096 31.5208 4.9107 31.2779 5.09836 31.0571H2.76918V29.7656H7.1074V30.8033Z" fill="#2D2D2D"./>
<path d="M11.2024 32.3263C11.2024 31.8295 11.1362 31.4763 11.0148 31.2666C10.8823 31.0568 10.6615 30.9575 10.3525 30.9575C10.2531 30.9575 10.1538 30.9575 10.0544 30.9685C9.95506 30.9795 9.84467 30.9906 9.75636 31.0016V35.2184H8.21094V29.9419C8.3434 29.9088 8.49795 29.8757 8.67457 29.8315C8.85119 29.7984 9.03885 29.7542 9.23754 29.7322C9.43624 29.699 9.63494 29.677 9.84467 29.6549C10.0544 29.6328 10.2531 29.6328 10.4518 29.6328C10.8492 29.6328 11.1693 29.688 11.4122 29.7873C11.655 29.8867 11.8648 30.0081 12.0193 30.1406C12.2401 29.9861 12.494 29.8536 12.781 29.7653C13.068 29.677 13.3329 29.6328 13.5758 29.6328C14.0173 29.6328 14.3706 29.688 14.6465 29.8094C14.9225 29.9309 15.1543 30.0965 15.3199 30.3283C15.4855 30.5491 15.5958 30.8139 15.6621 31.112C15.7283 31.4211 15.7504 31.7523 15.7504 32.1276V35.2074H14.205V32.3153C14.205 31.8185 14.1387 31.4653 14.0173 31.2555C13.8848 31.0458 13.6641 30.9464 13.355 30.9464C13.2667 30.9464 13.1563 30.9685 13.0017 31.0127C12.8582 31.0568 12.7258 31.101 12.6375 31.1672C12.6816 31.3217 12.7147 31.4984 12.7258 31.675C12.7368 31.8516 12.7479 32.0393 12.7479 32.238V35.2184H11.2024V32.3263Z" fill="#2D2D2D"./>
<path d="M18.7056 35.2298H17.1602V29.7656H18.7056V35.2298Z" fill="#2D2D2D"./>
<path d="M23.449 31.1309C23.3055 31.0977 23.151 31.0646 22.9633 31.0205C22.7757 30.9874 22.577 30.9653 22.3562 30.9653C22.2568 30.9653 22.1464 30.9763 22.0029 30.9874C21.8705 31.0094 21.7711 31.0205 21.6939 31.0426V35.2152H20.1484V30.0491C20.4244 29.9497 20.7556 29.8614 21.1309 29.7731C21.5062 29.6848 21.9257 29.6406 22.3893 29.6406C22.4776 29.6406 22.577 29.6406 22.6873 29.6517C22.8088 29.6627 22.9192 29.6737 23.0406 29.6958C23.162 29.7179 23.2724 29.7289 23.3938 29.7621C23.5152 29.7841 23.6146 29.8172 23.6919 29.8504L23.449 31.1309Z" fill="#2D2D2D"./>
<path d="M26.9688 28.4101L28.5142 28.1562V29.7679H30.3687V31.0594H28.5142V32.9802C28.5142 33.3003 28.5694 33.5652 28.6908 33.7639C28.8012 33.9626 29.033 34.0509 29.3862 34.0509C29.5518 34.0509 29.7284 34.0399 29.905 34.0068C30.0817 33.9737 30.2473 33.9295 30.3908 33.8743L30.6115 35.0776C30.4239 35.1548 30.2141 35.221 29.9934 35.2762C29.7616 35.3314 29.4856 35.3645 29.1544 35.3645C28.7349 35.3645 28.3817 35.3094 28.1057 35.1879C27.8298 35.0776 27.609 34.9119 27.4434 34.7132C27.2778 34.5145 27.1564 34.2607 27.0902 33.9737C27.0239 33.6867 26.9908 33.3665 26.9908 33.0133V28.4101H26.9688Z" fill="#2D2D2D"./>
<path d="M31.1641 32.5393C31.1641 32.0536 31.2413 31.6341 31.3848 31.2698C31.5283 30.9055 31.727 30.6075 31.9699 30.3646C32.2127 30.1218 32.4887 29.9341 32.8088 29.8127C33.129 29.6913 33.4491 29.625 33.7802 29.625C34.553 29.625 35.1711 29.8569 35.6127 30.3315C36.0653 30.8062 36.286 31.5016 36.286 32.4289C36.286 32.5172 36.286 32.6165 36.275 32.7269C36.264 32.8373 36.264 32.9256 36.2529 33.0139H32.7426C32.7757 33.334 32.9303 33.5879 33.1841 33.7756C33.4491 33.9632 33.8023 34.0515 34.2439 34.0515C34.5309 34.0515 34.8068 34.0295 35.0828 33.9743C35.3588 33.9191 35.5796 33.8639 35.7562 33.7866L35.9659 35.045C35.8776 35.0892 35.7672 35.1333 35.6347 35.1665C35.4912 35.2106 35.3477 35.2437 35.1711 35.2769C35.0055 35.31 34.8179 35.3321 34.6302 35.3541C34.4315 35.3762 34.2439 35.3872 34.0452 35.3872C33.5484 35.3872 33.129 35.31 32.7647 35.1665C32.4004 35.023 32.1024 34.8243 31.8595 34.5704C31.6166 34.3165 31.44 34.0184 31.3296 33.6762C31.2193 33.334 31.1641 32.9367 31.1641 32.5393ZM34.8068 31.9431C34.7958 31.8107 34.7737 31.6782 34.7406 31.5568C34.7075 31.4354 34.6413 31.325 34.564 31.2256C34.4867 31.1263 34.3874 31.049 34.2659 30.9828C34.1445 30.9166 33.99 30.8945 33.8134 30.8945C33.6367 30.8945 33.4932 30.9276 33.3718 30.9828C33.2504 31.038 33.14 31.1153 33.0627 31.2146C32.9744 31.314 32.9192 31.4243 32.8751 31.5568C32.8309 31.6892 32.7978 31.8107 32.7757 31.9431H34.8068Z" fill="#2D2D2D"./>
<path d="M39.0305 31.712C39.185 31.5464 39.3396 31.3698 39.5051 31.1932C39.6707 31.0166 39.8253 30.8399 39.9798 30.6633C40.1344 30.4867 40.2779 30.3211 40.4103 30.1666C40.5428 30.012 40.6642 29.8686 40.7525 29.7582H42.596C42.2317 30.1776 41.8674 30.5861 41.5252 30.9614C41.172 31.3477 40.7967 31.7451 40.3772 32.1425C40.5869 32.3302 40.7967 32.5509 41.0174 32.8159C41.2382 33.0808 41.459 33.3458 41.6577 33.6217C41.8674 33.8977 42.0551 34.1737 42.2317 34.4496C42.4083 34.7256 42.5518 34.9795 42.6733 35.2113H40.896C40.7856 35.0347 40.6642 34.836 40.5207 34.6152C40.3772 34.3944 40.2337 34.1737 40.0681 33.9639C39.9136 33.7432 39.737 33.5334 39.5603 33.3347C39.3837 33.136 39.2071 32.9594 39.0415 32.8269V35.2223H37.4961V27.4179L39.0415 27.1641V31.712H39.0305Z" fill="#2D2D2D"./>
<path d="M43.5078 29.9497C43.7727 29.8724 44.1149 29.8062 44.5234 29.74C44.9428 29.6737 45.3734 29.6406 45.837 29.6406C46.3006 29.6406 46.687 29.6958 46.996 29.8173C47.3051 29.9387 47.548 30.1042 47.7246 30.336C47.9012 30.5568 48.0337 30.8218 48.111 31.1198C48.1882 31.4289 48.2213 31.7601 48.2213 32.1354V35.2152H46.6759V32.323C46.6759 31.8263 46.6097 31.4731 46.4772 31.2633C46.3448 31.0536 46.1019 30.9542 45.7376 30.9542C45.6272 30.9542 45.5058 30.9542 45.3844 30.9653C45.263 30.9763 45.1526 30.9873 45.0532 30.9984V35.2152H43.5078V29.9497Z" fill="#2D2D2D"./>
<path d="M54.7274 32.4794C54.7274 32.91 54.6612 33.2963 54.5398 33.6606C54.4183 34.0138 54.2307 34.3229 53.9989 34.5768C53.7671 34.8307 53.48 35.0294 53.1489 35.1618C52.8177 35.3053 52.4534 35.3716 52.045 35.3716C51.6476 35.3716 51.2833 35.3053 50.9522 35.1618C50.621 35.0183 50.345 34.8307 50.1022 34.5768C49.8704 34.3229 49.6827 34.0248 49.5503 33.6606C49.4178 33.3073 49.3516 32.91 49.3516 32.4794C49.3516 32.0489 49.4178 31.6626 49.5503 31.3093C49.6827 30.9561 49.8704 30.658 50.1132 30.4041C50.3561 30.1502 50.6321 29.9626 50.9632 29.8191C51.2944 29.6756 51.6476 29.6094 52.034 29.6094C52.4314 29.6094 52.7956 29.6756 53.1158 29.8191C53.4469 29.9626 53.7229 30.1502 53.9657 30.4041C54.1976 30.658 54.3852 30.9561 54.5177 31.3093C54.6612 31.6626 54.7274 32.0489 54.7274 32.4794ZM53.1489 32.4794C53.1489 32.0048 53.0495 31.6294 52.8619 31.3535C52.6742 31.0775 52.3982 30.945 52.045 30.945C51.6918 30.945 51.4158 31.0775 51.2281 31.3535C51.0294 31.6294 50.9411 32.0048 50.9411 32.4794C50.9411 32.9541 51.0405 33.3404 51.2281 33.6164C51.4268 33.8924 51.6918 34.0359 52.045 34.0359C52.3982 34.0359 52.6742 33.8924 52.8619 33.6164C53.0495 33.3404 53.1489 32.9541 53.1489 32.4794Z" fill="#2D2D2D"./>
<path d="M58.0965 35.3249C57.6439 35.3139 57.2796 35.2697 57.0037 35.1814C56.7277 35.0931 56.5069 34.9606 56.3413 34.8061C56.1758 34.6405 56.0654 34.4418 56.0102 34.21C55.955 33.9782 55.9219 33.7132 55.9219 33.4262V27.4101L57.4673 27.1562V33.1061C57.4673 33.2496 57.4783 33.371 57.5004 33.4814C57.5225 33.5918 57.5556 33.6912 57.6218 33.7574C57.677 33.8347 57.7653 33.9009 57.8757 33.9451C57.9861 33.9892 58.1407 34.0223 58.3173 34.0334L58.0965 35.3249Z" fill="#2D2D2D"./>
<path d="M64.3095 32.4794C64.3095 32.91 64.2432 33.2963 64.1218 33.6606C64.0004 34.0138 63.8127 34.3229 63.5809 34.5768C63.3491 34.8307 63.0621 35.0294 62.7309 35.1618C62.3998 35.3053 62.0355 35.3716 61.627 35.3716C61.2297 35.3716 60.8654 35.3053 60.5342 35.1618C60.203 35.0183 59.9271 34.8307 59.6842 34.5768C59.4524 34.3229 59.2648 34.0248 59.1323 33.6606C58.9998 33.3073 58.9336 32.91 58.9336 32.4794C58.9336 32.0489 58.9998 31.6626 59.1323 31.3093C59.2648 30.9561 59.4524 30.658 59.6953 30.4041C59.9381 30.1502 60.2141 29.9626 60.5452 29.8191C60.8764 29.6756 61.2297 29.6094 61.616 29.6094C62.0134 29.6094 62.3777 29.6756 62.6978 29.8191C63.029 29.9626 63.3049 30.1502 63.5478 30.4041C63.7796 30.658 63.9673 30.9561 64.0997 31.3093C64.2432 31.6626 64.3095 32.0489 64.3095 32.4794ZM62.7309 32.4794C62.7309 32.0048 62.6316 31.6294 62.4439 31.3535C62.2563 31.0775 61.9803 30.945 61.627 30.945C61.2738 30.945 60.9978 31.0775 60.8102 31.3535C60.6115 31.6294 60.5232 32.0048 60.5232 32.4794C60.5232 32.9541 60.6225 33.3404 60.8102 33.6164C61.0089 33.8924 61.2738 34.0359 61.627 34.0359C61.9803 34.0359 62.2563 33.8924 62.4439 33.6164C62.6316 33.3404 62.7309 32.9541 62.7309 32.4794Z" fill="#2D2D2D"./>
<path d="M64.9994 37.1473C64.9001 37.1473 64.7566 37.1363 64.5689 37.1142C64.3813 37.0921 64.2046 37.059 64.0391 37.0038L64.2488 35.7453C64.3481 35.7785 64.4475 35.8006 64.5358 35.8226C64.6241 35.8337 64.7345 35.8447 64.867 35.8447C65.1098 35.8447 65.2754 35.7675 65.3747 35.624C65.4741 35.4805 65.5182 35.2707 65.5182 34.9947V29.7734H67.0637V35.0389C67.0637 35.7564 66.8871 36.2973 66.5338 36.6395C66.1806 36.9817 65.6618 37.1473 64.9994 37.1473Z" fill="#2D2D2D"./>
<path d="M70.0493 35.2298H68.5039V29.7656H70.0493V35.2298Z" fill="#2D2D2D"./>
<path d="M1.54542 29.0642H0L0.011036 27.5078H0.750632C1.19218 27.5078 1.55646 27.8721 1.55646 28.3247L1.54542 29.0642Z" fill="#0069DF"./>
<path d="M18.7251 29.0642H17.1797L17.1907 27.5078H17.9303C18.3719 27.5078 18.7362 27.8721 18.7362 28.3247L18.7251 29.0642Z" fill="#2D2D2D"./>
<path d="M67.0532 29.0642H65.5078L65.5188 27.5078H66.2585C66.7 27.5078 67.0643 27.8721 67.0643 28.3247L67.0532 29.0642Z" fill="#2D2D2D"./>
<path d="M70.0493 29.0642H68.5039L68.5149 27.5078H69.2545C69.6961 27.5078 70.0604 27.8721 70.0604 28.3247L70.0493 29.0642Z" fill="#2D2D2D"./>
</svg>
