<svg width="323" height="241" viewBox="0 0 323 241" fill="none" xmlns="http://www.w3.org/2000/svg">
<g clip-path="url(#clip0_1_2)">
<path fill-rule="evenodd" clip-rule="evenodd" d="M0.997997 170.601C0.997997 168.606 0.940398 166.611 0.825197 164.616C0.709996 162.621 0.575598 160.626 0.421997 158.63H8.6012V166.803H8.8316C10.6748 163.657 13.2284 161.278 16.4924 159.666C19.7564 158.055 23.0012 157.249 26.2268 157.249C27.686 157.249 29.2412 157.403 30.8924 157.71C32.5436 158.017 34.1372 158.573 35.6732 159.379C37.2092 160.184 38.6492 161.316 39.9932 162.774C41.3372 164.232 42.47 166.112 43.3916 168.414C44.9276 164.961 47.366 162.237 50.7068 160.242C54.0476 158.247 57.5228 157.249 61.1324 157.249C68.0444 157.249 73.1516 159.072 76.454 162.717C79.7564 166.362 81.4076 171.56 81.4076 178.313V212.499H73.8044V181.076C73.8044 175.627 72.8444 171.445 70.9244 168.529C69.0044 165.613 65.4332 164.155 60.2108 164.155C57.3692 164.155 54.9884 164.712 53.0684 165.824C51.1484 166.937 49.5932 168.414 48.4028 170.256C47.2124 172.098 46.3484 174.189 45.8108 176.529C45.2732 178.87 45.0044 181.306 45.0044 183.838V212.499H37.4012V181.076C37.4012 175.627 36.4412 171.445 34.5212 168.529C32.6012 165.613 29.03 164.155 23.8076 164.155C23.3468 164.155 22.2908 164.309 20.6396 164.616C18.9884 164.923 17.2796 165.767 15.5132 167.148C13.7468 168.529 12.1532 170.601 10.7324 173.364C9.31159 176.126 8.6012 179.963 8.6012 184.874V212.499H0.997997V170.601ZM124.316 185.68C122.396 185.68 119.996 185.776 117.116 185.968C114.236 186.16 111.471 186.62 108.822 187.349C106.172 188.078 103.906 189.21 102.025 190.745C100.143 192.279 99.2024 194.39 99.2024 197.075C99.2024 198.84 99.5672 200.356 100.297 201.622C101.026 202.888 102.006 203.924 103.234 204.73C104.463 205.536 105.826 206.111 107.324 206.456C108.822 206.802 110.338 206.974 111.874 206.974C114.639 206.974 117.039 206.514 119.074 205.593C121.11 204.672 122.818 203.425 124.201 201.852C125.583 200.279 126.601 198.437 127.254 196.327C127.906 194.217 128.233 191.972 128.233 189.594V185.68H124.316ZM128.233 179.464V178.083C128.233 168.798 123.625 164.155 114.409 164.155C108.111 164.155 102.62 166.266 97.9352 170.486L93.3272 165.076C98.396 159.858 105.999 157.249 116.137 157.249C118.748 157.249 121.263 157.633 123.682 158.4C126.102 159.168 128.194 160.338 129.961 161.911C131.727 163.484 133.148 165.46 134.223 167.839C135.298 170.218 135.836 173.057 135.836 176.357V200.413C135.836 202.485 135.932 204.653 136.124 206.917C136.316 209.18 136.527 211.041 136.758 212.499H129.385C129.154 211.195 128.982 209.775 128.866 208.24C128.751 206.706 128.694 205.209 128.694 203.751H128.463C126.236 207.358 123.606 209.948 120.572 211.521C117.538 213.094 113.833 213.881 109.455 213.881C107.074 213.881 104.77 213.554 102.543 212.902C100.316 212.25 98.3384 211.252 96.6104 209.909C94.8824 208.567 93.5 206.917 92.4632 204.96C91.4264 203.003 90.908 200.72 90.908 198.111C90.908 193.737 92.0408 190.303 94.3064 187.809C96.572 185.315 99.4136 183.455 102.831 182.227C106.249 180.999 109.897 180.232 113.775 179.925C117.654 179.618 121.206 179.464 124.431 179.464H128.233ZM155.319 158.63C155.473 160.088 155.569 161.527 155.607 162.947C155.646 164.366 155.665 165.805 155.665 167.263H155.895C156.74 165.805 157.815 164.462 159.121 163.235C160.426 162.007 161.886 160.952 163.498 160.069C165.111 159.187 166.82 158.496 168.625 157.997C170.43 157.499 172.215 157.249 173.982 157.249C180.894 157.249 186.001 159.072 189.303 162.717C192.606 166.362 194.257 171.56 194.257 178.313V212.499H186.654V182.687C186.654 176.702 185.617 172.117 183.543 168.932C181.47 165.748 177.63 164.155 172.023 164.155C171.639 164.155 170.564 164.309 168.798 164.616C167.031 164.923 165.169 165.767 163.21 167.148C161.252 168.529 159.505 170.601 157.969 173.364C156.433 176.126 155.665 179.963 155.665 184.874V212.499H148.062V170.486C148.062 169.028 148.004 167.187 147.889 164.961C147.774 162.736 147.639 160.626 147.486 158.63H155.319ZM211.778 185.565C211.778 188.558 212.258 191.358 213.218 193.968C214.178 196.577 215.541 198.84 217.308 200.759C219.074 202.677 221.205 204.193 223.701 205.305C226.197 206.418 229.02 206.974 232.168 206.974C235.24 206.974 238.101 206.418 240.751 205.305C243.4 204.193 245.685 202.677 247.605 200.759C249.525 198.84 251.023 196.577 252.098 193.968C253.173 191.358 253.711 188.558 253.711 185.565C253.711 182.572 253.173 179.771 252.098 177.162C251.023 174.553 249.525 172.29 247.605 170.371C245.685 168.453 243.4 166.937 240.751 165.824C238.101 164.712 235.24 164.155 232.168 164.155C229.02 164.155 226.197 164.712 223.701 165.824C221.205 166.937 219.074 168.453 217.308 170.371C215.541 172.29 214.178 174.553 213.218 177.162C212.258 179.771 211.778 182.572 211.778 185.565ZM260.965 212.499H253.362V203.521H253.131C251.902 205.363 250.443 206.936 248.754 208.24C247.064 209.545 245.298 210.619 243.454 211.463C241.611 212.307 239.71 212.921 237.752 213.305C235.794 213.689 233.931 213.881 232.165 213.881C227.941 213.881 224.082 213.171 220.587 211.751C217.093 210.332 214.078 208.356 211.544 205.823C209.01 203.291 207.032 200.298 205.611 196.845C204.19 193.392 203.48 189.632 203.48 185.565C203.48 181.498 204.19 177.738 205.611 174.285C207.032 170.831 209.01 167.839 211.544 165.306C214.078 162.774 217.093 160.798 220.587 159.379C224.082 157.959 227.941 157.249 232.165 157.249C233.931 157.249 235.794 157.441 237.752 157.825C239.71 158.208 241.611 158.822 243.454 159.666C245.298 160.51 247.064 161.585 248.754 162.889C250.443 164.194 251.902 165.767 253.131 167.609H253.362V125.48H260.965V212.499ZM296.936 203.176L313.41 158.63H322.626L295.669 226.542C294.056 230.686 292.002 233.985 289.506 236.441C287.01 238.897 283.419 240.124 278.734 240.124C277.582 240.124 276.411 240.086 275.221 240.009C274.03 239.933 272.859 239.702 271.707 239.319L272.514 231.952C274.126 232.796 276.046 233.218 278.274 233.218C280.962 233.218 283.074 232.374 284.61 230.686C286.146 228.998 287.49 226.619 288.642 223.549L292.558 213.19L270.44 158.63H280.002L296.936 203.176Z" fill="white"/>
<path fill-rule="evenodd" clip-rule="evenodd" d="M124.936 76.9966C127.104 81.2521 129.882 85.1431 133.171 88.5373H124.31C122.881 88.5373 121.614 87.8208 120.86 86.7287L103.907 57.3991C103.896 57.3897 103.896 57.3809 103.887 57.371C103.575 56.7834 103.4 56.1037 103.4 55.3982C103.4 54.82 103.741 53.7477 103.741 53.7389C103.788 53.6194 120.914 23.9753 120.914 23.9753C120.925 23.9565 120.934 23.9565 120.934 23.9477C121.695 22.9206 122.927 22.2597 124.302 22.2597H133.171C129.882 25.655 127.104 29.5427 124.936 33.7983C121.632 40.2821 119.767 47.6207 119.767 55.3982C119.767 63.1763 121.632 70.5133 124.936 76.9966Z" fill="white"/>
<path fill-rule="evenodd" clip-rule="evenodd" d="M146.978 22.2628L143.115 28.9234C142.355 29.9665 141.117 30.6517 139.731 30.6517H130.229C131.721 28.4019 133.422 26.2865 135.315 24.333L137.313 22.2628H146.978Z" fill="white"/>
<path fill-rule="evenodd" clip-rule="evenodd" d="M194.834 57.8608C194.834 57.8608 190.777 64.6564 190.599 64.8497C189.838 65.7144 188.72 66.2497 187.467 66.2497H173.076L161.026 87.1282C160.251 87.9895 159.132 88.5425 157.88 88.5425H137.313L135.315 86.4706C133.436 84.521 131.721 82.4017 130.229 80.1377H155.372C155.372 80.1377 167.274 59.5439 167.287 59.5301C167.99 58.606 169.065 57.9803 170.302 57.8608H194.834Z" fill="white"/>
<path fill-rule="evenodd" clip-rule="evenodd" d="M207.032 81.7989C209.631 77.7889 211.599 73.4342 212.89 68.8895L217.335 76.5459C218.055 77.7829 218.068 79.2379 217.504 80.4347L200.621 109.808C200.619 109.823 200.611 109.826 200.607 109.838C200.254 110.403 199.757 110.893 199.145 111.249C198.643 111.54 197.546 111.784 197.536 111.788C197.412 111.808 163.155 111.883 163.155 111.883C163.134 111.886 163.129 111.877 163.12 111.883C161.85 111.741 160.659 111.011 159.969 109.818L155.517 102.154C160.105 103.292 164.868 103.743 169.638 103.479C176.912 103.079 184.197 101.007 190.931 97.1044C197.663 93.1992 203.08 87.9082 207.032 81.7989Z" fill="white"/>
<path fill-rule="evenodd" clip-rule="evenodd" d="M164.262 100.492C161.547 100.33 158.861 99.9104 156.236 99.255L153.434 98.5721L148.588 90.2246L156.298 90.2102C157.594 90.3435 158.803 91.0738 159.491 92.2827L164.262 100.492Z" fill="white"/>
<path fill-rule="evenodd" clip-rule="evenodd" d="M210.805 65.2968L210.015 68.0836C209.284 70.6913 208.301 73.2088 207.109 75.6375L194.49 53.9274C194.49 53.9274 170.675 53.9571 170.658 53.9571C169.496 53.8227 168.422 53.2109 167.707 52.1986L155.389 30.9946C155.389 30.9946 163.306 31.0981 163.56 31.1439C164.693 31.3669 165.724 32.068 166.35 33.1546L173.567 45.582L197.682 45.5225C198.83 45.761 199.858 46.4621 200.485 47.5355L210.805 65.2968Z" fill="white"/>
<path fill-rule="evenodd" clip-rule="evenodd" d="M170.203 8.43732C165.433 8.19114 160.669 8.65982 156.089 9.81417L160.507 2.14182C161.221 0.902111 162.473 0.161917 163.796 0.0523202L197.698 0.0027537C197.709 0 197.718 0.00440591 197.729 0C198.394 0.0236818 199.069 0.209832 199.684 0.561754C200.185 0.84979 200.945 1.67975 200.95 1.68526C201.033 1.78439 218.204 31.4059 218.204 31.4059C218.215 31.4208 218.209 31.4296 218.217 31.4329C218.728 32.6076 218.687 34.0004 218.003 35.1928L213.578 42.8723C212.273 38.3336 210.286 33.9845 207.676 29.9855C203.7 23.8894 198.265 18.6161 191.519 14.7367C184.77 10.8562 177.477 8.80907 170.203 8.43732Z" fill="white"/>
<path fill-rule="evenodd" clip-rule="evenodd" d="M211.507 46.4623L206.689 54.8209L202.841 48.1602C202.305 46.969 202.334 45.5679 203.036 44.3607L207.763 36.1354C208.972 38.5493 209.956 41.0821 210.717 43.6899L211.507 46.4623Z" fill="white"/>
<path fill-rule="evenodd" clip-rule="evenodd" d="M164.232 53.8225C164.693 54.8953 164.693 56.1323 164.171 57.2657L151.929 78.5132C151.929 78.5132 148.067 71.5992 147.976 71.3624C147.618 70.2741 147.709 69.0212 148.334 67.9495L155.506 55.4918L143.426 34.6298C143.054 33.5277 143.144 32.2908 143.757 31.2185L154.014 13.4109L156.82 12.7114C159.444 12.0401 162.13 11.6221 164.844 11.4596L152.301 33.2149C152.301 33.2149 164.219 53.8087 164.232 53.8225Z" fill="white"/>
</g>
<defs>
<clipPath id="clip0_1_2">
<rect width="323" height="241" fill="white"/>
</clipPath>
</defs>
</svg>
