<svg width="103" height="80" viewBox="0 0 103 80" fill="none" xmlns="http://www.w3.org/2000/svg">
<rect x="35.4067" y="1.5" width="32.1867" height="20.0533" rx="3.5" stroke="#006FD1" stroke-width="3"/>
<rect x="2" y="13" width="99" height="65" rx="7" fill="white" stroke="#006FD1" stroke-width="3"/>
<path d="M66.4708 59.1075C63.7388 61.7997 60.2422 63.6109 56.4433 64.3015C52.6445 64.9921 48.7225 64.5296 45.1962 62.9751C41.6698 61.4206 38.7052 58.8475 36.6945 55.596C34.6837 52.3445 33.7217 48.5678 33.9355 44.7656C34.1493 40.9634 35.529 37.3148 37.892 34.3023C40.255 31.2898 43.4899 29.0555 47.169 27.8948C50.8481 26.7342 54.7979 26.7019 58.496 27.8022C62.1941 28.9025 65.4662 31.0836 67.8796 34.057C65.6475 32.3447 62.9727 31.2845 60.1595 30.9971C57.3463 30.7097 54.5077 31.2066 51.9669 32.4312C49.4261 33.6559 47.285 35.5591 45.7874 37.9243C44.2898 40.2895 43.4958 43.0216 43.4958 45.8098C43.4958 48.5979 44.2898 51.33 45.7874 53.6952C47.285 56.0604 49.4261 57.9636 51.9669 59.1883C54.5077 60.4129 57.3463 60.9098 60.1595 60.6224C62.9727 60.335 65.6475 59.2748 67.8796 57.5625C67.439 58.1025 66.9687 58.6183 66.4708 59.1075Z" stroke="#006FD1" stroke-width="3" stroke-linejoin="round"/>
</svg>
