<svg width="97" height="93" viewBox="0 0 97 93" fill="none" xmlns="http://www.w3.org/2000/svg">
<path d="M78.7881 18.4592L77.4996 17.6913L78.7881 18.4592C80.3727 15.8002 77.3814 12.7747 74.7046 14.329L73.1543 15.2291L69.3816 8.63516C67.2713 4.43208 62.9173 1.5 57.8819 1.5H35.1657C30.0771 1.5 25.7261 4.48497 23.6194 8.7283L16.2095 21.6299C15.3862 23.0634 15.8776 24.8928 17.3084 25.7207L34.4266 35.6258C35.8662 36.4587 37.7086 35.9616 38.5338 34.5176L46.5255 20.5328L50.8869 28.1452L49.3083 29.0618C46.6332 30.6151 47.7745 34.71 50.8673 34.6557L67.6592 34.361C68.6973 34.3427 69.6521 33.7891 70.1836 32.8972L78.7881 18.4592ZM14.9653 79.9611L14.9682 79.9662C16.1829 82.0607 17.9589 83.7718 20.095 84.904C22.2146 86.0274 24.604 86.536 26.9951 86.3726H41.7981C43.4549 86.3726 44.7981 85.0295 44.7981 83.3726V63.5542C44.7981 61.8973 43.4549 60.5542 41.7981 60.5542H25.7195L30.0813 52.9722L31.6278 53.8701C34.3055 55.4249 37.2972 52.397 35.7102 49.7382L27.0688 35.2601C26.536 34.3675 25.5791 33.8143 24.5397 33.798L7.77202 33.5359C4.68212 33.4876 3.54626 37.5782 6.21873 39.1299L7.81447 40.0564L4.0385 46.6183C1.4494 50.5758 1.0924 55.8183 3.60669 60.1995L3.60719 60.2004L14.9653 79.9611ZM82.4003 79.9121C82.4011 79.9107 82.4019 79.9094 82.4026 79.9081L93.7504 60.1652C93.7515 60.1633 93.7526 60.1614 93.7537 60.1595C96.3174 55.7766 95.9612 50.4832 93.3223 46.5219L85.9202 33.6339C85.0926 32.1929 83.2512 31.6992 81.8137 32.5329L64.7363 42.4372C63.3075 43.2658 62.8173 45.0934 63.6396 46.5258L71.6924 60.5542L62.9711 60.5542V58.7383C62.9711 55.6396 58.8455 54.5747 57.3458 57.2863L49.2018 72.0115C48.7022 72.9149 48.7022 74.0119 49.2018 74.9153L57.3458 89.6405C58.8455 92.352 62.9711 91.2872 62.9711 88.1885V86.3726H70.5101C75.2254 86.6628 79.8891 84.3359 82.4003 79.9121Z" stroke="#006FD1" stroke-width="3" stroke-linejoin="round"/>
</svg>
