<svg width="82" height="83" viewBox="0 0 82 83" fill="none" xmlns="http://www.w3.org/2000/svg">
<circle cx="62.4818" cy="19.7578" r="6.02465" transform="rotate(-45 62.4818 19.7578)" fill="white" stroke="#006FD1" stroke-width="3"/>
<circle cx="3.84252" cy="3.84252" r="3.84252" transform="matrix(-1 2.18557e-08 2.18557e-08 1 16.6343 38.6797)" fill="white" stroke="#006FD1" stroke-width="3"/>
<circle cx="67.1596" cy="42.5222" r="3.84252" fill="white" stroke="#006FD1" stroke-width="3"/>
<circle cx="16.689" cy="67.2812" r="7.02542" transform="rotate(-45 16.689 67.2812)" fill="white" stroke="#006FD1" stroke-width="3"/>
<circle cx="7.68504" cy="7.68504" r="7.68504" transform="matrix(-0.707107 -0.707107 -0.707107 0.707107 82 71.2188)" fill="white" stroke="#006FD1" stroke-width="3"/>
<path d="M16.6343 17.8203L29.8086 30.9947" stroke="#006FD1" stroke-width="3"/>
<path d="M35.298 47.4609L19.9279 62.831" stroke="#006FD1" stroke-width="3"/>
<path d="M58.902 23.3125L48.4723 33.7422" stroke="#006FD1" stroke-width="3"/>
<path d="M17.8276 42.7656L32.5774 42.7656" stroke="#006FD1" stroke-width="3"/>
<path d="M62.1238 42.7656L47.3739 42.7656" stroke="#006FD1" stroke-width="3"/>
<path d="M51.7659 52.9531L64.9403 66.1275" stroke="#006FD1" stroke-width="3"/>
<circle cx="39.6894" cy="43.0732" r="15.3701" fill="white" stroke="#006FD1" stroke-width="3"/>
<circle cx="9.00605" cy="9.00605" r="9.00605" transform="matrix(-0.707107 -0.707107 -0.707107 0.707107 25.4729 13.4844)" fill="white" stroke="#006FD1" stroke-width="3"/>
</svg>
