<svg width="73" height="89" viewBox="0 0 73 89" fill="none" xmlns="http://www.w3.org/2000/svg">
<path d="M1.5 16C1.5 14.6193 2.61929 13.5 4 13.5H19.2446L16.7183 29.5H10C5.30558 29.5 1.5 25.6944 1.5 21V16Z" fill="white" stroke="#006FD1" stroke-width="3"/>
<path d="M1.5 39C1.5 37.6193 2.61929 36.5 4 36.5H19.2446L16.7183 52.5H10C5.30558 52.5 1.5 48.6944 1.5 44V39Z" fill="white" stroke="#006FD1" stroke-width="3"/>
<path d="M1.5 62C1.5 60.6193 2.61929 59.5 4 59.5H20.0944L28.5155 75.5H10C5.30558 75.5 1.5 71.6944 1.5 67V62Z" fill="white" stroke="#006FD1" stroke-width="3"/>
<path d="M71.5 16C71.5 14.6193 70.3807 13.5 69 13.5H53.7554L56.2817 29.5H63C67.6944 29.5 71.5 25.6944 71.5 21V16Z" fill="white" stroke="#006FD1" stroke-width="3"/>
<path d="M71.5 39C71.5 37.6193 70.3807 36.5 69 36.5H53.7554L56.2817 52.5H63C67.6944 52.5 71.5 48.6944 71.5 44V39Z" fill="white" stroke="#006FD1" stroke-width="3"/>
<path d="M71.5 62C71.5 60.6193 70.3807 59.5 69 59.5H53.4231L52.581 75.5H63C67.6944 75.5 71.5 71.6944 71.5 67V62Z" fill="white" stroke="#006FD1" stroke-width="3"/>
<path d="M22.3036 8.79839C18.5727 12.9438 16.5 18.5353 16.5 24.3368V65.4479C16.5 71.2494 18.5727 76.8409 22.3036 80.9863C26.0391 85.137 31.1416 87.5035 36.5 87.5035C41.8584 87.5035 46.9609 85.137 50.6964 80.9863C54.4273 76.8409 56.5 71.2494 56.5 65.4479V24.3368C56.5 18.5353 54.4273 12.9438 50.6964 8.79839C46.9609 4.64777 41.8584 2.28125 36.5 2.28125C31.1416 2.28125 26.0391 4.64777 22.3036 8.79839Z" fill="white" stroke="#006FD1" stroke-width="3" stroke-linecap="round" stroke-linejoin="round"/>
<circle cx="36.4996" cy="69.5582" r="8.22222" fill="white" stroke="#006FD1" stroke-width="3"/>
<circle cx="36.4996" cy="44.8941" r="8.22222" fill="white" stroke="#006FD1" stroke-width="3"/>
<circle cx="36.4996" cy="20.2222" r="8.22222" fill="white" stroke="#006FD1" stroke-width="3"/>
</svg>
