<svg width="42" height="37" viewBox="0 0 42 37" fill="none" xmlns="http://www.w3.org/2000/svg">
<path d="M35.8506 36.407C38.7871 33.4241 40.7868 29.6239 41.5968 25.4869C42.4067 21.3499 41.9907 17.0618 40.4011 13.1649C38.8115 9.26807 36.1199 5.93739 32.6666 3.59407C29.2132 1.25074 25.1532 0 21 0C16.8468 0 12.7868 1.25074 9.33343 3.59407C5.88008 5.93739 3.18845 9.26807 1.5989 13.1649C0.00935127 17.0618 -0.406741 21.3499 0.40324 25.4869C1.21322 29.6239 3.2129 33.4241 6.14942 36.407C6.51538 36.7767 7.0106 36.9843 7.5268 36.9843C8.04301 36.9843 8.53823 36.7767 8.90419 36.407L10.5745 34.7106L12.2603 33.0246C12.6256 32.6536 12.8308 32.1505 12.8308 31.6258C12.8308 31.1011 12.6256 30.5979 12.2603 30.2269C11.895 29.8559 11.3995 29.6475 10.8829 29.6475C10.3663 29.6475 9.87082 29.8559 9.50551 30.2269L7.84031 31.9181C5.90599 29.4347 4.6937 26.4517 4.34032 23.3056H6.75588C7.26533 23.2947 7.75028 23.0815 8.10673 22.7117C8.46318 22.3419 8.66275 21.8449 8.66263 21.3274C8.66603 21.0667 8.61866 20.808 8.52326 20.566C8.42785 20.3239 8.28629 20.1035 8.10671 19.9172C7.92713 19.7309 7.71307 19.5826 7.47684 19.4806C7.2406 19.3786 6.98686 19.3251 6.73018 19.323H4.31462C4.66986 16.1807 5.88205 13.2015 7.81462 10.7211L9.47981 12.4122C9.84307 12.7867 10.3379 12.9993 10.8555 13.0032C11.3731 13.0071 11.871 12.802 12.2397 12.4331C12.6084 12.0642 12.8177 11.5616 12.8216 11.0359C12.8255 10.5103 12.6235 10.0046 12.2603 9.63015L10.5951 7.93898C13.0331 5.97894 15.9608 4.748 19.0496 4.38439V6.76455C19.0496 7.28922 19.2548 7.79239 19.6201 8.16339C19.9854 8.53438 20.4808 8.7428 20.9974 8.7428C21.514 8.7428 22.0095 8.53438 22.3748 8.16339C22.7401 7.79239 22.9453 7.28922 22.9453 6.76455V4.38439C26.0417 4.74575 28.9771 5.97872 31.4203 7.9442L29.7346 9.63015C29.3693 10.0011 29.164 10.5043 29.164 11.029C29.164 11.5537 29.3693 12.0569 29.7346 12.4279C30.0999 12.7989 30.5953 13.0073 31.112 13.0073C31.6286 13.0073 32.124 12.7989 32.4893 12.4279L34.1545 10.7367C36.4968 13.7533 37.7706 17.4831 37.7706 21.3248C37.7706 25.1665 36.4968 28.8962 34.1545 31.9129L32.4893 30.2217C32.1234 29.8507 31.6272 29.6425 31.1101 29.643C30.593 29.6435 30.0973 29.8526 29.732 30.2243C29.3667 30.596 29.1617 31.0998 29.1622 31.625C29.1627 32.1502 29.3686 32.6536 29.7346 33.0246L31.3998 34.7158L33.0701 36.4122C33.2521 36.5989 33.4689 36.747 33.7077 36.8479C33.9465 36.9488 34.2027 37.0005 34.4614 37C34.7201 36.9995 34.9761 36.9468 35.2146 36.845C35.4531 36.7432 35.6692 36.5943 35.8506 36.407Z" fill="#9DA8C3"/>
</svg>
