<svg width="69" height="69" viewBox="0 0 69 69" fill="none" xmlns="http://www.w3.org/2000/svg">
<path fill-rule="evenodd" clip-rule="evenodd" d="M62.482 54.2203C60.0944 54.7337 57.6163 55.004 55.075 55.004C35.7374 55.004 20.0612 39.3526 20.0612 20.0457C20.0612 12.5879 22.4003 5.67553 26.3858 0C11.2393 3.70078 0 17.3429 0 33.606C0 52.7129 15.5139 68.2022 34.6512 68.2022C46.0522 68.2022 56.1672 62.7049 62.482 54.2203Z" fill="#F7BF3A"/>
<path fill-rule="evenodd" clip-rule="evenodd" d="M43.0124 15.3097C42.8223 15.0386 42.5763 14.6373 41.8327 13.5963C41.8482 13.6118 38.2732 9.01904 38.2732 9.01904C37.8333 8.45394 37.9447 8.35973 38.5171 8.80494C38.5171 8.80494 43.0773 12.3518 43.0773 12.3518C44.0999 13.0822 44.5115 13.3389 44.7863 13.5314C45.0575 13.3413 45.4588 13.0953 46.4998 12.3518C46.4843 12.3672 51.077 8.79222 51.077 8.79222C51.6421 8.35239 51.7363 8.46369 51.2911 9.03611C51.2911 9.03611 47.7443 13.5963 47.7443 13.5963C47.0138 14.619 46.7572 15.0306 46.5646 15.3054C46.7547 15.5765 47.0007 15.9778 47.7443 17.0188C47.7288 17.0033 51.3038 21.5961 51.3038 21.5961C51.7437 22.1612 51.6324 22.2554 51.06 21.8102C51.06 21.8102 46.4998 18.2634 46.4998 18.2634C45.4771 17.5329 45.0655 17.2763 44.7907 17.0837C44.5195 17.2738 44.1183 17.5198 43.0773 18.2634C43.0927 18.2479 38.5 21.8229 38.5 21.8229C37.9349 22.2627 37.8407 22.1514 38.2859 21.579C38.2859 21.579 41.8327 17.0188 41.8327 17.0188C42.5632 15.9961 42.8198 15.5845 43.0124 15.3097V15.3097Z" fill="white"/>
<path fill-rule="evenodd" clip-rule="evenodd" d="M63.3743 35.2043C63.3814 35.2113 61.7459 33.1102 61.7459 33.1102C61.5431 32.8497 61.593 32.8052 61.8553 33.0091C61.8553 33.0091 63.9445 34.6341 63.9445 34.6341C64.413 34.9687 64.6016 35.0863 64.7275 35.1745C64.8517 35.0874 65.0356 34.9747 65.5125 34.6341C65.5054 34.6412 67.6065 33.0056 67.6065 33.0056C67.8671 32.8028 67.9116 32.8528 67.7076 33.115C67.7076 33.115 66.0827 35.2043 66.0827 35.2043C65.748 35.6728 65.6304 35.8614 65.5422 35.9873C65.6293 36.1115 65.742 36.2953 66.0827 36.7722C66.0756 36.7651 67.7111 38.8663 67.7111 38.8663C67.9139 39.1268 67.8639 39.1713 67.6017 38.9674C67.6017 38.9674 65.5125 37.3424 65.5125 37.3424C65.044 37.0078 64.8554 36.8902 64.7295 36.802C64.6053 36.8891 64.4214 37.0018 63.9445 37.3424C63.9516 37.3353 61.8505 38.9709 61.8505 38.9709C61.5899 39.1736 61.5454 39.1237 61.7494 38.8614C61.7494 38.8614 63.3743 36.7722 63.3743 36.7722C63.709 36.3037 63.8265 36.1151 63.9148 35.9892C63.8277 35.865 63.715 35.6812 63.3743 35.2043Z" fill="white"/>
</svg>
