<svg width="104" height="64" viewBox="0 0 104 64" fill="none" xmlns="http://www.w3.org/2000/svg">
<path fill-rule="evenodd" clip-rule="evenodd" d="M62.4195 63.3682H22.3505C10.0066 63.3682 0 53.4 0 41.1037C0 28.8073 10.0066 18.8392 22.3505 18.8392C26.0754 18.8392 29.5876 19.7469 32.6761 21.3525C36.9767 8.92659 48.8185 0 62.7532 0C80.3194 0 94.5597 14.1855 94.5597 31.6841C94.5597 32.0427 94.5537 32.4 94.5418 32.7557C99.6696 35.5 103.156 40.8934 103.156 47.098C103.156 56.0838 95.8434 63.3682 86.823 63.3682H62.7532C62.703 63.3682 62.4195 63.3682 62.4195 63.3682H62.7532H62.4195Z" fill="white"/>
</svg>
