<svg width="104" height="64" viewBox="0 0 104 64" fill="none" xmlns="http://www.w3.org/2000/svg">
<path fill-rule="evenodd" clip-rule="evenodd" d="M72.063 63.4644H41.418C31.9774 63.4644 24.3242 55.8406 24.3242 46.4363C24.3242 37.032 31.9774 29.4083 41.418 29.4083C44.2669 29.4083 46.953 30.1026 49.3151 31.3305C52.6042 21.8271 61.6609 15 72.3182 15C85.753 15 96.644 25.8491 96.644 39.2322C96.644 39.5065 96.6394 39.7797 96.6303 40.0518C100.552 42.1506 103.218 46.2755 103.218 51.0208C103.218 57.8932 97.6258 63.4644 90.7269 63.4644H72.3182C72.2798 63.4643 72.063 63.4644 72.063 63.4644H72.3182H72.063Z" fill="#9E9E9E"/>
<path fill-rule="evenodd" clip-rule="evenodd" d="M22.331 22.6704H7.99603C3.57994 22.6704 0 19.1042 0 14.7051C0 10.306 3.57994 6.73985 7.99603 6.73985C9.32867 6.73985 10.5852 7.0646 11.6901 7.63899C13.2287 3.19355 17.4651 0 22.4504 0C28.7348 0 33.8294 5.07494 33.8294 11.3352C33.8294 11.4635 33.8272 11.5913 33.823 11.7186C35.6575 12.7004 36.9048 14.6299 36.9048 16.8496C36.9048 20.0644 34.2887 22.6704 31.0615 22.6704H22.4504C22.4324 22.6704 22.331 22.6704 22.331 22.6704H22.4504H22.331Z" fill="#9E9E9E"/>
</svg>
