<svg width="64" height="61" viewBox="0 0 64 61" fill="none" xmlns="http://www.w3.org/2000/svg">
<path fill-rule="evenodd" clip-rule="evenodd" d="M38.3881 38.9715H13.7456C6.1541 38.9715 0 32.8411 0 25.2788C0 17.7166 6.1541 11.5861 13.7456 11.5861C16.0364 11.5861 18.1964 12.1444 20.0959 13.1318C22.7407 5.48987 30.0234 0 38.5933 0C49.3966 0 58.1543 8.72408 58.1543 19.4858C58.1543 19.7063 58.1507 19.926 58.1434 20.1448C61.297 21.8326 63.4411 25.1495 63.4411 28.9653C63.4411 34.4916 58.9439 38.9715 53.3963 38.9715H38.5933C38.5625 38.9715 38.3881 38.9715 38.3881 38.9715H38.5933H38.3881Z" fill="#9E9E9E"/>
<path fill-rule="evenodd" clip-rule="evenodd" d="M10 43.9375C10 42.9343 10.8132 42.1211 11.8164 42.1211H50.651C51.6541 42.1211 52.4674 42.9343 52.4674 43.9375C52.4674 44.9407 51.6541 45.7539 50.651 45.7539H11.8164C10.8132 45.7539 10 44.9407 10 43.9375ZM10 51.4453C10 50.4421 10.8132 49.6289 11.8164 49.6289H50.651C51.6541 49.6289 52.4674 50.4421 52.4674 51.4453C52.4674 52.4484 51.6541 53.2617 50.651 53.2617H11.8164C10.8132 53.2617 10 52.4484 10 51.4453ZM11.8164 57.1367C10.8132 57.1367 10 57.9499 10 58.9531C10 59.9562 10.8132 60.7695 11.8164 60.7695H50.651C51.6541 60.7695 52.4674 59.9562 52.4674 58.9531C52.4674 57.9499 51.6541 57.1367 50.651 57.1367H11.8164Z" fill="white" fill-opacity="0.4"/>
</svg>
