<svg width="68" height="75" viewBox="0 0 68 75" fill="none" xmlns="http://www.w3.org/2000/svg">
<path fill-rule="evenodd" clip-rule="evenodd" d="M40.9929 41.7767H14.6783C6.57169 41.7767 0 35.205 0 27.0984C0 18.9918 6.57169 12.4201 14.6783 12.4201C17.1246 12.4201 19.4311 13.0185 21.4595 14.077C24.2838 5.88502 32.0607 0 41.2121 0C52.7484 0 62.1005 9.35203 62.1005 20.8883C62.1005 21.1248 62.0965 21.3603 62.0887 21.5948C65.4563 23.4041 67.746 26.9598 67.746 31.0502C67.746 36.9743 62.9436 41.7767 57.0195 41.7767H41.2121C41.1792 41.7767 40.9929 41.7767 40.9929 41.7767H41.2121H40.9929Z" fill="#9E9E9E"/>
<path fill-rule="evenodd" clip-rule="evenodd" d="M50.5654 44.0933C50.7417 43.4353 51.4181 43.0449 52.0761 43.2212C52.7341 43.3975 53.1245 44.0738 52.9482 44.7318L50.9264 52.2773C50.7501 52.9353 50.0738 53.3258 49.4158 53.1495C48.7578 52.9732 48.3673 52.2969 48.5436 51.6389L50.5654 44.0933ZM20.3634 43.2732C19.7054 43.0969 19.0291 43.4874 18.8527 44.1453L15.3412 57.2508C15.1649 57.9087 15.5553 58.5851 16.2133 58.7614C16.8713 58.9377 17.5477 58.5472 17.724 57.8892L21.2355 44.7838C21.4119 44.1258 21.0214 43.4495 20.3634 43.2732ZM40.0755 43.3532C39.4175 43.1769 38.7412 43.5674 38.5649 44.2254L35.0533 57.3308C34.877 57.9888 35.2675 58.6651 35.9255 58.8414C36.5835 59.0177 37.2598 58.6272 37.4361 57.9693L40.9477 44.8638C41.124 44.2059 40.7335 43.5295 40.0755 43.3532ZM26.6432 43.4453C25.9852 43.269 25.3089 43.6595 25.1326 44.3175L19.7056 64.5713C19.5293 65.2293 19.9198 65.9056 20.5778 66.0819C21.2358 66.2582 21.9121 65.8677 22.0884 65.2098L27.5154 44.956C27.6917 44.298 27.3012 43.6216 26.6432 43.4453ZM32.0881 44.3315C32.2644 43.6735 32.9408 43.283 33.5988 43.4593C34.2567 43.6356 34.6472 44.312 34.4709 44.97L26.9157 73.1664C26.7394 73.8244 26.0631 74.2149 25.4051 74.0386C24.7471 73.8623 24.3566 73.186 24.5329 72.528L32.0881 44.3315ZM46.1024 43.3532C45.4444 43.1769 44.768 43.5674 44.5917 44.2254L39.1647 64.4792C38.9884 65.1372 39.3789 65.8135 40.0369 65.9898C40.6949 66.1661 41.3712 65.7756 41.5475 65.1177L46.9745 44.8638C47.1508 44.2059 46.7603 43.5295 46.1024 43.3532Z" fill="#ADE8FF"/>
</svg>
