<svg width="38" height="41" viewBox="0 0 38 41" fill="none" xmlns="http://www.w3.org/2000/svg">
<path d="M2.22933 1.00186C1.89071 1.03735 1.57737 1.19745 1.35019 1.45105C1.123 1.70465 0.998199 2.03364 1.00002 2.37411V38.9675C1.00006 39.3314 1.14464 39.6804 1.40198 39.9378C1.65932 40.1951 2.00834 40.3397 2.37227 40.3397H19.7541C20.1181 40.3397 20.4671 40.1951 20.7244 39.9378C20.9818 39.6804 21.1263 39.3314 21.1264 38.9675V28.4898C21.5832 28.463 22.0381 28.4469 22.4986 28.4469C26.1143 28.4469 30.0356 29.5213 34.5058 32.7495C34.6497 32.8747 34.818 32.9686 35.0001 33.0251C35.1823 33.0817 35.3742 33.0996 35.5636 33.0779C35.7531 33.0561 35.9359 32.9951 36.1005 32.8988C36.2651 32.8024 36.4077 32.6728 36.5194 32.5182C36.6311 32.3637 36.7094 32.1875 36.7492 32.001C36.789 31.8145 36.7895 31.6218 36.7507 31.4351C36.7119 31.2484 36.6346 31.0718 36.5237 30.9166C36.4128 30.7615 36.2708 30.6311 36.1068 30.5339C31.2479 27.025 26.6802 25.7024 22.4986 25.7024C22.035 25.7024 21.5822 25.7241 21.1264 25.7453V19.7989C21.5832 19.7721 22.0381 19.756 22.4986 19.756C26.1143 19.756 30.0356 20.8304 34.5058 24.0585C34.6497 24.1838 34.818 24.2777 35.0001 24.3342C35.1823 24.3907 35.3742 24.4087 35.5636 24.387C35.7531 24.3652 35.9359 24.3042 36.1005 24.2078C36.2651 24.1115 36.4077 23.9819 36.5194 23.8273C36.6311 23.6727 36.7094 23.4966 36.7492 23.3101C36.789 23.1236 36.7895 22.9308 36.7507 22.7441C36.7119 22.5574 36.6346 22.3809 36.5237 22.2257C36.4128 22.0705 36.2708 21.9402 36.1068 21.8429C31.2479 18.3341 26.6802 17.0115 22.4986 17.0115C22.035 17.0115 21.5822 17.0331 21.1264 17.0543V11.1079C21.5832 11.0812 22.0381 11.065 22.4986 11.065C26.1143 11.065 30.0356 12.1395 34.5058 15.3676C34.6497 15.4929 34.818 15.5867 35.0001 15.6433C35.1823 15.6998 35.3742 15.7178 35.5636 15.696C35.7531 15.6743 35.9359 15.6133 36.1005 15.5169C36.2651 15.4206 36.4077 15.291 36.5194 15.1364C36.6311 14.9818 36.7094 14.8057 36.7492 14.6192C36.789 14.4327 36.7895 14.2399 36.7507 14.0532C36.7119 13.8665 36.6346 13.6899 36.5237 13.5348C36.4128 13.3796 36.2708 13.2492 36.1068 13.152C31.2479 9.6432 26.6802 8.32054 22.4986 8.32054C22.035 8.32054 21.5822 8.34222 21.1264 8.36342V2.37411C21.1263 2.01018 20.9818 1.66116 20.7244 1.40383C20.4671 1.14649 20.1181 1.0019 19.7541 1.00186H2.37227C2.32466 0.999379 2.27694 0.999379 2.22933 1.00186ZM3.74452 3.74637H18.3819V8.59213C12.7342 9.30524 7.77353 11.1689 3.74452 11.1222V3.74637ZM18.3819 11.4081V17.2831C12.7342 17.9962 7.77354 19.8598 3.74452 19.8131V13.881C8.45996 13.9859 13.3081 12.1762 18.3819 11.4081ZM18.3819 20.099V25.974C12.7342 26.6871 7.77354 28.5507 3.74452 28.5041V22.5719C8.45996 22.6768 13.3081 20.8671 18.3819 20.099ZM18.3819 28.79V37.5952H3.74452V31.2629C8.45996 31.3677 13.3081 29.5581 18.3819 28.79Z" fill="#9DA8C3" stroke="#9DA8C3"/>
</svg>
