<svg width="92" height="68" viewBox="0 0 92 68" fill="none" xmlns="http://www.w3.org/2000/svg">
<circle cx="39.9879" cy="33.6364" r="32.1364" stroke="#FFC108" stroke-opacity="0.3" stroke-width="3"/>
<circle cx="39.802" cy="33.4495" r="27.7121" stroke="#FFC208" stroke-opacity="0.6" stroke-width="4"/>
<circle cx="39.8015" cy="33.4494" r="25.2273" fill="#F7BF3A"/>
<path fill-rule="evenodd" clip-rule="evenodd" d="M67.891 49.3867H45.0784C38.0506 49.3867 32.3535 43.8435 32.3535 37.0057C32.3535 30.1679 38.0506 24.6247 45.0784 24.6247C47.1991 24.6247 49.1987 25.1295 50.9571 26.0223C53.4056 19.1125 60.1475 14.1486 68.081 14.1486C78.0821 14.1486 86.1895 22.0369 86.1895 31.7676C86.1895 31.967 86.1861 32.1657 86.1793 32.3635C89.0987 33.8896 91.0837 36.8888 91.0837 40.339C91.0837 45.3359 86.9204 49.3867 81.7847 49.3867H68.081C68.0715 49.3867 68.062 49.3866 68.0524 49.3866C68.0524 49.3866 68.0524 49.3867 68.0524 49.3867H67.891H68.081H67.891Z" fill="#9E9E9E"/>
<path fill-rule="evenodd" clip-rule="evenodd" d="M16.2826 58.3031H5.8303C2.61032 58.3031 0 55.7751 0 52.6567C0 49.5382 2.61032 47.0102 5.8303 47.0102C6.80199 47.0102 7.71816 47.2404 8.52384 47.6476C9.64568 44.4963 12.7347 42.2324 16.3697 42.2324C20.952 42.2324 24.6667 45.83 24.6667 50.2678C24.6667 50.3587 24.6651 50.4493 24.662 50.5396C25.9996 51.2355 26.9091 52.6033 26.9091 54.1769C26.9091 56.4557 25.0016 58.3031 22.6485 58.3031H16.3697C16.3653 58.3031 16.361 58.3031 16.3566 58.3031C16.3566 58.3031 16.3566 58.3031 16.3566 58.3031H16.2826H16.3697H16.2826Z" fill="#9E9E9E"/>
<path fill-rule="evenodd" clip-rule="evenodd" d="M27.1205 22.4242H16.6682C13.4482 22.4242 10.8379 19.8962 10.8379 16.7778C10.8379 13.6593 13.4482 11.1313 16.6682 11.1313C17.6399 11.1313 18.5561 11.3615 19.3617 11.7687C20.4836 8.61737 23.5726 6.35352 27.2076 6.35352C31.7899 6.35352 35.5046 9.95107 35.5046 14.3889C35.5046 14.4798 35.503 14.5704 35.4999 14.6606C36.8375 15.3566 37.747 16.7244 37.747 18.298C37.747 20.5768 35.8394 22.4242 33.4864 22.4242H27.2076C27.2032 22.4242 27.1988 22.4242 27.1945 22.4242C27.1945 22.4242 27.1945 22.4242 27.1945 22.4242H27.1205H27.2076H27.1205Z" fill="#9E9E9E"/>
</svg>
