<svg width="78" height="64" viewBox="0 0 78 64" fill="none" xmlns="http://www.w3.org/2000/svg">
<path fill-rule="evenodd" clip-rule="evenodd" d="M18.5988 23.3567H6.65965C2.98163 23.3567 0 20.4691 0 16.9071C0 13.345 2.98163 10.4574 6.65965 10.4574C7.76956 10.4574 8.81605 10.7204 9.73633 11.1855C11.0177 7.58589 14.5462 5 18.6982 5C23.9324 5 28.1754 9.10929 28.1754 14.1784C28.1754 14.2823 28.1737 14.3857 28.1701 14.4888C29.698 15.2838 30.7368 16.8462 30.7368 18.6435C30.7368 21.2465 28.558 23.3567 25.8702 23.3567H18.6982C18.6933 23.3567 18.6883 23.3567 18.6833 23.3567C18.6833 23.3567 18.6833 23.3567 18.6833 23.3567H18.5988H18.6982H18.5988Z" fill="#9E9E9E"/>
<path fill-rule="evenodd" clip-rule="evenodd" d="M59.4969 20H52.1167C49.8431 20 48 18.1123 48 15.7838C48 13.4552 49.8431 11.5676 52.1167 11.5676C52.8028 11.5676 53.4497 11.7395 54.0185 12.0435C54.8106 9.69042 56.9917 8 59.5583 8C62.7938 8 65.4167 10.6863 65.4167 14C65.4167 14.0679 65.4156 14.1356 65.4134 14.2029C66.3578 14.7226 67 15.744 67 16.9189C67 18.6206 65.6531 20 63.9917 20H59.5583C59.5552 20 59.5522 20 59.5491 20C59.5491 20 59.5491 20 59.5491 20H59.4969H59.5583H59.4969Z" fill="#9E9E9E"/>
<path fill-rule="evenodd" clip-rule="evenodd" d="M64 42.1346C62.1658 42.5336 60.2621 42.7436 58.3097 42.7436C43.4542 42.7436 31.4114 30.581 31.4114 15.5775C31.4114 9.78206 33.2083 4.41046 36.2702 0C24.6343 2.87588 16 13.4772 16 26.1152C16 40.9633 27.9181 53 42.6198 53C51.3782 53 59.1488 48.728 64 42.1346Z" fill="#F7BF3A"/>
<path fill-rule="evenodd" clip-rule="evenodd" d="M54.7008 64H31.7833C24.7233 64 19 58.6516 19 52.0541C19 45.4565 24.7233 40.1081 31.7833 40.1081C33.9138 40.1081 35.9226 40.5952 37.6891 41.4566C40.1488 34.7895 46.9217 30 54.8917 30C64.9386 30 73.0833 37.6112 73.0833 47C73.0833 47.1924 73.0799 47.3841 73.0731 47.575C76.0059 49.0474 78 51.9412 78 55.2703C78 60.0916 73.8176 64 68.6583 64H54.8917C54.8821 64 54.8725 64 54.8629 64C54.8629 64 54.863 64 54.863 64H54.7008H54.8917H54.7008Z" fill="#9E9E9E"/>
</svg>
