<svg width="58" height="41" viewBox="0 0 58 41" fill="none" xmlns="http://www.w3.org/2000/svg">
<path fill-rule="evenodd" clip-rule="evenodd" d="M6.43572 13.1819L2.68348 15.4019L2.56221 15.1867C2.36011 14.828 1.91369 14.7055 1.5645 14.9121C1.21603 15.1183 1.09586 15.5766 1.29769 15.9348L1.41896 16.1501L0.363615 16.7745C0.0169326 16.9796 -0.103643 17.4377 0.0979618 17.7956C0.299156 18.1527 0.745368 18.2764 1.09369 18.0704L2.14903 17.446L2.2703 17.6612C2.47241 18.0199 2.91882 18.1424 3.26801 17.9358C3.61649 17.7296 3.73666 17.2713 3.53483 16.913L3.41356 16.6978L7.16579 14.4778V18.9178H6.92325C6.51904 18.9178 6.19236 19.2528 6.19236 19.666C6.19236 20.0783 6.51959 20.4141 6.92325 20.4141H7.16579V21.6629C7.16579 22.0732 7.49266 22.4092 7.89587 22.4092C8.29826 22.4092 8.62594 22.0751 8.62594 21.6629V20.4141H8.86848C9.27269 20.4141 9.59937 20.0792 9.59937 19.666C9.59937 19.2536 9.27214 18.9178 8.86848 18.9178H8.62594V14.4778L12.3782 16.6978L12.2569 16.913C12.0548 17.2718 12.1745 17.7292 12.5237 17.9358C12.8722 18.142 13.3196 18.0194 13.5214 17.6612L13.6427 17.446L14.698 18.0703C15.0447 18.2755 15.4922 18.1534 15.6938 17.7956C15.895 17.4385 15.7764 16.9806 15.4281 16.7745L14.3728 16.1501L14.494 15.9348C14.6962 15.5761 14.5764 15.1187 14.2272 14.9121C13.8787 14.7059 13.4313 14.8284 13.2295 15.1867L13.1082 15.4019L9.35601 13.1819L13.1082 10.9619L13.2295 11.1771C13.4316 11.5359 13.878 11.6583 14.2272 11.4517C14.5757 11.2455 14.6959 10.7872 14.494 10.429L14.3728 10.2137L15.4281 9.58933C15.7748 9.38421 15.8954 8.92609 15.6938 8.56825C15.4926 8.21114 15.0464 8.08739 14.698 8.29348L13.6427 8.91787L13.5214 8.70262C13.3193 8.34389 12.8729 8.22145 12.5237 8.42805C12.1752 8.63423 12.0551 9.09254 12.2569 9.45078L12.3782 9.66604L8.62594 11.8861V7.44601H8.86848C9.27269 7.44601 9.59937 7.11105 9.59937 6.69785C9.59937 6.28549 9.27214 5.94969 8.86848 5.94969H8.62594V4.70089C8.62594 4.29066 8.29908 3.95459 7.89587 3.95459C7.49348 3.95459 7.16579 4.28872 7.16579 4.70089V5.94969H6.92325C6.51904 5.94969 6.19236 6.28465 6.19236 6.69785C6.19236 7.11021 6.51959 7.44601 6.92325 7.44601H7.16579V11.8861L3.41356 9.66603L3.53483 9.45078C3.73693 9.09205 3.6172 8.63465 3.26801 8.42805C2.91953 8.22187 2.47213 8.34438 2.2703 8.70262L2.14903 8.91787L1.09369 8.29347C0.747006 8.08836 0.299565 8.21041 0.0979611 8.56825C-0.103233 8.92536 0.0152936 9.38324 0.363614 9.58933L1.41896 10.2137L1.29769 10.429C1.09558 10.7877 1.21532 11.2451 1.5645 11.4517C1.91298 11.6579 2.36038 11.5354 2.56221 11.1771L2.68348 10.9619L6.43572 13.1819Z" fill="white"/>
<path fill-rule="evenodd" clip-rule="evenodd" d="M48.6174 13.1819L44.8651 15.4019L44.7439 15.1867C44.5417 14.828 44.0953 14.7055 43.7461 14.9121C43.3977 15.1183 43.2775 15.5766 43.4793 15.9348L43.6006 16.1501L42.5453 16.7745C42.1986 16.9796 42.078 17.4377 42.2796 17.7956C42.4808 18.1527 42.927 18.2764 43.2753 18.0704L44.3307 17.446L44.4519 17.6612C44.654 18.0199 45.1005 18.1424 45.4497 17.9358C45.7981 17.7296 45.9183 17.2713 45.7165 16.913L45.5952 16.6978L49.3474 14.4778V18.9178H49.1049C48.7007 18.9178 48.374 19.2528 48.374 19.666C48.374 20.0783 48.7012 20.4141 49.1049 20.4141H49.3474V21.6629C49.3474 22.0732 49.6743 22.4092 50.0775 22.4092C50.4799 22.4092 50.8076 22.0751 50.8076 21.6629V20.4141H51.0501C51.4543 20.4141 51.781 20.0792 51.781 19.666C51.781 19.2536 51.4538 18.9178 51.0501 18.9178H50.8076V14.4778L54.5598 16.6978L54.4385 16.913C54.2364 17.2718 54.3562 17.7292 54.7054 17.9358C55.0538 18.142 55.5012 18.0194 55.7031 17.6612L55.8243 17.446L56.8797 18.0703C57.2264 18.2755 57.6738 18.1534 57.8754 17.7956C58.0766 17.4385 57.9581 16.9806 57.6098 16.7745L56.5544 16.1501L56.6757 15.9348C56.8778 15.5761 56.7581 15.1187 56.4089 14.9121C56.0604 14.7059 55.613 14.8284 55.4112 15.1867L55.2899 15.4019L51.5377 13.1819L55.2899 10.9619L55.4112 11.1771C55.6133 11.5359 56.0597 11.6583 56.4089 11.4517C56.7573 11.2455 56.8775 10.7872 56.6757 10.429L56.5544 10.2137L57.6098 9.58933C57.9564 9.38421 58.077 8.92609 57.8754 8.56825C57.6742 8.21114 57.228 8.08739 56.8797 8.29348L55.8243 8.91787L55.7031 8.70262C55.501 8.34389 55.0546 8.22145 54.7054 8.42805C54.3569 8.63423 54.2367 9.09254 54.4385 9.45078L54.5598 9.66604L50.8076 11.8861V7.44601H51.0501C51.4543 7.44601 51.781 7.11105 51.781 6.69785C51.781 6.28549 51.4538 5.94969 51.0501 5.94969H50.8076V4.70089C50.8076 4.29066 50.4807 3.95459 50.0775 3.95459C49.6751 3.95459 49.3474 4.28872 49.3474 4.70089V5.94969H49.1049C48.7007 5.94969 48.374 6.28465 48.374 6.69785C48.374 7.11021 48.7012 7.44601 49.1049 7.44601H49.3474V11.8861L45.5952 9.66603L45.7165 9.45078C45.9186 9.09205 45.7988 8.63465 45.4497 8.42805C45.1012 8.22187 44.6538 8.34438 44.4519 8.70262L44.3307 8.91787L43.2753 8.29347C42.9286 8.08836 42.4812 8.21041 42.2796 8.56825C42.0784 8.92536 42.1969 9.38324 42.5453 9.58933L43.6006 10.2137L43.4793 10.429C43.2772 10.7877 43.397 11.2451 43.7461 11.4517C44.0946 11.6579 44.542 11.5354 44.7439 11.1771L44.8651 10.9619L48.6174 13.1819Z" fill="white"/>
<path fill-rule="evenodd" clip-rule="evenodd" d="M27.5275 9.22732L23.7753 11.4473L23.654 11.2321C23.4519 10.8734 23.0055 10.7509 22.6563 10.9575C22.3078 11.1637 22.1877 11.622 22.3895 11.9803L22.5108 12.1955L21.4554 12.8199C21.1087 13.025 20.9882 13.4831 21.1898 13.841C21.391 14.1981 21.8372 14.3218 22.1855 14.1158L23.2408 13.4914L23.3621 13.7066C23.5642 14.0653 24.0106 14.1878 24.3598 13.9812C24.7083 13.775 24.8285 13.3167 24.6266 12.9585L24.5054 12.7432L28.2576 10.5232V14.9632H28.015C27.6108 14.9632 27.2842 15.2982 27.2842 15.7114C27.2842 16.1237 27.6114 16.4595 28.015 16.4595H28.2576V17.7083C28.2576 18.1186 28.5845 18.4546 28.9877 18.4546C29.3901 18.4546 29.7177 18.1205 29.7177 17.7083V16.4595H29.9603C30.3645 16.4595 30.6912 16.1246 30.6912 15.7114C30.6912 15.299 30.3639 14.9632 29.9603 14.9632H29.7177V10.5232L33.47 12.7432L33.3487 12.9585C33.1466 13.3172 33.2663 13.7746 33.6155 13.9812C33.964 14.1874 34.4114 14.0649 34.6132 13.7066L34.7345 13.4914L35.7898 14.1158C36.1365 14.3209 36.584 14.1988 36.7856 13.841C36.9868 13.4839 36.8682 13.026 36.5199 12.8199L35.4646 12.1955L35.5858 11.9803C35.7879 11.6215 35.6682 11.1641 35.319 10.9575C34.9705 10.7513 34.5231 10.8739 34.3213 11.2321L34.2 11.4473L30.4478 9.22732L34.2 7.0073L34.3213 7.22255C34.5234 7.58128 34.9698 7.70372 35.319 7.49712C35.6675 7.29094 35.7877 6.83263 35.5858 6.47439L35.4646 6.25914L36.5199 5.63474C36.8666 5.42962 36.9872 4.9715 36.7856 4.61366C36.5844 4.25655 36.1382 4.1328 35.7898 4.33889L34.7345 4.96328L34.6132 4.74803C34.4111 4.3893 33.9647 4.26686 33.6155 4.47346C33.267 4.67964 33.1469 5.13795 33.3487 5.49619L33.47 5.71145L29.7177 7.93147V3.49142H29.9603C30.3645 3.49142 30.6912 3.15646 30.6912 2.74326C30.6912 2.3309 30.3639 1.9951 29.9603 1.9951H29.7177V0.746301C29.7177 0.336069 29.3909 0 28.9877 0C28.5853 0 28.2576 0.33413 28.2576 0.746301V1.9951H28.015C27.6108 1.9951 27.2842 2.33006 27.2842 2.74326C27.2842 3.15562 27.6114 3.49142 28.015 3.49142H28.2576V7.93147L24.5054 5.71144L24.6266 5.49619C24.8287 5.13746 24.709 4.68006 24.3598 4.47346C24.0113 4.26728 23.5639 4.38979 23.3621 4.74803L23.2408 4.96328L22.1855 4.33888C21.8388 4.13377 21.3914 4.25582 21.1898 4.61366C20.9886 4.97077 21.1071 5.42865 21.4554 5.63474L22.5108 6.25914L22.3895 6.47439C22.1874 6.83312 22.3071 7.29052 22.6563 7.49712C23.0048 7.7033 23.4522 7.58079 23.654 7.22255L23.7753 7.0073L27.5275 9.22732Z" fill="white"/>
<path fill-rule="evenodd" clip-rule="evenodd" d="M17.3615 31.0793L13.6093 33.2993L13.488 33.084C13.2859 32.7253 12.8395 32.6029 12.4903 32.8095C12.1418 33.0156 12.0216 33.4739 12.2235 33.8322L12.3447 34.0474L11.2894 34.6718C10.9427 34.877 10.8221 35.3351 11.0237 35.6929C11.2249 36.05 11.6711 36.1738 12.0195 35.9677L13.0748 35.3433L13.1961 35.5585C13.3982 35.9173 13.8446 36.0397 14.1938 35.8331C14.5423 35.6269 14.6624 35.1686 14.4606 34.8104L14.3393 34.5951L18.0916 32.3751V36.8152H17.849C17.4448 36.8152 17.1181 37.1501 17.1181 37.5633C17.1181 37.9757 17.4454 38.3115 17.849 38.3115H18.0916V39.5603C18.0916 39.9705 18.4184 40.3066 18.8216 40.3066C19.224 40.3066 19.5517 39.9724 19.5517 39.5603V38.3115H19.7943C20.1985 38.3115 20.5252 37.9765 20.5252 37.5633C20.5252 37.151 20.1979 36.8152 19.7943 36.8152H19.5517V32.3751L23.304 34.5951L23.1827 34.8104C22.9806 35.1691 23.1003 35.6265 23.4495 35.8331C23.798 36.0393 24.2454 35.9168 24.4472 35.5585L24.5685 35.3433L25.6238 35.9677C25.9705 36.1728 26.4179 36.0508 26.6196 35.6929C26.8207 35.3358 26.7022 34.8779 26.3539 34.6718L25.2986 34.0474L25.4198 33.8322C25.6219 33.4735 25.5022 33.0161 25.153 32.8095C24.8045 32.6033 24.3571 32.7258 24.1553 33.084L24.034 33.2993L20.2818 31.0793L24.034 28.8592L24.1553 29.0745C24.3574 29.4332 24.8038 29.5556 25.153 29.349C25.5015 29.1429 25.6217 28.6846 25.4198 28.3263L25.2986 28.1111L26.3539 27.4867C26.7006 27.2816 26.8212 26.8234 26.6196 26.4656C26.4184 26.1085 25.9721 25.9847 25.6238 26.1908L24.5685 26.8152L24.4472 26.6C24.2451 26.2412 23.7987 26.1188 23.4495 26.3254C23.101 26.5316 22.9809 26.9899 23.1827 27.3481L23.304 27.5634L19.5517 29.7834V25.3433H19.7943C20.1985 25.3433 20.5252 25.0084 20.5252 24.5952C20.5252 24.1828 20.1979 23.847 19.7943 23.847H19.5517V22.5982C19.5517 22.188 19.2249 21.8519 18.8216 21.8519C18.4193 21.8519 18.0916 22.1861 18.0916 22.5982V23.847H17.849C17.4448 23.847 17.1181 24.182 17.1181 24.5952C17.1181 25.0075 17.4454 25.3433 17.849 25.3433H18.0916V29.7834L14.3393 27.5634L14.4606 27.3481C14.6627 26.9894 14.543 26.532 14.1938 26.3254C13.8453 26.1192 13.3979 26.2417 13.1961 26.6L13.0748 26.8152L12.0195 26.1908C11.6728 25.9857 11.2253 26.1077 11.0237 26.4656C10.8225 26.8227 10.9411 27.2806 11.2894 27.4867L12.3447 28.1111L12.2235 28.3263C12.0214 28.685 12.1411 29.1424 12.4903 29.349C12.8388 29.5552 13.2862 29.4327 13.488 29.0745L13.6093 28.8592L17.3615 31.0793Z" fill="white"/>
<path fill-rule="evenodd" clip-rule="evenodd" d="M38.0002 31.0793L34.2479 33.2993L34.1267 33.084C33.9246 32.7253 33.4781 32.6029 33.129 32.8095C32.7805 33.0156 32.6603 33.4739 32.8621 33.8322L32.9834 34.0474L31.9281 34.6718C31.5814 34.877 31.4608 35.3351 31.6624 35.6929C31.8636 36.05 32.3098 36.1738 32.6581 35.9677L33.7135 35.3433L33.8348 35.5585C34.0369 35.9173 34.4833 36.0397 34.8325 35.8331C35.1809 35.6269 35.3011 35.1686 35.0993 34.8104L34.978 34.5951L38.7302 32.3751V36.8152H38.4877C38.0835 36.8152 37.7568 37.1501 37.7568 37.5633C37.7568 37.9757 38.084 38.3115 38.4877 38.3115H38.7302V39.5603C38.7302 39.9705 39.0571 40.3066 39.4603 40.3066C39.8627 40.3066 40.1904 39.9724 40.1904 39.5603V38.3115H40.4329C40.8371 38.3115 41.1638 37.9765 41.1638 37.5633C41.1638 37.151 40.8366 36.8152 40.4329 36.8152H40.1904V32.3751L43.9426 34.5951L43.8214 34.8104C43.6193 35.1691 43.739 35.6265 44.0882 35.8331C44.4367 36.0393 44.8841 35.9168 45.0859 35.5585L45.2072 35.3433L46.2625 35.9677C46.6092 36.1728 47.0566 36.0508 47.2582 35.6929C47.4594 35.3358 47.3409 34.8779 46.9926 34.6718L45.9372 34.0474L46.0585 33.8322C46.2606 33.4735 46.1409 33.0161 45.7917 32.8095C45.4432 32.6033 44.9958 32.7258 44.794 33.084L44.6727 33.2993L40.9205 31.0793L44.6727 28.8592L44.794 29.0745C44.9961 29.4332 45.4425 29.5556 45.7917 29.349C46.1402 29.1429 46.2603 28.6846 46.0585 28.3263L45.9372 28.1111L46.9926 27.4867C47.3393 27.2816 47.4598 26.8234 47.2582 26.4656C47.057 26.1085 46.6108 25.9847 46.2625 26.1908L45.2072 26.8152L45.0859 26.6C44.8838 26.2412 44.4374 26.1188 44.0882 26.3254C43.7397 26.5316 43.6195 26.9899 43.8214 27.3481L43.9426 27.5634L40.1904 29.7834V25.3433H40.4329C40.8371 25.3433 41.1638 25.0084 41.1638 24.5952C41.1638 24.1828 40.8366 23.847 40.4329 23.847H40.1904V22.5982C40.1904 22.188 39.8635 21.8519 39.4603 21.8519C39.0579 21.8519 38.7302 22.1861 38.7302 22.5982V23.847H38.4877C38.0835 23.847 37.7568 24.182 37.7568 24.5952C37.7568 25.0075 38.084 25.3433 38.4877 25.3433H38.7302V29.7834L34.978 27.5634L35.0993 27.3481C35.3014 26.9894 35.1817 26.532 34.8325 26.3254C34.484 26.1192 34.0366 26.2417 33.8348 26.6L33.7135 26.8152L32.6581 26.1908C32.3115 25.9857 31.864 26.1077 31.6624 26.4656C31.4612 26.8227 31.5797 27.2806 31.9281 27.4867L32.9834 28.1111L32.8621 28.3263C32.66 28.685 32.7798 29.1424 33.129 29.349C33.4774 29.5552 33.9248 29.4327 34.1267 29.0745L34.2479 28.8592L38.0002 31.0793Z" fill="white"/>
</svg>
