<svg width="90" height="66" viewBox="0 0 90 66" fill="none" xmlns="http://www.w3.org/2000/svg">
<path d="M48.0614 24.5229C48.0614 37.2321 37.7126 47.5459 24.9331 47.5459C12.1535 47.5459 1.80469 37.2321 1.80469 24.5229C1.80469 11.8138 12.1535 1.5 24.9331 1.5C37.7126 1.5 48.0614 11.8138 48.0614 24.5229Z" stroke="#FFC108" stroke-opacity="0.2" stroke-width="3"/>
<path d="M44.7466 24.5229C44.7466 35.4061 35.8838 44.2432 24.9328 44.2432C13.9819 44.2432 5.11914 35.4061 5.11914 24.5229C5.11914 13.6398 13.9819 4.80261 24.9328 4.80261C35.8838 4.80261 44.7466 13.6398 44.7466 24.5229Z" stroke="#FFC208" stroke-opacity="0.6" stroke-width="4"/>
<ellipse cx="24.9323" cy="24.523" rx="18.5299" ry="18.4506" fill="#F7BF3A"/>
<path fill-rule="evenodd" clip-rule="evenodd" d="M58.3549 65.6895H27.7269C18.2915 65.6895 10.6426 58.1185 10.6426 48.7791C10.6426 39.4396 18.2915 31.8686 27.7269 31.8686C30.5742 31.8686 33.2588 32.558 35.6196 33.7775C38.9069 24.3397 47.9585 17.5597 58.61 17.5597C72.0373 17.5597 82.9223 28.3339 82.9223 41.6246C82.9223 41.897 82.9177 42.1683 82.9086 42.4386C86.8282 44.5229 89.4931 48.6193 89.4931 53.3319C89.4931 60.1568 83.9036 65.6895 77.0085 65.6895H58.61C58.5716 65.6895 58.3549 65.6895 58.3549 65.6895H58.61H58.3549Z" fill="white"/>
</svg>
