<svg width="73" height="67" viewBox="0 0 73 67" fill="none" xmlns="http://www.w3.org/2000/svg">
<path fill-rule="evenodd" clip-rule="evenodd" d="M69.4382 52.6043C67.1218 53.1024 64.7175 53.3647 62.2519 53.3647C43.4907 53.3647 28.2817 38.1798 28.2817 19.4483C28.2817 12.2127 30.551 5.50638 34.4178 0C19.7227 3.59048 8.81836 16.826 8.81836 32.6044C8.81836 51.1419 23.8699 66.1696 42.4368 66.1696C53.4981 66.1696 63.3116 60.8361 69.4382 52.6043Z" fill="#F7BF3A"/>
<path fill-rule="evenodd" clip-rule="evenodd" d="M44.1444 8.44987C43.9599 8.18679 43.7213 7.79748 42.9999 6.78751C43.0149 6.80254 39.5464 2.34667 39.5464 2.34667C39.1197 1.79841 39.2277 1.707 39.783 2.13894C39.783 2.13894 44.2073 5.58005 44.2073 5.58005C45.1995 6.28876 45.5988 6.53774 45.8655 6.72458C46.1285 6.54013 46.5178 6.30146 47.5278 5.58005C47.5128 5.59508 51.9687 2.1266 51.9687 2.1266C52.5169 1.69988 52.6083 1.80787 52.1764 2.36323C52.1764 2.36323 48.7353 6.78751 48.7353 6.78751C48.0266 7.7797 47.7776 8.17905 47.5908 8.44565C47.7752 8.70873 48.0139 9.09804 48.7353 10.108C48.7202 10.093 52.1887 14.5489 52.1887 14.5489C52.6154 15.0971 52.5075 15.1885 51.9521 14.7566C51.9521 14.7566 47.5278 11.3155 47.5278 11.3155C46.5356 10.6068 46.1363 10.3578 45.8697 10.171C45.6066 10.3554 45.2173 10.5941 44.2073 11.3155C44.2223 11.3004 39.7665 14.7689 39.7665 14.7689C39.2182 15.1956 39.1268 15.0877 39.5587 14.5323C39.5587 14.5323 42.9999 10.108 42.9999 10.108C43.7086 9.11583 43.9575 8.71648 44.1444 8.44987V8.44987Z" fill="white"/>
<path fill-rule="evenodd" clip-rule="evenodd" d="M67.3182 31.1669C67.325 31.1738 65.7382 29.1352 65.7382 29.1352C65.5415 28.8825 65.59 28.8393 65.8444 29.0372C65.8444 29.0372 67.8713 30.6137 67.8713 30.6137C68.3259 30.9384 68.5089 31.0524 68.631 31.138C68.7515 31.0535 68.9299 30.9442 69.3926 30.6137C69.3857 30.6206 71.4242 29.0338 71.4242 29.0338C71.677 28.837 71.7202 28.8855 71.5223 29.1399C71.5223 29.1399 69.9458 31.1669 69.9458 31.1669C69.6211 31.6214 69.507 31.8044 69.4214 31.9265C69.5059 32.0471 69.6153 32.2254 69.9458 32.6881C69.9389 32.6812 71.5257 34.7198 71.5257 34.7198C71.7224 34.9725 71.674 35.0157 71.4195 34.8178C71.4195 34.8178 69.3926 33.2413 69.3926 33.2413C68.938 32.9166 68.7551 32.8026 68.6329 32.717C68.5124 32.8015 68.334 32.9108 67.8713 33.2413C67.8782 33.2344 65.8397 34.8212 65.8397 34.8212C65.5869 35.018 65.5438 34.9695 65.7416 34.7151C65.7416 34.7151 67.3182 32.6881 67.3182 32.6881C67.6428 32.2336 67.7569 32.0506 67.8425 31.9285C67.758 31.8079 67.6487 31.6296 67.3182 31.1669Z" fill="white"/>
<path fill-rule="evenodd" clip-rule="evenodd" d="M18.5988 47.3567H6.65965C2.98163 47.3567 0 44.4691 0 40.9071C0 37.345 2.98163 34.4574 6.65965 34.4574C7.76956 34.4574 8.81605 34.7204 9.73633 35.1855C11.0177 31.5859 14.5462 29 18.6982 29C23.9324 29 28.1754 33.1093 28.1754 38.1784C28.1754 38.2823 28.1737 38.3857 28.1701 38.4888C29.698 39.2838 30.7368 40.8462 30.7368 42.6435C30.7368 45.2465 28.558 47.3567 25.8702 47.3567H18.6982C18.6933 47.3567 18.6883 47.3567 18.6833 47.3567C18.6833 47.3567 18.6833 47.3567 18.6833 47.3567H18.5988H18.6982H18.5988Z" fill="white"/>
</svg>
