<svg width="81" height="68" viewBox="0 0 81 68" fill="none" xmlns="http://www.w3.org/2000/svg">
<circle cx="33.7417" cy="33.7417" r="32.2417" stroke="#FFC108" stroke-opacity="0.3" stroke-width="3"/>
<circle cx="33.5552" cy="33.5542" r="27.8052" stroke="#FFC208" stroke-opacity="0.6" stroke-width="4"/>
<circle cx="33.5543" cy="33.5542" r="25.3063" fill="#F7BF3A"/>
<path fill-rule="evenodd" clip-rule="evenodd" d="M64.0411 47H47.727C42.7012 47 38.627 43.0674 38.627 38.2162C38.627 33.3651 42.7012 29.4324 47.727 29.4324C49.2436 29.4324 50.6735 29.7906 51.9311 30.424C53.682 25.5217 58.5034 22 64.177 22C71.329 22 77.127 27.5964 77.127 34.5C77.127 34.6415 77.1245 34.7824 77.1197 34.9228C79.2075 36.0055 80.627 38.1333 80.627 40.5811C80.627 44.1262 77.6496 47 73.977 47H64.177C64.1701 47 64.1633 47 64.1565 47C64.1565 47 64.1565 47 64.1565 47H64.0411H64.177H64.0411Z" fill="white"/>
</svg>
