<svg width="65" height="75" viewBox="0 0 65 75" fill="none" xmlns="http://www.w3.org/2000/svg">
<circle cx="17.5384" cy="17.5384" r="16.0384" stroke="#FFC108" stroke-opacity="0.3" stroke-width="3"/>
<circle cx="17.538" cy="17.5383" r="13.8681" stroke="#FFC208" stroke-opacity="0.6" stroke-width="4"/>
<circle cx="17.5374" cy="17.5384" r="13.5296" fill="#F7BF3A"/>
<path fill-rule="evenodd" clip-rule="evenodd" d="M42.0189 46.384H20.2751C13.5767 46.384 8.14648 40.9538 8.14648 34.2553C8.14648 27.5569 13.5767 22.1267 20.2751 22.1267C22.2965 22.1267 24.2024 22.6212 25.8784 23.4958C28.2122 16.7268 34.6382 11.864 42.2 11.864C51.7324 11.864 59.46 19.5916 59.46 29.124C59.46 29.3194 59.4567 29.514 59.4503 29.7078C62.2329 31.2027 64.1248 34.1408 64.1248 37.5207C64.1248 42.4158 60.1566 46.384 55.2616 46.384H42.2C42.1727 46.384 42.0189 46.384 42.0189 46.384H42.2H42.0189Z" fill="white"/>
<path fill-rule="evenodd" clip-rule="evenodd" d="M52.2008 57.669L49.4692 59.2851L49.3809 59.1284C49.2338 58.8673 48.9088 58.7781 48.6546 58.9285C48.4009 59.0786 48.3134 59.4123 48.4603 59.6731L48.5486 59.8298L47.7803 60.2843C47.528 60.4336 47.4402 60.7672 47.5869 61.0277C47.7334 61.2876 48.0582 61.3777 48.3118 61.2277L49.0801 60.7731L49.1684 60.9298C49.3155 61.191 49.6405 61.2801 49.8947 61.1297C50.1484 60.9796 50.2359 60.646 50.089 60.3852L50.0007 60.2285L52.7323 58.6123V61.8446H52.5557C52.2614 61.8446 52.0236 62.0885 52.0236 62.3893C52.0236 62.6895 52.2618 62.934 52.5557 62.934H52.7323V63.8431C52.7323 64.1417 52.9702 64.3864 53.2638 64.3864C53.5567 64.3864 53.7952 64.1431 53.7952 63.8431V62.934H53.9718C54.2661 62.934 54.5039 62.6901 54.5039 62.3893C54.5039 62.0891 54.2657 61.8446 53.9718 61.8446H53.7952V58.6123L56.5268 60.2285L56.4386 60.3852C56.2914 60.6463 56.3786 60.9793 56.6328 61.1297C56.8865 61.2798 57.2122 61.1906 57.3591 60.9298L57.4474 60.7731L58.2157 61.2277C58.4681 61.377 58.7938 61.2882 58.9406 61.0277C59.087 60.7677 59.0007 60.4344 58.7472 60.2843L57.9789 59.8298L58.0672 59.6731C58.2143 59.4119 58.1271 59.0789 57.8729 58.9285C57.6192 58.7784 57.2935 58.8676 57.1466 59.1284L57.0583 59.2851L54.3267 57.669L57.0583 56.0528L57.1466 56.2095C57.2937 56.4706 57.6187 56.5598 57.8729 56.4094C58.1266 56.2593 58.2141 55.9256 58.0672 55.6648L57.9789 55.5081L58.7472 55.0536C58.9995 54.9043 59.0873 54.5708 58.9406 54.3102C58.7941 54.0503 58.4693 53.9602 58.2157 54.1102L57.4474 54.5648L57.3591 54.4081C57.212 54.1469 56.887 54.0578 56.6328 54.2082C56.3791 54.3583 56.2916 54.6919 56.4385 54.9527L56.5268 55.1094L53.7952 56.7256V53.4933H53.9718C54.2661 53.4933 54.5039 53.2494 54.5039 52.9486C54.5039 52.6484 54.2657 52.404 53.9718 52.404H53.7952V51.4948C53.7952 51.1962 53.5573 50.9515 53.2638 50.9515C52.9708 50.9515 52.7323 51.1948 52.7323 51.4948V52.404H52.5557C52.2614 52.404 52.0236 52.6478 52.0236 52.9486C52.0236 53.2488 52.2618 53.4933 52.5557 53.4933H52.7323V56.7256L50.0007 55.1094L50.089 54.9527C50.2361 54.6916 50.1489 54.3586 49.8947 54.2082C49.641 54.0581 49.3153 54.1473 49.1684 54.4081L49.0801 54.5648L48.3118 54.1102C48.0594 53.9609 47.7337 54.0497 47.5869 54.3102C47.4405 54.5702 47.5268 54.9036 47.7803 55.0536L48.5486 55.5081L48.4603 55.6648C48.3132 55.926 48.4004 56.259 48.6546 56.4094C48.9083 56.5595 49.234 56.4703 49.3809 56.2095L49.4692 56.0528L52.2008 57.669Z" fill="white"/>
<path fill-rule="evenodd" clip-rule="evenodd" d="M36.6852 54.79L33.9536 56.4062L33.8653 56.2495C33.7181 55.9884 33.3932 55.8992 33.1389 56.0496C32.8853 56.1997 32.7978 56.5334 32.9447 56.7942L33.033 56.9509L32.2647 57.4054C32.0123 57.5547 31.9245 57.8883 32.0713 58.1488C32.2178 58.4087 32.5426 58.4988 32.7962 58.3488L33.5645 57.8942L33.6528 58.0509C33.7999 58.3121 34.1249 58.4012 34.3791 58.2508C34.6328 58.1007 34.7203 57.7671 34.5733 57.5063L34.485 57.3496L37.2166 55.7334V58.9657H37.0401C36.7458 58.9657 36.508 59.2096 36.508 59.5104C36.508 59.8106 36.7462 60.055 37.0401 60.055H37.2166V60.9642C37.2166 61.2628 37.4546 61.5075 37.7481 61.5075C38.0411 61.5075 38.2796 61.2642 38.2796 60.9642V60.055H38.4562C38.7504 60.055 38.9883 59.8112 38.9883 59.5104C38.9883 59.2102 38.75 58.9657 38.4562 58.9657H38.2796V55.7334L41.0112 57.3496L40.9229 57.5063C40.7758 57.7674 40.863 58.1004 41.1172 58.2508C41.3709 58.4009 41.6966 58.3117 41.8435 58.0509L41.9318 57.8942L42.7001 58.3488C42.9524 58.4981 43.2782 58.4093 43.4249 58.1488C43.5714 57.8888 43.4851 57.5554 43.2315 57.4054L42.4633 56.9509L42.5515 56.7942C42.6987 56.533 42.6115 56.2 42.3573 56.0496C42.1036 55.8995 41.7779 55.9887 41.631 56.2495L41.5427 56.4062L38.8111 54.79L41.5427 53.1739L41.631 53.3306C41.7781 53.5917 42.1031 53.6809 42.3573 53.5305C42.611 53.3804 42.6985 53.0467 42.5515 52.7859L42.4633 52.6292L43.2315 52.1747C43.4839 52.0254 43.5717 51.6918 43.4249 51.4313C43.2785 51.1714 42.9536 51.0813 42.7001 51.2313L41.9318 51.6859L41.8435 51.5292C41.6964 51.268 41.3714 51.1789 41.1172 51.3293C40.8635 51.4794 40.776 51.813 40.9229 52.0738L41.0112 52.2305L38.2796 53.8467V50.6144H38.4562C38.7504 50.6144 38.9883 50.3705 38.9883 50.0697C38.9883 49.7695 38.75 49.525 38.4562 49.525H38.2796V48.6159C38.2796 48.3173 38.0417 48.0726 37.7481 48.0726C37.4552 48.0726 37.2166 48.3159 37.2166 48.6159V49.525H37.0401C36.7458 49.525 36.508 49.7689 36.508 50.0697C36.508 50.3699 36.7462 50.6144 37.0401 50.6144H37.2166V53.8467L34.485 52.2305L34.5733 52.0738C34.7205 51.8127 34.6333 51.4797 34.3791 51.3293C34.1254 51.1792 33.7997 51.2684 33.6528 51.5292L33.5645 51.6859L32.7962 51.2313C32.5438 51.082 32.2181 51.1708 32.0713 51.4313C31.9248 51.6913 32.0111 52.0246 32.2647 52.1747L33.033 52.6292L32.9447 52.7859C32.7976 53.0471 32.8847 53.3801 33.1389 53.5305C33.3926 53.6806 33.7183 53.5914 33.8653 53.3306L33.9536 53.1739L36.6852 54.79Z" fill="white"/>
<path fill-rule="evenodd" clip-rule="evenodd" d="M16.0103 48.8187C16.1597 48.2613 16.7326 47.9306 17.2899 48.0799C17.8473 48.2293 18.178 48.8022 18.0287 49.3595L15.0542 60.4605C14.9049 61.0178 14.332 61.3486 13.7746 61.1992C13.2173 61.0499 12.8865 60.477 13.0359 59.9196L16.0103 48.8187ZM21.3297 48.9645C21.479 48.4071 22.0519 48.0764 22.6093 48.2257C23.1666 48.3751 23.4974 48.948 23.348 49.5053L18.7511 66.6613C18.6018 67.2187 18.0289 67.5494 17.4715 67.4001C16.9142 67.2507 16.5834 66.6779 16.7328 66.1205L21.3297 48.9645ZM28.501 48.2376C27.9436 48.0883 27.3707 48.419 27.2214 48.9764L20.8217 72.8602C20.6724 73.4176 21.0031 73.9904 21.5605 74.1398C22.1178 74.2891 22.6907 73.9584 22.8401 73.401L29.2397 49.5172C29.3891 48.9598 29.0583 48.3869 28.501 48.2376Z" fill="#ADE8FF"/>
</svg>
