<svg width="57" height="65" viewBox="0 0 57 65" fill="none" xmlns="http://www.w3.org/2000/svg">
<path fill-rule="evenodd" clip-rule="evenodd" d="M34.0189 46.384H12.2751C5.57666 46.384 0.146484 40.9538 0.146484 34.2553C0.146484 27.5569 5.57666 22.1267 12.2751 22.1267C14.2965 22.1267 16.2024 22.6212 17.8784 23.4958C20.2122 16.7268 26.6382 11.864 34.2 11.864C43.7324 11.864 51.46 19.5916 51.46 29.124C51.46 29.3194 51.4567 29.514 51.4503 29.7078C54.2329 31.2027 56.1248 34.1408 56.1248 37.5207C56.1248 42.4158 52.1566 46.384 47.2616 46.384H34.2C34.1727 46.384 34.0189 46.384 34.0189 46.384H34.2H34.0189Z" fill="white"/>
<path fill-rule="evenodd" clip-rule="evenodd" d="M11.4625 57.669L8.7309 59.2851L8.64261 59.1284C8.49548 58.8673 8.1705 58.7781 7.91629 58.9285C7.6626 59.0786 7.57512 59.4123 7.72205 59.6731L7.81033 59.8298L7.04205 60.2843C6.78967 60.4336 6.70189 60.7672 6.84866 61.0277C6.99513 61.2876 7.31996 61.3777 7.57354 61.2277L8.34182 60.7731L8.4301 60.9298C8.57724 61.191 8.90222 61.2801 9.15643 61.1297C9.41012 60.9796 9.4976 60.646 9.35067 60.3852L9.26238 60.2285L11.994 58.6123V61.8446H11.8174C11.5232 61.8446 11.2853 62.0885 11.2853 62.3893C11.2853 62.6895 11.5236 62.934 11.8174 62.934H11.994V63.8431C11.994 64.1417 12.2319 64.3864 12.5255 64.3864C12.8184 64.3864 13.057 64.1431 13.057 63.8431V62.934H13.2335C13.5278 62.934 13.7656 62.6901 13.7656 62.3893C13.7656 62.0891 13.5274 61.8446 13.2335 61.8446H13.057V58.6123L15.7886 60.2285L15.7003 60.3852C15.5531 60.6463 15.6403 60.9793 15.8945 61.1297C16.1482 61.2798 16.4739 61.1906 16.6208 60.9298L16.7091 60.7731L17.4774 61.2277C17.7298 61.377 18.0555 61.2882 18.2023 61.0277C18.3487 60.7677 18.2625 60.4344 18.0089 60.2843L17.2406 59.8298L17.3289 59.6731C17.476 59.4119 17.3889 59.0789 17.1346 58.9285C16.881 58.7784 16.5553 58.8676 16.4083 59.1284L16.32 59.2851L13.5884 57.669L16.32 56.0528L16.4083 56.2095C16.5555 56.4706 16.8804 56.5598 17.1346 56.4094C17.3883 56.2593 17.4758 55.9256 17.3289 55.6648L17.2406 55.5081L18.0089 55.0536C18.2613 54.9043 18.349 54.5708 18.2023 54.3102C18.0558 54.0503 17.731 53.9602 17.4774 54.1102L16.7091 54.5648L16.6208 54.4081C16.4737 54.1469 16.1487 54.0578 15.8945 54.2082C15.6408 54.3583 15.5533 54.6919 15.7003 54.9527L15.7886 55.1094L13.057 56.7256V53.4933H13.2335C13.5278 53.4933 13.7656 53.2494 13.7656 52.9486C13.7656 52.6484 13.5274 52.404 13.2335 52.404H13.057V51.4948C13.057 51.1962 12.819 50.9515 12.5255 50.9515C12.2325 50.9515 11.994 51.1948 11.994 51.4948V52.404H11.8174C11.5232 52.404 11.2853 52.6478 11.2853 52.9486C11.2853 53.2488 11.5236 53.4933 11.8174 53.4933H11.994V56.7256L9.26239 55.1094L9.35067 54.9527C9.4978 54.6916 9.41063 54.3586 9.15643 54.2082C8.90274 54.0581 8.57704 54.1473 8.43011 54.4081L8.34182 54.5648L7.57354 54.1102C7.32116 53.9609 6.99542 54.0497 6.84866 54.3102C6.70219 54.5702 6.78848 54.9036 7.04205 55.0536L7.81033 55.5081L7.72205 55.6648C7.57492 55.926 7.66208 56.259 7.91629 56.4094C8.16998 56.5595 8.49568 56.4703 8.64261 56.2095L8.7309 56.0528L11.4625 57.669Z" fill="white"/>
<path fill-rule="evenodd" clip-rule="evenodd" d="M42.1695 57.669L39.4379 59.2851L39.3496 59.1284C39.2025 58.8673 38.8775 58.7781 38.6233 58.9285C38.3696 59.0786 38.2821 59.4123 38.4291 59.6731L38.5174 59.8298L37.7491 60.2843C37.4967 60.4336 37.4089 60.7672 37.5557 61.0277C37.7022 61.2876 38.027 61.3777 38.2806 61.2277L39.0489 60.7731L39.1371 60.9298C39.2843 61.191 39.6093 61.2801 39.8635 61.1297C40.1171 60.9796 40.2046 60.646 40.0577 60.3852L39.9694 60.2285L42.701 58.6123V61.8446H42.5244C42.2302 61.8446 41.9924 62.0885 41.9924 62.3893C41.9924 62.6895 42.2306 62.934 42.5244 62.934H42.701V63.8431C42.701 64.1417 42.939 64.3864 43.2325 64.3864C43.5254 64.3864 43.764 64.1431 43.764 63.8431V62.934H43.9406C44.2348 62.934 44.4726 62.6901 44.4726 62.3893C44.4726 62.0891 44.2344 61.8446 43.9406 61.8446H43.764V58.6123L46.4956 60.2285L46.4073 60.3852C46.2602 60.6463 46.3473 60.9793 46.6015 61.1297C46.8552 61.2798 47.1809 61.1906 47.3279 60.9298L47.4161 60.7731L48.1844 61.2277C48.4368 61.377 48.7625 61.2882 48.9093 61.0277C49.0558 60.7677 48.9695 60.4344 48.7159 60.2843L47.9476 59.8298L48.0359 59.6731C48.1831 59.4119 48.0959 59.0789 47.8417 58.9285C47.588 58.7784 47.2623 58.8676 47.1154 59.1284L47.0271 59.2851L44.2955 57.669L47.0271 56.0528L47.1154 56.2095C47.2625 56.4706 47.5875 56.5598 47.8417 56.4094C48.0954 56.2593 48.1829 55.9256 48.0359 55.6648L47.9476 55.5081L48.7159 55.0536C48.9683 54.9043 49.0561 54.5708 48.9093 54.3102C48.7628 54.0503 48.438 53.9602 48.1844 54.1102L47.4161 54.5648L47.3279 54.4081C47.1807 54.1469 46.8557 54.0578 46.6015 54.2082C46.3479 54.3583 46.2604 54.6919 46.4073 54.9527L46.4956 55.1094L43.764 56.7256V53.4933H43.9406C44.2348 53.4933 44.4726 53.2494 44.4726 52.9486C44.4726 52.6484 44.2344 52.404 43.9406 52.404H43.764V51.4948C43.764 51.1962 43.526 50.9515 43.2325 50.9515C42.9396 50.9515 42.701 51.1948 42.701 51.4948V52.404H42.5244C42.2302 52.404 41.9924 52.6478 41.9924 52.9486C41.9924 53.2488 42.2306 53.4933 42.5244 53.4933H42.701V56.7256L39.9694 55.1094L40.0577 54.9527C40.2048 54.6916 40.1177 54.3586 39.8635 54.2082C39.6098 54.0581 39.2841 54.1473 39.1371 54.4081L39.0489 54.5648L38.2806 54.1102C38.0282 53.9609 37.7025 54.0497 37.5557 54.3102C37.4092 54.5702 37.4955 54.9036 37.7491 55.0536L38.5174 55.5081L38.4291 55.6648C38.2819 55.926 38.3691 56.259 38.6233 56.4094C38.877 56.5595 39.2027 56.4703 39.3496 56.2095L39.4379 56.0528L42.1695 57.669Z" fill="white"/>
<path fill-rule="evenodd" clip-rule="evenodd" d="M26.816 54.79L24.0844 56.4062L23.9961 56.2495C23.849 55.9884 23.524 55.8992 23.2698 56.0496C23.0161 56.1997 22.9286 56.5334 23.0756 56.7942L23.1638 56.9509L22.3956 57.4054C22.1432 57.5547 22.0554 57.8883 22.2022 58.1488C22.3486 58.4087 22.6735 58.4988 22.9271 58.3488L23.6953 57.8942L23.7836 58.0509C23.9308 58.3121 24.2557 58.4012 24.5099 58.2508C24.7636 58.1007 24.8511 57.7671 24.7042 57.5063L24.6159 57.3496L27.3475 55.7334V58.9657H27.1709C26.8767 58.9657 26.6388 59.2096 26.6388 59.5104C26.6388 59.8106 26.8771 60.055 27.1709 60.055H27.3475V60.9642C27.3475 61.2628 27.5855 61.5075 27.879 61.5075C28.1719 61.5075 28.4105 61.2642 28.4105 60.9642V60.055H28.587C28.8813 60.055 29.1191 59.8112 29.1191 59.5104C29.1191 59.2102 28.8809 58.9657 28.587 58.9657H28.4105V55.7334L31.1421 57.3496L31.0538 57.5063C30.9067 57.7674 30.9938 58.1004 31.248 58.2508C31.5017 58.4009 31.8274 58.3117 31.9743 58.0509L32.0626 57.8942L32.8309 58.3488C33.0833 58.4981 33.409 58.4093 33.5558 58.1488C33.7023 57.8888 33.616 57.5554 33.3624 57.4054L32.5941 56.9509L32.6824 56.7942C32.8295 56.533 32.7424 56.2 32.4882 56.0496C32.2345 55.8995 31.9088 55.9887 31.7618 56.2495L31.6736 56.4062L28.942 54.79L31.6736 53.1739L31.7618 53.3306C31.909 53.5917 32.234 53.6809 32.4882 53.5305C32.7419 53.3804 32.8293 53.0467 32.6824 52.7859L32.5941 52.6292L33.3624 52.1747C33.6148 52.0254 33.7026 51.6918 33.5558 51.4313C33.4093 51.1714 33.0845 51.0813 32.8309 51.2313L32.0626 51.6859L31.9743 51.5292C31.8272 51.268 31.5022 51.1789 31.248 51.3293C30.9943 51.4794 30.9069 51.813 31.0538 52.0738L31.1421 52.2305L28.4105 53.8467V50.6144H28.587C28.8813 50.6144 29.1191 50.3705 29.1191 50.0697C29.1191 49.7695 28.8809 49.525 28.587 49.525H28.4105V48.6159C28.4105 48.3173 28.1725 48.0726 27.879 48.0726C27.586 48.0726 27.3475 48.3159 27.3475 48.6159V49.525H27.1709C26.8767 49.525 26.6388 49.7689 26.6388 50.0697C26.6388 50.3699 26.8771 50.6144 27.1709 50.6144H27.3475V53.8467L24.6159 52.2305L24.7042 52.0738C24.8513 51.8127 24.7642 51.4797 24.5099 51.3293C24.2563 51.1792 23.9306 51.2684 23.7836 51.5292L23.6953 51.6859L22.9271 51.2313C22.6747 51.082 22.3489 51.1708 22.2022 51.4313C22.0557 51.6913 22.142 52.0246 22.3956 52.1747L23.1638 52.6292L23.0756 52.7859C22.9284 53.0471 23.0156 53.3801 23.2698 53.5305C23.5235 53.6806 23.8492 53.5914 23.9961 53.3306L24.0844 53.1739L26.816 54.79Z" fill="white"/>
<path fill-rule="evenodd" clip-rule="evenodd" d="M29 25.4398C27.8918 25.6806 26.7417 25.8075 25.5621 25.8075C16.5869 25.8075 9.31108 18.464 9.31108 9.4053C9.31108 5.90615 10.3967 2.66292 12.2466 0C5.21653 1.73638 0 8.13717 0 15.7677C0 24.7325 7.2005 32 16.0828 32C21.3744 32 26.0691 29.4207 29 25.4398Z" fill="#F7BF3A"/>
</svg>
