<svg width="65" height="74" viewBox="0 0 65 74" fill="none" xmlns="http://www.w3.org/2000/svg">
<circle cx="17.5384" cy="17.5384" r="16.0384" stroke="#FFC108" stroke-opacity="0.3" stroke-width="3"/>
<circle cx="17.538" cy="17.5383" r="13.8681" stroke="#FFC208" stroke-opacity="0.6" stroke-width="4"/>
<circle cx="17.5374" cy="17.5384" r="13.5296" fill="#F7BF3A"/>
<path fill-rule="evenodd" clip-rule="evenodd" d="M42.0189 46.384H20.2751C13.5767 46.384 8.14648 40.9538 8.14648 34.2553C8.14648 27.5569 13.5767 22.1267 20.2751 22.1267C22.2965 22.1267 24.2024 22.6212 25.8784 23.4958C28.2122 16.7268 34.6382 11.864 42.2 11.864C51.7324 11.864 59.46 19.5916 59.46 29.124C59.46 29.3194 59.4567 29.514 59.4503 29.7078C62.2329 31.2027 64.1248 34.1408 64.1248 37.5207C64.1248 42.4158 60.1566 46.384 55.2616 46.384H42.2C42.1727 46.384 42.0189 46.384 42.0189 46.384H42.2H42.0189Z" fill="white"/>
<path fill-rule="evenodd" clip-rule="evenodd" d="M50.4089 49.4994C50.5522 48.9648 51.1017 48.6475 51.6364 48.7907C52.171 48.934 52.4883 49.4835 52.345 50.0182L50.7022 56.1491C50.559 56.6838 50.0094 57.001 49.4748 56.8578C48.9402 56.7145 48.6229 56.165 48.7662 55.6303L50.4089 49.4994ZM25.869 48.833C25.3344 48.6898 24.7848 49.007 24.6416 49.5417L21.7883 60.1901C21.645 60.7248 21.9623 61.2743 22.497 61.4176C23.0316 61.5608 23.5811 61.2436 23.7244 60.7089L26.5776 50.0604C26.7209 49.5258 26.4036 48.9763 25.869 48.833ZM41.8856 48.898C41.351 48.7548 40.8014 49.0721 40.6582 49.6067L37.8049 60.2552C37.6617 60.7898 37.979 61.3394 38.5136 61.4826C39.0482 61.6259 39.5978 61.3086 39.741 60.7739L42.5943 50.1255C42.7375 49.5908 42.4202 49.0413 41.8856 48.898ZM30.9715 48.9729C30.4369 48.8296 29.8873 49.1469 29.7441 49.6815L25.3345 66.1383C25.1913 66.6729 25.5085 67.2224 26.0432 67.3657C26.5778 67.509 27.1274 67.1917 27.2706 66.657L31.6802 50.2003C31.8234 49.6657 31.5062 49.1161 30.9715 48.9729ZM35.3956 49.6929C35.5389 49.1583 36.0884 48.841 36.6231 48.9843C37.1577 49.1275 37.475 49.6771 37.3317 50.2117L31.1929 73.1221C31.0497 73.6567 30.5001 73.974 29.9655 73.8307C29.4309 73.6875 29.1136 73.1379 29.2568 72.6033L35.3956 49.6929ZM46.7826 48.898C46.2479 48.7548 45.6984 49.0721 45.5551 49.6067L41.1456 66.0634C41.0023 66.5981 41.3196 67.1476 41.8542 67.2909C42.3889 67.4341 42.9384 67.1168 43.0817 66.5822L47.4912 50.1255C47.6345 49.5908 47.3172 49.0413 46.7826 48.898Z" fill="#ADE8FF"/>
</svg>
