<svg width="80" height="62" viewBox="0 0 80 62" fill="none" xmlns="http://www.w3.org/2000/svg">
<path fill-rule="evenodd" clip-rule="evenodd" d="M48.3549 61.6895H17.7269C8.29148 61.6895 0.642578 54.1185 0.642578 44.7791C0.642578 35.4396 8.29148 27.8686 17.7269 27.8686C20.5742 27.8686 23.2588 28.558 25.6196 29.7775C28.9069 20.3397 37.9585 13.5597 48.61 13.5597C62.0373 13.5597 72.9223 24.3339 72.9223 37.6246C72.9223 37.897 72.9177 38.1683 72.9086 38.4386C76.8282 40.5229 79.4931 44.6193 79.4931 49.3319C79.4931 56.1568 73.9036 61.6895 67.0085 61.6895H48.61C48.5716 61.6895 48.3549 61.6895 48.3549 61.6895H48.61H48.3549Z" fill="white"/>
<path fill-rule="evenodd" clip-rule="evenodd" d="M40 30.2097C38.7008 30.4958 37.3523 30.6464 35.9694 30.6464C25.4467 30.6464 16.9164 21.926 16.9164 11.1688C16.9164 7.01355 18.1892 3.16221 20.358 0C12.1159 2.06195 6 9.66289 6 18.7241C6 29.3699 14.442 38 24.8557 38C31.0596 38 36.5637 34.9371 40 30.2097Z" fill="#F7BF3A"/>
</svg>
