<svg width="47" height="68" viewBox="0 0 47 68" fill="none" xmlns="http://www.w3.org/2000/svg">
<path fill-rule="evenodd" clip-rule="evenodd" d="M39 34.9797C37.5097 35.3109 35.9629 35.4853 34.3767 35.4853C22.3066 35.4853 12.5218 25.388 12.5218 12.9323C12.5218 8.12096 13.9818 3.66151 16.4695 0C7.01534 2.38752 0 11.1886 0 21.6806C0 34.0072 9.68344 44 21.6286 44C28.7448 44 35.0584 40.4534 39 34.9797Z" fill="#F7BF3A"/>
<path fill-rule="evenodd" clip-rule="evenodd" d="M31.1132 47.299H15.5878C10.805 47.299 6.92773 43.5081 6.92773 38.8318C6.92773 34.1554 10.805 30.3645 15.5878 30.3645C17.0311 30.3645 18.392 30.7098 19.5887 31.3203C21.255 26.5948 25.8433 23.2 31.2426 23.2C38.0489 23.2 43.5665 28.5947 43.5665 35.2495C43.5665 35.3859 43.5642 35.5217 43.5596 35.657C45.5464 36.7007 46.8973 38.7518 46.8973 41.1114C46.8973 44.5287 44.0639 47.299 40.5688 47.299H31.2426C31.2231 47.299 31.1132 47.299 31.1132 47.299H31.2426H31.1132Z" fill="white"/>
<path fill-rule="evenodd" clip-rule="evenodd" d="M29.5967 50.1965C29.6996 49.8159 30.092 49.5893 30.4731 49.6905C30.8542 49.7916 31.0797 50.1822 30.9767 50.5628L29.8088 54.8807C29.7058 55.2613 29.3134 55.4878 28.9323 55.3867C28.5513 55.2855 28.3258 54.895 28.4287 54.5144L29.5967 50.1965ZM12.106 49.7203C11.7249 49.6192 11.3325 49.8457 11.2295 50.2263L9.19874 57.7341C9.09579 58.1147 9.32127 58.5052 9.70236 58.6064C10.0835 58.7075 10.4758 58.481 10.5788 58.1004L12.6096 50.5926C12.7125 50.212 12.4871 49.8215 12.106 49.7203ZM23.5227 49.7662C23.1416 49.6651 22.7492 49.8916 22.6463 50.2722L20.6155 57.78C20.5125 58.1606 20.738 58.5511 21.1191 58.6523C21.5002 58.7535 21.8926 58.5269 21.9956 58.1463L24.0263 50.6385C24.1293 50.2579 23.9038 49.8674 23.5227 49.7662ZM15.7431 49.8191C15.362 49.7179 14.9696 49.9445 14.8666 50.3251L11.7265 61.9341C11.6236 62.3147 11.849 62.7052 12.2301 62.8064C12.6112 62.9075 13.0036 62.681 13.1066 62.3004L16.2467 50.6914C16.3497 50.3108 16.1242 49.9202 15.7431 49.8191ZM18.8951 50.3331C18.9981 49.9525 19.3905 49.726 19.7715 49.8271C20.1526 49.9283 20.3781 50.3188 20.2752 50.6994L15.9024 66.8654C15.7995 67.246 15.4071 67.4725 15.026 67.3714C14.6449 67.2702 14.4194 66.8797 14.5224 66.4991L18.8951 50.3331ZM27.0133 49.7662C26.6322 49.6651 26.2398 49.8916 26.1369 50.2722L22.9967 61.8812C22.8938 62.2618 23.1193 62.6524 23.5003 62.7535C23.8814 62.8547 24.2738 62.6282 24.3768 62.2475L27.5169 50.6385C27.6199 50.2579 27.3944 49.8674 27.0133 49.7662Z" fill="#ADE8FF"/>
<path fill-rule="evenodd" clip-rule="evenodd" d="M33.75 45L31 55.7857H35.5L34.25 67L42 51.2063L38.2857 51.2063L40.5 45H33.75Z" fill="#F7BF3A"/>
</svg>
