<svg width="50" height="67" viewBox="0 0 50 67" fill="none" xmlns="http://www.w3.org/2000/svg">
<path fill-rule="evenodd" clip-rule="evenodd" d="M39 34.9797C37.5097 35.3109 35.9629 35.4853 34.3767 35.4853C22.3066 35.4853 12.5218 25.388 12.5218 12.9323C12.5218 8.12096 13.9818 3.66151 16.4695 0C7.01534 2.38752 0 11.1886 0 21.6806C0 34.0072 9.68344 44 21.6286 44C28.7448 44 35.0584 40.4534 39 34.9797Z" fill="#F7BF3A"/>
<path fill-rule="evenodd" clip-rule="evenodd" d="M34.1132 46.299H18.5878C13.805 46.299 9.92773 42.5081 9.92773 37.8318C9.92773 33.1554 13.805 29.3645 18.5878 29.3645C20.0311 29.3645 21.392 29.7098 22.5887 30.3203C24.255 25.5948 28.8433 22.2 34.2426 22.2C41.0489 22.2 46.5665 27.5947 46.5665 34.2495C46.5665 34.3859 46.5642 34.5217 46.5596 34.657C48.5464 35.7007 49.8973 37.7518 49.8973 40.1114C49.8973 43.5287 47.0639 46.299 43.5688 46.299H34.2426C34.2231 46.299 34.1132 46.299 34.1132 46.299H34.2426H34.1132Z" fill="white"/>
<path fill-rule="evenodd" clip-rule="evenodd" d="M40.0146 49.1965C40.1176 48.8159 40.51 48.5893 40.8911 48.6905C41.2722 48.7916 41.4977 49.1822 41.3947 49.5628L40.2268 53.8807C40.1238 54.2613 39.7314 54.4878 39.3503 54.3867C38.9692 54.2855 38.7437 53.895 38.8467 53.5144L40.0146 49.1965ZM22.5239 48.7203C22.1428 48.6192 21.7504 48.8457 21.6475 49.2263L19.6167 56.7341C19.5138 57.1147 19.7392 57.5052 20.1203 57.6064C20.5014 57.7075 20.8938 57.481 20.9968 57.1004L23.0275 49.5926C23.1305 49.212 22.905 48.8215 22.5239 48.7203ZM33.9407 48.7662C33.5596 48.6651 33.1672 48.8916 33.0642 49.2722L31.0335 56.78C30.9305 57.1606 31.156 57.5511 31.5371 57.6523C31.9182 57.7535 32.3106 57.5269 32.4135 57.1463L34.4443 49.6385C34.5473 49.2579 34.3218 48.8674 33.9407 48.7662ZM26.1611 48.8191C25.78 48.7179 25.3876 48.9445 25.2846 49.3251L22.1445 60.9341C22.0415 61.3147 22.267 61.7052 22.6481 61.8064C23.0292 61.9075 23.4216 61.681 23.5245 61.3004L26.6647 49.6914C26.7676 49.3108 26.5421 48.9202 26.1611 48.8191ZM29.3131 49.3331C29.416 48.9525 29.8084 48.726 30.1895 48.8271C30.5706 48.9283 30.7961 49.3188 30.6931 49.6994L26.3204 65.8654C26.2174 66.246 25.825 66.4725 25.4439 66.3714C25.0628 66.2702 24.8374 65.8797 24.9403 65.4991L29.3131 49.3331ZM37.4313 48.7662C37.0502 48.6651 36.6578 48.8916 36.5548 49.2722L33.4147 60.8812C33.3117 61.2618 33.5372 61.6524 33.9183 61.7535C34.2994 61.8547 34.6918 61.6282 34.7948 61.2475L37.9349 49.6385C38.0378 49.2579 37.8124 48.8674 37.4313 48.7662Z" fill="#ADE8FF"/>
</svg>
