<svg width="49" height="61" viewBox="0 0 49 61" fill="none" xmlns="http://www.w3.org/2000/svg">
<path fill-rule="evenodd" clip-rule="evenodd" d="M39 34.9797C37.5097 35.3109 35.9629 35.4853 34.3767 35.4853C22.3066 35.4853 12.5218 25.388 12.5218 12.9323C12.5218 8.12096 13.9818 3.66151 16.4695 0C7.01534 2.38752 0 11.1886 0 21.6806C0 34.0072 9.68344 44 21.6286 44C28.7448 44 35.0584 40.4534 39 34.9797Z" fill="#F7BF3A"/>
<path fill-rule="evenodd" clip-rule="evenodd" d="M33.1132 47.299H17.5878C12.805 47.299 8.92773 43.5081 8.92773 38.8318C8.92773 34.1554 12.805 30.3645 17.5878 30.3645C19.0311 30.3645 20.392 30.7098 21.5887 31.3203C23.255 26.5948 27.8433 23.2 33.2426 23.2C40.0489 23.2 45.5665 28.5947 45.5665 35.2495C45.5665 35.3859 45.5642 35.5217 45.5596 35.657C47.5464 36.7007 48.8973 38.7518 48.8973 41.1114C48.8973 44.5287 46.0639 47.299 42.5688 47.299H33.2426C33.2231 47.299 33.1132 47.299 33.1132 47.299H33.2426H33.1132Z" fill="white"/>
<path fill-rule="evenodd" clip-rule="evenodd" d="M19.6378 55.8359L17.6466 57.014L17.5823 56.8998C17.475 56.7094 17.2382 56.6444 17.0529 56.7541C16.8679 56.8635 16.8042 57.1067 16.9113 57.2968L16.9756 57.411L16.4156 57.7423C16.2316 57.8512 16.1677 58.0943 16.2746 58.2842C16.3814 58.4737 16.6182 58.5393 16.803 58.43L17.363 58.0986L17.4274 58.2129C17.5346 58.4032 17.7715 58.4682 17.9568 58.3586C18.1417 58.2491 18.2055 58.0059 18.0984 57.8158L18.0341 57.7016L20.0252 56.5236V58.8797H19.8965C19.682 58.8797 19.5086 59.0574 19.5086 59.2767C19.5086 59.4955 19.6823 59.6737 19.8965 59.6737H20.0252V60.3364C20.0252 60.5541 20.1986 60.7324 20.4126 60.7324C20.6261 60.7324 20.8 60.5551 20.8 60.3364V59.6737H20.9287C21.1432 59.6737 21.3166 59.496 21.3166 59.2767C21.3166 59.0579 21.1429 58.8797 20.9287 58.8797H20.8V56.5236L22.7911 57.7016L22.7268 57.8158C22.6195 58.0062 22.6831 58.2489 22.8684 58.3586C23.0533 58.468 23.2907 58.403 23.3978 58.2129L23.4621 58.0986L24.0222 58.43C24.2061 58.5388 24.4436 58.474 24.5505 58.2842C24.6573 58.0947 24.5944 57.8517 24.4096 57.7423L23.8496 57.411L23.9139 57.2968C24.0212 57.1064 23.9576 56.8637 23.7723 56.7541C23.5874 56.6446 23.35 56.7097 23.2429 56.8998L23.1785 57.014L21.1874 55.8359L23.1785 54.6579L23.2429 54.7721C23.3501 54.9625 23.587 55.0274 23.7723 54.9178C23.9572 54.8084 24.021 54.5652 23.9139 54.3751L23.8496 54.2609L24.4096 53.9295C24.5935 53.8207 24.6575 53.5776 24.5505 53.3877C24.4438 53.1982 24.207 53.1325 24.0222 53.2419L23.4621 53.5732L23.3978 53.459C23.2905 53.2686 23.0537 53.2037 22.8684 53.3133C22.6834 53.4227 22.6197 53.6659 22.7268 53.856L22.7911 53.9702L20.8 55.1483V52.7922H20.9287C21.1432 52.7922 21.3166 52.6144 21.3166 52.3952C21.3166 52.1763 21.1429 51.9981 20.9287 51.9981H20.8V51.3355C20.8 51.1178 20.6266 50.9395 20.4126 50.9395C20.1991 50.9395 20.0252 51.1168 20.0252 51.3355V51.9981H19.8965C19.682 51.9981 19.5086 52.1759 19.5086 52.3952C19.5086 52.614 19.6823 52.7922 19.8965 52.7922H20.0252V55.1483L18.0341 53.9702L18.0984 53.856C18.2057 53.6656 18.1421 53.4229 17.9568 53.3133C17.7719 53.2039 17.5345 53.2689 17.4274 53.459L17.363 53.5732L16.803 53.2419C16.6191 53.133 16.3816 53.1978 16.2746 53.3877C16.1679 53.5772 16.2308 53.8202 16.4156 53.9295L16.9756 54.2609L16.9113 54.3751C16.804 54.5654 16.8676 54.8082 17.0529 54.9178C17.2378 55.0272 17.4752 54.9622 17.5823 54.7721L17.6466 54.6579L19.6378 55.8359Z" fill="white"/>
<path fill-rule="evenodd" clip-rule="evenodd" d="M42.0206 55.8359L40.0295 57.014L39.9651 56.8998C39.8579 56.7094 39.621 56.6444 39.4357 56.7541C39.2508 56.8635 39.187 57.1067 39.2941 57.2968L39.3584 57.411L38.7984 57.7423C38.6145 57.8512 38.5505 58.0943 38.6575 58.2842C38.7642 58.4737 39.001 58.5393 39.1858 58.43L39.7459 58.0986L39.8102 58.2129C39.9174 58.4032 40.1543 58.4682 40.3396 58.3586C40.5246 58.2491 40.5883 58.0059 40.4812 57.8158L40.4169 57.7016L42.408 56.5236V58.8797H42.2793C42.0648 58.8797 41.8914 59.0574 41.8914 59.2767C41.8914 59.4955 42.0651 59.6737 42.2793 59.6737H42.408V60.3364C42.408 60.5541 42.5814 60.7324 42.7954 60.7324C43.0089 60.7324 43.1828 60.5551 43.1828 60.3364V59.6737H43.3115C43.526 59.6737 43.6994 59.496 43.6994 59.2767C43.6994 59.0579 43.5257 58.8797 43.3115 58.8797H43.1828V56.5236L45.1739 57.7016L45.1096 57.8158C45.0023 58.0062 45.0659 58.2489 45.2512 58.3586C45.4361 58.468 45.6735 58.403 45.7806 58.2129L45.845 58.0986L46.405 58.43C46.5889 58.5388 46.8264 58.474 46.9334 58.2842C47.0401 58.0947 46.9772 57.8517 46.7924 57.7423L46.2324 57.411L46.2967 57.2968C46.404 57.1064 46.3404 56.8637 46.1551 56.7541C45.9702 56.6446 45.7328 56.7097 45.6257 56.8998L45.5613 57.014L43.5702 55.8359L45.5613 54.6579L45.6257 54.7721C45.7329 54.9625 45.9698 55.0274 46.1551 54.9178C46.3401 54.8084 46.4038 54.5652 46.2967 54.3751L46.2324 54.2609L46.7924 53.9295C46.9764 53.8207 47.0403 53.5776 46.9334 53.3877C46.8266 53.1982 46.5898 53.1325 46.405 53.2419L45.845 53.5732L45.7806 53.459C45.6734 53.2686 45.4365 53.2037 45.2512 53.3133C45.0662 53.4227 45.0025 53.6659 45.1096 53.856L45.1739 53.9702L43.1828 55.1483V52.7922H43.3115C43.526 52.7922 43.6994 52.6144 43.6994 52.3952C43.6994 52.1763 43.5257 51.9981 43.3115 51.9981H43.1828V51.3355C43.1828 51.1178 43.0094 50.9395 42.7954 50.9395C42.5819 50.9395 42.408 51.1168 42.408 51.3355V51.9981H42.2793C42.0648 51.9981 41.8914 52.1759 41.8914 52.3952C41.8914 52.614 42.0651 52.7922 42.2793 52.7922H42.408V55.1483L40.4169 53.9702L40.4812 53.856C40.5885 53.6656 40.5249 53.4229 40.3396 53.3133C40.1547 53.2039 39.9173 53.2689 39.8102 53.459L39.7459 53.5732L39.1858 53.2419C39.0019 53.133 38.7644 53.1978 38.6575 53.3877C38.5507 53.5772 38.6136 53.8202 38.7984 53.9295L39.3584 54.2609L39.2941 54.3751C39.1868 54.5654 39.2504 54.8082 39.4357 54.9178C39.6206 55.0272 39.858 54.9622 39.9651 54.7721L40.0295 54.6579L42.0206 55.8359Z" fill="white"/>
<path fill-rule="evenodd" clip-rule="evenodd" d="M30.8292 53.7374L28.8381 54.9155L28.7737 54.8012C28.6665 54.6109 28.4296 54.5459 28.2443 54.6555C28.0593 54.765 27.9956 55.0082 28.1027 55.1983L28.167 55.3125L27.607 55.6438C27.423 55.7527 27.3591 55.9958 27.466 56.1856C27.5728 56.3751 27.8096 56.4408 27.9944 56.3315L28.5544 56.0001L28.6188 56.1143C28.726 56.3047 28.9629 56.3697 29.1482 56.26C29.3331 56.1506 29.3969 55.9074 29.2898 55.7173L29.2255 55.6031L31.2166 54.4251V56.7812H31.0879C30.8734 56.7812 30.7 56.9589 30.7 57.1782C30.7 57.397 30.8737 57.5752 31.0879 57.5752H31.2166V58.2379C31.2166 58.4555 31.39 58.6339 31.604 58.6339C31.8175 58.6339 31.9914 58.4566 31.9914 58.2379V57.5752H32.1201C32.3346 57.5752 32.508 57.3974 32.508 57.1782C32.508 56.9594 32.3343 56.7812 32.1201 56.7812H31.9914V54.4251L33.9825 55.6031L33.9182 55.7173C33.8109 55.9077 33.8745 56.1504 34.0598 56.26C34.2447 56.3695 34.4821 56.3044 34.5892 56.1143L34.6535 56.0001L35.2136 56.3315C35.3975 56.4403 35.635 56.3755 35.7419 56.1856C35.8487 55.9961 35.7858 55.7532 35.601 55.6438L35.041 55.3125L35.1053 55.1983C35.2126 55.0079 35.149 54.7652 34.9637 54.6555C34.7788 54.5461 34.5414 54.6111 34.4343 54.8012L34.3699 54.9155L32.3788 53.7374L34.3699 52.5594L34.4343 52.6736C34.5415 52.8639 34.7784 52.9289 34.9637 52.8193C35.1486 52.7099 35.2124 52.4667 35.1053 52.2766L35.041 52.1623L35.601 51.831C35.7849 51.7222 35.8489 51.4791 35.7419 51.2892C35.6352 51.0997 35.3984 51.034 35.2136 51.1434L34.6535 51.4747L34.5892 51.3605C34.4819 51.1701 34.2451 51.1051 34.0598 51.2148C33.8748 51.3242 33.8111 51.5674 33.9182 51.7575L33.9825 51.8717L31.9914 53.0498V50.6937H32.1201C32.3346 50.6937 32.508 50.5159 32.508 50.2966C32.508 50.0778 32.3343 49.8996 32.1201 49.8996H31.9914V49.237C31.9914 49.0193 31.818 48.8409 31.604 48.8409C31.3905 48.8409 31.2166 49.0182 31.2166 49.237V49.8996H31.0879C30.8734 49.8996 30.7 50.0774 30.7 50.2966C30.7 50.5155 30.8737 50.6937 31.0879 50.6937H31.2166V53.0498L29.2255 51.8717L29.2898 51.7575C29.3971 51.5671 29.3335 51.3244 29.1482 51.2148C28.9633 51.1054 28.7259 51.1704 28.6188 51.3605L28.5544 51.4747L27.9944 51.1434C27.8105 51.0345 27.573 51.0993 27.466 51.2892C27.3593 51.4787 27.4222 51.7217 27.607 51.831L28.167 52.1623L28.1027 52.2766C27.9954 52.4669 28.059 52.7096 28.2443 52.8193C28.4292 52.9287 28.6666 52.8637 28.7737 52.6736L28.8381 52.5594L30.8292 53.7374Z" fill="white"/>
</svg>
