<svg width="65" height="65" viewBox="0 0 65 65" fill="none" xmlns="http://www.w3.org/2000/svg">
<circle cx="17.5384" cy="17.5384" r="16.0384" stroke="#FFC108" stroke-opacity="0.3" stroke-width="3"/>
<circle cx="17.538" cy="17.5383" r="13.8681" stroke="#FFC208" stroke-opacity="0.6" stroke-width="4"/>
<circle cx="17.5374" cy="17.5384" r="13.5296" fill="#F7BF3A"/>
<path fill-rule="evenodd" clip-rule="evenodd" d="M42.0189 46.384H20.2751C13.5767 46.384 8.14648 40.9538 8.14648 34.2553C8.14648 27.5569 13.5767 22.1267 20.2751 22.1267C22.2965 22.1267 24.2024 22.6212 25.8784 23.4958C28.2122 16.7268 34.6382 11.864 42.2 11.864C51.7324 11.864 59.46 19.5916 59.46 29.124C59.46 29.3194 59.4567 29.514 59.4503 29.7078C62.2329 31.2027 64.1248 34.1408 64.1248 37.5207C64.1248 42.4158 60.1566 46.384 55.2616 46.384H42.2C42.1727 46.384 42.0189 46.384 42.0189 46.384H42.2H42.0189Z" fill="white"/>
<path fill-rule="evenodd" clip-rule="evenodd" d="M19.4625 57.669L16.7309 59.2851L16.6426 59.1284C16.4955 58.8673 16.1705 58.7781 15.9163 58.9285C15.6626 59.0786 15.5751 59.4123 15.722 59.6731L15.8103 59.8298L15.0421 60.2843C14.7897 60.4336 14.7019 60.7672 14.8487 61.0277C14.9951 61.2876 15.32 61.3777 15.5735 61.2277L16.3418 60.7731L16.4301 60.9298C16.5772 61.191 16.9022 61.2801 17.1564 61.1297C17.4101 60.9796 17.4976 60.646 17.3507 60.3852L17.2624 60.2285L19.994 58.6123V61.8446H19.8174C19.5232 61.8446 19.2853 62.0885 19.2853 62.3893C19.2853 62.6895 19.5236 62.934 19.8174 62.934H19.994V63.8431C19.994 64.1417 20.2319 64.3864 20.5255 64.3864C20.8184 64.3864 21.057 64.1431 21.057 63.8431V62.934H21.2335C21.5278 62.934 21.7656 62.6901 21.7656 62.3893C21.7656 62.0891 21.5274 61.8446 21.2335 61.8446H21.057V58.6123L23.7886 60.2285L23.7003 60.3852C23.5531 60.6463 23.6403 60.9793 23.8945 61.1297C24.1482 61.2798 24.4739 61.1906 24.6208 60.9298L24.7091 60.7731L25.4774 61.2277C25.7298 61.377 26.0555 61.2882 26.2023 61.0277C26.3487 60.7677 26.2625 60.4344 26.0089 60.2843L25.2406 59.8298L25.3289 59.6731C25.476 59.4119 25.3889 59.0789 25.1346 58.9285C24.881 58.7784 24.5553 58.8676 24.4083 59.1284L24.32 59.2851L21.5884 57.669L24.32 56.0528L24.4083 56.2095C24.5555 56.4706 24.8804 56.5598 25.1346 56.4094C25.3883 56.2593 25.4758 55.9256 25.3289 55.6648L25.2406 55.5081L26.0089 55.0536C26.2613 54.9043 26.349 54.5708 26.2023 54.3102C26.0558 54.0503 25.731 53.9602 25.4774 54.1102L24.7091 54.5648L24.6208 54.4081C24.4737 54.1469 24.1487 54.0578 23.8945 54.2082C23.6408 54.3583 23.5533 54.6919 23.7003 54.9527L23.7886 55.1094L21.057 56.7256V53.4933H21.2335C21.5278 53.4933 21.7656 53.2494 21.7656 52.9486C21.7656 52.6484 21.5274 52.404 21.2335 52.404H21.057V51.4948C21.057 51.1962 20.819 50.9515 20.5255 50.9515C20.2325 50.9515 19.994 51.1948 19.994 51.4948V52.404H19.8174C19.5232 52.404 19.2853 52.6478 19.2853 52.9486C19.2853 53.2488 19.5236 53.4933 19.8174 53.4933H19.994V56.7256L17.2624 55.1094L17.3507 54.9527C17.4978 54.6916 17.4106 54.3586 17.1564 54.2082C16.9027 54.0581 16.577 54.1473 16.4301 54.4081L16.3418 54.5648L15.5735 54.1102C15.3212 53.9609 14.9954 54.0497 14.8487 54.3102C14.7022 54.5702 14.7885 54.9036 15.0421 55.0536L15.8103 55.5081L15.722 55.6648C15.5749 55.926 15.6621 56.259 15.9163 56.4094C16.17 56.5595 16.4957 56.4703 16.6426 56.2095L16.7309 56.0528L19.4625 57.669Z" fill="white"/>
<path fill-rule="evenodd" clip-rule="evenodd" d="M50.1695 57.669L47.4379 59.2851L47.3496 59.1284C47.2025 58.8673 46.8775 58.7781 46.6233 58.9285C46.3696 59.0786 46.2821 59.4123 46.4291 59.6731L46.5174 59.8298L45.7491 60.2843C45.4967 60.4336 45.4089 60.7672 45.5557 61.0277C45.7022 61.2876 46.027 61.3777 46.2806 61.2277L47.0489 60.7731L47.1371 60.9298C47.2843 61.191 47.6093 61.2801 47.8635 61.1297C48.1171 60.9796 48.2046 60.646 48.0577 60.3852L47.9694 60.2285L50.701 58.6123V61.8446H50.5244C50.2302 61.8446 49.9924 62.0885 49.9924 62.3893C49.9924 62.6895 50.2306 62.934 50.5244 62.934H50.701V63.8431C50.701 64.1417 50.939 64.3864 51.2325 64.3864C51.5254 64.3864 51.764 64.1431 51.764 63.8431V62.934H51.9406C52.2348 62.934 52.4726 62.6901 52.4726 62.3893C52.4726 62.0891 52.2344 61.8446 51.9406 61.8446H51.764V58.6123L54.4956 60.2285L54.4073 60.3852C54.2602 60.6463 54.3473 60.9793 54.6015 61.1297C54.8552 61.2798 55.1809 61.1906 55.3279 60.9298L55.4161 60.7731L56.1844 61.2277C56.4368 61.377 56.7625 61.2882 56.9093 61.0277C57.0558 60.7677 56.9695 60.4344 56.7159 60.2843L55.9476 59.8298L56.0359 59.6731C56.1831 59.4119 56.0959 59.0789 55.8417 58.9285C55.588 58.7784 55.2623 58.8676 55.1154 59.1284L55.0271 59.2851L52.2955 57.669L55.0271 56.0528L55.1154 56.2095C55.2625 56.4706 55.5875 56.5598 55.8417 56.4094C56.0954 56.2593 56.1829 55.9256 56.0359 55.6648L55.9476 55.5081L56.7159 55.0536C56.9683 54.9043 57.0561 54.5708 56.9093 54.3102C56.7628 54.0503 56.438 53.9602 56.1844 54.1102L55.4161 54.5648L55.3279 54.4081C55.1807 54.1469 54.8557 54.0578 54.6015 54.2082C54.3479 54.3583 54.2604 54.6919 54.4073 54.9527L54.4956 55.1094L51.764 56.7256V53.4933H51.9406C52.2348 53.4933 52.4726 53.2494 52.4726 52.9486C52.4726 52.6484 52.2344 52.404 51.9406 52.404H51.764V51.4948C51.764 51.1962 51.526 50.9515 51.2325 50.9515C50.9396 50.9515 50.701 51.1948 50.701 51.4948V52.404H50.5244C50.2302 52.404 49.9924 52.6478 49.9924 52.9486C49.9924 53.2488 50.2306 53.4933 50.5244 53.4933H50.701V56.7256L47.9694 55.1094L48.0577 54.9527C48.2048 54.6916 48.1177 54.3586 47.8635 54.2082C47.6098 54.0581 47.2841 54.1473 47.1371 54.4081L47.0489 54.5648L46.2806 54.1102C46.0282 53.9609 45.7025 54.0497 45.5557 54.3102C45.4092 54.5702 45.4955 54.9036 45.7491 55.0536L46.5174 55.5081L46.4291 55.6648C46.2819 55.926 46.3691 56.259 46.6233 56.4094C46.877 56.5595 47.2027 56.4703 47.3496 56.2095L47.4379 56.0528L50.1695 57.669Z" fill="white"/>
<path fill-rule="evenodd" clip-rule="evenodd" d="M34.816 54.79L32.0844 56.4062L31.9961 56.2495C31.849 55.9884 31.524 55.8992 31.2698 56.0496C31.0161 56.1997 30.9286 56.5334 31.0756 56.7942L31.1638 56.9509L30.3956 57.4054C30.1432 57.5547 30.0554 57.8883 30.2022 58.1488C30.3486 58.4087 30.6735 58.4988 30.9271 58.3488L31.6953 57.8942L31.7836 58.0509C31.9308 58.3121 32.2557 58.4012 32.5099 58.2508C32.7636 58.1007 32.8511 57.7671 32.7042 57.5063L32.6159 57.3496L35.3475 55.7334V58.9657H35.1709C34.8767 58.9657 34.6388 59.2096 34.6388 59.5104C34.6388 59.8106 34.8771 60.055 35.1709 60.055H35.3475V60.9642C35.3475 61.2628 35.5855 61.5075 35.879 61.5075C36.1719 61.5075 36.4105 61.2642 36.4105 60.9642V60.055H36.587C36.8813 60.055 37.1191 59.8112 37.1191 59.5104C37.1191 59.2102 36.8809 58.9657 36.587 58.9657H36.4105V55.7334L39.1421 57.3496L39.0538 57.5063C38.9067 57.7674 38.9938 58.1004 39.248 58.2508C39.5017 58.4009 39.8274 58.3117 39.9743 58.0509L40.0626 57.8942L40.8309 58.3488C41.0833 58.4981 41.409 58.4093 41.5558 58.1488C41.7023 57.8888 41.616 57.5554 41.3624 57.4054L40.5941 56.9509L40.6824 56.7942C40.8295 56.533 40.7424 56.2 40.4882 56.0496C40.2345 55.8995 39.9088 55.9887 39.7618 56.2495L39.6736 56.4062L36.942 54.79L39.6736 53.1739L39.7618 53.3306C39.909 53.5917 40.234 53.6809 40.4882 53.5305C40.7419 53.3804 40.8293 53.0467 40.6824 52.7859L40.5941 52.6292L41.3624 52.1747C41.6148 52.0254 41.7026 51.6918 41.5558 51.4313C41.4093 51.1714 41.0845 51.0813 40.8309 51.2313L40.0626 51.6859L39.9743 51.5292C39.8272 51.268 39.5022 51.1789 39.248 51.3293C38.9943 51.4794 38.9069 51.813 39.0538 52.0738L39.1421 52.2305L36.4105 53.8467V50.6144H36.587C36.8813 50.6144 37.1191 50.3705 37.1191 50.0697C37.1191 49.7695 36.8809 49.525 36.587 49.525H36.4105V48.6159C36.4105 48.3173 36.1725 48.0726 35.879 48.0726C35.586 48.0726 35.3475 48.3159 35.3475 48.6159V49.525H35.1709C34.8767 49.525 34.6388 49.7689 34.6388 50.0697C34.6388 50.3699 34.8771 50.6144 35.1709 50.6144H35.3475V53.8467L32.6159 52.2305L32.7042 52.0738C32.8513 51.8127 32.7642 51.4797 32.5099 51.3293C32.2563 51.1792 31.9306 51.2684 31.7836 51.5292L31.6953 51.6859L30.9271 51.2313C30.6747 51.082 30.3489 51.1708 30.2022 51.4313C30.0557 51.6913 30.142 52.0246 30.3956 52.1747L31.1638 52.6292L31.0756 52.7859C30.9284 53.0471 31.0156 53.3801 31.2698 53.5305C31.5235 53.6806 31.8492 53.5914 31.9961 53.3306L32.0844 53.1739L34.816 54.79Z" fill="white"/>
</svg>
