<svg width="65" height="74" viewBox="0 0 65 74" fill="none" xmlns="http://www.w3.org/2000/svg">
<circle cx="17.5384" cy="17.5384" r="16.0384" stroke="#FFC108" stroke-opacity="0.3" stroke-width="3"/>
<circle cx="17.538" cy="17.5383" r="13.8681" stroke="#FFC208" stroke-opacity="0.6" stroke-width="4"/>
<circle cx="17.5374" cy="17.5384" r="13.5296" fill="#F7BF3A"/>
<path fill-rule="evenodd" clip-rule="evenodd" d="M42.0189 46.384H20.2751C13.5767 46.384 8.14648 40.9538 8.14648 34.2553C8.14648 27.5569 13.5767 22.1267 20.2751 22.1267C22.2965 22.1267 24.2024 22.6212 25.8784 23.4958C28.2122 16.7268 34.6382 11.864 42.2 11.864C51.7324 11.864 59.46 19.5916 59.46 29.124C59.46 29.3194 59.4567 29.514 59.4503 29.7078C62.2329 31.2027 64.1248 34.1408 64.1248 37.5207C64.1248 42.4158 60.1566 46.384 55.2616 46.384H42.2C42.1727 46.384 42.0189 46.384 42.0189 46.384H42.2H42.0189Z" fill="white"/>
<path fill-rule="evenodd" clip-rule="evenodd" d="M39.8992 49.4994C40.0424 48.9648 40.592 48.6475 41.1266 48.7907C41.6612 48.934 41.9785 49.4835 41.8353 50.0182L40.1925 56.1491C40.0492 56.6838 39.4997 57.001 38.965 56.8578C38.4304 56.7145 38.1131 56.165 38.2564 55.6303L39.8992 49.4994ZM15.3592 48.833C14.8246 48.6898 14.275 49.007 14.1318 49.5417L11.2785 60.1901C11.1353 60.7248 11.4526 61.2743 11.9872 61.4176C12.5218 61.5608 13.0714 61.2436 13.2146 60.7089L16.0679 50.0604C16.2111 49.5258 15.8939 48.9763 15.3592 48.833ZM31.3758 48.898C30.8412 48.7548 30.2917 49.0721 30.1484 49.6067L27.2952 60.2552C27.1519 60.7898 27.4692 61.3394 28.0038 61.4826C28.5385 61.6259 29.088 61.3086 29.2313 60.7739L32.0845 50.1255C32.2278 49.5908 31.9105 49.0413 31.3758 48.898ZM20.4618 48.9729C19.9271 48.8296 19.3776 49.1469 19.2343 49.6815L14.8248 66.1383C14.6815 66.6729 14.9988 67.2224 15.5334 67.3657C16.068 67.509 16.6176 67.1917 16.7608 66.657L21.1704 50.2003C21.3137 49.6657 20.9964 49.1161 20.4618 48.9729ZM24.8859 49.6929C25.0291 49.1583 25.5787 48.841 26.1133 48.9843C26.6479 49.1275 26.9652 49.6771 26.822 50.2117L20.6832 73.1221C20.5399 73.6567 19.9904 73.974 19.4557 73.8307C18.9211 73.6875 18.6038 73.1379 18.7471 72.6033L24.8859 49.6929ZM36.2728 48.898C35.7382 48.7548 35.1886 49.0721 35.0454 49.6067L30.6358 66.0634C30.4926 66.5981 30.8098 67.1476 31.3445 67.2909C31.8791 67.4341 32.4286 67.1168 32.5719 66.5822L36.9815 50.1255C37.1247 49.5908 36.8074 49.0413 36.2728 48.898Z" fill="#ADE8FF"/>
<path fill-rule="evenodd" clip-rule="evenodd" d="M45.75 44L42 58.2175H48.1364L46.4318 73L57 52.1811L51.9351 52.1811L54.9545 44H45.75Z" fill="#F7BF3A"/>
</svg>
