<svg width="45" height="39" viewBox="0 0 45 39" fill="none" xmlns="http://www.w3.org/2000/svg">
<path d="M10.7506 23.2505C11.27 23.2505 11.7681 23.448 12.1354 23.7997C12.5027 24.1513 12.709 24.6282 12.709 25.1255C12.709 25.6228 12.5027 26.0997 12.1354 26.4513C11.7681 26.8029 11.27 27.0005 10.7506 27.0005C9.46479 27.0005 8.19152 26.758 7.00354 26.2869C5.81556 25.8157 4.73614 25.1252 3.8269 24.2546C1.9906 22.4965 0.958984 20.1119 0.958984 17.6255C0.958984 15.1391 1.9906 12.7545 3.8269 10.9964C5.66319 9.23821 8.15374 8.25049 10.7506 8.25049C12.709 3.84424 17.2131 0.750488 22.5006 0.750488C29.2177 0.750488 34.7206 5.73799 35.2298 12.0567L36.209 12.0005C38.2865 12.0005 40.2789 12.7907 41.748 14.1972C43.217 15.6037 44.0423 17.5114 44.0423 19.5005C44.0423 21.4896 43.217 23.3973 41.748 24.8038C40.2789 26.2103 38.2865 27.0005 36.209 27.0005H34.2506C33.7313 27.0005 33.2332 26.8029 32.8659 26.4513C32.4986 26.0997 32.2923 25.6228 32.2923 25.1255C32.2923 24.6282 32.4986 24.1513 32.8659 23.7997C33.2332 23.448 33.7313 23.2505 34.2506 23.2505H36.209C37.2477 23.2505 38.244 22.8554 38.9785 22.1521C39.713 21.4489 40.1256 20.4951 40.1256 19.5005C40.1256 18.5059 39.713 17.5521 38.9785 16.8488C38.244 16.1456 37.2477 15.7505 36.209 15.7505H32.2923V13.8755C32.2923 11.3891 31.2607 9.00452 29.4244 7.24636C27.5881 5.48821 25.0976 4.50049 22.5006 4.50049C17.6048 4.50049 13.5902 7.91299 12.8265 12.3567C12.1802 12.1317 11.4752 12.0005 10.7506 12.0005C9.1925 12.0005 7.69817 12.5931 6.5964 13.648C5.49462 14.7029 4.87565 16.1336 4.87565 17.6255C4.87565 19.1173 5.49462 20.5481 6.5964 21.603C7.69817 22.6579 9.1925 23.2505 10.7506 23.2505ZM18.584 30.7505C19.6227 30.7505 20.619 31.1456 21.3535 31.8488C22.088 32.5521 22.5006 33.5059 22.5006 34.5005C22.5006 35.4951 22.088 36.4489 21.3535 37.1521C20.619 37.8554 19.6227 38.2505 18.584 38.2505C17.5452 38.2505 16.549 37.8554 15.8145 37.1521C15.08 36.4489 14.6673 35.4951 14.6673 34.5005C14.6673 33.5059 15.08 32.5521 15.8145 31.8488C16.549 31.1456 17.5452 30.7505 18.584 30.7505ZM27.3965 27.0005C28.1756 27.0005 28.9227 27.2968 29.4736 27.8243C30.0245 28.3517 30.334 29.0671 30.334 29.813C30.334 30.5589 30.0245 31.2743 29.4736 31.8017C28.9227 32.3292 28.1756 32.6255 27.3965 32.6255C26.6174 32.6255 25.8702 32.3292 25.3194 31.8017C24.7685 31.2743 24.459 30.5589 24.459 29.813C24.459 29.0671 24.7685 28.3517 25.3194 27.8243C25.8702 27.2968 26.6174 27.0005 27.3965 27.0005ZM19.5631 19.5005C20.3422 19.5005 21.0894 19.7968 21.6403 20.3243C22.1912 20.8517 22.5006 21.5671 22.5006 22.313C22.5006 23.0589 22.1912 23.7743 21.6403 24.3017C21.0894 24.8292 20.3422 25.1255 19.5631 25.1255C18.7841 25.1255 18.0369 24.8292 17.486 24.3017C16.9351 23.7743 16.6256 23.0589 16.6256 22.313C16.6256 21.5671 16.9351 20.8517 17.486 20.3243C18.0369 19.7968 18.7841 19.5005 19.5631 19.5005Z" fill="#9DA8C3"/>
</svg>
