<svg width="58" height="68" viewBox="0 0 58 68" fill="none" xmlns="http://www.w3.org/2000/svg">
<circle cx="24.7818" cy="24.7818" r="23.2818" stroke="#FFC108" stroke-opacity="0.3" stroke-width="3"/>
<circle cx="24.781" cy="24.7819" r="20.4216" stroke="#FFC208" stroke-opacity="0.6" stroke-width="4"/>
<circle cx="24.7815" cy="24.7818" r="19.1174" fill="#F7BF3A"/>
<path fill-rule="evenodd" clip-rule="evenodd" d="M42.1132 47.299H26.5878C21.805 47.299 17.9277 43.5081 17.9277 38.8318C17.9277 34.1554 21.805 30.3645 26.5878 30.3645C28.0311 30.3645 29.392 30.7098 30.5887 31.3203C32.255 26.5948 36.8433 23.2 42.2426 23.2C49.0489 23.2 54.5665 28.5947 54.5665 35.2495C54.5665 35.3859 54.5642 35.5217 54.5596 35.657C56.5464 36.7007 57.8973 38.7518 57.8973 41.1114C57.8973 44.5287 55.0639 47.299 51.5688 47.299H42.2426C42.2231 47.299 42.1132 47.299 42.1132 47.299H42.2426H42.1132Z" fill="white"/>
<path fill-rule="evenodd" clip-rule="evenodd" d="M40.5967 50.1965C40.6996 49.8159 41.092 49.5893 41.4731 49.6905C41.8542 49.7916 42.0797 50.1822 41.9767 50.5628L40.8088 54.8807C40.7058 55.2613 40.3134 55.4878 39.9323 55.3867C39.5513 55.2855 39.3258 54.895 39.4287 54.5144L40.5967 50.1965ZM23.106 49.7203C22.7249 49.6192 22.3325 49.8457 22.2295 50.2263L20.1987 57.7341C20.0958 58.1147 20.3213 58.5052 20.7024 58.6064C21.0835 58.7075 21.4758 58.481 21.5788 58.1004L23.6096 50.5926C23.7125 50.212 23.4871 49.8215 23.106 49.7203ZM34.5227 49.7662C34.1416 49.6651 33.7492 49.8916 33.6463 50.2722L31.6155 57.78C31.5125 58.1606 31.738 58.5511 32.1191 58.6523C32.5002 58.7535 32.8926 58.5269 32.9956 58.1463L35.0263 50.6385C35.1293 50.2579 34.9038 49.8674 34.5227 49.7662ZM26.7431 49.8191C26.362 49.7179 25.9696 49.9445 25.8666 50.3251L22.7265 61.9341C22.6236 62.3147 22.849 62.7052 23.2301 62.8064C23.6112 62.9075 24.0036 62.681 24.1066 62.3004L27.2467 50.6914C27.3497 50.3108 27.1242 49.9202 26.7431 49.8191ZM29.8951 50.3331C29.9981 49.9525 30.3905 49.726 30.7715 49.8271C31.1526 49.9283 31.3781 50.3188 31.2752 50.6994L26.9024 66.8654C26.7995 67.246 26.4071 67.4725 26.026 67.3714C25.6449 67.2702 25.4194 66.8797 25.5224 66.4991L29.8951 50.3331ZM38.0133 49.7662C37.6322 49.6651 37.2398 49.8916 37.1369 50.2722L33.9967 61.8812C33.8938 62.2618 34.1193 62.6524 34.5003 62.7535C34.8814 62.8547 35.2738 62.6282 35.3768 62.2475L38.5169 50.6385C38.6199 50.2579 38.3944 49.8674 38.0133 49.7662Z" fill="#ADE8FF"/>
<path fill-rule="evenodd" clip-rule="evenodd" d="M44.75 45L42 55.7857H46.5L45.25 67L53 51.2063L49.2857 51.2063L51.5 45H44.75Z" fill="#F7BF3A"/>
</svg>
