<svg width="58" height="72" viewBox="0 0 58 72" fill="none" xmlns="http://www.w3.org/2000/svg">
<path fill-rule="evenodd" clip-rule="evenodd" d="M35.0189 44.384H13.2751C6.57666 44.384 1.14648 38.9538 1.14648 32.2553C1.14648 25.5569 6.57666 20.1267 13.2751 20.1267C15.2965 20.1267 17.2024 20.6212 18.8784 21.4958C21.2122 14.7268 27.6382 9.86401 35.2 9.86401C44.7324 9.86401 52.46 17.5916 52.46 27.124C52.46 27.3194 52.4567 27.514 52.4503 27.7078C55.2329 29.2027 57.1248 32.1408 57.1248 35.5207C57.1248 40.4158 53.1566 44.384 48.2616 44.384H35.2C35.1727 44.384 35.0189 44.384 35.0189 44.384H35.2H35.0189Z" fill="white"/>
<path fill-rule="evenodd" clip-rule="evenodd" d="M32.8992 47.4994C33.0424 46.9648 33.592 46.6475 34.1266 46.7907C34.6612 46.934 34.9785 47.4835 34.8353 48.0182L33.1925 54.1491C33.0492 54.6838 32.4997 55.001 31.965 54.8578C31.4304 54.7145 31.1131 54.165 31.2564 53.6303L32.8992 47.4994ZM8.35922 46.833C7.82458 46.6898 7.27505 47.007 7.13179 47.5417L4.27854 58.1901C4.13528 58.7248 4.45256 59.2743 4.9872 59.4176C5.52183 59.5608 6.07137 59.2436 6.21463 58.7089L9.06788 48.0604C9.21113 47.5258 8.89386 46.9763 8.35922 46.833ZM24.3758 46.898C23.8412 46.7548 23.2917 47.0721 23.1484 47.6067L20.2952 58.2552C20.1519 58.7898 20.4692 59.3394 21.0038 59.4826C21.5385 59.6259 22.088 59.3086 22.2313 58.7739L25.0845 48.1255C25.2278 47.5908 24.9105 47.0413 24.3758 46.898ZM13.4618 46.9729C12.9271 46.8296 12.3776 47.1469 12.2343 47.6815L7.82476 64.1383C7.6815 64.6729 7.99878 65.2224 8.53341 65.3657C9.06805 65.509 9.61759 65.1917 9.76084 64.657L14.1704 48.2003C14.3137 47.6657 13.9964 47.1161 13.4618 46.9729ZM17.8859 47.6929C18.0291 47.1583 18.5787 46.841 19.1133 46.9843C19.6479 47.1275 19.9652 47.6771 19.822 48.2117L13.6832 71.1221C13.5399 71.6567 12.9904 71.974 12.4557 71.8307C11.9211 71.6875 11.6038 71.1379 11.7471 70.6033L17.8859 47.6929ZM29.2728 46.898C28.7382 46.7548 28.1886 47.0721 28.0454 47.6067L23.6358 64.0634C23.4926 64.5981 23.8098 65.1476 24.3445 65.2909C24.8791 65.4341 25.4286 65.1168 25.5719 64.5822L29.9815 48.1255C30.1247 47.5908 29.8074 47.0413 29.2728 46.898Z" fill="#ADE8FF"/>
<path fill-rule="evenodd" clip-rule="evenodd" d="M38.75 42L35 56.2175H41.1364L39.4318 71L50 50.1811L44.9351 50.1811L47.9545 42H38.75Z" fill="#F7BF3A"/>
<path fill-rule="evenodd" clip-rule="evenodd" d="M29 25.4398C27.8918 25.6806 26.7417 25.8075 25.5621 25.8075C16.5869 25.8075 9.31108 18.464 9.31108 9.4053C9.31108 5.90615 10.3967 2.66292 12.2466 0C5.21653 1.73638 0 8.13717 0 15.7677C0 24.7325 7.2005 32 16.0828 32C21.3744 32 26.0691 29.4207 29 25.4398Z" fill="#F7BF3A"/>
</svg>
