<svg width="58" height="68" viewBox="0 0 58 68" fill="none" xmlns="http://www.w3.org/2000/svg">
<circle cx="24.7818" cy="24.7818" r="23.2818" stroke="#FFC108" stroke-opacity="0.3" stroke-width="3"/>
<circle cx="24.781" cy="24.7819" r="20.4216" stroke="#FFC208" stroke-opacity="0.6" stroke-width="4"/>
<circle cx="24.7815" cy="24.7818" r="19.1174" fill="#F7BF3A"/>
<path fill-rule="evenodd" clip-rule="evenodd" d="M42.1132 47.299H26.5878C21.805 47.299 17.9277 43.5081 17.9277 38.8318C17.9277 34.1554 21.805 30.3645 26.5878 30.3645C28.0311 30.3645 29.392 30.7098 30.5887 31.3203C32.255 26.5948 36.8433 23.2 42.2426 23.2C49.0489 23.2 54.5665 28.5947 54.5665 35.2495C54.5665 35.3859 54.5642 35.5217 54.5596 35.657C56.5464 36.7007 57.8973 38.7518 57.8973 41.1114C57.8973 44.5287 55.0639 47.299 51.5688 47.299H42.2426C42.2231 47.299 42.1132 47.299 42.1132 47.299H42.2426H42.1132Z" fill="white"/>
<path fill-rule="evenodd" clip-rule="evenodd" d="M48.0146 50.1965C48.1176 49.8159 48.51 49.5893 48.8911 49.6905C49.2722 49.7916 49.4977 50.1822 49.3947 50.5628L48.2268 54.8807C48.1238 55.2613 47.7314 55.4878 47.3503 55.3867C46.9692 55.2855 46.7437 54.895 46.8467 54.5144L48.0146 50.1965ZM30.5239 49.7203C30.1428 49.6192 29.7504 49.8457 29.6475 50.2263L27.6167 57.7341C27.5138 58.1147 27.7392 58.5052 28.1203 58.6064C28.5014 58.7075 28.8938 58.481 28.9968 58.1004L31.0275 50.5926C31.1305 50.212 30.905 49.8215 30.5239 49.7203ZM41.9407 49.7662C41.5596 49.6651 41.1672 49.8916 41.0642 50.2722L39.0335 57.78C38.9305 58.1606 39.156 58.5511 39.5371 58.6523C39.9182 58.7535 40.3106 58.5269 40.4135 58.1463L42.4443 50.6385C42.5473 50.2579 42.3218 49.8674 41.9407 49.7662ZM34.1611 49.8191C33.78 49.7179 33.3876 49.9445 33.2846 50.3251L30.1445 61.9341C30.0415 62.3147 30.267 62.7052 30.6481 62.8064C31.0292 62.9075 31.4216 62.681 31.5245 62.3004L34.6647 50.6914C34.7676 50.3108 34.5421 49.9202 34.1611 49.8191ZM37.3131 50.3331C37.416 49.9525 37.8084 49.726 38.1895 49.8271C38.5706 49.9283 38.7961 50.3188 38.6931 50.6994L34.3204 66.8654C34.2174 67.246 33.825 67.4725 33.4439 67.3714C33.0628 67.2702 32.8374 66.8797 32.9403 66.4991L37.3131 50.3331ZM45.4313 49.7662C45.0502 49.6651 44.6578 49.8916 44.5548 50.2722L41.4147 61.8812C41.3117 62.2618 41.5372 62.6524 41.9183 62.7535C42.2994 62.8547 42.6918 62.6282 42.7948 62.2475L45.9349 50.6385C46.0378 50.2579 45.8124 49.8674 45.4313 49.7662Z" fill="#ADE8FF"/>
</svg>
