<svg width="80" height="68" viewBox="0 0 80 68" fill="none" xmlns="http://www.w3.org/2000/svg">
<circle cx="40.1147" cy="33.7417" r="32.2417" stroke="#FFC108" stroke-opacity="0.3" stroke-width="3"/>
<circle cx="39.9282" cy="33.5542" r="27.8052" stroke="#FFC208" stroke-opacity="0.6" stroke-width="4"/>
<circle cx="39.9274" cy="33.5542" r="25.3063" fill="#F7BF3A"/>
<path fill-rule="evenodd" clip-rule="evenodd" d="M68.82 39.7402H58.3349C55.1048 39.7402 52.4863 37.2043 52.4863 34.076C52.4863 30.9478 55.1048 28.4119 58.3349 28.4119C59.3096 28.4119 60.2287 28.6428 61.0369 29.0513C62.1622 25.8901 65.2609 23.6191 68.9073 23.6191C73.5039 23.6191 77.2302 27.228 77.2302 31.6797C77.2302 31.7709 77.2287 31.8618 77.2256 31.9523C78.5674 32.6504 79.4797 34.0225 79.4797 35.601C79.4797 37.887 77.5662 39.7402 75.2057 39.7402H68.9073C68.9029 39.7402 68.8985 39.7402 68.8941 39.7402C68.8942 39.7402 68.8942 39.7402 68.8942 39.7402H68.82H68.9073H68.82Z" fill="white"/>
<path fill-rule="evenodd" clip-rule="evenodd" d="M16.3336 58.4857H5.84856C2.61849 58.4857 0 55.9497 0 52.8215C0 49.6933 2.61849 47.1574 5.84856 47.1574C6.8233 47.1574 7.74234 47.3883 8.55053 47.7967C9.67588 44.6356 12.7746 42.3646 16.421 42.3646C21.0176 42.3646 24.7439 45.9734 24.7439 50.4251C24.7439 50.5164 24.7423 50.6073 24.7392 50.6978C26.0811 51.3959 26.9934 52.768 26.9934 54.3465C26.9934 56.6325 25.0798 58.4857 22.7194 58.4857H16.421C16.4166 58.4857 16.4122 58.4857 16.4078 58.4856C16.4078 58.4857 16.4078 58.4857 16.4078 58.4857H16.3336H16.421H16.3336Z" fill="white"/>
<path fill-rule="evenodd" clip-rule="evenodd" d="M27.2047 22.4944H16.7197C13.4896 22.4944 10.8711 19.9585 10.8711 16.8303C10.8711 13.7021 13.4896 11.1662 16.7197 11.1662C17.6944 11.1662 18.6134 11.3971 19.4216 11.8055C20.547 8.64436 23.6457 6.37341 27.2921 6.37341C31.8887 6.37341 35.615 9.98223 35.615 14.4339C35.615 14.5252 35.6134 14.6161 35.6103 14.7066C36.9521 15.4047 37.8645 16.7768 37.8645 18.3553C37.8645 20.6413 35.9509 22.4944 33.5905 22.4944H27.2921C27.2877 22.4944 27.2833 22.4944 27.2789 22.4944C27.2789 22.4944 27.2789 22.4944 27.2789 22.4944H27.2047H27.2921H27.2047Z" fill="white"/>
</svg>
