<svg width="80" height="67" viewBox="0 0 80 67" fill="none" xmlns="http://www.w3.org/2000/svg">
<path fill-rule="evenodd" clip-rule="evenodd" d="M76.4382 52.6043C74.1218 53.1024 71.7175 53.3647 69.2519 53.3647C50.4907 53.3647 35.2817 38.1798 35.2817 19.4483C35.2817 12.2127 37.551 5.50638 41.4178 0C26.7227 3.59048 15.8184 16.826 15.8184 32.6044C15.8184 51.1419 30.8699 66.1696 49.4368 66.1696C60.4981 66.1696 70.3116 60.8361 76.4382 52.6043Z" fill="#F7BF3A"/>
<path fill-rule="evenodd" clip-rule="evenodd" d="M18.5988 23.3567H6.65965C2.98163 23.3567 0 20.4691 0 16.9071C0 13.345 2.98163 10.4574 6.65965 10.4574C7.76956 10.4574 8.81605 10.7204 9.73633 11.1855C11.0177 7.58589 14.5462 5 18.6982 5C23.9324 5 28.1754 9.10929 28.1754 14.1784C28.1754 14.2823 28.1737 14.3857 28.1701 14.4888C29.698 15.2838 30.7368 16.8462 30.7368 18.6435C30.7368 21.2465 28.558 23.3567 25.8702 23.3567H18.6982C18.6933 23.3567 18.6883 23.3567 18.6833 23.3567C18.6833 23.3567 18.6833 23.3567 18.6833 23.3567H18.5988H18.6982H18.5988Z" fill="white"/>
<path fill-rule="evenodd" clip-rule="evenodd" d="M66.5988 35.3567H54.6596C50.9816 35.3567 48 32.4691 48 28.9071C48 25.345 50.9816 22.4574 54.6596 22.4574C55.7696 22.4574 56.8161 22.7204 57.7363 23.1855C59.0177 19.5859 62.5462 17 66.6982 17C71.9324 17 76.1754 21.1093 76.1754 26.1784C76.1754 26.2823 76.1737 26.3857 76.1701 26.4888C77.698 27.2838 78.7368 28.8462 78.7368 30.6435C78.7368 33.2465 76.558 35.3567 73.8702 35.3567H66.6982C66.6933 35.3567 66.6883 35.3567 66.6833 35.3567C66.6833 35.3567 66.6833 35.3567 66.6833 35.3567H66.5988H66.6982H66.5988Z" fill="white"/>
<path fill-rule="evenodd" clip-rule="evenodd" d="M35.6243 64H18.5333C13.2682 64 9 59.9101 9 54.8649C9 49.8197 13.2682 45.7297 18.5333 45.7297C20.1222 45.7297 21.6202 46.1022 22.9376 46.7609C24.772 41.6626 29.823 38 35.7667 38C43.2593 38 49.3333 43.8203 49.3333 51C49.3333 51.1471 49.3308 51.2937 49.3257 51.4397C51.5129 52.5657 53 54.7786 53 57.3243C53 61.0112 49.8809 64 46.0333 64H35.7667C35.7595 64 35.7524 64 35.7452 64C35.7452 64 35.7453 64 35.7453 64H35.6243H35.7667H35.6243Z" fill="white"/>
</svg>
