<svg width="58" height="61" viewBox="0 0 58 61" fill="none" xmlns="http://www.w3.org/2000/svg">
<circle cx="24.7818" cy="24.7818" r="23.2818" stroke="#FFC108" stroke-opacity="0.3" stroke-width="3"/>
<circle cx="24.781" cy="24.7819" r="20.4216" stroke="#FFC208" stroke-opacity="0.6" stroke-width="4"/>
<circle cx="24.7815" cy="24.7818" r="19.1174" fill="#F7BF3A"/>
<path fill-rule="evenodd" clip-rule="evenodd" d="M42.1132 47.299H26.5878C21.805 47.299 17.9277 43.5081 17.9277 38.8318C17.9277 34.1554 21.805 30.3645 26.5878 30.3645C28.0311 30.3645 29.392 30.7098 30.5887 31.3203C32.255 26.5948 36.8433 23.2 42.2426 23.2C49.0489 23.2 54.5665 28.5947 54.5665 35.2495C54.5665 35.3859 54.5642 35.5217 54.5596 35.657C56.5464 36.7007 57.8973 38.7518 57.8973 41.1114C57.8973 44.5287 55.0639 47.299 51.5688 47.299H42.2426C42.2231 47.299 42.1132 47.299 42.1132 47.299H42.2426H42.1132Z" fill="white"/>
<path fill-rule="evenodd" clip-rule="evenodd" d="M28.6378 55.8359L26.6466 57.014L26.5823 56.8998C26.475 56.7094 26.2382 56.6444 26.0529 56.7541C25.8679 56.8635 25.8042 57.1067 25.9113 57.2968L25.9756 57.411L25.4156 57.7423C25.2316 57.8512 25.1677 58.0943 25.2746 58.2842C25.3814 58.4737 25.6182 58.5393 25.803 58.43L26.363 58.0986L26.4274 58.2129C26.5346 58.4032 26.7715 58.4682 26.9568 58.3586C27.1417 58.2491 27.2055 58.0059 27.0984 57.8158L27.0341 57.7016L29.0252 56.5236V58.8797H28.8965C28.682 58.8797 28.5086 59.0574 28.5086 59.2767C28.5086 59.4955 28.6823 59.6737 28.8965 59.6737H29.0252V60.3364C29.0252 60.5541 29.1986 60.7324 29.4126 60.7324C29.6261 60.7324 29.8 60.5551 29.8 60.3364V59.6737H29.9287C30.1432 59.6737 30.3166 59.496 30.3166 59.2767C30.3166 59.0579 30.1429 58.8797 29.9287 58.8797H29.8V56.5236L31.7911 57.7016L31.7268 57.8158C31.6195 58.0062 31.6831 58.2489 31.8684 58.3586C32.0533 58.468 32.2907 58.403 32.3978 58.2129L32.4621 58.0986L33.0222 58.43C33.2061 58.5388 33.4436 58.474 33.5505 58.2842C33.6573 58.0947 33.5944 57.8517 33.4096 57.7423L32.8496 57.411L32.9139 57.2968C33.0212 57.1064 32.9576 56.8637 32.7723 56.7541C32.5874 56.6446 32.35 56.7097 32.2429 56.8998L32.1785 57.014L30.1874 55.8359L32.1785 54.6579L32.2429 54.7721C32.3501 54.9625 32.587 55.0274 32.7723 54.9178C32.9572 54.8084 33.021 54.5652 32.9139 54.3751L32.8496 54.2609L33.4096 53.9295C33.5935 53.8207 33.6575 53.5776 33.5505 53.3877C33.4438 53.1982 33.207 53.1325 33.0222 53.2419L32.4621 53.5732L32.3978 53.459C32.2905 53.2686 32.0537 53.2037 31.8684 53.3133C31.6834 53.4227 31.6197 53.6659 31.7268 53.856L31.7911 53.9702L29.8 55.1483V52.7922H29.9287C30.1432 52.7922 30.3166 52.6144 30.3166 52.3952C30.3166 52.1763 30.1429 51.9981 29.9287 51.9981H29.8V51.3355C29.8 51.1178 29.6266 50.9395 29.4126 50.9395C29.1991 50.9395 29.0252 51.1168 29.0252 51.3355V51.9981H28.8965C28.682 51.9981 28.5086 52.1759 28.5086 52.3952C28.5086 52.614 28.6823 52.7922 28.8965 52.7922H29.0252V55.1483L27.0341 53.9702L27.0984 53.856C27.2057 53.6656 27.1421 53.4229 26.9568 53.3133C26.7719 53.2039 26.5345 53.2689 26.4274 53.459L26.363 53.5732L25.803 53.2419C25.6191 53.133 25.3816 53.1978 25.2746 53.3877C25.1679 53.5772 25.2308 53.8202 25.4156 53.9295L25.9756 54.2609L25.9113 54.3751C25.804 54.5654 25.8676 54.8082 26.0529 54.9178C26.2378 55.0272 26.4752 54.9622 26.5823 54.7721L26.6466 54.6579L28.6378 55.8359Z" fill="white"/>
<path fill-rule="evenodd" clip-rule="evenodd" d="M51.0206 55.8359L49.0295 57.014L48.9651 56.8998C48.8579 56.7094 48.621 56.6444 48.4357 56.7541C48.2508 56.8635 48.187 57.1067 48.2941 57.2968L48.3584 57.411L47.7984 57.7423C47.6145 57.8512 47.5505 58.0943 47.6575 58.2842C47.7642 58.4737 48.001 58.5393 48.1858 58.43L48.7459 58.0986L48.8102 58.2129C48.9174 58.4032 49.1543 58.4682 49.3396 58.3586C49.5246 58.2491 49.5883 58.0059 49.4812 57.8158L49.4169 57.7016L51.408 56.5236V58.8797H51.2793C51.0648 58.8797 50.8914 59.0574 50.8914 59.2767C50.8914 59.4955 51.0651 59.6737 51.2793 59.6737H51.408V60.3364C51.408 60.5541 51.5814 60.7324 51.7954 60.7324C52.0089 60.7324 52.1828 60.5551 52.1828 60.3364V59.6737H52.3115C52.526 59.6737 52.6994 59.496 52.6994 59.2767C52.6994 59.0579 52.5257 58.8797 52.3115 58.8797H52.1828V56.5236L54.1739 57.7016L54.1096 57.8158C54.0023 58.0062 54.0659 58.2489 54.2512 58.3586C54.4361 58.468 54.6735 58.403 54.7806 58.2129L54.845 58.0986L55.405 58.43C55.5889 58.5388 55.8264 58.474 55.9334 58.2842C56.0401 58.0947 55.9772 57.8517 55.7924 57.7423L55.2324 57.411L55.2967 57.2968C55.404 57.1064 55.3404 56.8637 55.1551 56.7541C54.9702 56.6446 54.7328 56.7097 54.6257 56.8998L54.5613 57.014L52.5702 55.8359L54.5613 54.6579L54.6257 54.7721C54.7329 54.9625 54.9698 55.0274 55.1551 54.9178C55.3401 54.8084 55.4038 54.5652 55.2967 54.3751L55.2324 54.2609L55.7924 53.9295C55.9764 53.8207 56.0403 53.5776 55.9334 53.3877C55.8266 53.1982 55.5898 53.1325 55.405 53.2419L54.845 53.5732L54.7806 53.459C54.6734 53.2686 54.4365 53.2037 54.2512 53.3133C54.0662 53.4227 54.0025 53.6659 54.1096 53.856L54.1739 53.9702L52.1828 55.1483V52.7922H52.3115C52.526 52.7922 52.6994 52.6144 52.6994 52.3952C52.6994 52.1763 52.5257 51.9981 52.3115 51.9981H52.1828V51.3355C52.1828 51.1178 52.0094 50.9395 51.7954 50.9395C51.5819 50.9395 51.408 51.1168 51.408 51.3355V51.9981H51.2793C51.0648 51.9981 50.8914 52.1759 50.8914 52.3952C50.8914 52.614 51.0651 52.7922 51.2793 52.7922H51.408V55.1483L49.4169 53.9702L49.4812 53.856C49.5885 53.6656 49.5249 53.4229 49.3396 53.3133C49.1547 53.2039 48.9173 53.2689 48.8102 53.459L48.7459 53.5732L48.1858 53.2419C48.0019 53.133 47.7644 53.1978 47.6575 53.3877C47.5507 53.5772 47.6136 53.8202 47.7984 53.9295L48.3584 54.2609L48.2941 54.3751C48.1868 54.5654 48.2504 54.8082 48.4357 54.9178C48.6206 55.0272 48.858 54.9622 48.9651 54.7721L49.0295 54.6579L51.0206 55.8359Z" fill="white"/>
<path fill-rule="evenodd" clip-rule="evenodd" d="M39.8292 53.7374L37.8381 54.9155L37.7737 54.8012C37.6665 54.6109 37.4296 54.5459 37.2443 54.6555C37.0593 54.765 36.9956 55.0082 37.1027 55.1983L37.167 55.3125L36.607 55.6438C36.423 55.7527 36.3591 55.9958 36.466 56.1856C36.5728 56.3751 36.8096 56.4408 36.9944 56.3315L37.5544 56.0001L37.6188 56.1143C37.726 56.3047 37.9629 56.3697 38.1482 56.26C38.3331 56.1506 38.3969 55.9074 38.2898 55.7173L38.2255 55.6031L40.2166 54.4251V56.7812H40.0879C39.8734 56.7812 39.7 56.9589 39.7 57.1782C39.7 57.397 39.8737 57.5752 40.0879 57.5752H40.2166V58.2379C40.2166 58.4555 40.39 58.6339 40.604 58.6339C40.8175 58.6339 40.9914 58.4566 40.9914 58.2379V57.5752H41.1201C41.3346 57.5752 41.508 57.3974 41.508 57.1782C41.508 56.9594 41.3343 56.7812 41.1201 56.7812H40.9914V54.4251L42.9825 55.6031L42.9182 55.7173C42.8109 55.9077 42.8745 56.1504 43.0598 56.26C43.2447 56.3695 43.4821 56.3044 43.5892 56.1143L43.6535 56.0001L44.2136 56.3315C44.3975 56.4403 44.635 56.3755 44.7419 56.1856C44.8487 55.9961 44.7858 55.7532 44.601 55.6438L44.041 55.3125L44.1053 55.1983C44.2126 55.0079 44.149 54.7652 43.9637 54.6555C43.7788 54.5461 43.5414 54.6111 43.4343 54.8012L43.3699 54.9155L41.3788 53.7374L43.3699 52.5594L43.4343 52.6736C43.5415 52.8639 43.7784 52.9289 43.9637 52.8193C44.1486 52.7099 44.2124 52.4667 44.1053 52.2766L44.041 52.1623L44.601 51.831C44.7849 51.7222 44.8489 51.4791 44.7419 51.2892C44.6352 51.0997 44.3984 51.034 44.2136 51.1434L43.6535 51.4747L43.5892 51.3605C43.4819 51.1701 43.2451 51.1051 43.0598 51.2148C42.8748 51.3242 42.8111 51.5674 42.9182 51.7575L42.9825 51.8717L40.9914 53.0498V50.6937H41.1201C41.3346 50.6937 41.508 50.5159 41.508 50.2966C41.508 50.0778 41.3343 49.8996 41.1201 49.8996H40.9914V49.237C40.9914 49.0193 40.818 48.8409 40.604 48.8409C40.3905 48.8409 40.2166 49.0182 40.2166 49.237V49.8996H40.0879C39.8734 49.8996 39.7 50.0774 39.7 50.2966C39.7 50.5155 39.8737 50.6937 40.0879 50.6937H40.2166V53.0498L38.2255 51.8717L38.2898 51.7575C38.3971 51.5671 38.3335 51.3244 38.1482 51.2148C37.9633 51.1054 37.7259 51.1704 37.6188 51.3605L37.5544 51.4747L36.9944 51.1434C36.8105 51.0345 36.573 51.0993 36.466 51.2892C36.3593 51.4787 36.4222 51.7217 36.607 51.831L37.167 52.1623L37.1027 52.2766C36.9954 52.4669 37.059 52.7096 37.2443 52.8193C37.4292 52.9287 37.6666 52.8637 37.7737 52.6736L37.8381 52.5594L39.8292 53.7374Z" fill="white"/>
</svg>
