<svg width="59" height="70" viewBox="0 0 59 70" fill="none" xmlns="http://www.w3.org/2000/svg">
<path fill-rule="evenodd" clip-rule="evenodd" d="M36.0189 42.384H14.2751C7.57666 42.384 2.14648 36.9538 2.14648 30.2553C2.14648 23.5569 7.57666 18.1267 14.2751 18.1267C16.2965 18.1267 18.2024 18.6212 19.8784 19.4958C22.2122 12.7268 28.6382 7.86401 36.2 7.86401C45.7324 7.86401 53.46 15.5916 53.46 25.124C53.46 25.3194 53.4567 25.514 53.4503 25.7078C56.2329 27.2027 58.1248 30.1408 58.1248 33.5207C58.1248 38.4158 54.1566 42.384 49.2616 42.384H36.2C36.1727 42.384 36.0189 42.384 36.0189 42.384H36.2H36.0189Z" fill="white"/>
<path fill-rule="evenodd" clip-rule="evenodd" d="M44.4089 45.4994C44.5522 44.9648 45.1017 44.6475 45.6364 44.7907C46.171 44.934 46.4883 45.4835 46.345 46.0182L44.7022 52.1491C44.559 52.6838 44.0094 53.001 43.4748 52.8578C42.9402 52.7145 42.6229 52.165 42.7662 51.6303L44.4089 45.4994ZM19.869 44.833C19.3344 44.6898 18.7848 45.007 18.6416 45.5417L15.7883 56.1901C15.645 56.7248 15.9623 57.2743 16.497 57.4176C17.0316 57.5608 17.5811 57.2436 17.7244 56.7089L20.5776 46.0604C20.7209 45.5258 20.4036 44.9763 19.869 44.833ZM35.8856 44.898C35.351 44.7548 34.8014 45.0721 34.6582 45.6067L31.8049 56.2552C31.6617 56.7898 31.979 57.3394 32.5136 57.4826C33.0482 57.6259 33.5978 57.3086 33.741 56.7739L36.5943 46.1255C36.7375 45.5908 36.4202 45.0413 35.8856 44.898ZM24.9715 44.9729C24.4369 44.8296 23.8873 45.1469 23.7441 45.6815L19.3345 62.1383C19.1913 62.6729 19.5085 63.2224 20.0432 63.3657C20.5778 63.509 21.1274 63.1917 21.2706 62.657L25.6802 46.2003C25.8234 45.6657 25.5062 45.1161 24.9715 44.9729ZM29.3956 45.6929C29.5389 45.1583 30.0884 44.841 30.6231 44.9843C31.1577 45.1275 31.475 45.6771 31.3317 46.2117L25.1929 69.1221C25.0497 69.6567 24.5001 69.974 23.9655 69.8307C23.4309 69.6875 23.1136 69.1379 23.2568 68.6033L29.3956 45.6929ZM40.7826 44.898C40.2479 44.7548 39.6984 45.0721 39.5551 45.6067L35.1456 62.0634C35.0023 62.5981 35.3196 63.1476 35.8542 63.2909C36.3889 63.4341 36.9384 63.1168 37.0817 62.5822L41.4912 46.1255C41.6345 45.5908 41.3172 45.0413 40.7826 44.898Z" fill="#ADE8FF"/>
<path fill-rule="evenodd" clip-rule="evenodd" d="M34 30.2097C32.7008 30.4958 31.3523 30.6464 29.9694 30.6464C19.4467 30.6464 10.9164 21.926 10.9164 11.1688C10.9164 7.01355 12.1892 3.16221 14.358 0C6.11594 2.06195 0 9.66289 0 18.7241C0 29.3699 8.44197 38 18.8557 38C25.0596 38 30.5637 34.9371 34 30.2097Z" fill="#F7BF3A"/>
</svg>
