<svg width="68" height="74" viewBox="0 0 68 74" fill="none" xmlns="http://www.w3.org/2000/svg">
<path fill-rule="evenodd" clip-rule="evenodd" d="M40.9929 41.7767H14.6783C6.57169 41.7767 0 35.205 0 27.0984C0 18.9918 6.57169 12.4201 14.6783 12.4201C17.1246 12.4201 19.4311 13.0185 21.4595 14.077C24.2838 5.88502 32.0607 0 41.2121 0C52.7484 0 62.1005 9.35203 62.1005 20.8883C62.1005 21.1248 62.0965 21.3603 62.0887 21.5948C65.4563 23.4041 67.746 26.9598 67.746 31.0502C67.746 36.9743 62.9436 41.7767 57.0195 41.7767H41.2121C41.1792 41.7767 40.9929 41.7767 40.9929 41.7767H41.2121H40.9929Z" fill="white"/>
<path fill-rule="evenodd" clip-rule="evenodd" d="M42.4622 44.0752C42.6356 43.4281 43.3006 43.0442 43.9477 43.2175C44.5947 43.3909 44.9787 44.056 44.8053 44.703L42.8172 52.1228C42.6438 52.7698 41.9787 53.1538 41.3317 52.9804C40.6847 52.807 40.3007 52.142 40.4741 51.4949L42.4622 44.0752ZM23.2751 43.2687C22.628 43.0953 21.963 43.4793 21.7896 44.1263L18.3366 57.0133C18.1632 57.6603 18.5472 58.3254 19.1942 58.4987C19.8412 58.6721 20.5063 58.2881 20.6796 57.6411L24.1327 44.7541C24.3061 44.1071 23.9221 43.442 23.2751 43.2687ZM36.9986 43.3474C36.3516 43.174 35.6865 43.558 35.5131 44.205L32.0601 57.092C31.8867 57.739 32.2707 58.4041 32.9177 58.5774C33.5647 58.7508 34.2298 58.3668 34.4032 57.7198L37.8562 44.8328C38.0296 44.1858 37.6456 43.5207 36.9986 43.3474ZM30.6298 43.4517C29.9828 43.2784 29.3177 43.6623 29.1443 44.3094L21.715 72.0359C21.5417 72.6829 21.9256 73.348 22.5727 73.5213C23.2197 73.6947 23.8847 73.3107 24.0581 72.6637L31.4874 44.9372C31.6608 44.2902 31.2768 43.6251 30.6298 43.4517Z" fill="#ADE8FF"/>
</svg>
