<svg width="75" height="72" viewBox="0 0 75 72" fill="none" xmlns="http://www.w3.org/2000/svg">
<path fill-rule="evenodd" clip-rule="evenodd" d="M63.3306 59.2646L60.2397 61.0933L60.1399 60.916C59.9734 60.6205 59.6057 60.5196 59.318 60.6898C59.031 60.8596 58.932 61.2372 59.0982 61.5322L59.1981 61.7096L58.3288 62.2239C58.0432 62.3928 57.9439 62.7702 58.11 63.065C58.2757 63.3591 58.6433 63.4611 58.9302 63.2913L59.7995 62.777L59.8994 62.9543C60.0659 63.2498 60.4336 63.3506 60.7212 63.1805C61.0083 63.0106 61.1073 62.6331 60.941 62.338L60.8411 62.1607L63.9319 60.332V63.9894H63.7321C63.3992 63.9894 63.1301 64.2653 63.1301 64.6057C63.1301 64.9453 63.3996 65.2219 63.7321 65.2219H63.9319V66.2506C63.9319 66.5885 64.2012 66.8653 64.5333 66.8653C64.8648 66.8653 65.1347 66.5901 65.1347 66.2506V65.2219H65.3345C65.6674 65.2219 65.9365 64.946 65.9365 64.6057C65.9365 64.266 65.667 63.9894 65.3345 63.9894H65.1347V60.332L68.2255 62.1607L68.1256 62.338C67.9591 62.6335 68.0577 63.0103 68.3454 63.1805C68.6324 63.3503 69.001 63.2494 69.1672 62.9543L69.2671 62.777L70.1364 63.2913C70.422 63.4603 70.7906 63.3597 70.9566 63.065C71.1224 62.7708 71.0247 62.3936 70.7378 62.2239L69.8685 61.7095L69.9684 61.5322C70.1349 61.2367 70.0362 60.86 69.7486 60.6898C69.4616 60.52 69.093 60.6209 68.9268 60.916L68.8269 61.0933L65.7361 59.2646L68.8269 57.4359L68.9268 57.6132C69.0932 57.9087 69.461 58.0096 69.7486 57.8394C70.0357 57.6695 70.1346 57.292 69.9684 56.9969L69.8685 56.8196L70.7378 56.3053C71.0234 56.1363 71.1227 55.759 70.9566 55.4642C70.7909 55.17 70.4233 55.0681 70.1364 55.2379L69.2671 55.7522L69.1672 55.5749C69.0007 55.2794 68.633 55.1785 68.3454 55.3487C68.0583 55.5186 67.9593 55.8961 68.1256 56.1912L68.2255 56.3685L65.1347 58.1972V54.5398H65.3345C65.6674 54.5398 65.9365 54.2639 65.9365 53.9235C65.9365 53.5838 65.667 53.3072 65.3345 53.3072H65.1347V52.2786C65.1347 51.9406 64.8654 51.6638 64.5333 51.6638C64.2019 51.6638 63.9319 51.939 63.9319 52.2786V53.3072H63.7321C63.3992 53.3072 63.1301 53.5831 63.1301 53.9235C63.1301 54.2632 63.3996 54.5398 63.7321 54.5398H63.9319V58.1972L60.8411 56.3685L60.941 56.1912C61.1075 55.8957 61.0089 55.5189 60.7212 55.3487C60.4342 55.1789 60.0657 55.2798 59.8994 55.5749L59.7995 55.7522L58.9302 55.2379C58.6446 55.0689 58.2761 55.1694 58.11 55.4642C57.9443 55.7584 58.0419 56.1355 58.3288 56.3053L59.1981 56.8196L59.0982 56.9969C58.9318 57.2924 59.0304 57.6692 59.318 57.8394C59.6051 58.0092 59.9736 57.9083 60.1399 57.6132L60.2397 57.4359L63.3306 59.2646Z" fill="white"/>
<path fill-rule="evenodd" clip-rule="evenodd" d="M46.3013 56.0071L43.2104 57.8358L43.1106 57.6585C42.9441 57.363 42.5764 57.2622 42.2887 57.4323C42.0017 57.6022 41.9027 57.9797 42.0689 58.2748L42.1688 58.4521L41.2995 58.9664C41.0139 59.1354 40.9146 59.5128 41.0807 59.8075C41.2464 60.1017 41.614 60.2036 41.9009 60.0339L42.7702 59.5195L42.8701 59.6968C43.0366 59.9923 43.4043 60.0932 43.6919 59.923C43.979 59.7532 44.078 59.3756 43.9117 59.0806L43.8118 58.9033L46.9026 57.0746V60.7319H46.7028C46.3699 60.7319 46.1008 61.0079 46.1008 61.3482C46.1008 61.6879 46.3703 61.9645 46.7028 61.9645H46.9026V62.9932C46.9026 63.3311 47.1719 63.6079 47.504 63.6079C47.8355 63.6079 48.1054 63.3327 48.1054 62.9932V61.9645H48.3052C48.6381 61.9645 48.9072 61.6886 48.9072 61.3482C48.9072 61.0085 48.6377 60.7319 48.3052 60.7319H48.1054V57.0746L51.1962 58.9032L51.0963 59.0806C50.9298 59.3761 51.0285 59.7528 51.3161 59.923C51.6031 60.0928 51.9717 59.9919 52.1379 59.6968L52.2378 59.5195L53.1071 60.0339C53.3927 60.2028 53.7613 60.1023 53.9273 59.8075C54.0931 59.5134 53.9954 59.1362 53.7085 58.9664L52.8392 58.4521L52.9391 58.2748C53.1056 57.9793 53.0069 57.6025 52.7193 57.4323C52.4323 57.2625 52.0637 57.3634 51.8975 57.6585L51.7976 57.8358L48.7068 56.0071L51.7976 54.1785L51.8975 54.3558C52.0639 54.6513 52.4317 54.7521 52.7193 54.5819C53.0064 54.4121 53.1053 54.0346 52.9391 53.7395L52.8392 53.5622L53.7085 53.0478C53.9941 52.8789 54.0934 52.5015 53.9273 52.2068C53.7616 51.9126 53.394 51.8107 53.1071 51.9804L52.2378 52.4947L52.1379 52.3174C51.9714 52.0219 51.6037 51.9211 51.3161 52.0913C51.029 52.2611 50.9301 52.6386 51.0963 52.9337L51.1962 53.111L48.1054 54.9397V51.2823H48.3052C48.6381 51.2823 48.9072 51.0064 48.9072 50.6661C48.9072 50.3264 48.6377 50.0498 48.3052 50.0498H48.1054V49.0211C48.1054 48.6832 47.8361 48.4064 47.504 48.4064C47.1726 48.4064 46.9026 48.6816 46.9026 49.0211V50.0498H46.7028C46.3699 50.0498 46.1008 50.3257 46.1008 50.6661C46.1008 51.0057 46.3703 51.2823 46.7028 51.2823H46.9026V54.9397L43.8118 53.111L43.9117 52.9337C44.0782 52.6382 43.9796 52.2614 43.6919 52.0913C43.4049 51.9214 43.0364 52.0223 42.8701 52.3174L42.7702 52.4947L41.9009 51.9804C41.6153 51.8115 41.2468 51.912 41.0807 52.2068C40.915 52.5009 41.0126 52.8781 41.2995 53.0478L42.1688 53.5622L42.0689 53.7395C41.9025 54.035 42.0011 54.4117 42.2887 54.5819C42.5758 54.7518 42.9443 54.6508 43.1106 54.3558L43.2104 54.1784L46.3013 56.0071Z" fill="white"/>
<path fill-rule="evenodd" clip-rule="evenodd" d="M45.2655 46.131H16.2082C7.25664 46.131 0 38.8743 0 29.9228C0 20.9713 7.25664 13.7146 16.2082 13.7146C18.9095 13.7146 21.4564 14.3754 23.6962 15.5442C26.8149 6.4984 35.4023 0 45.5076 0C58.2463 0 68.573 10.3268 68.573 23.0655C68.573 23.3266 68.5687 23.5866 68.5601 23.8456C72.2787 25.8434 74.8069 29.7697 74.8069 34.2865C74.8069 40.828 69.504 46.131 62.9625 46.131H45.5076C45.4711 46.1309 45.2655 46.131 45.2655 46.131H45.5076H45.2655Z" fill="white"/>
<path fill-rule="evenodd" clip-rule="evenodd" d="M27.5546 49.0933C27.7309 48.4353 28.4072 48.0449 29.0652 48.2212C29.7232 48.3975 30.1137 49.0738 29.9374 49.7318L27.9156 57.2773C27.7392 57.9353 27.0629 58.3258 26.4049 58.1495C25.7469 57.9732 25.3564 57.2969 25.5327 56.6389L27.5546 49.0933ZM17.0646 48.3532C16.4066 48.1769 15.7302 48.5673 15.5539 49.2253L12.0423 62.3307C11.866 62.9887 12.2565 63.6651 12.9145 63.8414C13.5725 64.0177 14.2488 63.6272 14.4251 62.9692L17.9367 49.8638C18.113 49.2058 17.7225 48.5295 17.0646 48.3532ZM35.3418 48.3532C34.6838 48.1769 34.0075 48.5673 33.8312 49.2253L30.3196 62.3307C30.1433 62.9887 30.5337 63.6651 31.1917 63.8414C31.8497 64.0177 32.5261 63.6272 32.7024 62.9692L36.214 49.8638C36.3903 49.2058 35.9998 48.5295 35.3418 48.3532ZM23.0915 48.3532C22.4335 48.1769 21.7572 48.5674 21.5809 49.2254L16.1539 69.4792C15.9776 70.1372 16.368 70.8135 17.026 70.9898C17.684 71.1661 18.3604 70.7756 18.5367 70.1177L23.9637 49.8638C24.14 49.2059 23.7495 48.5295 23.0915 48.3532Z" fill="#ADE8FF"/>
</svg>
