<svg width="75" height="66" viewBox="0 0 75 66" fill="none" xmlns="http://www.w3.org/2000/svg">
<path fill-rule="evenodd" clip-rule="evenodd" d="M20.5024 58.2646L17.4116 60.0933L17.3117 59.916C17.1452 59.6205 16.7775 59.5196 16.4899 59.6898C16.2028 59.8596 16.1039 60.2372 16.2701 60.5322L16.37 60.7096L15.5007 61.2239C15.2151 61.3928 15.1158 61.7702 15.2819 62.065C15.4476 62.3591 15.8151 62.4611 16.1021 62.2913L16.9714 61.777L17.0713 61.9543C17.2378 62.2498 17.6055 62.3506 17.8931 62.1805C18.1802 62.0106 18.2791 61.6331 18.1129 61.338L18.013 61.1607L21.1038 59.332V62.9894H20.904C20.5711 62.9894 20.302 63.2653 20.302 63.6057C20.302 63.9453 20.5715 64.2219 20.904 64.2219H21.1038V65.2506C21.1038 65.5885 21.3731 65.8653 21.7052 65.8653C22.0366 65.8653 22.3066 65.5901 22.3066 65.2506V64.2219H22.5064C22.8393 64.2219 23.1084 63.946 23.1084 63.6057C23.1084 63.266 22.8389 62.9894 22.5064 62.9894H22.3066V59.332L25.3974 61.1607L25.2975 61.338C25.131 61.6335 25.2296 62.0103 25.5173 62.1805C25.8043 62.3503 26.1728 62.2494 26.3391 61.9543L26.439 61.777L27.3083 62.2913C27.5939 62.4603 27.9624 62.3597 28.1285 62.065C28.2942 61.7708 28.1966 61.3936 27.9097 61.2239L27.0404 60.7095L27.1403 60.5322C27.3067 60.2367 27.2081 59.86 26.9205 59.6898C26.6334 59.52 26.2649 59.6209 26.0986 59.916L25.9987 60.0933L22.9079 58.2646L25.9987 56.4359L26.0986 56.6132C26.2651 56.9087 26.6328 57.0096 26.9205 56.8394C27.2075 56.6695 27.3065 56.292 27.1403 55.9969L27.0404 55.8196L27.9097 55.3053C28.1952 55.1363 28.2946 54.759 28.1285 54.4642C27.9628 54.17 27.5952 54.0681 27.3083 54.2379L26.439 54.7522L26.3391 54.5749C26.1726 54.2794 25.8049 54.1785 25.5173 54.3487C25.2302 54.5186 25.1312 54.8961 25.2975 55.1912L25.3974 55.3685L22.3066 57.1972V53.5398H22.5064C22.8393 53.5398 23.1084 53.2639 23.1084 52.9235C23.1084 52.5838 22.8389 52.3072 22.5064 52.3072H22.3066V51.2786C22.3066 50.9406 22.0373 50.6638 21.7052 50.6638C21.3737 50.6638 21.1038 50.939 21.1038 51.2786V52.3072H20.904C20.5711 52.3072 20.302 52.5831 20.302 52.9235C20.302 53.2632 20.5715 53.5398 20.904 53.5398H21.1038V57.1972L18.013 55.3685L18.1129 55.1912C18.2794 54.8957 18.1807 54.5189 17.8931 54.3487C17.6061 54.1789 17.2375 54.2798 17.0713 54.5749L16.9714 54.7522L16.1021 54.2379C15.8165 54.0689 15.4479 54.1694 15.2819 54.4642C15.1161 54.7584 15.2138 55.1355 15.5007 55.3053L16.37 55.8196L16.2701 55.9969C16.1036 56.2924 16.2023 56.6692 16.4899 56.8394C16.7769 57.0092 17.1455 56.9083 17.3117 56.6132L17.4116 56.4359L20.5024 58.2646Z" fill="white"/>
<path fill-rule="evenodd" clip-rule="evenodd" d="M55.2485 58.2646L52.1577 60.0933L52.0578 59.916C51.8913 59.6205 51.5236 59.5196 51.236 59.6898C50.9489 59.8596 50.8499 60.2372 51.0162 60.5322L51.1161 60.7096L50.2468 61.2239C49.9612 61.3928 49.8619 61.7702 50.028 62.065C50.1937 62.3591 50.5612 62.4611 50.8482 62.2913L51.7175 61.777L51.8174 61.9543C51.9838 62.2498 52.3516 62.3506 52.6392 62.1805C52.9263 62.0106 53.0252 61.6331 52.859 61.338L52.7591 61.1607L55.8499 59.332V62.9894H55.6501C55.3172 62.9894 55.0481 63.2653 55.0481 63.6057C55.0481 63.9453 55.3176 64.2219 55.6501 64.2219H55.8499V65.2506C55.8499 65.5885 56.1191 65.8653 56.4513 65.8653C56.7827 65.8653 57.0527 65.5901 57.0527 65.2506V64.2219H57.2524C57.5854 64.2219 57.8545 63.946 57.8545 63.6057C57.8545 63.266 57.585 62.9894 57.2524 62.9894H57.0527V59.332L60.1435 61.1607L60.0436 61.338C59.8771 61.6335 59.9757 62.0103 60.2634 62.1805C60.5504 62.3503 60.9189 62.2494 61.0852 61.9543L61.1851 61.777L62.0544 62.2913C62.34 62.4603 62.7085 62.3597 62.8746 62.065C63.0403 61.7708 62.9427 61.3936 62.6558 61.2239L61.7865 60.7095L61.8864 60.5322C62.0528 60.2367 61.9542 59.86 61.6666 59.6898C61.3795 59.52 61.011 59.6209 60.8447 59.916L60.7448 60.0933L57.654 58.2646L60.7448 56.4359L60.8447 56.6132C61.0112 56.9087 61.3789 57.0096 61.6666 56.8394C61.9536 56.6695 62.0526 56.292 61.8864 55.9969L61.7865 55.8196L62.6558 55.3053C62.9413 55.1363 63.0407 54.759 62.8746 54.4642C62.7089 54.17 62.3413 54.0681 62.0544 54.2379L61.1851 54.7522L61.0852 54.5749C60.9187 54.2794 60.551 54.1785 60.2634 54.3487C59.9763 54.5186 59.8773 54.8961 60.0436 55.1912L60.1435 55.3685L57.0527 57.1972V53.5398H57.2524C57.5854 53.5398 57.8545 53.2639 57.8545 52.9235C57.8545 52.5838 57.585 52.3072 57.2524 52.3072H57.0527V51.2786C57.0527 50.9406 56.7834 50.6638 56.4513 50.6638C56.1198 50.6638 55.8499 50.939 55.8499 51.2786V52.3072H55.6501C55.3172 52.3072 55.0481 52.5831 55.0481 52.9235C55.0481 53.2632 55.3176 53.5398 55.6501 53.5398H55.8499V57.1972L52.7591 55.3685L52.859 55.1912C53.0255 54.8957 52.9268 54.5189 52.6392 54.3487C52.3522 54.1789 51.9836 54.2798 51.8174 54.5749L51.7175 54.7522L50.8482 54.2379C50.5626 54.0689 50.194 54.1694 50.028 54.4642C49.8622 54.7584 49.9599 55.1355 50.2468 55.3053L51.1161 55.8196L51.0162 55.9969C50.8497 56.2924 50.9483 56.6692 51.236 56.8394C51.523 57.0092 51.8916 56.9083 52.0578 56.6132L52.1577 56.4359L55.2485 58.2646Z" fill="white"/>
<path fill-rule="evenodd" clip-rule="evenodd" d="M37.8755 55.0071L34.7847 56.8358L34.6848 56.6585C34.5183 56.363 34.1506 56.2622 33.8629 56.4323C33.5759 56.6022 33.4769 56.9797 33.6432 57.2748L33.743 57.4521L32.8737 57.9664C32.5882 58.1354 32.4888 58.5128 32.6549 58.8075C32.8206 59.1017 33.1882 59.2036 33.4751 59.0339L34.3444 58.5195L34.4443 58.6968C34.6108 58.9923 34.9785 59.0932 35.2662 58.923C35.5532 58.7532 35.6522 58.3756 35.4859 58.0806L35.386 57.9033L38.4769 56.0746V59.7319H38.2771C37.9441 59.7319 37.675 60.0079 37.675 60.3482C37.675 60.6879 37.9446 60.9645 38.2771 60.9645H38.4769V61.9932C38.4769 62.3311 38.7461 62.6079 39.0782 62.6079C39.4097 62.6079 39.6796 62.3327 39.6796 61.9932V60.9645H39.8794C40.2124 60.9645 40.4815 60.6886 40.4815 60.3482C40.4815 60.0085 40.2119 59.7319 39.8794 59.7319H39.6796V56.0746L42.7704 57.9032L42.6705 58.0806C42.504 58.3761 42.6027 58.7528 42.8903 58.923C43.1774 59.0928 43.5459 58.9919 43.7121 58.6968L43.812 58.5195L44.6813 59.0339C44.9669 59.2028 45.3355 59.1023 45.5016 58.8075C45.6673 58.5134 45.5696 58.1362 45.2827 57.9664L44.4134 57.4521L44.5133 57.2748C44.6798 56.9793 44.5812 56.6025 44.2935 56.4323C44.0065 56.2625 43.6379 56.3634 43.4717 56.6585L43.3718 56.8358L40.281 55.0071L43.3718 53.1785L43.4717 53.3558C43.6382 53.6513 44.0059 53.7521 44.2935 53.5819C44.5806 53.4121 44.6796 53.0346 44.5133 52.7395L44.4134 52.5622L45.2827 52.0478C45.5683 51.8789 45.6676 51.5015 45.5016 51.2068C45.3358 50.9126 44.9683 50.8107 44.6813 50.9804L43.812 51.4947L43.7121 51.3174C43.5457 51.0219 43.1779 50.9211 42.8903 51.0913C42.6033 51.2611 42.5043 51.6386 42.6705 51.9337L42.7704 52.111L39.6796 53.9397V50.2823H39.8794C40.2124 50.2823 40.4815 50.0064 40.4815 49.6661C40.4815 49.3264 40.2119 49.0498 39.8794 49.0498H39.6796V48.0211C39.6796 47.6832 39.4104 47.4064 39.0782 47.4064C38.7468 47.4064 38.4769 47.6816 38.4769 48.0211V49.0498H38.2771C37.9441 49.0498 37.675 49.3257 37.675 49.6661C37.675 50.0057 37.9446 50.2823 38.2771 50.2823H38.4769V53.9397L35.386 52.111L35.4859 51.9337C35.6524 51.6382 35.5538 51.2614 35.2662 51.0913C34.9791 50.9214 34.6106 51.0223 34.4443 51.3174L34.3444 51.4947L33.4751 50.9804C33.1895 50.8115 32.821 50.912 32.6549 51.2068C32.4892 51.5009 32.5868 51.8781 32.8737 52.0478L33.743 52.5622L33.6432 52.7395C33.4767 53.035 33.5753 53.4117 33.8629 53.5819C34.15 53.7518 34.5185 53.6508 34.6848 53.3558L34.7847 53.1784L37.8755 55.0071Z" fill="white"/>
<path fill-rule="evenodd" clip-rule="evenodd" d="M45.2655 46.131H16.2082C7.25664 46.131 0 38.8743 0 29.9228C0 20.9713 7.25664 13.7146 16.2082 13.7146C18.9095 13.7146 21.4564 14.3754 23.6962 15.5442C26.8149 6.4984 35.4023 0 45.5076 0C58.2463 0 68.573 10.3268 68.573 23.0655C68.573 23.3266 68.5687 23.5866 68.5601 23.8456C72.2787 25.8434 74.8069 29.7697 74.8069 34.2865C74.8069 40.828 69.504 46.131 62.9625 46.131H45.5076C45.4711 46.1309 45.2655 46.131 45.2655 46.131H45.5076H45.2655Z" fill="white"/>
</svg>
