<svg width="70" height="66" viewBox="0 0 70 66" fill="none" xmlns="http://www.w3.org/2000/svg">
<circle cx="38.4996" cy="37.2504" r="27.1364" stroke="#FFC108" stroke-opacity="0.3" stroke-width="3"/>
<circle cx="38.3404" cy="37.0914" r="23.2955" stroke="#FFC208" stroke-opacity="0.6" stroke-width="4"/>
<circle cx="38.3406" cy="37.0913" r="21.4773" fill="#F7BF3A"/>
<path fill-rule="evenodd" clip-rule="evenodd" d="M60.954 33.4323H52.0554C49.3141 33.4323 47.0918 31.2801 47.0918 28.6252C47.0918 25.9703 49.3141 23.8181 52.0554 23.8181C52.8827 23.8181 53.6627 24.014 54.3486 24.3607C55.3037 21.6778 57.9335 19.7505 61.0282 19.7505C64.9293 19.7505 68.0918 22.8133 68.0918 26.5914C68.0918 26.6688 68.0905 26.746 68.0878 26.8228C69.2266 27.4153 70.0009 28.5798 70.0009 29.9194C70.0009 31.8595 68.3769 33.4323 66.3736 33.4323H61.0282C61.0244 33.4323 61.0207 33.4323 61.017 33.4323C61.017 33.4323 61.017 33.4323 61.017 33.4323H60.954H61.0282H60.954Z" fill="white"/>
<path fill-rule="evenodd" clip-rule="evenodd" d="M18.3173 58.2504H9.41871C6.67737 58.2504 4.45508 56.0982 4.45508 53.4433C4.45508 50.7884 6.67737 48.6362 9.41871 48.6362C10.246 48.6362 11.0259 48.8322 11.7119 49.1788C12.6669 46.4959 15.2968 44.5686 18.3914 44.5686C22.2926 44.5686 25.4551 47.6314 25.4551 51.4095C25.4551 51.4869 25.4537 51.5641 25.4511 51.6409C26.5899 52.2334 27.3642 53.3979 27.3642 54.7375C27.3642 56.6776 25.7402 58.2504 23.7369 58.2504H18.3914C18.3877 58.2504 18.384 58.2504 18.3803 58.2504C18.3803 58.2504 18.3803 58.2504 18.3803 58.2504H18.3173H18.3914H18.3173Z" fill="white"/>
<path fill-rule="evenodd" clip-rule="evenodd" d="M27.5439 27.705H18.6453C15.9039 27.705 13.6816 25.5528 13.6816 22.8979C13.6816 20.243 15.9039 18.0908 18.6453 18.0908C19.4725 18.0908 20.2525 18.2868 20.9384 18.6334C21.8935 15.9505 24.5233 14.0232 27.618 14.0232C31.5191 14.0232 34.6816 17.086 34.6816 20.8641C34.6816 20.9415 34.6803 21.0187 34.6777 21.0955C35.8165 21.688 36.5907 22.8525 36.5907 24.1921C36.5907 26.1322 34.9667 27.705 32.9635 27.705H27.618C27.6143 27.705 27.6106 27.705 27.6068 27.705C27.6069 27.705 27.6069 27.705 27.6069 27.705H27.5439H27.618H27.5439Z" fill="white"/>
</svg>
