<svg width="68" height="76" viewBox="0 0 68 76" fill="none" xmlns="http://www.w3.org/2000/svg">
<path fill-rule="evenodd" clip-rule="evenodd" d="M40.9929 41.7767H14.6783C6.57169 41.7767 0 35.205 0 27.0984C0 18.9918 6.57169 12.4201 14.6783 12.4201C17.1246 12.4201 19.4311 13.0185 21.4595 14.077C24.2838 5.88502 32.0607 0 41.2121 0C52.7484 0 62.1005 9.35203 62.1005 20.8883C62.1005 21.1248 62.0965 21.3603 62.0887 21.5948C65.4563 23.4041 67.746 26.9598 67.746 31.0502C67.746 36.9743 62.9436 41.7767 57.0195 41.7767H41.2121C41.1792 41.7767 40.9929 41.7767 40.9929 41.7767H41.2121H40.9929Z" fill="white"/>
<path fill-rule="evenodd" clip-rule="evenodd" d="M42.5654 45.0933C42.7417 44.4353 43.4181 44.0449 44.0761 44.2212C44.7341 44.3975 45.1245 45.0738 44.9482 45.7318L42.9264 53.2773C42.7501 53.9353 42.0738 54.3258 41.4158 54.1495C40.7578 53.9732 40.3673 53.2969 40.5436 52.6389L42.5654 45.0933ZM12.3634 44.2732C11.7054 44.0969 11.0291 44.4874 10.8527 45.1453L7.34116 58.2508C7.16485 58.9087 7.55534 59.5851 8.21333 59.7614C8.87132 59.9377 9.54765 59.5472 9.72396 58.8892L13.2355 45.7838C13.4119 45.1258 13.0214 44.4495 12.3634 44.2732ZM32.0755 44.3532C31.4175 44.1769 30.7412 44.5674 30.5649 45.2254L27.0533 58.3308C26.877 58.9888 27.2675 59.6651 27.9255 59.8414C28.5835 60.0177 29.2598 59.6272 29.4361 58.9693L32.9477 45.8638C33.124 45.2059 32.7335 44.5295 32.0755 44.3532ZM18.6432 44.4453C17.9852 44.269 17.3089 44.6595 17.1326 45.3175L11.7056 65.5713C11.5293 66.2293 11.9198 66.9056 12.5778 67.0819C13.2358 67.2582 13.9121 66.8677 14.0884 66.2098L19.5154 45.956C19.6917 45.298 19.3012 44.6216 18.6432 44.4453ZM24.0881 45.3315C24.2644 44.6735 24.9408 44.283 25.5988 44.4593C26.2567 44.6356 26.6472 45.312 26.4709 45.97L18.9157 74.1664C18.7394 74.8244 18.0631 75.2149 17.4051 75.0386C16.7471 74.8623 16.3566 74.186 16.5329 73.528L24.0881 45.3315ZM38.1024 44.3532C37.4444 44.1769 36.768 44.5674 36.5917 45.2254L31.1647 65.4792C30.9884 66.1372 31.3789 66.8135 32.0369 66.9898C32.6949 67.1661 33.3712 66.7756 33.5475 66.1177L38.9745 45.8638C39.1508 45.2059 38.7603 44.5295 38.1024 44.3532Z" fill="#ADE8FF"/>
<path fill-rule="evenodd" clip-rule="evenodd" d="M51.5226 38L47 54.9316H54.4006L52.3449 72.536L65.0903 47.7428L58.9819 47.7428L62.6234 38H51.5226Z" fill="#F7BF3A"/>
</svg>
