<svg width="21" height="38" viewBox="0 0 21 38" fill="none" xmlns="http://www.w3.org/2000/svg">
<path d="M12.4797 24.4665V13.1665C12.4797 12.7245 12.3056 12.3006 11.9958 11.988C11.6859 11.6754 11.2657 11.4998 10.8275 11.4998C10.3893 11.4998 9.96902 11.6754 9.65917 11.988C9.34932 12.3006 9.17525 12.7245 9.17525 13.1665V24.4665C8.67582 24.7574 8.26055 25.175 7.9707 25.6779C7.68085 26.1808 7.52651 26.7515 7.52303 27.3332C7.52303 28.2172 7.87118 29.0651 8.49088 29.6902C9.11058 30.3153 9.95108 30.6665 10.8275 30.6665C11.7039 30.6665 12.5443 30.3153 13.1641 29.6902C13.7838 29.0651 14.1319 28.2172 14.1319 27.3332C14.1284 26.7515 13.9741 26.1808 13.6842 25.6779C13.3944 25.175 12.9791 24.7574 12.4797 24.4665ZM18.2624 20.6665V8.1665C18.2624 6.17738 17.4791 4.26973 16.0848 2.8632C14.6905 1.45668 12.7993 0.666504 10.8275 0.666504C8.85559 0.666504 6.96447 1.45668 5.57015 2.8632C4.17582 4.26973 3.39249 6.17738 3.39249 8.1665V20.6665C2.25055 21.9718 1.46622 23.5553 1.11708 25.2602C0.767945 26.9652 0.866097 28.7325 1.40183 30.3874C1.93756 32.0424 2.89232 33.5275 4.17165 34.696C5.45097 35.8646 7.01055 36.6759 8.69611 37.0498C9.3963 37.2108 10.1098 37.3057 10.8275 37.3332C12.7451 37.3422 14.6241 36.7899 16.2368 35.7434C17.8496 34.6969 19.1268 33.2009 19.9137 31.4369C20.7007 29.6729 20.9635 27.7165 20.6704 25.8049C20.3773 23.8932 19.5409 22.1083 18.2624 20.6665ZM14.958 32.4498C13.6434 33.6256 11.9196 34.2265 10.1659 34.1202C8.41214 34.0139 6.77206 33.2093 5.60646 31.8832C4.44087 30.5571 3.84522 28.8182 3.95057 27.0491C4.05592 25.2801 4.85363 23.6256 6.16822 22.4498C6.32433 22.2955 6.44853 22.1114 6.53361 21.9083C6.6187 21.7052 6.66297 21.487 6.66388 21.2665V8.1665C6.66388 7.06144 7.09906 6.00163 7.87369 5.22023C8.64831 4.43882 9.69893 3.99984 10.7944 3.99984C11.8899 3.99984 12.9405 4.43882 13.7152 5.22023C14.4898 6.00163 14.925 7.06144 14.925 8.1665V21.3998C14.9259 21.6204 14.9701 21.8385 15.0552 22.0416C15.1403 22.2447 15.2645 22.4288 15.4206 22.5832C16.096 23.2413 16.6245 24.037 16.9711 24.9174C17.3177 25.7977 17.4743 26.7425 17.4305 27.6887C17.3867 28.6349 17.1436 29.5608 16.7172 30.4048C16.2909 31.2487 15.6912 31.9914 14.958 32.5832V32.4498Z" fill="#9DA8C3"/>
</svg>
