<svg width="46" height="46" viewBox="0 0 46 46" fill="none" xmlns="http://www.w3.org/2000/svg">
<path d="M23.0008 9.80029C15.7232 9.80029 9.80078 15.7227 9.80078 23.0004C9.80078 30.278 15.7232 36.2004 23.0008 36.2004C30.2785 36.2004 36.2009 30.278 36.2009 23.0004C36.2009 15.7227 30.2785 9.80029 23.0008 9.80029ZM23.0008 33.2671C17.3395 33.2671 12.7341 28.6617 12.7341 23.0004C12.7341 17.339 17.3395 12.7336 23.0008 12.7336C28.6622 12.7336 33.2676 17.339 33.2676 23.0004C33.2676 28.6617 28.6622 33.2671 23.0008 33.2671Z" fill="#9DA8C3" stroke="#9DA8C3"/>
<path d="M23.0018 6.8667C23.8114 6.8667 24.4685 6.20963 24.4685 5.40002V2.46667C24.4685 1.65707 23.8114 1 23.0018 1C22.1922 1 21.5352 1.65707 21.5352 2.46667V5.40002C21.5352 6.20963 22.1922 6.8667 23.0018 6.8667Z" fill="#9DA8C3" stroke="#9DA8C3"/>
<path d="M23.0018 39.1333C22.1922 39.1333 21.5352 39.7904 21.5352 40.6V43.5333C21.5352 44.3429 22.1922 45 23.0018 45C23.8114 45 24.4685 44.3429 24.4685 43.5333V40.6C24.4685 39.7904 23.8114 39.1333 23.0018 39.1333Z" fill="#9DA8C3" stroke="#9DA8C3"/>
<path d="M43.5328 21.5337H40.5995C39.7899 21.5337 39.1328 22.1908 39.1328 23.0004C39.1328 23.81 39.7899 24.467 40.5995 24.467H43.5328C44.3424 24.467 44.9995 23.81 44.9995 23.0004C44.9995 22.1908 44.3424 21.5337 43.5328 21.5337Z" fill="#9DA8C3" stroke="#9DA8C3"/>
<path d="M5.40002 21.5337H2.46667C1.65707 21.5337 1 22.1908 1 23.0004C1 23.81 1.65707 24.467 2.46667 24.467H5.40002C6.20963 24.467 6.8667 23.81 6.8667 23.0004C6.8667 22.1908 6.20963 21.5337 5.40002 21.5337Z" fill="#9DA8C3" stroke="#9DA8C3"/>
<path d="M35.7724 33.6946C35.2004 33.1226 34.2705 33.1226 33.6985 33.6946C33.1265 34.2666 33.1265 35.1965 33.6985 35.7685L36.6319 38.7019C36.9164 38.9893 37.2919 39.1331 37.6674 39.1331C38.0428 39.1331 38.4183 38.9893 38.7058 38.7048C39.2778 38.1328 39.2778 37.2029 38.7058 36.6309L35.7724 33.6946Z" fill="#9DA8C3" stroke="#9DA8C3"/>
<path d="M10.2266 12.3059C10.5141 12.5904 10.8895 12.7341 11.265 12.7341C11.6405 12.7341 12.0159 12.5904 12.3034 12.3059C12.8754 11.7339 12.8754 10.804 12.3034 10.232L9.37007 7.29863C8.79806 6.72663 7.86819 6.72663 7.29619 7.29863C6.72419 7.87063 6.72419 8.80051 7.29619 9.37251L10.2266 12.3059Z" fill="#9DA8C3" stroke="#9DA8C3"/>
<path d="M10.2295 33.6956L7.29619 36.629C6.72419 37.201 6.72419 38.1308 7.29619 38.7028C7.58366 38.9903 7.95913 39.134 8.3346 39.134C8.71006 39.134 9.08553 38.9903 9.373 38.7058L12.3063 35.7724C12.8784 35.2004 12.8784 34.2705 12.3063 33.6985C11.7343 33.1265 10.8045 33.1236 10.2295 33.6956Z" fill="#9DA8C3" stroke="#9DA8C3"/>
<path d="M34.734 12.7341C35.1095 12.7341 35.4849 12.5904 35.7724 12.3059L38.7058 9.37251C39.2778 8.80051 39.2778 7.87063 38.7058 7.29863C38.1338 6.72663 37.2039 6.72663 36.6319 7.29863L33.6985 10.232C33.1265 10.804 33.1265 11.7339 33.6985 12.3059C33.9831 12.5904 34.3585 12.7341 34.734 12.7341Z" fill="#9DA8C3" stroke="#9DA8C3"/>
</svg>
