<svg width="50" height="28" viewBox="0 0 50 28" fill="none" xmlns="http://www.w3.org/2000/svg">
<path d="M25.0002 0C18.6649 0.224291 12.5576 2.37306 7.52377 6.14876C5.66075 7.44634 3.92172 8.90687 2.32809 10.5124C1.60072 11.2197 0.945361 11.9947 0.371273 12.8264C0.221358 12.9843 0.110041 13.1734 0.0457446 13.3796C-0.0185516 13.5858 -0.0341422 13.8036 0.000152707 14.0165C-0.0313541 14.2243 -0.0143234 14.4364 0.0499612 14.6368C0.114246 14.8373 0.224108 15.0208 0.371273 15.1736C0.933306 16.0141 1.58967 16.7903 2.32809 17.4876C3.92011 19.1047 5.65919 20.5764 7.52377 21.8843C12.5691 25.6347 18.6716 27.7702 25.0002 28C31.3196 27.7763 37.4132 25.6398 42.4428 21.8843C44.3172 20.5757 46.0675 19.1042 47.6722 17.4876C48.3899 16.7717 49.0446 15.9976 49.629 15.1736C49.7762 15.0208 49.8861 14.8373 49.9503 14.6368C50.0146 14.4364 50.0317 14.2243 50.0001 14.0165C50.0344 13.8036 50.0189 13.5858 49.9546 13.3796C49.8903 13.1734 49.7789 12.9843 49.629 12.8264C49.0461 12.0012 48.3914 11.227 47.6722 10.5124C46.0658 8.90755 44.3156 7.44716 42.4428 6.14876C37.4248 2.3678 31.3263 0.218 25.0002 0ZM25.0002 3.50413C30.5683 3.7963 35.9073 5.77107 40.2836 9.15703C42.3749 10.6117 44.2881 12.2977 45.9853 14.1818C44.2721 16.0111 42.3602 17.6517 40.2836 19.0744C35.8546 22.3849 30.4978 24.2883 24.9327 24.5289C19.3805 24.2754 14.0383 22.373 9.61554 19.0744C7.53753 17.591 5.62622 15.8956 3.91378 14.0165C5.6194 12.1893 7.53238 10.5589 9.61554 9.15703C14.0262 5.76343 19.3997 3.78897 25.0002 3.50413ZM25.0002 7.86777C23.7576 7.86122 22.541 8.21627 21.5046 8.88791C20.4682 9.55956 19.6587 10.5176 19.1785 11.6405C18.6984 12.7634 18.5693 14.0008 18.8076 15.1957C19.0459 16.3906 19.6409 17.4893 20.5172 18.3525C21.3934 19.2158 22.5115 19.8047 23.7297 20.0446C24.9479 20.2846 26.2114 20.1647 27.36 19.7003C28.5086 19.2359 29.4907 18.4479 30.1817 17.436C30.8728 16.4241 31.2417 15.234 31.2417 14.0165C31.233 12.3941 30.5736 10.8401 29.4059 9.68983C28.2383 8.53951 26.6559 7.8851 25.0002 7.86777ZM25.0002 11.3719C25.534 11.3719 26.0558 11.527 26.4997 11.8176C26.9435 12.1082 27.2895 12.5212 27.4938 13.0045C27.698 13.4877 27.7515 14.0195 27.6473 14.5325C27.5432 15.0455 27.2861 15.5167 26.9087 15.8866C26.5312 16.2564 26.0503 16.5083 25.5267 16.6103C25.0031 16.7124 24.4605 16.66 23.9673 16.4598C23.4741 16.2597 23.0525 15.9207 22.756 15.4858C22.4594 15.0509 22.3011 14.5396 22.3011 14.0165C22.2966 13.668 22.3633 13.3221 22.4973 12.9992C22.6314 12.6764 22.83 12.3831 23.0815 12.1366C23.3331 11.8901 23.6324 11.6955 23.9619 11.5642C24.2914 11.4328 24.6445 11.3675 25.0002 11.3719Z" fill="#9DA8C3"/>
</svg>
