<svg width="70" height="52" viewBox="0 0 70 52" fill="none" xmlns="http://www.w3.org/2000/svg">
<path fill-rule="evenodd" clip-rule="evenodd" d="M56.7736 26.2032C64.0094 26.2032 69.8752 20.3374 69.8752 13.1016C69.8752 5.86579 64.0094 0 56.7736 0C49.5378 0 43.672 5.86579 43.672 13.1016C43.672 14.0293 44.424 14.7813 45.3517 14.7813C46.2794 14.7813 47.0314 14.0293 47.0314 13.1016C47.0314 7.72113 51.3931 3.35939 56.7736 3.35939C62.1541 3.35939 66.5158 7.72113 66.5158 13.1016C66.5158 18.4821 62.1541 22.8438 56.7736 22.8438C56.6586 22.8438 56.5462 22.8554 56.4377 22.8774C56.3291 22.8554 56.2168 22.8438 56.1017 22.8438H1.67969C0.752024 22.8438 0 23.5958 0 24.5235C0 25.4512 0.752022 26.2032 1.67969 26.2032H56.1017C56.2168 26.2032 56.3291 26.1916 56.4377 26.1696C56.5462 26.1916 56.6586 26.2032 56.7736 26.2032ZM0 31.2423C0 32.17 0.752024 32.922 1.67969 32.922L43.672 32.922C43.6746 32.922 43.6772 32.922 43.6798 32.922C47.9435 32.9262 51.3986 36.3839 51.3986 40.6486C51.3986 44.9158 47.9393 48.3752 43.672 48.3752C42.7443 48.3752 41.9923 49.1272 41.9923 50.0548C41.9923 50.9825 42.7443 51.7345 43.672 51.7345C49.7946 51.7345 54.758 46.7712 54.758 40.6486C54.758 34.7099 50.0884 29.8619 44.2206 29.5759C44.151 29.5671 44.08 29.5626 44.008 29.5626H43.6786C43.6764 29.5626 43.6742 29.5626 43.672 29.5626C43.6712 29.5626 43.6703 29.5626 43.6695 29.5626H1.67969C0.752023 29.5626 0 30.3146 0 31.2423ZM1.67969 36.2814C0.752024 36.2814 0 37.0334 0 37.9611C0 38.8887 0.752022 39.6408 1.67969 39.6408H33.9298C34.8575 39.6408 35.6095 38.8887 35.6095 37.9611C35.6095 37.0334 34.8575 36.2814 33.9298 36.2814H1.67969Z" fill="#9E9E9E"/>
</svg>
