<svg width="170" height="188" viewBox="0 0 170 188" xmlns="http://www.w3.org/2000/svg" xmlns:xlink="http://www.w3.org/1999/xlink">
    <defs>
        <path id="kpc25rhk2a" d="M0 187.86h169.852V0H0z"/>
    </defs>
    <g fill="none" fill-rule="evenodd">
        <path d="M3.76 146.285h5.299c1.853 0 2.689.156 2.689 2.242 0 2.083-.47 2.736-2.585 2.736H3.76v-4.978zm6.317 16.338c4.124 0 5.9-1.121 5.9-5.447 0-2.475-.522-4.274-3.263-4.585v-.104c2.375-.573 2.793-2.084 2.793-4.326 0-4.298-1.932-5.08-5.77-5.08H0v19.542h10.077zm-6.317-8.52h5.769c2.219 0 2.688.625 2.688 2.761 0 2.397-1.07 2.554-3.315 2.554H3.76v-5.315z" fill="#00427F"/>
        <mask id="vaou9ikheb" fill="#fff">
            <use xlink:href="#kpc25rhk2a"/>
        </mask>
        <path d="M28.11 140.944h2.607v-2.294H28.11v2.294zm-5.325 0h2.584v-2.294h-2.584v2.294zm8.353 2.137v13.886c0 2.112-.948 2.607-4.437 2.607-3.629 0-4.36-.6-4.36-2.607v-13.886h-3.759v13.886c0 5.473 3.524 5.812 8.119 5.812 4.777 0 8.196-.366 8.196-5.812v-13.886h-3.759zM54.213 143.08h-4.334l-4.724 8.339h-.079l-4.647-8.338h-4.281l7.074 12.037v7.505h3.76v-7.505zM65.017 140.944h2.608v-2.294h-2.608v2.294zm-5.325 0h2.584v-2.294h-2.584v2.294zm8.354 2.137v13.886c0 2.112-.948 2.607-4.438 2.607-3.629 0-4.36-.6-4.36-2.607v-13.886H55.49v13.886c0 5.473 3.524 5.812 8.119 5.812 4.777 0 8.197-.366 8.197-5.812v-13.886h-3.759zM78.825 143.08h-3.76v19.543h3.76v-8.365h1.748l7.205 8.365h4.752l-8.745-10.006 7.936-9.536H87.1l-6.528 7.973h-1.748zM101.558 162.934l-2.976 1.8.705 1.198 3.418-1.355-1.147-1.643zm-8.823-6.54v.914c0 5.602 3.862 5.471 8.196 5.471 5.038 0 7.649-.467 7.649-5.967 0-4.976-1.645-5.29-7.675-5.656-3.81-.232-4.308-.311-4.308-2.709 0-2.083.6-2.448 4.334-2.448 2.636 0 3.498.078 3.498 2.188v.626h3.76v-.626c0-5.133-3.264-5.264-7.258-5.264-4.698 0-8.093.158-8.093 5.524 0 5.681 3.342 5.526 7.571 5.786 2.924.155 4.411-.208 4.411 2.579 0 2.267-.469 2.892-3.889 2.892-3.472 0-4.437-.155-4.437-2.396v-.913h-3.76zM114.528 146.285h9.658v-3.204h-13.417v19.542h13.496v-3.205h-9.737v-5.185h9.162v-3.077h-9.162zM143.68 143.08h-3.757v7.999h-9.112v-7.998h-3.76v19.542h3.76v-8.339h9.112v8.34h3.758zM147.562 142.507h2.585v-2.293h-2.585v2.293zm-.573 20.116h3.758v-19.542h-3.758v19.542zM157.687 152.955v-6.67h5.22c2.69 0 3.185.496 3.185 3.258 0 2.866-.678 3.412-3.445 3.412h-4.96zm5.77 3.206c1.801.025 2.479 1.173 2.479 2.814v3.648h3.759v-3.648c0-2.762-.653-4.195-3.315-4.429v-.106c3.315-.494 3.472-2.604 3.472-5.497 0-4.43-1.645-5.76-5.927-5.862h-9.998v19.542h3.76v-6.462h5.77zM43.858 117.563h2.029v-1.704h-2.03v1.704zm.022 17.68h1.96v-17.266h-1.96v17.266zM64.935 117.977H51.997v1.727h10.54l-10.862 13.833v1.706h13.49v-1.728H54.05l10.885-13.719zM88.001 119.45h.046v15.793h1.96v-17.266h-3.39l-6.135 14.78-6.11-14.78h-3.39v17.266h1.96V119.45h.046l6.549 15.793h1.937zM96.862 117.563h2.03v-1.704h-2.03v1.704zm.022 17.68h1.96v-17.266h-1.96v17.266zM107.63 126.61v-6.906h6.042c3.09 0 3.391.828 3.391 3.038 0 2.854-.369 3.775-3.391 3.867h-6.042zm0 1.726h6.296c2.375 0 2.905 1.059 2.905 3.245v3.662h1.961v-4.582c0-1.866-.853-2.97-2.79-3.109v-.045c2.743-.345 3.02-2.14 3.02-4.557 0-3.938-1.637-4.973-5.373-4.973h-7.979v17.266h1.96v-6.907zM9.463 172.184h5.903c2.053 0 2.953.254 2.953 2.577 0 2.694-.808 3.224-3.16 3.224H9.463v-5.801zm7.242 15.537c2.928 0 4.081-1.703 4.081-4.81 0-2.142-.369-3.798-2.675-4.212v-.047c1.799-.598 2.168-1.819 2.168-3.637 0-3.016-.761-4.557-4.013-4.557H7.502v17.263h9.203zm-7.242-8.01h6.434c2.583-.045 2.929 1.103 2.929 3.384 0 2.647-1.038 2.9-3.16 2.9H9.464v-6.284zM28.607 172.184h9.155v-1.726H26.646v17.263h11.116v-1.725h-9.155v-6.33h8.764v-1.612h-8.764zM45.903 170.458h-1.96v17.263h10.77v-1.725h-8.81zM61.586 172.184h9.156v-1.726H59.626v17.263h11.116v-1.725h-9.156v-6.33h8.763v-1.612h-8.763zM78.628 185.996v-13.812h6.78c3.298 0 3.644 3.2 3.644 4.166v4.536c-.046 3.084-.507 5.11-3.967 5.11h-6.457zm-1.96 1.725h8.88c5.188 0 5.465-4.788 5.465-6.49v-4.12c0-6.379-3.829-6.653-5.928-6.653h-8.417v17.263zM97.359 170.042h2.029v-1.702h-2.03v1.702zm.023 17.679h1.96v-17.263h-1.96v17.263zM119.288 170.458h-2.328l-5.12 8.079-5.12-8.08h-2.283l6.34 10.06v7.204h1.962v-7.205zM125.656 172.184h9.154v-1.726h-11.115v17.263h11.115v-1.725h-9.154v-6.33h8.763v-1.612h-8.763zM146.434 179.757c3.16.254 4.636-.299 4.636 2.993 0 3.383-1.015 3.383-4.705 3.383-3.667 0-4.405 0-4.359-3.798h-1.96c-.368 4.995 1.914 5.526 6.32 5.526 4.359 0 6.664-.163 6.664-5.042 0-4.673-2.076-4.559-6.18-4.789-3.23-.092-4.798.184-4.798-3.107 0-2.394.53-2.878 4.36-2.878 3.666 0 4.243.115 4.335 3.131h1.96c.207-4.695-2.49-4.857-6.227-4.857-4.265 0-6.388.413-6.388 5.018 0 4.558 2.929 4.144 6.342 4.42M159.008 170.042h2.028v-1.702h-2.028v1.702zm.022 17.679h1.96v-17.263h-1.96v17.263zM105.545 105.905c-.033.109-.11.162-.117.312h-.216c-.074.082-.091.163-.084.325h-.517v-.313h-.284c.012-.324-.217-.478-.483-.567-.122-.056-.343.154-.467.203-.091.095-.133.22-.05.352v.012h-.269c-.004.11-.01.218-.016.327h-1.567v-.259c-.1-.061-.152-.087-.35-.08v-.013c.068-.106-.023-.156-.101-.245.08-.061.034-1.232.034-1.434a5.037 5.037 0 0 0 1.15-.555c.156-.134.313-.27.468-.406v-.121c-.07-.033-.712-.073-.835-.054l-.316.068c-.138-.027-.29-.09-.484-.109-.004-.658.005-1.417.065-1.99.013-.112-.08-.45 0-.581.092-.066.286-.02.351-.108.018-.158.033-.316.05-.474.044-.085.08-.072.1-.19-.035-.029-.023-.025-.082-.04-.005-.154.059-.197.167-.257v-.095h-.302c.085-.153.167-.306.252-.46-.035-.121-.067-.243-.101-.365-.07-.258-.129-.636-.066-.947.209-1.07.594-1.663 1.25-2.328.157-.158.37-.381.602-.473.148-.059.896.497 1.035.609.699.568 1.524 1.751.967 2.855-.11.215-.222.425-.434.555l.2.554h-.216c-.007.018-.012.036-.017.055.25.234.027.714.233.892.065.05.31.033.434.028 0 1.15.016 2.41.016 3.68v1.637zm-8.427-22.758v3.22c-.118.263-.134.606-.134.96h-.8v-.405l-.15-.082c-.065-.056-.038-.274-.034-.379h-.233c-.032-.066-.021-.076-.117-.094 0-1.638.004-3.59 0-5.007l.117.028.05-.109c.091-.047.149-.037.25 0 .009-.179.097-.381.034-.528l.15-.121c-.036-.04-.026-.04-.1-.054l.1-.299a.541.541 0 0 1-.333-.283c-.239-.446.366-.5.483-.758-.325-.334-.756-.704-.066-1.083.315.127.726.479.517.921-.04.082-.132.104-.167.203l.284.202c.289.32-.017.666-.284.798l.1.286-.15.013c.135.169.13.407.1.65.103.001.108.015.234.013.215.46.15 1.242.15 1.908zm-2.386 3.328h-.183v.365l-.15.095c-.069.06-.039.297-.033.406h-.518v-.406l-.183-.095v-.379h-.25c-.016-.077-.027-.08-.117-.094-.001-1.632.005-3.639 0-5.007l.116.028c.04-.033.053-.067.068-.122.094-.037.176-.02.265.013.099-.166.071-.398.017-.528l.134-.094v-.04l-.083-.054.1-.286c-.595-.16-.385-.832.1-.96l.05-.08c-.274-.273-.62-.41-.3-.867.066-.094.12-.187.266-.217.481.33.694.559.319 1.11l.3.23c.216.271.037.714-.284.771l.083.312h-.134c.103.197.1.375.1.65.457-.05.368.766.368 1.203v2.598c0 .474.038 1.04-.051 1.448zm-18.905-.014h-.25v.366l-.184.108v.406h-.518v-.406l-.182-.08v-.366l-.184-.014c-.129-.572-.05-1.347-.05-1.989 0-1.071-.094-2.386.133-3.247.125 0 .149-.022.234-.014.001-.27-.021-.459.1-.649h-.134l.083-.312c-.332-.056-.49-.499-.283-.77l.3-.217c-.045-.08-.129-.123-.166-.19-.233-.41.194-.873.533-.934.469.35.446.787-.083 1.07.38.383.943.563.184 1.054-.056.03.051.234.066.312l-.083.028c.027.056.07.082.134.108-.032.163-.09.326 0 .514.046.05.117.007.25 0l.083.149.117-.041.016 5.02c-.09.015-.1.017-.116.094zm-2.336 0h-.25c.01.21.038.39-.15.447-.056.095-.039.295-.034.433h-.8c0-.362-.013-.706-.135-.974v-4.681c.048-.086.114-.334.134-.447.137.002.145-.015.25-.014-.06-.191-.018-.504.084-.636l-.134-.013.1-.284-.284-.177c-.28-.33.016-.684.284-.824-.038-.118-.146-.15-.183-.258-.154-.448.212-.757.534-.88.559.286.386.815-.067 1.07.205.235.74.401.467.811a.556.556 0 0 1-.317.243l.1.3c-.063.016-.065.015-.1.053l.15.108c-.052.173-.037.328-.017.514.082.028.121-.006.25-.013.037.044.056.05.067.121.067.025.064.023.134 0 .012 1.418.017 3.37.017 5.007-.087.017-.088.017-.1.094zm-5.324 16.887c-.193.021-.346.083-.483.109l-.317-.068-.35.04-.435-.027c-.035.047-.05.063-.05.149.316.376.98.857 1.603.96l.016 1.394c-.034.161-.137.182-.067.312h-.25c-.085.09-.109.16-.1.339h-1.568v-.313l-.285-.014a.516.516 0 0 0 .034-.296c-.157-.098-.325-.254-.534-.299-.229.194-.508.197-.5.595h-.284v.313h-.517v-.259c-.086-.05-.13-.071-.3-.066-.008-.15-.084-.203-.118-.312v-1.637c0-1.27.014-2.53.017-3.68h.434c.095-.207.052-.829.2-.88-.014-.102-.071-.102-.2-.095l.2-.541c-.212-.23-.415-.444-.534-.758-.56-1.478 1.074-2.815 2.086-3.301.793.702 1.429 1.157 1.769 2.26.102.33.166.833.083 1.23l-.15.65.25.46h-.3l.167.23c0 .113-.024.108-.083.163.033.15.107.405.15.663a.58.58 0 0 0 .35.081c.17.58.068 1.717.066 2.598zm51.726 8.795v-.784h-2.788v-.812h-9.594c.004-.143.012-.309-.05-.392.3-.155.573-.345.684-.65.088-.243.01-.276-.067-.42-.186-.347.431-.637.684-.69v-.108l.085-.013.049-.014v-.027c-.162-.163-.709-.117-1.068-.109v-.526c-.023-.05-.123-.063-.084-.176.044-.06.09-.12.134-.176v-.597c-.094-.036-.19-.07-.284-.107v-.285c-.074-.042-.121-.058-.267-.053-.003-.166-.087-.195-.117-.299v-3.667c.01-.523.023-1.046.034-1.569v-.027l.183.04c.314-.15.113-.482.2-.744l.235-.244-.034-.162v-6.494a.59.59 0 0 1-.067-.284h.133c.007-.028.012-.055.017-.081h.15l.034-.04c.044-.103-.058-.182-.084-.286.157-.182.565-.143.684-.338v-.176c-.04-.092-.138-.144-.267-.162l-.016-.027v-1.962c-.303.029-.456.262-.467.527h-.218v.326c.234.107.391.328.184.554a.957.957 0 0 1-.467-.027c-.08-.113.003-.216-.033-.338l-.134-.176-.033-.013c-.181.197-.1.486-.385.608-.132 0-.192-.018-.283-.04-.175-.194-.112-.528.217-.555v-.38h-.25c-.098-.7-.869-.662-.968-.012h-.384c-.017-1.667-1.677-3.033-3.254-3.397-.226-.052-.612-.68-.266-.812v-.149c-.035-.047-.06-.052-.135-.067.08-.136.423-.077.517-.217.008-.04.012-.08.018-.12a2.063 2.063 0 0 0-.484-.191c0-.292-.163-.46-.117-.717l.217-.622-.35-.677-.035-.013-.432.676c-.062.216.373.704.249.988-.06.142-.151.09-.15.365-.132.045-.379.088-.467.176-.012.064-.003.089.018.149l.5.136h.033c-.034.083-.1.065-.152.134v.123c.038.051.062.06.152.067.12.733-1.11 1.048-1.719 1.285 0-.327-.047-.271-.168-.446.008-.126.012-.253.02-.38a5.566 5.566 0 0 1-.102-.08v-4.655l.101-.04c-.034-.09-.068-.181-.1-.271.05-.094.04-.072.149-.095.033-.154.019-.584.084-.663-.01-.085-.008-.068-.084-.095v-2.733c0-.286-.095-.81.167-.893.051-.098-.035-.16 0-.284l.134-.19.55-.013c.093-.031.073-.103.218-.122-.003-.082-.018-.087.065-.107-.02-.129-.191-.236-.3-.298V73.81c-.132.027-.296.097-.35.19l-.017.095.1.067c-.19.122-.403.07-.55.23l.033.135c.129.019.288.02.351.095.11.091.081.26.033.379a.513.513 0 0 1-.366.067c.008.125 0 .16-.101.217a.869.869 0 0 1-.368 0 .32.32 0 0 1-.066-.23c-.236-.036-.605-.173-.35-.447.09-.096.294-.086.383-.19-.067-.146-.222-.217-.467-.215.019-.07.1-.123.05-.257l-.3-.122c-.075-.067-.377.067-.434.176-.043.077.01.14.05.19-.145.096-.34.058-.4.229v.041c.055.06.276.12.35.162a.457.457 0 0 1-.016.365.516.516 0 0 1-.334.081c.001.087-.004.134-.051.176-.067.102-.344.125-.45.041-.088-.039-.106-.1-.1-.217-.184.005-.31-.036-.368-.134-.094-.084-.038-.245.035-.312.066-.083.223-.101.4-.095l.016-.148a.782.782 0 0 0-.467-.19.344.344 0 0 1-.016-.027c.072-.044.098-.069.1-.176l-.333-.135c-.11-.11-.386.056-.486.162.011.1.048.118.1.176-.155.107-.336.095-.433.257.079.074.289.147.383.203.065.189-.005.28-.116.392a.402.402 0 0 1-.3-.027c.02.066.042.133.016.203l-.1.096a.82.82 0 0 1-.384-.014c-.063-.084-.09-.161-.083-.312-.433.154-.565-.343-.017-.486l.017-.136c-.116-.085-.227-.164-.418-.19a.253.253 0 0 0 0-.202.99.99 0 0 0-.382-.15c-.145-.027-.503.11-.535.245.045.067.09.085.15.135h.034c-.16.053-.382.058-.518.095-.072.08-.09.132-.033.23.306.039.438-.004.618.149.058.212-.034.34-.233.391-.184-.06-.266-.158-.502-.175.121.071.245.072.284.216v.054c-.076.148-.545.259-.801.163-.11-.102-.021-1.146-.016-1.353l-.218-.095V63.54c.062-.005.122-.01.183-.013l.234-.231c.126-.084.393-.151.467-.27.066-.062.045-.147.017-.23a.473.473 0 0 0-.266-.055l-.033.013c-.052.063-.073.114-.069.231l-.266-.176c.079.132.086.208-.166.19l.082.094-.066.122c.14-.05.222-.132.4-.15a.204.204 0 0 1 .016.028c-.12.124-.294.345-.533.365v-.744h.75c.288-.308.14-1.838.134-2.395h.1v-.122h-.984c.002-.845-.13-1.958.05-2.72.015-.058-.064-.072-.05-.161.032-.207.102-.388.183-.529v-2.556h-.25V40.674h.083c.065-.27.106-.616.101-.988h.234l.167-.19c-.31-.344.354-.962.618-1.069v-1.095l-.168-.353h.1v-.906h-.167v-.257h.134v-7.13l-.167-.014v-.244h.167v-.879c.058-.092.167-.157.183-.298-.1-.056-.244-.095-.3-.19-.187-.36.436-.714.734-.77v-.123h.185l.015-.162-.416-.216v-2.043h-.35l.15.486h-.2c.026.154.054.307.081.46h-.216l.134.474h-.918l.084-.487h-.217l.117-.433c-.056-.01-.112-.017-.168-.026h-.034l.101-.474h-.45l-.1-.163h-.652l-.433-.528h-.518v-2.245c0-.4-.037-.9.051-1.232.037-.141-.15-.66-.1-.771.035-.043.017-.033.1-.041v-.081h.1l.017-.081h.083v-.081h-.3v-3.329h.1c-.005-.132-.067-.247-.051-.338.06-.327.46-.59.885-.623.091-.237-.182-.341-.367-.392-.07-.125-.033-.383-.033-.555v-1.489h-.034l-.283.448.117.257c.016.08-.284.602-.368.635l-.016.014c-.162-.016-.2-.098-.3-.163v-.812h-.885c-.006-1.362-.67-2.343-1.619-2.949l-.9-.487c-.21-.097-.548-.13-.685-.284-.155-.176-.182-.415-.267-.65.027-.132.117-.094.134-.243-.092-.07-.146-.09-.134-.217.404-.128.505-.426.35-.812-.057-.06-.004-.05.05-.122V6.36a86.028 86.028 0 0 0-.467-.108c.002-.121.05-.118.15-.15l.034-.08c-.055-.077-.062-.11-.2-.123.018-.225.305-.32.283-.554-.022-.246-.295-.337-.334-.596.149 0 .224-.035.268-.122.033-.06.003-.123-.017-.175a.618.618 0 0 0-.267-.095v-.122c.132-.04.233-.056.3-.148-.028-.206-.234-.188-.3-.339V.825c.452-.072.548-.435.4-.77L85.352 0c.127.317.001.584-.368.65-.471.084-.597-.371-.483-.65-.398.24-.077.767.317.825v2.923c-.068.157-.28.13-.3.352a.47.47 0 0 0 .283.122c.006.009.01.018.017.027-.02.216-.292.1-.3.378.077.073.115.119.283.122-.092.58-.596.385-.05 1.07-.02.107-.114.097-.183.162a1.573 1.573 0 0 0-.017.054c.054.067.057.096.184.108v.109l-.468.108c.011.098.042.096.1.148-.342.238-.054.775.284.826l.034.108c-.079.066-.142.073-.151.202l.134.083c-.033.954-1.001.975-1.685 1.393-1.011.617-1.813 1.613-1.786 3.057h-.884c.01.409.074.818-.234.975-.322-.03-.183-.223-.3-.42-.046-.077-.179-.086-.15-.23l.116-.256a67.25 67.25 0 0 0-.284-.42l-.016-.028-.017 2.017c-.202.098-.424.126-.417.406.73.193.866.29.85.974h.101v3.329h-.3v.08h.083v.069l.117.013v.081l.1.014c.028.137-.137.663-.1.798.09.327.05.824.05 1.218v2.26h-.5c-.14.166-.279.333-.417.5-.15.057-.477.03-.685.027a20.88 20.88 0 0 0-.1.163h-.45l.1.474-.184.012a.252.252 0 0 1-.017.014c.04.144.078.29.117.433h-.217l.084.487h-.918l.134-.473h-.217l.083-.46h-.2l.15-.487h-.35v2.029c-.14.073-.279.144-.417.217v.162c.066.005.133.01.2.013v.122c.429.085.763.327.75.771-.074.066-.122.11-.25.136-.028.036-.092.057-.066.136.018.058.152.166.183.216v.879h.167v.244h-.15l-.017 7.144h.134v.257h-.168v.906h.1l-.166.353v1.082c.225.178.969.693.618 1.082l.166.163c.043.034.144.031.234.027 0 .371.04.717.1.988h.084v13.558h-.251v2.556c.082.141.153.322.184.529.013.089-.065.103-.05.161.18.76.052 1.876.05 2.72h-.985v.122h.1v2.287c.195.122.515.114.885.108v.744c-.24-.02-.415-.241-.534-.365.124-.066.304.081.417.122l-.067-.122.083-.095-.233-.013c.022-.058.045-.117.066-.176l-.266.176c.009-.124-.001-.192-.1-.23-.079-.029-.168-.003-.234.013-.055.074-.065.139-.05.244.15.107.343.18.5.284l.184.203c.035.027.23.036.234.04V73.879l-.218.081.017 1.367c-.287.052-.763.029-.834-.176-.047-.135.146-.186.25-.244h.034v-.013c-.24.022-.313.118-.501.175l-.15-.04c-.054-.069-.149-.207-.083-.325.102-.227.324-.105.584-.176l.05-.013a.346.346 0 0 0 .016-.163c-.148-.09-.308-.141-.584-.135v-.013c.095-.03.125-.065.184-.122-.027-.173-.343-.244-.534-.27-.107.054-.278.066-.35.148-.06.051-.07.106-.05.19l.016.026c-.148.103-.306.068-.418.204l.017.094c.089.097.273.061.334.19.124.259-.102.412-.35.324a.707.707 0 0 1-.05.285.537.537 0 0 1-.4.04l-.118-.08a.391.391 0 0 1 .017-.218c-.08.038-.167.076-.267.027-.364-.129-.135-.542.217-.554l.017-.04c-.094-.163-.277-.153-.434-.258.222-.24-.095-.3-.317-.406-.075.08-.216.133-.35.163-.072.086-.05.161.05.216-.15.097-.376.07-.467.217l-.017.135c.15.033.3.047.416.081.041.09.112.174.067.298-.058.12-.187.181-.4.175.003.087-.004.134-.05.176-.063.1-.34.127-.45.041-.089-.039-.108-.1-.1-.217-.136.001-.195-.017-.284-.04-.083-.092-.167-.25-.067-.379.063-.11.192-.129.35-.162l.017-.068c-.12-.137-.261-.126-.417-.23.044-.057.068-.088.067-.19-.11-.09-.265-.16-.4-.23-.112.11-.296.112-.385.244-.001.102.015.132.101.162-.204.118-.382.036-.484.244.086.085.297.063.383.149.228.227-.001.506-.35.5l-.033.19c-.122.06-.259.053-.418.027-.074-.079-.091-.086-.083-.217-.124.028-.237-.01-.334-.04-.09-.112-.13-.35.034-.433.065-.045.196-.038.283-.068.057-.028.062-.052.067-.121-.08-.151-.291-.204-.534-.217-.006-.009-.01-.018-.017-.027.081-.038.1-.056.1-.162a.792.792 0 0 0-.367-.19v2.084l-.3.257c.03.075.06.055.067.162.144.02.124.09.217.122.172.005.344.01.517.013.191.084.154.255.133.448.286.142.201.594.201.96v2.68c-.033.021-.023.018-.084.027.007.092.045.087.067.135.065.138-.137.325.017.527-.02.084.008.093.117.081.025.103.03.215-.067.285.015.093.035.067.083.121l.017 1.488v3.167l-.1.08.016.38c-.136.172-.167.124-.166.446-.62-.25-1.824-.538-1.72-1.285l.151-.04.017-.15c-.053-.042-.078-.062-.167-.081v-.053l.5-.11c.04-.05.075-.092.05-.16-.08-.13-.317-.094-.434-.191-.067-.057.014-.16-.033-.244l-.15-.12c-.123-.285.312-.774.25-.99l-.417-.662a7.875 7.875 0 0 1-.033-.013l-.367.703.217.61c.043.257-.118.423-.118.716l-.4.122c-.056.06-.085.072-.083.19.109.091.31.155.517.162l.017.054a8.174 8.174 0 0 1-.133.04v.15c.035.05.065.057.15.067-.005.642-.325.667-.835.866l-.867.42c-.917.53-1.995 1.607-1.97 2.882h-.384c-.038-.24-.233-.593-.617-.5-.22.07-.319.292-.35.513h-.25v.379c.295.027.378.285.267.514-.077.044-.211.12-.35.068-.224-.067-.29-.412-.351-.595h-.017c-.185.145-.101.277-.167.5-.156.082-.44.13-.567-.014-.076-.213-.005-.404.217-.46.045-.077.038-.233.033-.352h-.217c-.012-.266-.163-.498-.467-.527v1.976c-.206.063-.312.105-.3.351.176.145.62.15.684.338.027.095-.072.16-.083.285l.05.027.15.014v.067l.15.014a.605.605 0 0 1-.067.284v6.481l-.033.175.234.244c.08.264-.11.594.2.744l.183-.04v.73c.07.292.034.706.034 1.042v3.492c-.031.103-.114.132-.118.298h-.199c-.067.077-.075.19-.067.338l-.284.107v.597c.044.056.09.116.133.176.04.113-.06.126-.083.176v.526c-.39-.003-.84-.03-1.068.095.006.018.01.037.017.055.039.004.078.01.117.013v.108c.253.053.868.343.684.69-.035.067-.135.044-.117.176.056.406.311.734.7.866.019.04-.015.28-.016.42h-9.595v.812h-2.787v.784h-2.786v.785h75.508v-.785h-2.787z" fill="#00427F" mask="url(#vaou9ikheb)"/>
    </g>
</svg>
