<svg width="89" height="102" viewBox="0 0 89 102" xmlns="http://www.w3.org/2000/svg">
    <g fill="none" fill-rule="evenodd">
        <path d="M53.715 56H19.234C8.61 56 0 47.348 0 36.676 0 26.003 8.611 17.35 19.234 17.35c3.205 0 6.228.788 8.885 2.182C31.82 8.748 42.011 1 54.002 1 69.12 1 81.373 13.312 81.373 28.5c0 .311-.005.621-.015.93a14.128 14.128 0 0 1 7.413 12.448c0 7.8-6.293 14.122-14.055 14.122H53.715h.287-.287z" fill="#FFF"/>
        <path d="m45.031 60.116.12.026.127.04a1.619 1.619 0 0 1 1 1.926l-9.73 36.484a1.604 1.604 0 0 1-1.825 1.165l-.127-.028-.12-.038a1.619 1.619 0 0 1-.999-1.926l9.73-36.483a1.604 1.604 0 0 1 1.824-1.166zm-8.962-.018.118.026.129.04a1.613 1.613 0 0 1 .998 1.929l-6.986 26.195a1.605 1.605 0 0 1-1.825 1.169l-.119-.027-.127-.04a1.613 1.613 0 0 1-.999-1.928l6.986-26.196a1.605 1.605 0 0 1 1.825-1.168zm25.073-.12.126.028.12.04a1.613 1.613 0 0 1 1 1.928l-6.986 26.195a1.605 1.605 0 0 1-1.825 1.168l-.129-.03-.118-.036a1.613 1.613 0 0 1-.999-1.929l6.986-26.195a1.605 1.605 0 0 1 1.825-1.168zm-7.765 0 .126.028.12.04a1.605 1.605 0 0 1 1.003 1.913L50.1 78.929a1.596 1.596 0 0 1-1.821 1.154l-.127-.028-.12-.038a1.605 1.605 0 0 1-1.002-1.914l4.526-16.97a1.596 1.596 0 0 1 1.82-1.154zm-25.4-.103.12.026.127.04a1.605 1.605 0 0 1 1.003 1.914L24.7 78.826a1.596 1.596 0 0 1-1.821 1.154l-.12-.027-.127-.04A1.605 1.605 0 0 1 21.63 78l4.526-16.97a1.596 1.596 0 0 1 1.821-1.154zm40.845-.072.142.032a1.6 1.6 0 0 1 1.122 1.963l-2.6 9.753a1.59 1.59 0 0 1-1.807 1.168l-.142-.031a1.6 1.6 0 0 1-1.122-1.964l2.6-9.752a1.59 1.59 0 0 1 1.807-1.169z" fill="#ADE8FF"/>
    </g>
</svg>
