<?xml version="1.0" encoding="UTF-8"?>
<svg width="114px" height="106px" viewBox="0 0 114 106" version="1.1" xmlns="http://www.w3.org/2000/svg" xmlns:xlink="http://www.w3.org/1999/xlink">
    <title>2AB3E8F0-703A-4C90-9185-886F5D65B31F</title>
    <g id="Page-1" stroke="none" stroke-width="1" fill="none" fill-rule="evenodd">
        <g id="anasayfa-Son-Değişiklikler" transform="translate(-1429.000000, -994.000000)">
            <g id="-28-copy" transform="translate(1429.000000, 994.000000)">
                <g id="icon" transform="translate(7.000000, 13.000000)">
                    <g id="sun-/-big" transform="translate(8.747573, 0.000000)">
                        <ellipse id="Oval-1-Copy-2" stroke-opacity="0.3" stroke="#FFC108" stroke-width="3" cx="46.3106796" cy="46.5" rx="44.8106796" ry="45"></ellipse>
                        <ellipse id="Oval-1-Copy" stroke-opacity="0.6" stroke="#FFC208" stroke-width="4" cx="46.0533981" cy="46.2416667" rx="38.907767" ry="39.075"></ellipse>
                        <ellipse id="Oval-1" fill="#F7BF3A" cx="46.0533981" cy="46.2416667" rx="34.7330097" ry="34.875"></ellipse>
                    </g>
                    <g id="cloud-/-mini" transform="translate(68.951456, 18.083333)" fill="#FFFFFF">
                        <path d="M22.4179986,22.2166667 L8.02718447,22.2166667 C3.5938929,22.2166667 0,18.721866 0,14.4108108 C0,10.0997557 3.5938929,6.60495495 8.02718447,6.60495495 C9.36501181,6.60495495 10.6264,6.92320609 11.7356548,7.48610113 C13.280206,3.12963049 17.5331899,0 22.5378641,0 C28.846779,0 33.961165,4.97337024 33.961165,11.1083333 C33.961165,11.2340702 33.9590167,11.3593191 33.9547539,11.4840473 C35.7963953,12.4461798 37.0485437,14.337088 37.0485437,16.5123874 C37.0485437,19.6627738 34.4222373,22.2166667 31.1825243,22.2166667 L22.5378641,22.2166667 C22.531848,22.2166667 22.5258331,22.2166621 22.5198192,22.2166531 C22.5198313,22.2166634 22.5198352,22.2166667 22.5198352,22.2166667 L22.4179986,22.2166667 L22.5378641,22.2166667 L22.4179986,22.2166667 Z" id="Oval-4-Copy-6"></path>
                    </g>
                    <g id="cloud-/-mini" transform="translate(0.000000, 58.383333)" fill="#FFFFFF">
                        <path d="M22.4179986,22.2166667 L8.02718447,22.2166667 C3.5938929,22.2166667 0,18.721866 0,14.4108108 C0,10.0997557 3.5938929,6.60495495 8.02718447,6.60495495 C9.36501181,6.60495495 10.6264,6.92320609 11.7356548,7.48610113 C13.280206,3.12963049 17.5331899,0 22.5378641,0 C28.846779,0 33.961165,4.97337024 33.961165,11.1083333 C33.961165,11.2340702 33.9590167,11.3593191 33.9547539,11.4840473 C35.7963953,12.4461798 37.0485437,14.337088 37.0485437,16.5123874 C37.0485437,19.6627738 34.4222373,22.2166667 31.1825243,22.2166667 L22.5378641,22.2166667 C22.531848,22.2166667 22.5258331,22.2166621 22.5198192,22.2166531 C22.5198313,22.2166634 22.5198352,22.2166667 22.5198352,22.2166667 L22.4179986,22.2166667 L22.5378641,22.2166667 L22.4179986,22.2166667 Z" id="Oval-4-Copy-6"></path>
                    </g>
                    <g id="cloud-/-mini" transform="translate(14.922330, 8.783333)" fill="#FFFFFF">
                        <path d="M22.4179986,22.2166667 L8.02718447,22.2166667 C3.5938929,22.2166667 0,18.721866 0,14.4108108 C0,10.0997557 3.5938929,6.60495495 8.02718447,6.60495495 C9.36501181,6.60495495 10.6264,6.92320609 11.7356548,7.48610113 C13.280206,3.12963049 17.5331899,0 22.5378641,0 C28.846779,0 33.961165,4.97337024 33.961165,11.1083333 C33.961165,11.2340702 33.9590167,11.3593191 33.9547539,11.4840473 C35.7963953,12.4461798 37.0485437,14.337088 37.0485437,16.5123874 C37.0485437,19.6627738 34.4222373,22.2166667 31.1825243,22.2166667 L22.5378641,22.2166667 C22.531848,22.2166667 22.5258331,22.2166621 22.5198192,22.2166531 C22.5198313,22.2166634 22.5198352,22.2166667 22.5198352,22.2166667 L22.4179986,22.2166667 L22.5378641,22.2166667 L22.4179986,22.2166667 Z" id="Oval-4-Copy-6"></path>
                    </g>
                </g>
            </g>
        </g>
    </g>
</svg>