<svg width="109" height="109" xmlns="http://www.w3.org/2000/svg">
    <g fill="#FF201F" fill-rule="evenodd">
        <path d="M54.5 10.318c-24.361 0-44.182 19.82-44.182 44.182 0 24.362 19.82 44.182 44.182 44.182 24.361 0 44.182-19.82 44.182-44.182 0-24.362-19.82-44.182-44.182-44.182zm0 98.182c-29.776 0-54-24.224-54-54s24.224-54 54-54 54 24.224 54 54-24.224 54-54 54z"/>
        <path d="M61.85 54.598 73.06 43.702a4.91 4.91 0 0 0-6.845-7.04L55.006 47.559 44.111 36.35a4.91 4.91 0 0 0-7.04 6.845l10.897 11.207-11.209 10.896a4.91 4.91 0 0 0 6.845 7.04l11.208-10.897L65.707 72.65a4.894 4.894 0 0 0 3.521 1.486 4.91 4.91 0 0 0 3.519-8.332L61.851 54.599"/>
    </g>
</svg>
