<?xml version="1.0" encoding="UTF-8"?>
<svg width="16px" height="18px" viewBox="0 0 16 18" version="1.1" xmlns="http://www.w3.org/2000/svg" xmlns:xlink="http://www.w3.org/1999/xlink">
    <title>cikis_yap copy</title>
    <g id="Page-1" stroke="none" stroke-width="1" fill="none" fill-rule="evenodd">
        <g id="Group" fill="#FFFFFF">
            <path d="M5,18 L1,18 C0.448,18 0,17.552 0,17 C0,16.448 0.448,16 1,16 L5,16 C6.103,16 7,15.103 7,14 L7,4 C7,2.897 6.103,2 5,2 L1,2 C0.448,2 0,1.552 0,1 C0,0.448 0.448,0 1,0 L5,0 C7.206,0 9,1.794 9,4 L9,14 C9,16.206 7.206,18 5,18" id="Fill-1" transform="translate(4.500000, 9.000000) scale(-1, 1) translate(-4.500000, -9.000000) "></path>
            <path d="M12.00025,13 C11.74425,13 11.48825,12.902 11.29325,12.707 C10.90225,12.316 10.90225,11.684 11.29325,11.293 L13.58625,9 L11.29325,6.707 C10.90225,6.316 10.90225,5.684 11.29325,5.293 C11.68425,4.902 12.31625,4.902 12.70725,5.293 L15.70725,8.293 C16.09825,8.684 16.09825,9.316 15.70725,9.707 L12.70725,12.707 C12.51225,12.902 12.25625,13 12.00025,13" id="Fill-3" transform="translate(13.500250, 8.999875) scale(-1, 1) rotate(-180.000000) translate(-13.500250, -8.999875) "></path>
            <path d="M14.00025,10.01145 L5.00025,10.01145 C4.44825,10.01145 4.00025,9.56345 4.00025,9.01145 C4.00025,8.45945 4.44825,8.01145 5.00025,8.01145 L14.00025,8.01145 C14.55225,8.01145 15.00025,8.45945 15.00025,9.01145 C15.00025,9.56345 14.55225,10.01145 14.00025,10.01145" id="Fill-5" transform="translate(9.500250, 9.011450) scale(-1, 1) rotate(-180.000000) translate(-9.500250, -9.011450) "></path>
        </g>
    </g>
</svg>