<?xml version="1.0" encoding="UTF-8"?>
<svg width="416px" height="48px" viewBox="0 0 416 48" version="1.1" xmlns="http://www.w3.org/2000/svg" xmlns:xlink="http://www.w3.org/1999/xlink">
    <title>B4A7F58D-49D6-4055-B3EB-28D443C03537</title>
    <g id="Page-1" stroke="none" stroke-width="1" fill="none" fill-rule="evenodd">
        <g id="anasayfa" transform="translate(-752.000000, -3214.000000)" fill="#FFFFFF">
            <g id="Group-2-Copy-2" transform="translate(752.000000, 3214.000000)">
                <g id="izmir-logo">
                    <path d="M29.1919586,29.7387372 L30.7323351,29.7387372 L30.7323351,28.4272661 L29.1919586,28.4272661 L29.1919586,29.7387372 Z M29.2094544,43.349395 L30.6973435,43.349395 L30.6973435,30.058314 L29.2094544,30.058314 L29.2094544,43.349395 Z" id="Fill-1"></path>
                    <polyline id="Fill-2" points="42.45565 30.058314 32.6352845 30.058314 32.6352845 31.3867438 40.6353404 31.3867438 32.3903431 42.0383008 32.3903431 43.349395 42.6306082 43.349395 42.6306082 42.0205884 34.1935291 42.0205884 42.45565 31.4579702 42.45565 30.058314"></polyline>
                    <polyline id="Fill-3" points="57.2291932 31.1922843 57.2641849 31.1922843 57.2641849 43.349395 58.7524461 43.349395 58.7524461 30.058314 56.1790719 30.058314 51.5222063 41.4353256 46.883581 30.058314 44.3105789 30.058314 44.3105789 43.349395 45.798468 43.349395 45.798468 31.1922843 45.8334596 31.1922843 50.8045055 43.349395 52.2748987 43.349395 57.2291932 31.1922843"></polyline>
                    <path d="M61.2197287,29.7387372 L62.7601052,29.7387372 L62.7601052,28.4272661 L61.2197287,28.4272661 L61.2197287,29.7387372 Z M61.2368523,43.349395 L62.7247414,43.349395 L62.7247414,30.058314 L61.2368523,30.058314 L61.2368523,43.349395 Z" id="Fill-4"></path>
                    <path d="M66.6586947,36.7042314 L66.6586947,31.3867438 L71.2452048,31.3867438 C73.5907611,31.3867438 73.818579,32.0247669 73.818579,33.7259107 C73.818579,35.9245091 73.5382737,36.6326281 71.2452048,36.7042314 L66.6586947,36.7042314 Z M66.6586947,38.033038 L71.4376588,38.033038 C73.2404725,38.033038 73.6432486,38.8481851 73.6432486,40.5316165 L73.6432486,43.349395 L75.1315099,43.349395 L75.1315099,39.8227438 C75.1315099,38.3876628 74.4834201,37.536714 73.0130269,37.4304397 L73.0130269,37.394638 C75.096146,37.1297058 75.3060958,35.7470083 75.3060958,33.8856992 C75.3060958,30.854995 74.0631482,30.058314 71.2273367,30.058314 L65.1711779,30.058314 L65.1711779,43.349395 L66.6586947,43.349395 L66.6586947,38.033038 L66.6586947,38.033038 Z" id="Fill-5"></path>
                    <path d="M85.9115396,32.2376926 L89.4650519,32.2376926 C90.7076273,32.2376926 91.2682379,32.3443438 91.2682379,33.7624661 C91.2682379,35.1802116 90.9533132,35.6226446 89.5346629,35.6226446 L85.9115396,35.6226446 L85.9115396,32.2376926 Z M90.1477611,43.349395 C92.9139616,43.349395 94.1040495,42.5873851 94.1040495,39.6448661 C94.1040495,37.9618116 93.7537609,36.7396562 91.9155832,36.5267306 L91.9155832,36.455881 C93.5088194,36.0654545 93.7891248,35.0377587 93.7891248,33.5141157 C93.7891248,30.5900628 92.4933175,30.058314 89.9206877,30.058314 L83.391025,30.058314 L83.391025,43.349395 L90.1477611,43.349395 Z M85.9115396,37.5548033 L89.7803489,37.5548033 C91.2682379,37.5548033 91.5831627,37.979524 91.5831627,39.4330711 C91.5831627,41.0637421 90.8654619,41.1700165 89.3597048,41.1700165 L85.9115396,41.1700165 L85.9115396,37.5548033 L85.9115396,37.5548033 Z" id="Fill-6"></path>
                    <path d="M102.32969,28.6047669 L104.07741,28.6047669 L104.07741,27.0456992 L102.32969,27.0456992 L102.32969,28.6047669 Z M98.7583093,28.6047669 L100.491512,28.6047669 L100.491512,27.0456992 L98.7583093,27.0456992 L98.7583093,28.6047669 Z M104.360321,30.058314 L104.360321,39.5039207 C104.360321,40.9397554 103.724516,41.275914 101.384171,41.275914 C98.9507633,41.275914 98.4608804,40.8685289 98.4608804,39.5039207 L98.4608804,30.058314 L95.9403659,30.058314 L95.9403659,39.5039207 C95.9403659,43.2250314 98.3030458,43.4552926 101.384171,43.4552926 C104.587767,43.4552926 106.880836,43.2080727 106.880836,39.5039207 L106.880836,30.058314 L104.360321,30.058314 L104.360321,30.058314 Z" id="Fill-7"></path>
                    <polyline id="Fill-8" points="119.921921 30.058314 117.016126 30.058314 113.847894 35.7296727 113.795034 35.7296727 110.67929 30.058314 107.808487 30.058314 112.552087 38.2452099 112.552087 43.349395 115.073346 43.349395 115.073346 38.2452099 119.921921 30.058314"></polyline>
                    <path d="M127.256763,28.6047669 L129.004856,28.6047669 L129.004856,27.0456992 L127.256763,27.0456992 L127.256763,28.6047669 Z M123.685755,28.6047669 L125.418958,28.6047669 L125.418958,27.0456992 L123.685755,27.0456992 L123.685755,28.6047669 Z M129.287395,30.058314 L129.287395,39.5039207 C129.287395,40.9397554 128.65159,41.275914 126.311245,41.275914 C123.878209,41.275914 123.387954,40.8685289 123.387954,39.5039207 L123.387954,30.058314 L120.867067,30.058314 L120.867067,39.5039207 C120.867067,43.2250314 123.230864,43.4552926 126.311245,43.4552926 C129.514841,43.4552926 131.80791,43.2080727 131.80791,39.5039207 L131.80791,30.058314 L129.287395,30.058314 L129.287395,30.058314 Z" id="Fill-9"></path>
                    <polyline id="Fill-10" points="136.604742 30.058314 134.083483 30.058314 134.083483 43.349395 136.604742 43.349395 136.604742 37.6614545 137.776962 37.6614545 142.608413 43.349395 145.794513 43.349395 139.930436 36.5448198 145.251771 30.058314 142.153522 30.058314 137.776962 35.4816992 136.604742 35.4816992 136.604742 30.058314"></polyline>
                    <path d="M151.937407,43.5623207 L149.941767,44.784476 L150.414154,45.6 L152.707967,44.6793322 L151.937407,43.5623207 Z M146.02047,39.1138711 L146.02047,39.7345587 C146.02047,43.5438545 148.611712,43.4552926 151.517135,43.4552926 C154.895317,43.4552926 156.646388,43.1368463 156.646388,39.3976463 C156.646388,36.0126942 155.543779,35.8001455 151.499267,35.551795 C148.943761,35.3923835 148.611712,35.3396231 148.611712,33.7089521 C148.611712,32.2915835 149.014116,32.0428562 151.517135,32.0428562 C153.285329,32.0428562 153.863064,32.0963702 153.863064,33.532205 L153.863064,33.9565488 L156.38395,33.9565488 L156.38395,33.532205 C156.38395,30.0409785 154.195112,29.9524165 151.517135,29.9524165 C148.366399,29.9524165 146.090826,30.058314 146.090826,33.7089521 C146.090826,37.571762 148.331407,37.4654876 151.167219,37.6433653 C153.127495,37.7496397 154.125501,37.5012893 154.125501,39.3976463 C154.125501,40.9397554 153.809832,41.364476 151.517135,41.364476 C149.189074,41.364476 148.540985,41.2589554 148.540985,39.7345587 L148.540985,39.1138711 L146.02047,39.1138711 L146.02047,39.1138711 Z" id="Fill-12"></path>
                    <polyline id="Fill-14" points="160.723658 32.2376926 167.200461 32.2376926 167.200461 30.058314 158.202771 30.058314 158.202771 43.349395 167.252948 43.349395 167.252948 41.1700165 160.723658 41.1700165 160.723658 37.6433653 166.867668 37.6433653 166.867668 35.551795 160.723658 35.551795 160.723658 32.2376926"></polyline>
                    <polyline id="Fill-15" points="180.362155 30.058314 177.841268 30.058314 177.841268 35.498281 171.73225 35.498281 171.73225 30.058314 169.211363 30.058314 169.211363 43.349395 171.73225 43.349395 171.73225 37.6787901 177.841268 37.6787901 177.841268 43.349395 180.362155 43.349395 180.362155 30.058314"></polyline>
                    <path d="M183.055022,29.6686413 L184.787108,29.6686413 L184.787108,28.1088198 L183.055022,28.1088198 L183.055022,29.6686413 Z M182.669742,43.349395 L185.190629,43.349395 L185.190629,30.058314 L182.669742,30.058314 L182.669742,43.349395 Z" id="Fill-16"></path>
                    <path d="M189.932368,36.7747041 L189.932368,32.2376926 L193.434137,32.2376926 C195.236579,32.2376926 195.568255,32.5749818 195.568255,34.4532496 C195.568255,36.4023669 195.114108,36.7747041 193.258434,36.7747041 L189.932368,36.7747041 Z M193.801177,38.9544595 C195.008388,38.9725488 195.464024,39.7518942 195.464024,40.8685289 L195.464024,43.349395 L197.984911,43.349395 L197.984911,40.8685289 C197.984911,38.990638 197.546771,38.0153256 195.761825,37.8551603 L195.761825,37.7850645 C197.984911,37.4481521 198.089514,36.0126942 198.089514,34.0458645 C198.089514,31.0328727 196.987277,30.1287868 194.116102,30.058314 L187.411853,30.058314 L187.411853,43.349395 L189.932368,43.349395 L189.932368,38.9544595 L193.801177,38.9544595 L193.801177,38.9544595 Z" id="Fill-17"></path>
                    <path d="M207.575225,31.3867438 L212.056016,31.3867438 C213.61426,31.3867438 214.296597,31.581957 214.296597,33.3720397 C214.296597,35.4451438 213.683871,35.8532826 211.898553,35.8532826 L207.575225,35.8532826 L207.575225,31.3867438 Z M213.071518,43.349395 C215.293859,43.349395 216.169767,42.0383008 216.169767,39.6448661 C216.169767,37.9976132 215.889833,36.7223207 214.139135,36.4023669 L214.139135,36.3669421 C215.504925,35.9064198 215.784859,34.9669091 215.784859,33.566876 C215.784859,31.2457983 215.207124,30.058314 212.739097,30.058314 L206.086964,30.058314 L206.086964,43.349395 L213.071518,43.349395 Z M207.575225,37.1817124 L212.458047,37.1817124 C214.41944,37.1466645 214.681877,38.033038 214.681877,39.787319 C214.681877,41.8253752 213.894566,42.0205884 212.283834,42.0205884 L207.575225,42.0205884 L207.575225,37.1817124 L207.575225,37.1817124 Z" id="Fill-18"></path>
                    <polyline id="Fill-19" points="219.371501 31.3867438 226.321064 31.3867438 226.321064 30.058314 217.883984 30.058314 217.883984 43.349395 226.321064 43.349395 226.321064 42.0205884 219.371501 42.0205884 219.371501 37.1466645 226.024007 37.1466645 226.024007 35.9064198 219.371501 35.9064198 219.371501 31.3867438"></polyline>
                    <polyline id="Fill-20" points="229.766251 30.058314 228.278362 30.058314 228.278362 43.349395 236.453003 43.349395 236.453003 42.0205884 229.766251 42.0205884 229.766251 30.058314"></polyline>
                    <polyline id="Fill-21" points="238.935921 31.3867438 245.885855 31.3867438 245.885855 30.058314 237.448776 30.058314 237.448776 43.349395 245.885855 43.349395 245.885855 42.0205884 238.935921 42.0205884 238.935921 37.1466645 245.588799 37.1466645 245.588799 35.9064198 238.935921 35.9064198 238.935921 31.3867438"></polyline>
                    <path d="M249.138216,42.0205884 L249.138216,31.3867438 L254.284592,31.3867438 C256.787611,31.3867438 257.050048,33.8510281 257.050048,34.5949488 L257.050048,38.0857983 C257.015801,40.4611438 256.664768,42.0205884 254.039279,42.0205884 L249.138216,42.0205884 Z M247.649955,43.349395 L254.38994,43.349395 C258.328732,43.349395 258.538682,39.6633322 258.538682,38.352238 L258.538682,35.1802116 C258.538682,30.2712397 255.632887,30.058314 254.039279,30.058314 L247.649955,30.058314 L247.649955,43.349395 L247.649955,43.349395 Z" id="Fill-22"></path>
                    <path d="M260.620312,29.7387372 L262.160689,29.7387372 L262.160689,28.4272661 L260.620312,28.4272661 L260.620312,29.7387372 Z M260.639297,43.349395 L262.126441,43.349395 L262.126441,30.058314 L260.639297,30.058314 L260.639297,43.349395 Z" id="Fill-23"></path>
                    <polyline id="Fill-24" points="274.532838 30.058314 272.764643 30.058314 268.879083 36.2783802 264.992778 30.058314 263.259947 30.058314 268.073158 37.8031537 268.073158 43.349395 269.561047 43.349395 269.561047 37.8031537 274.532838 30.058314"></polyline>
                    <polyline id="Fill-25" points="276.631591 31.3867438 283.581154 31.3867438 283.581154 30.058314 275.144075 30.058314 275.144075 43.349395 283.581154 43.349395 283.581154 42.0205884 276.631591 42.0205884 276.631591 37.1466645 283.283352 37.1466645 283.283352 35.9064198 276.631591 35.9064198 276.631591 31.3867438"></polyline>
                    <path d="M289.669326,37.217514 C292.068114,37.4127273 293.187847,36.9872529 293.187847,39.5216331 C293.187847,42.126486 292.417659,42.126486 289.616839,42.126486 C286.833887,42.126486 286.273276,42.126486 286.308268,39.2028099 L284.820379,39.2028099 C284.540446,43.0486612 286.273276,43.4552926 289.616839,43.4552926 C292.925409,43.4552926 294.675736,43.3320595 294.675736,39.5743934 C294.675736,35.9772694 293.100368,36.0654545 289.983879,35.8887074 C287.534092,35.817481 286.344004,36.0311603 286.344004,33.4960264 C286.344004,31.6528066 286.746035,31.2812231 289.65183,31.2812231 C292.434782,31.2812231 292.872922,31.3697851 292.94365,33.6919934 L294.430794,33.6919934 C294.588257,30.0764033 292.540501,29.9524165 289.70469,29.9524165 C286.46573,29.9524165 284.85537,30.2712397 284.85537,33.8152264 C284.85537,37.3245421 287.078828,37.0053421 289.669326,37.217514" id="Fill-26"></path>
                    <g id="Group-30">
                        <path d="M16.9218064,24.449514 L16.9218064,28.4299041 C17.0018404,28.5448463 16.9679655,28.9435636 17.0096577,28.9823802 C17.1060708,29.0193124 17.282518,28.9767273 17.3111814,28.9205752 C17.4682715,28.8648 17.5036354,28.8161851 17.480928,28.7347835 C17.4135505,28.6759934 17.3636688,28.6929521 17.2486431,28.6775008 C17.3119259,28.5757488 17.3960547,28.5742413 17.4559872,28.5538909 C17.6439742,28.4174678 17.6953449,28.4404562 17.73257,28.4657058 L17.8837041,28.6677025 C17.67636,28.7215934 17.726614,28.9119074 17.8896601,28.8534942 C17.9689497,28.9850182 18.0091528,28.9876562 18.0657351,28.9778579 C18.2518608,28.8308826 18.2782906,28.7954579 18.2540943,28.7242314 C18.1465136,28.5851702 18.2142634,28.5896926 18.2730791,28.548238 L18.5437059,28.4713587 L18.6818112,28.6775008 C18.503875,28.7389289 18.4826567,28.8011107 18.5180206,28.8323901 C18.6542646,28.9284893 18.6613374,28.9518545 18.6940955,28.9673058 C18.881338,28.9352727 18.8839437,28.9179372 18.882827,28.8843967 C18.9866851,28.6982281 18.9033008,28.674486 18.882827,28.6518744 C19.0186988,28.5297719 18.9989694,28.5056529 19.0149763,28.4762579 L19.2915591,28.4547769 C19.3652649,28.5527603 19.4233361,28.5798942 19.4486492,28.6360463 C19.2078025,28.8131702 19.3466523,28.8655537 19.4363649,28.8794975 C19.6373807,28.9450711 19.6411032,28.931881 19.6373807,28.8843967 C19.7390053,28.6854149 19.6798173,28.6846612 19.6310524,28.6775008 C19.6738613,28.5648198 19.7535231,28.5851702 19.8261122,28.537686 L19.92662,29.2051041 C19.9597504,29.3667769 19.96794,29.3939107 19.9325761,29.4063471 L19.725232,29.4116231 C19.661577,29.5314645 19.6947074,29.5552066 19.6749781,29.5932694 C19.5767037,29.6241719 19.6120676,29.8246612 19.6120676,29.9339504 L19.6120676,30.978605 C19.6191404,31.0449322 19.6243519,31.2088661 19.6120676,31.2676562 L19.5554854,33.2013223 L19.5871267,33.3776926 C19.8789719,33.4568331 20.3420527,33.336238 20.2970102,33.0566083 L20.0959945,32.880238 C20.2653689,32.6511074 20.2992437,32.6714579 20.3223233,32.6168132 C20.3684825,32.5090314 20.2050641,32.3221091 20.2281437,32.2392 L20.3911899,31.9810512 C20.5233391,32.2392 20.5359957,32.2452298 20.5359957,32.2452298 L20.4544726,32.4830281 C20.4366045,32.5810116 20.498026,32.6450777 20.4983983,32.7562512 C20.5590753,32.7724562 20.6335255,32.8003438 20.6808015,32.829362 C20.6383648,32.9292298 20.5095658,32.906995 20.4794134,32.9582479 C20.4004961,33.0920331 20.5449297,33.3305851 20.6305475,33.3509355 C21.2246609,33.4899967 21.849671,34.0115702 21.8563716,34.6484628 C22.0380303,34.3997355 22.3276419,34.3857917 22.3652393,34.6541157 C22.3358314,34.809005 22.3116351,34.9363835 22.3775236,35.0106248 C22.5915682,34.9797223 22.5610436,34.8693025 22.6295378,34.7928 C22.7062216,34.9122645 22.674208,34.9522116 22.7051049,34.9951736 C22.7590813,35.0106248 22.8156635,35.0192926 22.8811798,35.0053488 C22.9589803,34.9190479 22.8994201,34.8342545 22.8115688,34.7928 C22.8975589,34.5681917 22.9552578,34.4781223 23.0691668,34.4675702 L23.0691668,35.2175207 C23.1313328,35.4312 22.9779652,35.4165025 22.9184049,35.4858446 C22.8242253,35.6934942 22.8368819,35.7225124 22.8491662,35.7496463 L22.8491662,38.2308893 C22.740841,38.4860231 22.816408,38.6134017 22.6984043,38.6703074 L22.616509,39.2657455 L22.616509,40.6654017 L22.7613148,40.9092298 L22.868151,41.1779306 L22.8491662,41.5133355 C22.985038,41.5110744 23.1905208,41.493362 23.25157,41.5555438 C23.1063919,41.638076 22.8737348,41.7484959 22.943718,41.8807736 C22.9265945,42.158519 22.8242253,42.230876 22.7110609,42.2896661 L26.3446073,42.4392793 L26.3446073,42.7498116 L27.3943564,42.7498116 L27.3943564,43.0501686 L28.4437332,43.0501686 L28.4437332,43.349395 L0,43.349395 L0,43.0501686 L1.04974909,43.0501686 L1.04974909,42.7498116 L2.09949817,42.7498116 L2.09949817,42.4392793 L5.71405974,42.4392793 C5.57334869,42.2278612 5.47730782,42.1031207 5.45608948,41.9486083 C5.56962618,41.7484959 5.33771352,41.638076 5.24241715,41.6169719 C5.27740879,41.5027835 5.44715545,41.512205 5.59419477,41.5133355 L5.59419477,41.3120926 L5.57595445,40.9506843 L5.78292626,40.7803438 L5.82685193,40.0820231 L5.82685193,39.3320727 C5.82685193,39.2031868 5.84062523,39.0452826 5.81456763,38.934486 L5.81456763,38.6548562 C5.62881416,38.6134017 5.70103094,38.4875306 5.66976182,38.3865322 L5.59419477,37.869481 L5.59419477,35.7496463 C5.49182562,35.5472727 5.52905077,35.5216463 5.51899998,35.4858446 C5.49480363,35.4138645 5.32803499,35.412357 5.26102972,35.3569587 L5.37456642,34.4675702 C5.48921986,34.4781223 5.54542983,34.5681917 5.5502691,34.6699438 C5.53575129,34.8244562 5.50932144,34.8983207 5.5379848,34.9797223 C5.58563299,35.0343669 5.6928414,35.0162777 5.75165713,34.9842446 C5.77659798,34.8998281 5.74458436,34.8493289 5.81456763,34.7928 C5.83801947,34.8644033 5.86891634,34.9959273 5.95267292,35.0208 C6.12651434,34.9073653 6.09561747,34.809005 5.98431429,34.7988298 C6.0900337,34.570076 6.12800335,34.4841521 6.21027092,34.4577719 C6.35507673,34.4219702 6.42841027,34.5565091 6.44292807,34.6484628 C6.5784276,34.1615603 6.98418168,33.749276 7.32963102,33.5476562 L7.65609555,33.387114 C7.84817729,33.3117421 7.96915901,33.3019438 7.97064802,33.0566083 C7.87981867,32.9352595 7.80387937,32.9103868 7.76330396,32.8757157 L7.94533492,32.7562512 C7.94496267,32.644324 8.00563966,32.5810116 7.98963284,32.4830281 L7.90773752,32.2497521 L8.04584281,31.9810512 C8.20293292,32.2343008 8.21558947,32.2392 8.21558947,32.2392 C8.23904131,32.3221091 8.07487843,32.5090314 8.12140986,32.6168132 C8.2345743,32.794314 8.32391464,32.7792397 8.35369476,32.829362 L8.14672295,32.9322446 C8.1065198,33.3418909 8.56066657,33.4523107 8.79406822,33.5476562 L8.85065044,33.2322248 L8.88787559,31.9916033 L8.88191957,31.4225455 C8.83464363,31.2725554 8.82496509,31.2684099 8.83166562,31.2367537 C8.77396665,31.1598744 8.84990594,31.0882711 8.8257096,31.034757 L8.83166562,29.9494017 C8.83166562,29.8095868 8.86442375,29.637362 8.75647083,29.5827174 L8.51115712,29.4063471 L8.5174854,29.200205 L8.5174854,28.4039008 C8.7099394,28.5422083 8.79518498,28.5742413 8.8257096,28.6311471 C8.63176659,28.7347835 8.6470289,28.8259835 8.68090378,28.8693223 C8.89755413,28.9767273 8.94929708,28.9797421 8.99508401,28.9567537 C9.13877307,28.886281 9.2251354,28.7800066 9.13951757,28.6929521 C9.14547359,28.5316562 9.13877307,28.5203504 9.13951757,28.481157 C9.33569408,28.4148298 9.39413756,28.4412099 9.43508522,28.4762579 L9.56090621,28.6624264 C9.3915318,28.7736 9.42280092,28.8335207 9.45407004,28.8693223 C9.64019577,28.9997157 9.74442617,28.9899174 9.76825027,28.9511008 C9.95474824,28.7698314 9.92831839,28.7385521 9.91268383,28.7035041 C9.90039953,28.5173355 9.89221,28.4886942 9.91938435,28.4547769 C10.1349179,28.432919 10.2540384,28.4562843 10.1702818,28.548238 C10.2011787,28.6514975 10.1084881,28.8248529 10.2458489,28.8738446 C10.4446311,28.9944397 10.4933961,28.9838876 10.5350882,28.9627835 C10.6475082,28.8874116 10.7327538,28.8282446 10.6862223,28.7291306 C10.595393,28.5689653 10.6556977,28.5825322 10.7111632,28.5433388 C10.9278135,28.4136992 11.0465617,28.4412099 11.0569848,28.5071603 C11.0849036,28.7050116 11.0011471,28.658281 10.9624329,28.7449587 C11.1213843,28.8625388 11.1493031,28.8259835 11.2390157,28.8173157 C11.1589817,28.993686 11.3387791,29.0027306 11.446732,28.9823802 L11.4404038,28.4611835 L11.5222991,25.6373752 L11.5222991,24.4796628 C11.3056487,24.3481388 11.2330597,24.3187438 11.1761052,24.278043 L11.4217912,24.2007868 C11.3663257,24.3564298 11.4322142,24.4416 11.5222991,24.449514 L11.5222991,24.1642314 C11.3827048,24.1672463 11.2624676,24.1698843 11.189134,24.1227769 L11.189134,23.2499702 L11.5222991,23.2032397 C11.5230436,22.8798942 11.571064,22.4544198 11.5033143,22.164238 C11.510387,22.0232926 11.4835849,21.9543273 11.4526881,21.9004364 L11.4526881,20.9232397 L11.5472399,15.7433058 C11.4928912,15.6404231 11.4783734,15.5077686 11.4783734,15.3660694 C11.4593886,15.1452298 11.1790833,14.9481322 11.0945822,14.8802975 L11.0945822,14.4665058 L11.1198953,13.9856331 L11.1388801,11.1580562 L11.1321796,10.7288132 C11.1366466,10.584476 11.1541424,10.5678942 11.1828058,10.5426446 C11.1869005,10.3730579 11.0614518,10.2807273 10.8998947,10.2483174 L10.9814177,10.0515967 L10.9814177,9.27564298 L11.0569848,9.46218843 L11.1009105,9.63780496 L11.1321796,9.81907438 L11.4783734,9.81907438 L11.446732,9.63290579 L11.5595242,9.4569124 L11.5222991,9.27564298 L11.7292709,9.21383802 C11.807816,9.21534545 11.9306589,9.22589752 11.9872412,9.20366281 L12.1443313,9.01259504 L12.3326905,9.01259504 L12.3326905,8.14920992 C12.3326905,7.99884298 12.3475806,7.80852893 12.3140779,7.68378843 C12.3006769,7.63215868 12.3624706,7.43129256 12.3520476,7.37890909 L12.3520476,6.00902479 C12.3196617,5.74710744 12.268291,5.71055207 11.9935694,5.63631074 L12.1569878,4.71112066 L12.2262266,4.98019835 C12.3267345,5.14300165 12.2746193,5.21648926 12.3959732,5.2281719 C12.5121157,5.16787438 12.4879193,5.01185455 12.4838246,4.85583471 L12.8169896,4.85583471 C12.8069388,4.30373554 13.109207,3.92310744 13.489648,3.68757025 C13.747246,3.52815868 14.1120524,3.52024463 14.1243367,3.15506777 C13.9906984,2.98585785 13.8823733,2.78046942 14.0115445,2.69002314 C14.1016294,2.54568595 14.1008849,2.53513388 14.080411,2.50875372 C13.950123,2.16468099 14.1399713,2.23929917 14.1749629,2.01770579 C14.0711048,1.86470083 14.1734739,1.90954711 14.1809189,1.82701488 C14.075944,1.6853157 14.1552336,1.69473719 14.1809189,1.63557025 L14.1809189,0.518558678 C14.0323906,0.496323967 13.9121534,0.295080992 14.0614262,0.203504132 C14.0186173,0.309778512 14.0658932,0.483133884 14.2438294,0.451100826 C14.3819347,0.426604959 14.4303274,0.324852893 14.3819347,0.203504132 C14.4690416,0.352363636 14.4329332,0.490294215 14.2628143,0.518558678 L14.2628143,1.63557025 C14.3502933,1.80025785 14.3123237,1.8062876 14.2628143,1.82136198 C14.3532714,2.0045157 14.3249802,2.01732893 14.2691425,2.01770579 C14.2832881,2.11644298 14.3864017,2.15149091 14.3945913,2.24495207 C14.4031531,2.33464463 14.2948279,2.37082314 14.2877551,2.45750083 L14.4705306,2.63311736 C14.5092447,2.84755041 14.4712751,2.96136198 14.3190242,3.01035372 C14.3636944,3.1501686 14.3294473,3.13547107 14.3190242,3.18634711 C14.3510379,3.27641653 14.3622054,3.36761653 14.4199044,3.43432066 C14.4712751,3.49386446 14.5993296,3.50592397 14.6775024,3.5428562 L15.0169957,3.72902479 C15.3743571,3.96079339 15.6245101,4.33539174 15.6267436,4.85583471 L15.9599086,4.85583471 L15.9599086,5.16599008 C16.1047144,5.21535868 16.2242071,5.01110083 16.2175066,4.98019835 L16.2804171,4.71112066 C16.2804171,5.27980165 16.2934459,5.27980165 16.2934459,5.27980165 C16.2934459,5.34575207 16.2796726,5.44373554 16.305358,5.49159669 C16.3753412,5.51081653 16.4784549,5.55076364 16.4442077,5.64196364 C16.2837674,5.65402314 16.1333778,5.75464463 16.1106704,5.87976198 L16.0920579,7.28092562 C16.0734453,7.43129256 16.1438008,7.62989752 16.1296553,7.68378843 C16.0968971,7.81079008 16.1106704,8.00185785 16.1106704,8.15410909 L16.1106704,9.01259504 L16.305358,9.01259504 L16.4691486,9.21383802 L16.71409,9.21383802 L16.9218064,9.27564298 L16.8838367,9.4569124 L16.9154781,9.63290579 L16.965732,9.81907438 L17.3111814,9.81907438 L17.2612997,9.63780496 L17.3111814,9.46218843 L17.3301662,9.27564298 L17.4623155,10.0568727 L17.5438385,10.2483174 C17.4317908,10.2694215 17.1965279,10.4054678 17.2672557,10.5426446 C17.3740919,10.6692694 17.3331442,10.6937653 17.3111814,10.7288132 L17.3111814,13.8872727 L17.3238379,14.3315901 L17.349151,14.8851967 C17.2505044,14.9255207 17.0003514,15.1621884 17.1164939,15.2933355 C16.9679655,15.5077686 16.9519587,15.6404231 16.9281346,15.7433058 L16.8964933,20.9232397 L16.9910451,21.9004364 C16.959776,21.9543273 16.9333461,22.0232926 16.9218064,22.1020562 C16.8726692,22.4547967 16.9218064,22.8798942 16.9218064,23.2032397 L17.292941,23.2032397 C17.2568327,23.462519 17.3122981,24.047405 17.2047175,24.1642314 L16.9218064,24.1642314 L16.9218064,24.449514 Z M10.3672028,33.2480529 L10.4360694,33.5736595 L10.6311291,33.5736595 L10.7003679,33.3776926 C10.8005035,33.2073521 10.804226,33.2069752 10.8381009,33.2013223 L10.8381009,31.2827306 C10.7066962,31.2446678 10.6802663,31.2608727 10.6623982,31.2420298 C10.6288956,31.1704264 10.6504862,31.1078678 10.6623982,31.0449322 C10.9047339,30.6872926 10.6921784,30.6179504 10.5488616,30.4868033 C10.7487606,30.3793983 10.7573224,30.1962446 10.5805029,30.0632132 C10.4528207,30.0862017 10.2920081,30.2637025 10.3794871,30.4197223 C10.2514326,30.6790017 10.3106206,30.8482116 10.4360694,30.8696926 C10.4092673,31.0607603 10.417829,31.1334942 10.4170845,31.2367537 C10.2436154,31.571405 10.2789793,32.0733818 10.2789793,32.4830281 C10.2789793,32.7279868 10.2491991,33.0241983 10.2979641,33.2424 L10.3672028,33.2480529 Z M9.44923077,33.5736595 L9.7511267,33.5736595 C9.83451102,33.3867372 9.82446023,33.317395 9.81999322,33.237124 L9.95214248,31.2887603 C9.82148222,31.2442909 9.80659216,31.2582347 9.77606755,31.2473058 C9.76825027,31.1764562 9.76266649,31.1161587 9.78239582,31.050962 L9.72544135,30.8745917 C9.94804771,30.6251107 9.74665968,30.5614215 9.66923138,30.4868033 C9.83972254,30.3899504 9.90486655,30.1728793 9.69454448,30.0632132 C9.57319051,30.1103207 9.43508522,30.2271471 9.4935287,30.398995 C9.46151507,30.5512463 9.34983964,30.686162 9.45555905,30.8131636 L9.52442557,30.9884033 C9.53708212,31.0434248 9.52070305,31.1643967 9.54341039,31.2367537 C9.44178574,31.2857455 9.4168449,31.3799603 9.39897683,31.4123702 L9.39897683,33.2013223 C9.44476376,33.3034512 9.44923077,33.4345983 9.44923077,33.5736595 Z M17.5140584,33.237124 L17.5832972,33.4183934 L17.7779847,33.5736595 L17.8472235,33.3822149 C17.9499649,33.0863802 17.9350748,32.8708165 17.9350748,32.6895471 L17.9350748,31.697276 C17.9350748,31.5299504 17.9682052,31.2182876 17.7969695,31.2367537 C17.7965973,31.1323636 17.7980863,31.0637752 17.7589999,30.9884033 C17.8993387,30.8482116 17.9667162,30.6782479 17.8848209,30.5753653 C17.9138565,30.2761388 17.8334502,30.1890843 17.6521637,30.0632132 C17.4310463,30.3202314 17.5613343,30.3726149 17.6651925,30.477005 C17.46306,30.5568992 17.3837704,30.8131636 17.608238,30.8745917 L17.5516558,31.0558612 C17.5721296,31.1048529 17.5821804,31.1937917 17.5453275,31.257481 L17.3755809,33.2013223 L17.5140584,33.237124 Z M18.3940608,33.237124 L18.4632996,33.4131174 L18.7651955,33.5683835 C18.7648233,33.432714 18.770407,33.3019438 18.8150772,33.2013223 L18.8150772,31.9712529 C18.8150772,31.716119 18.8396458,31.4176463 18.7588673,31.2420298 C18.6821835,31.1448 18.6836725,31.0532231 18.6330463,30.9884033 C18.7521667,30.8240926 18.8671924,30.6921917 18.7588673,30.5693355 C18.7934866,30.2459901 18.63863,30.1118281 18.5198818,30.0632132 C18.2600503,30.2079273 18.4223519,30.3496264 18.5448227,30.477005 C18.500897,30.5753653 18.2730791,30.5957157 18.363164,30.7660562 L18.4506431,30.9884033 C18.4554823,31.1123901 18.4223519,31.1885157 18.4443148,31.2311008 L18.2622838,31.2887603 L18.2622838,33.2013223 L18.3940608,33.237124 Z M20.5374847,38.2621686 C20.498026,38.4566281 20.484625,38.4517289 20.4682459,38.4845157 L20.4500056,38.6654083 C20.2869595,38.7569851 20.3219511,38.8862479 20.3178563,38.9295868 C20.2947767,39.1474116 20.2914265,39.4375934 20.292171,39.6893355 C20.3658768,39.6964959 20.422459,39.7209917 20.4745742,39.7307901 C20.6405983,39.6972496 20.8825618,39.7127008 20.9086194,39.7247603 L20.7321722,39.9263802 C20.6033732,40.0119273 20.4634066,40.0824 20.2984992,40.1385521 C20.2988715,40.2154314 20.3167396,40.6627636 20.2862149,40.6865058 L20.4559616,40.9141289 L21.0467247,40.9141289 C21.1219195,40.7343669 21.1386708,40.6876364 21.1721734,40.6503273 C21.2194493,40.6326149 21.3032059,40.5519669 21.3486206,40.5730711 C21.4487562,40.6069884 21.5343741,40.6654017 21.5310238,40.790519 L21.8321752,40.9092298 C21.9479454,40.7275835 21.976981,40.7079868 21.9896376,40.6654017 L21.9896376,40.0405686 L21.9833093,38.6345058 C21.7424626,38.5564959 21.8265914,38.3725884 21.7320396,38.2828959 L21.7446961,38.0503736 C21.8239857,38.0002512 21.8671669,37.9207339 21.9081145,37.8382017 C22.1180643,37.4164959 21.8072344,36.9650182 21.5433081,36.7475702 C21.4911929,36.7046083 21.2097708,36.4924364 21.1539331,36.5150479 C21.066454,36.549719 20.9864199,36.6352661 20.9272319,36.6955636 C20.680057,36.9499438 20.5348789,37.1756826 20.4559616,37.5853289 C20.432882,37.7040397 20.4552171,37.848 20.4812747,37.947114 L20.4243202,38.2621686 L20.5374847,38.2621686 Z M6.21846045,38.6345058 L6.21213218,40.0405686 L6.21213218,40.6654017 L6.36922229,40.9092298 L6.56390979,40.9092298 C6.6681402,40.6378909 6.77348736,40.6363835 6.85947745,40.5628959 C6.9380225,40.5806083 7.0016775,40.6397752 7.06086548,40.6767074 L7.15467284,40.9141289 L7.74580814,40.9141289 C7.8511553,40.7358744 7.89024171,40.7275835 7.91555481,40.6865058 L7.89656998,40.1336529 C7.66242382,40.0940826 7.41189859,39.9105521 7.29315038,39.7673455 L7.47555359,39.720238 L7.72682332,39.7307901 C7.77819402,39.7209917 7.83626525,39.6972496 7.90922653,39.6893355 C7.90959878,39.3528 7.94756843,38.9186579 7.88354118,38.6963107 C7.73575736,38.5670479 7.7078385,38.4694413 7.69518195,38.4121587 L7.68289765,38.0865521 L7.73985212,37.8382017 C7.77074899,37.6863273 7.74655265,37.4945058 7.70821075,37.3675041 C7.579784,36.9469289 7.34079857,36.7728198 7.04188065,36.5044959 C6.66032292,36.6902876 6.04536353,37.2009322 6.2556856,37.7658446 C6.30035577,37.885686 6.37703957,37.9674645 6.45670138,38.0552727 L6.38187884,38.2621686 C6.41389246,38.3024926 6.41761498,38.5553653 6.38187884,38.6345058 L6.21846045,38.6345058 L6.21846045,38.6345058 Z" id="Fill-29"></path>
                    </g>
                    <path d="M296.47855,29.7387372 L298.018926,29.7387372 L298.018926,28.4272661 L296.47855,28.4272661 L296.47855,29.7387372 Z M296.496418,43.349395 L297.983934,43.349395 L297.983934,30.058314 L296.496418,30.058314 L296.496418,43.349395 Z" id="Fill-27"></path>
                </g>
                <path d="M313.583044,38.08 L313.583044,36.08 L306.910212,36.08 L306.910212,38.08 L313.583044,38.08 Z M324.984971,43.2 L324.984971,29.2 L321.738728,29.2 L321.738728,43.2 L324.984971,43.2 Z M330.876301,43.2 L330.876301,34.74 L336.186513,43.2 L339.432755,43.2 L339.432755,29.2 L336.186513,29.2 L336.186513,37.6 L330.876301,29.2 L327.630058,29.2 L327.630058,43.2 L330.876301,43.2 Z M348.069364,43.2 L348.069364,32.28 L351.876686,32.28 L351.876686,29.2 L341.0158,29.2 L341.0158,32.28 L344.823121,32.28 L344.823121,43.2 L348.069364,43.2 Z M356.705973,43.2 L356.705973,38.52 L358.168786,38.52 L360.593449,43.2 L364.220424,43.2 L361.174566,38.14 C362.837765,37.5 363.979961,36.04 363.979961,33.88 C363.979961,30.9 361.8158,29.2 359.090559,29.2 L353.45973,29.2 L353.45973,43.2 L356.705973,43.2 Z M359.150674,35.62 L356.705973,35.62 L356.705973,32.16 L359.170713,32.16 C360.112524,32.16 360.833911,32.78 360.833911,33.88 C360.833911,34.96 360.092486,35.62 359.150674,35.62 Z M368.1079,43.2 L369.009634,40.72 L374.299807,40.72 L375.201541,43.2 L378.628131,43.2 L373.157611,29.2 L370.15183,29.2 L364.68131,43.2 L368.1079,43.2 Z M373.337958,38 L369.951445,38 L371.654721,33.06 L373.337958,38 Z M383.257033,43.2 L383.257033,34.74 L388.567245,43.2 L391.813487,43.2 L391.813487,29.2 L388.567245,29.2 L388.567245,37.6 L383.257033,29.2 L380.01079,29.2 L380.01079,43.2 L383.257033,43.2 Z M403.916763,43.2 L403.916763,40.1 L397.704817,40.1 L397.704817,37.44 L403.075145,37.44 L403.075145,34.56 L397.704817,34.56 L397.704817,32.3 L403.916763,32.3 L403.916763,29.2 L394.458574,29.2 L394.458574,43.2 L403.916763,43.2 Z M411.852023,43.2 L411.852023,32.28 L415.659345,32.28 L415.659345,29.2 L404.798459,29.2 L404.798459,32.28 L408.60578,32.28 L408.60578,43.2 L411.852023,43.2 Z" id="-INTRANET" fill-rule="nonzero"></path>
            </g>
        </g>
    </g>
</svg>