<svg width="215" height="33" viewBox="0 0 215 33" xmlns="http://www.w3.org/2000/svg" xmlns:xlink="http://www.w3.org/1999/xlink">
    <defs>
        <path id="xrt31luhma" d="M0 32.463h214.889V.145H0z"/>
    </defs>
    <g fill="none" fill-rule="evenodd">
        <path d="M21.05 21.295h1.11v-.934h-1.11v.934zm.012 9.69h1.073v-9.463h-1.073v9.463zM30.613 21.522h-7.08v.946H29.3l-5.945 7.583v.934h7.384v-.946h-6.084l5.958-7.52zM41.265 22.33h.026v8.655h1.073v-9.463h-1.856l-3.358 8.1-3.344-8.1H31.95v9.463h1.073V22.33h.025l3.585 8.655h1.06zM44.143 21.295h1.11v-.934h-1.11v.934zm.013 9.69h1.072v-9.463h-1.072v9.463z" fill="#004684"/>
        <g transform="translate(0 .123)">
            <path d="M48.065 26.13v-3.785h3.307c1.691 0 1.855.454 1.855 1.665 0 1.565-.202 2.07-1.855 2.12h-3.307zm0 .946h3.446c1.3 0 1.59.58 1.59 1.779v2.006h1.073v-2.51c0-1.022-.467-1.628-1.527-1.703v-.026c1.502-.189 1.653-1.173 1.653-2.498 0-2.158-.896-2.725-2.941-2.725h-4.367v9.462h1.073v-3.785zM61.947 22.95h2.562c.896 0 1.3.076 1.3 1.086s-.226 1.324-1.25 1.324h-2.612v-2.41zm3.055 7.911c1.994 0 2.852-.542 2.852-2.637 0-1.199-.252-2.068-1.578-2.22v-.05c1.15-.278 1.351-1.01 1.351-2.095 0-2.081-.934-2.46-2.789-2.46H60.13v9.462h4.872zm-3.055-4.125h2.79c1.073 0 1.3.302 1.3 1.337 0 1.161-.518 1.237-1.604 1.237h-2.486v-2.574z" fill="#004684"/>
            <mask id="rzzfu0zrsb" fill="#fff">
                <use xlink:href="#xrt31luhma"/>
            </mask>
            <path d="M73.785 20.364h1.26v-1.11h-1.26v1.11zm-2.575 0h1.25v-1.11h-1.25v1.11zm4.04 1.035v6.725c0 1.022-.459 1.26-2.146 1.26-1.755 0-2.108-.289-2.108-1.26v-6.725h-1.818v6.725c0 2.649 1.704 2.813 3.926 2.813 2.31 0 3.963-.177 3.963-2.813v-6.725H75.25zM86.47 21.399h-2.095l-2.284 4.038h-.038l-2.247-4.038h-2.07l3.42 5.828v3.634h1.819v-3.634zM91.76 20.364h1.26v-1.11h-1.26v1.11zm-2.576 0h1.25v-1.11h-1.25v1.11zm4.04 1.035v6.725c0 1.022-.459 1.26-2.146 1.26-1.755 0-2.108-.289-2.108-1.26v-6.725h-1.818v6.725c0 2.649 1.704 2.813 3.926 2.813 2.31 0 3.963-.177 3.963-2.813v-6.725h-1.817zM98.5 21.399h-1.818v9.462H98.5v-4.05h.845l3.484 4.05h2.297l-4.228-4.844 3.837-4.618H102.5l-3.156 3.861H98.5zM109.556 31.013l-1.44.87.341.58 1.654-.655-.555-.795zm-4.267-3.167v.442c0 2.712 1.868 2.649 3.964 2.649 2.435 0 3.698-.227 3.698-2.89 0-2.409-.795-2.56-3.711-2.737-1.843-.114-2.083-.151-2.083-1.312 0-1.01.29-1.186 2.096-1.186 1.275 0 1.691.038 1.691 1.06v.302h1.818v-.302c0-2.485-1.579-2.548-3.51-2.548-2.271 0-3.912.075-3.912 2.674 0 2.75 1.615 2.674 3.66 2.8 1.414.077 2.133-.1 2.133 1.25 0 1.098-.228 1.4-1.88 1.4-1.68 0-2.146-.075-2.146-1.16v-.442h-1.818zM115.89 22.95h4.671V21.4h-6.488v9.462h6.526V29.31h-4.708v-2.511h4.43v-1.49h-4.43zM130.051 21.399h-1.817v3.873h-4.405v-3.873h-1.818v9.462h1.818v-4.037h4.405v4.037h1.817zM131.993 21.122h1.249v-1.11h-1.249v1.11zm-.278 9.74h1.818v-9.463h-1.818v9.462zM136.952 26.18v-3.23h2.525c1.3 0 1.539.24 1.539 1.578 0 1.387-.328 1.653-1.666 1.653h-2.398zm2.79 1.552c.87.013 1.199.568 1.199 1.363v1.766h1.818v-1.766c0-1.337-.317-2.031-1.604-2.145v-.05c1.604-.24 1.679-1.262 1.679-2.662 0-2.145-.795-2.789-2.865-2.839h-4.834v9.462h1.817v-3.129h2.79zM149.674 22.345h3.23c1.124 0 1.616.139 1.616 1.413 0 1.476-.442 1.767-1.729 1.767h-3.117v-3.18zm3.963 8.516c1.602 0 2.234-.933 2.234-2.637 0-1.173-.202-2.081-1.464-2.308v-.026c.984-.328 1.186-.996 1.186-1.993 0-1.653-.416-2.498-2.196-2.498H148.6v9.462h5.037zm-3.963-4.39h3.52c1.415-.026 1.604.605 1.604 1.854 0 1.451-.568 1.59-1.73 1.59h-3.394V26.47zM158.18 22.345h5.01v-.946h-6.083v9.462h6.084v-.946h-5.012v-3.47h4.797v-.883h-4.797zM165.675 21.399h-1.073v9.462h5.894v-.946h-4.821zM172.286 22.345h5.012v-.946h-6.084v9.462h6.084v-.946h-5.012v-3.47h4.798v-.883h-4.798zM179.643 29.915v-7.57h3.71c1.806 0 1.995 1.754 1.995 2.284v2.485c-.025 1.691-.278 2.801-2.171 2.801h-3.534zm-1.073.946h4.86c2.84 0 2.991-2.624 2.991-3.557v-2.259c0-3.494-2.095-3.646-3.244-3.646h-4.607v9.462zM187.922 21.172h1.11v-.934h-1.11v.934zm.014 9.69h1.072v-9.463h-1.072v9.462zM197.954 21.399h-1.275l-2.802 4.428-2.802-4.428h-1.25l3.47 5.514v3.948h1.074v-3.948zM199.467 22.345h5.011v-.946h-6.083v9.462h6.083v-.946h-5.01v-3.47h4.795v-.883h-4.796zM208.868 26.496c1.73.139 2.537-.164 2.537 1.64 0 1.855-.555 1.855-2.575 1.855-2.006 0-2.41 0-2.385-2.082h-1.073c-.202 2.738 1.047 3.028 3.458 3.028 2.386 0 3.648-.088 3.648-2.763 0-2.561-1.136-2.498-3.383-2.624-1.766-.051-2.625.101-2.625-1.704 0-1.312.29-1.576 2.386-1.576 2.006 0 2.322.063 2.373 1.716h1.072c.114-2.574-1.363-2.662-3.407-2.662-2.336 0-3.497.227-3.497 2.75 0 2.498 1.603 2.27 3.471 2.422M213.778 21.172h1.11v-.934h-1.11v.934zm.013 9.69h1.072v-9.463h-1.072v9.462zM12.201 17.406v2.834c.058.082.034.365.064.393.07.026.197-.004.218-.044.113-.04.138-.074.122-.132-.049-.042-.085-.03-.168-.041.046-.072.107-.074.15-.088.135-.097.173-.08.2-.063l.108.144c-.15.038-.113.174.005.132.057.094.086.096.127.089.134-.105.153-.13.135-.18-.077-.1-.028-.097.014-.126l.195-.055.1.147c-.129.044-.144.088-.118.11.098.069.103.085.127.096.135-.022.136-.035.136-.059.075-.133.015-.15 0-.165.098-.087.083-.104.095-.125l.2-.016c.052.07.094.09.113.13-.174.126-.074.163-.01.173.146.046.149.037.146.003.073-.141.03-.142-.005-.147.031-.08.089-.066.14-.1l.073.476c.024.115.03.134.005.143l-.15.004c-.046.085-.022.102-.036.129-.071.022-.045.165-.045.242v.744c.004.047.008.164 0 .206l-.041 1.377.022.125c.21.056.545-.03.512-.228l-.144-.126c.122-.163.146-.149.163-.188.033-.076-.085-.21-.068-.268l.117-.184c.095.184.105.188.105.188l-.06.169c-.012.07.032.116.032.195a.551.551 0 0 1 .132.052c-.03.07-.123.055-.145.092-.057.095.047.264.109.28.428.098.879.47.884.923.13-.177.34-.187.367.004-.022.11-.04.2.009.253.154-.022.132-.1.181-.154.056.085.032.113.055.143.039.011.08.018.127.008.056-.062.013-.122-.05-.151.061-.16.103-.224.185-.232v.534c.045.152-.065.142-.108.191-.069.148-.06.168-.05.188v1.766c-.078.182-.024.273-.109.313l-.059.424v.996l.104.174.077.191-.013.239c.098-.002.246-.014.29.03-.105.059-.273.137-.222.232-.012.197-.087.249-.168.29l2.62.107v.221h.757v.214h.757v.213H0v-.213h.757v-.214h.757v-.22H4.12c-.101-.151-.17-.24-.186-.35.082-.143-.085-.221-.154-.236.025-.081.148-.075.254-.074v-.143l-.014-.258.15-.12.032-.498V28c0-.092.01-.204-.01-.283v-.199c-.133-.03-.081-.12-.104-.191l-.054-.368v-1.51c-.074-.143-.047-.162-.055-.187-.017-.051-.137-.052-.185-.092l.081-.633c.083.008.124.072.127.144-.01.11-.03.163-.009.22.035.04.112.027.154.004.018-.06-.005-.096.046-.136.017.05.039.144.1.162.124-.08.102-.15.022-.158.076-.163.104-.224.163-.243.105-.025.157.07.168.136.097-.347.39-.64.639-.784l.236-.114c.138-.054.225-.06.226-.235-.065-.087-.12-.105-.15-.13l.132-.084c0-.08.043-.125.032-.195l-.059-.166.1-.191c.113.18.122.184.122.184.017.059-.102.192-.068.268.081.127.146.116.167.152l-.149.073c-.029.292.299.37.467.438l.04-.224.028-.884-.005-.405c-.034-.107-.04-.11-.036-.132-.041-.055.013-.106-.004-.144l.004-.773c0-.099.024-.222-.054-.26l-.177-.126.004-.147v-.567c.14.099.2.121.223.162-.14.074-.13.139-.105.17.157.076.194.078.227.062.104-.05.166-.126.104-.188.005-.115 0-.123 0-.15.141-.048.184-.03.213-.004l.091.132c-.122.08-.1.122-.077.148.134.092.21.085.227.058.134-.13.115-.152.104-.176-.01-.133-.015-.153.004-.178.156-.015.242.002.182.067.022.073-.045.197.054.232.143.086.178.078.208.063.082-.054.143-.096.11-.167-.066-.113-.023-.104.018-.132.155-.092.241-.072.249-.025.02.14-.04.107-.068.169.114.084.134.058.2.052-.059.125.07.132.149.117l-.005-.371.06-2.01v-.825c-.157-.093-.21-.114-.25-.143l.177-.055c-.04.11.007.171.072.177v-.203c-.1.002-.187.004-.24-.03v-.621l.24-.033c0-.23.035-.533-.014-.74a.309.309 0 0 0-.036-.188v-.695l.068-3.688a.58.58 0 0 1-.05-.269c-.013-.157-.215-.297-.276-.346V10.3l.018-.343.014-2.013-.005-.305c.003-.103.016-.115.036-.133.003-.12-.087-.186-.203-.21l.058-.14v-.552l.055.133.032.125.022.13h.25l-.023-.133.081-.125-.027-.13.15-.044c.056.002.145.01.185-.007l.114-.136h.136v-.614c0-.107.01-.243-.014-.332-.01-.037.035-.18.028-.217v-.975c-.024-.187-.06-.213-.259-.265l.118-.66.05.192c.072.116.035.169.122.177.084-.043.066-.154.064-.265h.24c-.008-.393.21-.664.485-.832.186-.114.449-.119.458-.379-.097-.12-.175-.267-.082-.33.065-.104.064-.111.05-.13-.094-.245.043-.192.068-.35-.075-.108-.001-.077.004-.135-.076-.101-.018-.094 0-.137V.37c-.107-.016-.194-.159-.086-.224-.03.076.003.199.132.176.1-.017.134-.09.1-.176.062.106.036.204-.087.224v.795c.064.117.036.122 0 .133.066.13.045.14.005.14.01.07.084.095.09.161.006.064-.071.09-.077.152l.132.124c.028.153 0 .234-.109.27.032.098.007.088 0 .124.023.064.03.13.072.177.038.042.13.05.186.077l.245.133a.921.921 0 0 1 .44.802h.24v.22c.105.036.19-.11.186-.132l.045-.191c0 .405.01.405.01.405 0 .047-.01.116.008.15.05.014.125.043.1.108-.115.008-.224.08-.24.169l-.014.997c-.013.107.038.249.028.287-.024.09-.014.226-.014.335v.611h.14l.118.143h.177l.15.044-.028.13.023.125.036.132h.25l-.037-.129.037-.125.013-.133.095.557.06.136c-.082.015-.251.112-.2.21.077.09.047.107.032.132V9.887l.009.316.018.394c-.071.029-.252.197-.168.29-.107.153-.119.248-.136.32l-.023 3.689.069.695a.402.402 0 0 0-.05.144c-.036.251 0 .554 0 .784h.267c-.026.184.014.6-.064.684h-.204v.203zM7.475 23.67l.05.232h.14l.05-.14c.073-.121.076-.121.1-.125V22.27c-.095-.027-.114-.016-.127-.03-.024-.05-.008-.095 0-.14.175-.254.022-.304-.082-.397.144-.077.15-.207.023-.301-.092.016-.208.142-.145.253-.092.185-.05.305.041.32-.02.137-.013.188-.014.262-.125.238-.1.595-.1.887 0 .175-.02.385.014.54l.05.005zm-.661.232h.217c.06-.133.053-.183.05-.24l.095-1.387c-.094-.032-.105-.022-.127-.03a.33.33 0 0 1 .005-.14l-.042-.125c.161-.177.016-.223-.04-.276.123-.069.17-.223.018-.301-.087.033-.187.116-.145.239-.023.108-.103.204-.027.294l.05.125c.009.04-.003.125.014.177-.074.035-.092.102-.105.125V23.636a.657.657 0 0 1 .037.266zm5.815-.24.05.13.14.11.05-.137c.074-.21.063-.364.063-.493v-.706c0-.12.024-.341-.1-.328 0-.075.001-.123-.027-.177.101-.1.15-.22.091-.294.02-.213-.037-.275-.168-.364-.16.182-.065.22.01.294-.146.057-.203.24-.041.283l-.041.13c.015.034.022.097-.005.142l-.122 1.385.1.025zm.634 0 .05.125.218.11c0-.096.003-.189.036-.26v-.876c0-.182.018-.394-.04-.52-.056-.068-.055-.134-.092-.18.086-.117.17-.211.091-.298.025-.23-.086-.326-.172-.36-.188.103-.07.203.018.294-.032.07-.196.085-.131.206l.063.158c.004.088-.02.143-.005.173l-.131.04v1.363l.095.025zm1.546 3.577c-.029.139-.038.135-.05.159l-.013.129c-.118.065-.093.157-.096.188-.016.155-.019.361-.018.54.053.006.094.023.131.03a.994.994 0 0 1 .313-.004l-.127.143c-.093.061-.194.111-.312.151 0 .055.012.373-.01.39l.123.162h.426c.054-.128.066-.16.09-.187.035-.013.095-.07.127-.055.073.024.135.065.132.154l.217.085c.084-.13.105-.143.114-.174v-.444l-.005-1.001c-.173-.056-.113-.187-.181-.25l.01-.166a.348.348 0 0 0 .117-.151c.151-.3-.073-.622-.263-.777-.038-.03-.24-.181-.28-.165-.064.024-.121.085-.164.128a1.11 1.11 0 0 0-.34.633.617.617 0 0 0 .018.258l-.04.224h.08zm-10.325.266-.005 1v.445l.113.174h.141c.075-.193.151-.194.213-.247.057.013.103.055.145.081l.068.17h.426c.076-.127.104-.133.122-.163l-.013-.393a.828.828 0 0 1-.435-.261l.131-.033.181.007c.038-.007.08-.024.132-.03 0-.24.028-.548-.018-.706-.107-.092-.127-.162-.136-.203l-.009-.232.04-.176a.742.742 0 0 0-.022-.335c-.092-.3-.265-.424-.48-.615-.275.132-.72.496-.567.898.032.085.087.144.145.206l-.054.147c.023.03.025.21 0 .266h-.118z" fill="#004684" mask="url(#rzzfu0zrsb)"/>
        </g>
    </g>
</svg>
