<svg width="88" height="64" viewBox="0 0 88 64" xmlns="http://www.w3.org/2000/svg">
    <g fill="none" fill-rule="evenodd">
        <g transform="translate(.297)">
            <ellipse stroke-opacity=".2" stroke="#FFC108" stroke-width="3" cx="24.081" cy="23.78" rx="22.581" ry="22.28"/>
            <ellipse stroke-opacity=".6" stroke="#FFC208" stroke-width="4" cx="24.081" cy="23.78" rx="19.329" ry="19.062"/>
            <ellipse fill="#F7BF3A" cx="24.081" cy="23.78" rx="18.118" ry="17.891"/>
        </g>
        <path d="M57.057 63.699H27.11c-9.226 0-16.705-7.342-16.705-16.398 0-9.057 7.48-16.398 16.705-16.398 2.784 0 5.409.668 7.717 1.85 3.215-9.15 12.065-15.725 22.48-15.725 13.129 0 23.772 10.447 23.772 23.335 0 .264-.005.527-.013.79 3.832 2.02 6.438 5.993 6.438 10.563 0 6.618-5.466 11.983-12.207 11.983h-18.24.25-.25z" fill="#F0F0F0"/>
    </g>
</svg>
