<svg width="79" height="69" viewBox="0 0 79 69" xmlns="http://www.w3.org/2000/svg">
    <g fill="#FFF" fill-rule="evenodd">
        <path d="M22.99 51.524c.346 0 .626.28.626.622v1.04h.207a.624.624 0 1 1 0 1.247h-.207v3.7l3.211-1.85-.104-.18a.623.623 0 1 1 1.082-.623l.104.18.903-.52a.623.623 0 1 1 .625 1.08l-.903.52.104.179a.623.623 0 1 1-1.082.623l-.104-.179-3.212 1.849 3.212 1.85.104-.179a.626.626 0 0 1 .854-.228.623.623 0 0 1 .228.852l-.104.18.903.52c.298.171.4.553.228.85a.626.626 0 0 1-.853.23l-.903-.521-.104.18a.626.626 0 0 1-.853.228.623.623 0 0 1-.229-.852l.104-.18-3.212-1.85v3.7h.208a.624.624 0 1 1 0 1.247h-.207v1.04a.624.624 0 0 1-1.25 0v-1.04h-.207a.624.624 0 1 1 0-1.247h.207v-3.7l-3.211 1.85.104.18a.623.623 0 1 1-1.083.623l-.103-.18-.904.521a.623.623 0 1 1-.625-1.08l.904-.52-.104-.18a.623.623 0 1 1 1.082-.623l.104.18 3.21-1.851-3.21-1.849-.104.18a.626.626 0 0 1-.854.228.623.623 0 0 1-.228-.852l.104-.18-.903-.52a.622.622 0 0 1-.228-.85.626.626 0 0 1 .852-.23l.904.52.103-.179a.626.626 0 0 1 .854-.228.623.623 0 0 1 .229.852l-.104.18 3.21 1.849.001-3.7h-.207a.624.624 0 1 1 0-1.247h.207v-1.04c0-.344.28-.622.625-.622zM59.092 51.524c.345 0 .624.28.624.622v1.04h.208a.624.624 0 1 1 0 1.247h-.208v3.7l3.212-1.85-.104-.18a.623.623 0 1 1 1.082-.623l.104.18.903-.52a.623.623 0 1 1 .625 1.08l-.903.52.104.179a.623.623 0 1 1-1.083.623l-.103-.179-3.212 1.849 3.212 1.85.103-.179a.626.626 0 0 1 .854-.228.623.623 0 0 1 .229.852l-.104.18.903.52c.298.171.4.553.227.85a.626.626 0 0 1-.852.23l-.903-.521-.104.18a.626.626 0 0 1-.854.228.623.623 0 0 1-.228-.852l.104-.18-3.212-1.85v3.7h.208a.624.624 0 1 1 0 1.247h-.208v1.04a.624.624 0 0 1-1.25 0v-1.04h-.207a.624.624 0 1 1 0-1.247h.208v-3.7l-3.211 1.85.103.18a.623.623 0 1 1-1.082.623l-.104-.18-.903.521a.623.623 0 1 1-.625-1.08l.903-.52-.103-.18a.623.623 0 1 1 1.082-.623l.104.18 3.21-1.851-3.21-1.849-.104.18a.626.626 0 0 1-.854.228.623.623 0 0 1-.228-.852l.103-.18-.903-.52a.622.622 0 0 1-.227-.85.626.626 0 0 1 .852-.23l.903.52.104-.179a.626.626 0 0 1 .854-.228.623.623 0 0 1 .228.852l-.103.18 3.21 1.849v-3.7h-.207a.624.624 0 1 1 0-1.247h.208v-1.04c0-.344.28-.622.625-.622zM41.041 48.229c.345 0 .625.28.625.622v1.04h.208a.624.624 0 1 1 0 1.247h-.208v3.7l3.211-1.85-.103-.18a.623.623 0 1 1 1.082-.623l.104.18.903-.52a.623.623 0 1 1 .625 1.08l-.904.52.104.179a.623.623 0 1 1-1.082.623l-.104-.18-3.211 1.85 3.211 1.85.104-.179a.626.626 0 0 1 .854-.229.623.623 0 0 1 .228.853l-.104.179.904.52c.298.172.4.553.227.851a.626.626 0 0 1-.852.229l-.903-.52-.104.179a.626.626 0 0 1-.854.229.623.623 0 0 1-.228-.852l.103-.18-3.211-1.85v3.7h.208a.624.624 0 1 1 0 1.247h-.208v1.04a.624.624 0 0 1-1.25 0v-1.04h-.207a.624.624 0 1 1 0-1.247h.207v-3.7l-3.21 1.85.103.18a.623.623 0 1 1-1.082.623l-.104-.18-.903.521a.623.623 0 1 1-.625-1.08l.903-.52-.104-.18a.623.623 0 1 1 1.083-.623l.103.18 3.21-1.851-3.21-1.85-.103.18a.626.626 0 0 1-.854.229.623.623 0 0 1-.229-.852l.104-.18-.903-.52a.622.622 0 0 1-.227-.85.626.626 0 0 1 .852-.23l.903.52.104-.179a.626.626 0 0 1 .854-.229.623.623 0 0 1 .228.853l-.104.179 3.21 1.85.001-3.7h-.207a.624.624 0 1 1 0-1.247h.207v-1.04c0-.344.28-.622.625-.622z"/>
        <g>
            <path d="M47.68 46.699H17.073C7.643 46.699 0 39.353 0 30.29c0-9.062 7.644-16.408 17.073-16.408 2.845 0 5.528.67 7.887 1.853C28.245 6.578 37.29 0 47.935 0 61.353 0 72.23 10.454 72.23 23.35c0 .264-.004.527-.013.79 3.917 2.021 6.58 5.996 6.58 10.569 0 6.622-5.586 11.99-12.476 11.99H47.68h.255-.255z"/>
        </g>
    </g>
</svg>
