<svg width="60" height="60" viewBox="0 0 60 60" xmlns="http://www.w3.org/2000/svg">
    <g fill="none" fill-rule="evenodd">
        <path d="M0 0h60v60H0z"/>
        <g fill-rule="nonzero">
            <path d="M41.533.117H4.98A4.98 4.98 0 0 0 0 5.097v49.806a4.98 4.98 0 0 0 4.98 4.98h28.514l13.018-13.018V5.097a4.979 4.979 0 0 0-4.98-4.98" fill="#F2F2F2"/>
            <g fill="#CDD6E0">
                <path d="M4.98 6.092h36.552v3.124H4.98zM4.98 15.275h36.552v3.124H4.98zM4.98 24.457h36.552v3.124H4.98zM4.98 33.641h36.552v3.123H4.98zM4.98 42.822h22.588v3.123H4.98zM46.513 46.865 33.495 59.883v-8.037a4.98 4.98 0 0 1 4.981-4.98h8.037z"/>
            </g>
            <path d="M30.88 31.046a14.61 14.61 0 0 0-1.429 1.827l-.012.02.263 9.97 9.238-3.757.013-.018c.463-.71.803-1.383 1.1-2.043l-9.172-5.999z" fill="#FEB53E"/>
            <path d="m52.707 12.963-14.86 22.721c-.62.949-.128 2.454 1.1 3.402l16.09-24.6-2.33-1.523zM45.54 8.274 29.45 32.873c1.36.747 2.939.596 3.559-.353L47.87 9.8l-2.33-1.525z" fill="#F1543F"/>
            <path d="M47.87 9.799 33.01 32.518c-.636.972-.16 2.607 1.178 3.48 1.335.873 3.024.656 3.658-.314l14.86-22.72L47.87 9.8z" fill="#FF7058"/>
            <path d="m52.707 12.963-14.86 22.721c-.62.949-.128 2.454 1.1 3.402l16.09-24.6-2.33-1.523zM45.54 8.274 29.45 32.873c1.36.747 2.939.596 3.559-.353L47.87 9.8l-2.33-1.525z" fill="#FF617D"/>
            <path d="M47.87 9.799 33.01 32.518c-.636.972-.16 2.607 1.178 3.48 1.335.873 3.024.656 3.658-.314l14.86-22.72L47.87 9.8z" fill="#F28C9E"/>
            <path fill="#E8EAEA" d="M45.488 8.352 48.3 4.051l9.503 6.215-2.814 4.302z"/>
            <path d="M58.355 3.005 54.73.636a3.507 3.507 0 0 0-4.859 1.015L47.63 5.08l9.502 6.214 2.242-3.429a3.512 3.512 0 0 0-1.018-4.86" fill="#00C48C"/>
            <path d="m29.604 39.18.098 3.684 3.414-1.389a3.686 3.686 0 0 0-3.512-2.296" fill="#40596B"/>
        </g>
    </g>
</svg>
