<svg width="519" height="60" viewBox="0 0 519 60" xmlns="http://www.w3.org/2000/svg">
    <g fill="#1A427D" fill-rule="evenodd">
        <path d="M36.42 37.173h1.922v-1.639H36.42v1.64zm.022 17.014h1.856V37.573h-1.856v16.614zM52.968 37.573H40.716v1.66h9.98L40.41 52.548v1.639h12.776v-1.661H42.66l10.308-13.204v-1.75M71.399 38.99h.044v15.197h1.856V37.573h-3.21l-5.81 14.221-5.787-14.221h-3.21v16.614h1.856V38.99h.044l6.202 15.197h1.834l6.18-15.197M76.377 37.173H78.3v-1.639h-1.922v1.64zm.022 17.014h1.856V37.573H76.4v16.614zM83.163 45.88v-6.647h5.722c2.927 0 3.21.798 3.21 2.924 0 2.749-.349 3.634-3.21 3.723h-5.722zm0 1.661h5.962c2.25 0 2.752 1.02 2.752 3.124v3.522h1.857v-4.409c0-1.793-.809-2.857-2.643-2.99v-.045c2.599-.33 2.86-2.06 2.86-4.386 0-3.788-1.55-4.784-5.088-4.784h-7.556v16.614h1.856V47.54zM107.183 40.297h4.433c1.55 0 2.25.133 2.25 1.906 0 1.772-.393 2.325-2.163 2.325h-4.52v-4.23zm5.285 13.89c3.451 0 4.936-.953 4.936-4.63 0-2.105-.437-3.632-2.73-3.899v-.088c1.987-.488 2.337-1.773 2.337-3.677 0-3.655-1.617-4.32-4.826-4.32h-8.147v16.614h8.43zm-5.285-7.243h4.827c1.856 0 2.249.53 2.249 2.347 0 2.039-.896 2.172-2.774 2.172h-4.302v-4.52zM127.666 35.756h2.18v-1.949h-2.18v1.949zm-4.456 0h2.163v-1.949h-2.163v1.949zm6.99 1.817V49.38c0 1.795-.794 2.215-3.713 2.215-3.036 0-3.648-.51-3.648-2.215V37.573h-3.144V49.38c0 4.651 2.948 4.94 6.792 4.94 3.996 0 6.857-.31 6.857-4.94V37.573H130.2zM149.614 37.573h-3.625l-3.953 7.09h-.066l-3.887-7.09h-3.582l5.919 10.234v6.38h3.145v-6.38l6.05-10.234M158.765 35.756h2.181v-1.949h-2.181v1.949zm-4.455 0h2.162v-1.949h-2.162v1.949zm6.988 1.817V49.38c0 1.795-.793 2.215-3.713 2.215-3.035 0-3.647-.51-3.647-2.215V37.573h-3.145V49.38c0 4.651 2.95 4.94 6.792 4.94 3.997 0 6.858-.31 6.858-4.94V37.573h-3.145zM170.428 37.573h-3.146v16.614h3.146v-7.11h1.462l6.028 7.11h3.975l-7.316-8.506 6.639-8.108h-3.866l-5.46 6.78h-1.462v-6.78M189.557 54.453l-2.49 1.528.59 1.019 2.86-1.15-.96-1.397zm-7.382-5.56v.775c0 4.762 3.232 4.651 6.857 4.651 4.215 0 6.4-.398 6.4-5.072 0-4.231-1.376-4.497-6.422-4.807-3.188-.2-3.603-.265-3.603-2.304 0-1.772.502-2.082 3.625-2.082 2.206 0 2.927.066 2.927 1.861v.53h3.145v-.53c0-4.364-2.73-4.474-6.072-4.474-3.93 0-6.77.132-6.77 4.695 0 4.829 2.796 4.696 6.334 4.918 2.445.133 3.69-.177 3.69 2.193 0 1.928-.393 2.459-3.254 2.459-2.904 0-3.713-.132-3.713-2.038v-.776h-3.144zM200.518 40.297h8.08v-2.724h-11.225v16.614h11.291v-2.724h-8.146v-4.409h7.665V44.44h-7.665v-4.143M225.02 37.573h-3.146v6.8h-7.622v-6.8h-3.145v16.614h3.145v-7.089h7.622v7.089h3.145V37.573M228.379 37.086h2.16v-1.95h-2.16v1.95zm-.48 17.1h3.144V37.574h-3.145v16.614zM236.959 45.968v-5.67h4.369c2.248 0 2.662.42 2.662 2.769 0 2.436-.566 2.901-2.882 2.901h-4.15zm4.827 2.725c1.506.023 2.074.997 2.074 2.393v3.1h3.145v-3.1c0-2.348-.546-3.567-2.773-3.767v-.088c2.773-.42 2.904-2.215 2.904-4.674 0-3.766-1.375-4.896-4.957-4.984h-8.365v16.614h3.145v-5.494h4.827zM258.97 39.233h5.59c1.944 0 2.796.244 2.796 2.482 0 2.591-.765 3.102-2.992 3.102h-5.394v-5.584zm6.857 14.954c2.773 0 3.866-1.64 3.866-4.63 0-2.06-.35-3.654-2.534-4.054v-.044c1.704-.576 2.053-1.75 2.053-3.5 0-2.902-.72-4.386-3.8-4.386h-8.299v16.614h8.714zm-6.857-7.71h6.092c2.447-.044 2.774 1.064 2.774 3.257 0 2.548-.982 2.792-2.992 2.792h-5.874v-6.049zM273.687 39.233h8.67v-1.66h-10.526v16.614h10.526v-1.661h-8.67v-6.093h8.3v-1.55h-8.3v-5.65M286.655 37.573H284.8v16.614h10.199v-1.661h-8.343V37.573M298.096 39.233h8.67v-1.66H296.24v16.614h10.526v-1.661h-8.67v-6.093h8.3v-1.55h-8.3v-5.65M310.824 52.526V39.233h6.42c3.123 0 3.45 3.08 3.45 4.01v4.364c-.042 2.97-.48 4.919-3.756 4.919h-6.114zm-1.857 1.66h8.409c4.914 0 5.176-4.607 5.176-6.246v-3.965c0-6.136-3.625-6.402-5.614-6.402h-7.97v16.614zM325.149 37.173h1.922v-1.639h-1.922v1.64zm.024 17.014h1.855V37.573h-1.855v16.614zM342.506 37.573H340.3l-4.847 7.775-4.849-7.775h-2.162l6.005 9.68v6.934h1.856v-6.933l6.203-9.681M345.125 39.233h8.67v-1.66h-10.526v16.614h10.526v-1.661h-8.67v-6.093h8.298v-1.55h-8.298v-5.65M361.39 46.522c2.993.244 4.39-.288 4.39 2.88 0 3.256-.96 3.256-4.455 3.256-3.472 0-4.172 0-4.128-3.654h-1.856c-.35 4.807 1.812 5.315 5.984 5.315 4.128 0 6.311-.154 6.311-4.851 0-4.496-1.965-4.386-5.853-4.607-3.057-.09-4.541.178-4.541-2.991 0-2.304.501-2.768 4.127-2.768 3.472 0 4.018.11 4.106 3.013h1.856c.196-4.52-2.359-4.674-5.897-4.674-4.04 0-6.05.398-6.05 4.828 0 4.387 2.774 3.988 6.006 4.253M21.112 30.562v4.975c.1.144.057.642.11.691.12.046.34-.007.375-.077.196-.07.24-.13.212-.233-.084-.073-.146-.052-.29-.071.08-.127.184-.13.259-.155.235-.17.299-.141.345-.11l.189.253c-.259.067-.196.305.007.232.099.164.15.168.22.155.232-.183.265-.228.235-.317-.134-.174-.05-.168.023-.22l.338-.096.172.258c-.222.077-.248.154-.204.193.17.12.179.15.22.17.233-.04.237-.063.235-.105.13-.232.026-.262 0-.29.17-.153.145-.183.165-.22l.345-.027c.092.123.164.157.196.227-.3.221-.127.287-.015.304.25.082.255.066.25.006.127-.248.053-.25-.007-.258.053-.141.152-.116.243-.175l.125.834c.042.202.052.236.008.252l-.259.007c-.08.15-.038.179-.063.227-.122.038-.078.289-.078.425v1.306c.009.083.015.288 0 .362l-.07 2.417.039.22c.364.099.942-.052.885-.401l-.25-.22c.211-.287.253-.262.282-.33.058-.135-.146-.368-.117-.472l.203-.323c.165.323.18.33.18.33l-.101.298c-.022.122.054.202.055.341.075.02.168.055.227.092-.053.125-.213.097-.251.16-.098.168.082.466.189.492.74.173 1.52.825 1.529 1.622.227-.311.588-.329.635.007-.037.193-.067.352.015.445.267-.038.23-.176.315-.272.095.15.055.2.094.253.067.02.138.03.22.013.097-.108.022-.214-.087-.266.107-.28.179-.393.321-.407v.938c.078.267-.114.249-.188.335-.118.26-.102.296-.086.33v3.102c-.136.319-.041.478-.189.549l-.102.744v1.75l.18.305.134.335-.023.42c.169-.003.425-.025.502.052-.182.104-.472.242-.385.407-.02.347-.149.438-.29.511l4.533.187v.388h1.31v.376h1.31v.374H0v-.374h1.31v-.376h1.31v-.388h4.509c-.176-.264-.296-.42-.322-.613.142-.25-.148-.388-.267-.415.044-.143.256-.13.44-.13v-.25l-.023-.453.258-.213.055-.872v-.938c0-.161.017-.358-.016-.497v-.35c-.232-.051-.141-.209-.18-.335l-.095-.646v-2.65c-.127-.253-.081-.285-.094-.33-.03-.09-.238-.092-.321-.16l.141-1.113c.143.014.213.126.22.253-.019.194-.052.286-.016.388.06.068.193.045.267.005.03-.105-.01-.168.078-.239.03.09.068.254.173.285.216-.142.178-.265.039-.277.132-.286.18-.394.282-.427.18-.045.272.124.29.239.17-.609.675-1.124 1.106-1.376l.408-.201c.24-.094.39-.107.392-.413-.113-.152-.208-.183-.259-.226l.228-.15c0-.14.075-.219.055-.341l-.102-.292.172-.336c.196.317.212.323.212.323.029.104-.176.337-.118.472.141.222.253.203.29.266l-.258.128c-.05.512.516.65.807.77l.071-.395.046-1.55-.007-.712c-.059-.187-.071-.192-.063-.232-.072-.096.023-.186-.007-.253l.007-1.356c0-.175.041-.39-.093-.459l-.307-.22.008-.258v-.995c.24.173.347.213.385.284-.242.13-.223.243-.18.298.27.134.334.138.391.109.18-.088.287-.221.18-.33.008-.201 0-.216 0-.265.245-.082.318-.05.37-.006l.156.233c-.211.139-.172.214-.133.259.232.163.362.15.392.102.233-.227.2-.266.18-.31-.015-.232-.026-.268.008-.31.27-.028.418.001.313.116.039.13-.077.346.095.407.248.151.309.138.36.111.14-.094.247-.168.19-.292-.114-.2-.039-.183.03-.232.27-.162.419-.127.432-.045.034.247-.07.189-.118.297.198.147.233.101.345.09-.1.221.124.232.259.207l-.008-.652.102-3.53V30.6c-.27-.165-.36-.202-.432-.252l.307-.097c-.07.195.013.301.125.31v-.356c-.174.004-.324.007-.415-.052v-1.09l.415-.059c.001-.404.061-.936-.024-1.299.01-.176-.024-.262-.063-.33v-1.221l.118-6.475c-.068-.128-.086-.294-.086-.471-.023-.276-.373-.523-.478-.608v-.517l.031-.601.024-3.534-.009-.537c.006-.18.028-.201.064-.233.005-.212-.152-.327-.353-.368l.101-.246v-.97l.095.234.054.22.04.226h.431l-.04-.233.142-.22-.047-.226.258-.078c.098.002.252.015.322-.012l.196-.24h.235v-1.078c0-.188.019-.426-.023-.582-.017-.065.06-.316.047-.381V7.51c-.04-.327-.104-.373-.447-.466l.204-1.156.086.336c.126.204.06.296.212.31.145-.075.115-.27.11-.465h.415c-.012-.69.365-1.166.84-1.46.321-.2.776-.21.791-.666-.166-.212-.301-.468-.14-.581.112-.18.111-.194.086-.227-.163-.43.074-.337.118-.614-.13-.191-.002-.135.007-.238-.13-.177-.032-.166 0-.24V.648c-.185-.028-.335-.28-.149-.394-.053.133.006.35.228.31.172-.03.232-.158.172-.31.109.186.063.359-.149.394v1.396c.11.206.062.214 0 .233.113.229.078.245.008.245.018.124.146.167.157.284.01.112-.125.158-.134.266l.228.22c.049.267.001.41-.189.47.056.176.013.157 0 .22.04.114.054.228.126.31.064.075.224.09.322.137l.423.232c.446.29.758.758.76 1.409h.417v.387c.18.062.33-.193.32-.232l.08-.336c0 .71.016.71.016.71 0 .083-.018.206.015.265.087.025.215.074.173.188-.2.016-.388.141-.416.298L20.076 9.1c-.023.188.065.436.047.504-.04.158-.023.397-.023.588v1.073h.243l.204.251h.305l.26.078-.048.226.04.22.062.233h.431l-.062-.227.062-.22.024-.232.165.976.102.24c-.14.026-.434.196-.345.367.133.159.082.19.054.233v3.948l.016.555.032.692c-.123.05-.435.347-.29.51-.186.269-.206.435-.236.563l-.039 6.475.118 1.222a.713.713 0 0 0-.086.252c-.062.44 0 .972 0 1.376h.463c-.045.324.024 1.055-.11 1.201h-.353v.357zM12.934 41.56l.086.407h.243l.087-.245c.125-.213.13-.213.172-.22v-2.399c-.164-.047-.197-.027-.22-.05-.041-.09-.014-.168 0-.247.303-.447.038-.534-.141-.697.25-.135.26-.364.04-.53-.16.029-.36.25-.252.446-.16.324-.086.535.071.562-.033.239-.023.33-.024.459-.216.418-.172 1.046-.172 1.558 0 .306-.037.676.024.949l.086.007zm-1.145.407h.376c.104-.234.092-.32.086-.42l.165-2.436c-.163-.056-.181-.038-.22-.052a.588.588 0 0 1 .008-.245l-.07-.22c.277-.313.026-.392-.07-.485.212-.122.293-.393.03-.53-.15.059-.323.205-.25.42-.04.19-.18.359-.047.517l.086.22c.015.068-.005.22.023.31-.126.061-.158.179-.18.22v2.236c.057.127.063.291.063.465zm10.061-.42.087.226.243.194.086-.24c.128-.369.11-.638.11-.865v-1.24c0-.21.041-.6-.173-.576 0-.13.002-.216-.047-.31.175-.176.26-.388.157-.517.036-.374-.064-.483-.29-.64-.276.321-.114.387.016.517-.252.1-.351.42-.071.497l-.07.227a.311.311 0 0 1-.009.252l-.211 2.43.172.044zm1.098 0 .087.22.376.193c0-.17.007-.333.063-.458v-1.538c0-.319.03-.692-.07-.911-.096-.122-.094-.236-.157-.317.148-.206.292-.37.156-.524.044-.405-.15-.572-.298-.633-.324.18-.121.358.031.517-.054.123-.339.149-.226.362l.109.278c.006.154-.035.25-.008.303l-.227.072v2.39l.164.045zm2.674 6.28c-.049.244-.065.238-.086.279l-.023.226c-.203.114-.16.276-.165.33a9.662 9.662 0 0 0-.032.95c.092.009.163.04.228.051.207-.041.509-.022.542-.007l-.22.252c-.161.107-.336.195-.542.265 0 .096.023.655-.015.685l.212.285h.737c.094-.225.115-.283.156-.33.06-.022.164-.123.22-.097.125.043.232.116.228.272l.376.149c.144-.228.18-.252.196-.305v-.781l-.008-1.758c-.3-.097-.195-.327-.313-.44l.016-.29c.099-.063.152-.162.203-.265.262-.527-.125-1.092-.455-1.364-.065-.053-.416-.318-.485-.29-.11.043-.21.15-.283.225-.309.318-.49.6-.588 1.113a1.1 1.1 0 0 0 .031.452l-.07.394h.14zm-17.864.466-.008 1.758v.78l.196.306h.243c.13-.34.262-.342.369-.433.098.022.177.096.251.142l.117.297h.738c.131-.223.18-.234.211-.285l-.023-.69c-.292-.05-.605-.28-.753-.459l.227-.059.314.013c.064-.012.136-.041.228-.051 0-.421.047-.964-.033-1.242-.184-.161-.219-.283-.235-.355l-.015-.407.071-.31c.039-.19.009-.43-.04-.589-.16-.525-.458-.743-.83-1.078-.477.232-1.244.87-.981 1.576.055.15.151.252.25.362l-.093.259c.04.05.045.366 0 .465h-.204zM369.885 37.173h1.922v-1.639h-1.922v1.64zm.023 17.014h1.856V37.573h-1.856v16.614z"/>
        <text font-family="Helvetica" font-size="25">
                    <tspan x="381" y="51">- INTRANET</tspan>
                </text>
    </g>
</svg>
