<svg width="116" height="108" xmlns="http://www.w3.org/2000/svg">
    <g fill="#2093FF" fill-rule="evenodd">
        <path d="M49.944 71.731c-1.181 0-2.364-.43-3.293-1.296l-23.362-21.76a4.84 4.84 0 0 1-.244-6.836 4.834 4.834 0 0 1 6.832-.244l19.97 18.602 57.924-57.192a4.833 4.833 0 0 1 6.836.046 4.839 4.839 0 0 1-.045 6.84L53.34 70.337a4.822 4.822 0 0 1-3.396 1.393"/>
        <path d="M53.972 108C24.212 108 0 83.776 0 54S24.212 0 53.972 0c9.51 0 18.862 2.51 27.045 7.26a4.839 4.839 0 0 1 1.756 6.61 4.833 4.833 0 0 1-6.606 1.756 44.258 44.258 0 0 0-22.195-5.954C29.542 9.672 9.667 29.557 9.667 54s19.875 44.328 44.305 44.328S98.278 78.443 98.278 54a44.56 44.56 0 0 0-1.3-10.705 4.837 4.837 0 0 1 3.53-5.858 4.836 4.836 0 0 1 5.854 3.531A54.244 54.244 0 0 1 107.944 54c0 29.776-24.211 54-53.972 54"/>
    </g>
</svg>
