<svg width="16" height="19" xmlns="http://www.w3.org/2000/svg">
    <g fill="#CECECE" fill-rule="nonzero">
        <path d="M6.13 15.07a.773.773 0 0 0 .772-.773V5.942a.773.773 0 0 0-1.546 0v8.366a.773.773 0 0 0 .773.762zM9.87 15.07a.773.773 0 0 0 .773-.773V5.942a.773.773 0 1 0-1.545 0v8.366a.773.773 0 0 0 .772.762z"/>
        <path d="M.773 3.544h.62v10.82a3.869 3.869 0 0 0 3.865 3.864h5.484a3.869 3.869 0 0 0 3.865-3.864V3.544h.62a.773.773 0 0 0 0-1.546h-3.886v-.342A1.659 1.659 0 0 0 9.685 0h-3.37A1.658 1.658 0 0 0 4.66 1.656v.342H.773a.773.773 0 0 0 0 1.546zm5.432-1.888a.11.11 0 0 1 .11-.11h3.37a.11.11 0 0 1 .11.11v.342h-3.59v-.342zM2.939 3.544h10.122v10.82a2.32 2.32 0 0 1-2.319 2.318H5.258a2.32 2.32 0 0 1-2.319-2.318V3.544z"/>
    </g>
</svg>
