<svg width="340" height="41" viewBox="0 0 340 41" xmlns="http://www.w3.org/2000/svg">
    <g fill="#000" fill-rule="evenodd" opacity=".704">
        <path d="m165 30.816 5.453-6.515c3.483 2.776 7.37 4.243 11.458 4.243 2.626 0 4.038-.91 4.038-2.425v-.101c0-1.465-1.16-2.274-5.954-3.385-7.523-1.719-13.328-3.839-13.328-11.114v-.101c0-6.568 5.199-11.316 13.681-11.316 6.007 0 10.7 1.617 14.538 4.698l-4.898 6.92c-3.231-2.273-6.763-3.485-9.894-3.485-2.372 0-3.533 1.01-3.533 2.273v.102c0 1.616 1.212 2.322 6.108 3.435 8.126 1.768 13.175 4.395 13.175 11.012v.1c0 7.226-5.703 11.52-14.284 11.52-6.26 0-12.218-1.97-16.56-5.861M226.287 18.49v-.101c0-5.102-3.685-9.547-9.085-9.547-5.353 0-8.935 4.344-8.935 9.446v.101c0 5.104 3.685 9.547 9.035 9.547 5.401 0 8.985-4.342 8.985-9.446m-28.065 0v-.101C198.222 8.235 206.399 0 217.302 0c10.904 0 18.98 8.135 18.98 18.288v.101c0 10.154-8.177 18.388-19.08 18.388-10.903 0-18.98-8.133-18.98-18.287M247.264 22.835 233.837.708h11.155l7.268 12.882L259.582.708h10.953l-13.428 21.977V36.07h-9.843zM273.449.708h28.419v8.335H283.14v5.356h16.962v7.728H283.14v5.608h18.98v8.336H273.45zM323.046 17.682c3.33 0 5.25-1.617 5.25-4.193v-.1c0-2.779-2.02-4.194-5.3-4.194h-6.412v8.487h6.462zM306.792.708h16.707c5.4 0 9.138 1.414 11.51 3.84 2.07 2.02 3.128 4.747 3.128 8.234v.101c0 5.405-2.876 8.994-7.268 10.86l8.43 12.328h-11.307l-7.117-10.71h-4.291v10.71h-9.792V.708zM125.92 37.53c-2.136 0-4.182-.351-6.082-1.001v4.157h10.2v-3.513a22.81 22.81 0 0 1-4.118.357M10.52 9.217H0V.701h30.76v8.516H20.24V35.77h-9.72zM34.242 20.389V.702h9.87v19.487c0 5.059 2.554 7.464 6.462 7.464s6.462-2.303 6.462-7.214V.702h9.87v19.437c0 11.322-6.463 16.28-16.432 16.28-9.97 0-16.232-5.06-16.232-16.03M71.85.701h9.067l14.428 18.535V.701h9.618V35.77h-8.518L81.467 16.531V35.77H71.85zM107.836 18.335v-.1C107.836 8.015 115.702 0 126.32 0c7.164 0 11.774 3.006 14.878 7.314l-7.313 5.661c-2.004-2.505-4.31-4.108-7.665-4.108-4.908 0-8.366 4.158-8.366 9.268v.1c0 5.26 3.458 9.368 8.366 9.368 3.657 0 5.81-1.703 7.916-4.259l7.314 5.212c-3.306 4.558-7.765 7.913-15.531 7.913-10.02 0-18.084-7.664-18.084-18.134"/>
    </g>
</svg>
