<svg width="45" height="44" viewBox="0 0 45 44" xmlns="http://www.w3.org/2000/svg">
    <g fill="none" fill-rule="evenodd">
        <path d="M43.438 7.57v7.57H1.25V7.57c0-2.082 1.688-3.785 3.75-3.785h34.688c2.063 0 3.75 1.703 3.75 3.785z" fill="#0082FB"/>
        <path d="M43.438 15.14v23.656c0 2.081-1.687 3.785-3.75 3.785H5.001c-2.063 0-3.75-1.704-3.75-3.785V15.14h42.187z" fill="#F3F3F1"/>
        <path fill="#0082FB" d="M20 32h5v5h-5z"/>
        <path d="M9.22 3.785H5c-2.062 0-3.75 1.703-3.75 3.785v7.57h4.22V7.57c0-2.082 1.687-3.785 3.75-3.785z" fill="#0058AA"/>
        <path d="M5.47 38.796V15.14H1.25v23.656c0 2.081 1.688 3.785 3.75 3.785h4.22c-2.063 0-3.75-1.704-3.75-3.785z" fill="#D5DBE1"/>
        <path d="M39.844 44H5.156C2.314 44 0 41.667 0 38.796V7.57C0 4.7 2.314 2.365 5.156 2.365h34.688C42.688 2.365 45 4.7 45 7.57v31.226C45 41.666 42.688 44 39.844 44zM5.156 5.204c-1.292 0-2.343 1.062-2.343 2.366v31.226c0 1.304 1.051 2.365 2.343 2.365h34.688c1.292 0 2.343-1.061 2.343-2.365V7.57c0-1.304-1.051-2.366-2.343-2.366H5.156z" fill="#000"/>
        <path fill="#000" d="M1.406 16.559h42.188V13.72H1.406zM9.375 8.516h2.812V0H9.375zM32.813 8.516h2.812V0h-2.812zM11.25 26.183H7.5c-.62 0-1.125-.505-1.125-1.125v-3.75c0-.621.504-1.125 1.125-1.125h3.75c.62 0 1.125.504 1.125 1.125v3.75c0 .62-.504 1.125-1.125 1.125zm-3.875-1h4v-4h-4v4zM11.25 37.538H7.5c-.62 0-1.125-.505-1.125-1.125v-3.75c0-.621.504-1.125 1.125-1.125h3.75c.62 0 1.125.504 1.125 1.124v3.75c0 .621-.504 1.126-1.125 1.126zm-3.875-1h4v-4h-4v4zM24.375 26.21h-3.75a1.13 1.13 0 0 1-1.125-1.135V21.29a1.13 1.13 0 0 1 1.125-1.136h3.75A1.13 1.13 0 0 1 25.5 21.29v3.785a1.13 1.13 0 0 1-1.125 1.136zM20.5 25.184h4v-4h-4v4zM24.375 37.21h-3.75a1.13 1.13 0 0 1-1.125-1.135V32.29a1.13 1.13 0 0 1 1.125-1.136h3.75A1.13 1.13 0 0 1 25.5 32.29v3.785a1.13 1.13 0 0 1-1.125 1.136zM20.5 36.184h4v-4h-4v4zM37.5 26.183h-3.75c-.62 0-1.125-.505-1.125-1.125v-3.75c0-.621.504-1.125 1.125-1.125h3.75c.62 0 1.125.504 1.125 1.125v3.75c0 .62-.504 1.125-1.125 1.125zm-3.875-1h4v-4h-4v4z"/>
    </g>
</svg>
