<svg width="116" height="116" viewBox="0 0 116 116" fill="none" xmlns="http://www.w3.org/2000/svg">
<path d="M96.187 96.1796L96.1796 96.1871C91.1721 101.208 85.2217 105.189 78.6705 107.903C72.1192 110.617 65.0962 112.009 58.0052 112L57.9949 112C50.9038 112.009 43.8809 110.617 37.3296 107.903C30.7784 105.189 24.828 101.208 19.8203 96.187L19.8129 96.1796C14.7922 91.1721 10.8105 85.2217 8.09683 78.6705C5.38313 72.1192 3.99086 65.0962 4.00006 58.0052L4.00005 57.9949C3.99101 50.9038 5.38335 43.8809 8.09706 37.3296C10.8108 30.7784 14.7923 24.828 19.813 19.8203L19.8203 19.813C24.828 14.7923 30.7784 10.8108 37.3296 8.09706C43.8809 5.38335 50.9038 3.99101 57.9949 4.00006L58.0052 4.00005C65.0962 3.99086 72.1192 5.38313 78.6705 8.09683C85.2217 10.8105 91.1721 14.7922 96.1796 19.8129L96.187 19.8203C101.208 24.828 105.189 30.7784 107.903 37.3296C110.617 43.8809 112.009 50.9038 112 57.9949L112 58.0052C112.009 65.0962 110.617 72.1192 107.903 78.6705C105.189 85.2217 101.208 91.1721 96.187 96.1796Z" stroke="#006FD1" stroke-width="8" stroke-linejoin="round"/>
<path fill-rule="evenodd" clip-rule="evenodd" d="M58 95.6997C59.9228 95.6997 61.7669 94.9359 63.1265 93.5762C64.4862 92.2166 65.25 90.3725 65.25 88.4497C65.25 86.5269 64.4862 84.6828 63.1265 83.3232C61.7669 81.9635 59.9228 81.1997 58 81.1997C56.0772 81.1997 54.2331 81.9635 52.8735 83.3232C51.5138 84.6828 50.75 86.5269 50.75 88.4497C50.75 90.3725 51.5138 92.2166 52.8735 93.5762C54.2331 94.9359 56.0772 95.6997 58 95.6997Z" fill="#006FD1"/>
<path d="M58 23.2V69.5999" stroke="#006FD1" stroke-width="11" stroke-linecap="round" stroke-linejoin="round"/>
</svg>
