<svg width="116" height="116" viewBox="0 0 116 116" fill="none" xmlns="http://www.w3.org/2000/svg">
<path d="M58 108.75C44.5403 108.75 31.6318 103.403 22.1143 93.8857C12.5969 84.3682 7.25 71.4597 7.25 58C7.25 44.5403 12.5969 31.6318 22.1143 22.1143C31.6318 12.5969 44.5403 7.25 58 7.25C71.4597 7.25 84.3682 12.5969 93.8857 22.1143C103.403 31.6318 108.75 44.5403 108.75 58C108.75 71.4597 103.403 84.3682 93.8857 93.8857C84.3682 103.403 71.4597 108.75 58 108.75ZM58 116C73.3826 116 88.1351 109.889 99.0122 99.0122C109.889 88.1351 116 73.3826 116 58C116 42.6174 109.889 27.8649 99.0122 16.9878C88.1351 6.1107 73.3826 0 58 0C42.6174 0 27.8649 6.1107 16.9878 16.9878C6.1107 27.8649 0 42.6174 0 58C0 73.3826 6.1107 88.1351 16.9878 99.0122C27.8649 109.889 42.6174 116 58 116Z" fill="#34A853"./>
<path d="M79.5315 36.0348C79.4799 36.0848 79.4315 36.1381 79.3865 36.1943L54.2073 68.2755L39.033 53.094C38.0023 52.1335 36.6389 51.6107 35.2302 51.6355C33.8216 51.6604 32.4775 52.231 31.4813 53.2273C30.485 54.2235 29.9144 55.5676 29.8895 56.9762C29.8647 58.3849 30.3876 59.7483 31.348 60.779L50.5315 79.9698C51.0483 80.4856 51.6637 80.8921 52.341 81.165C53.0183 81.4378 53.7436 81.5715 54.4737 81.5579C55.2038 81.5444 55.9236 81.384 56.5903 81.0862C57.2571 80.7884 57.857 80.3594 58.3543 79.8248L87.2963 43.6473C88.2818 42.6129 88.8206 41.2323 88.7962 39.8038C88.7719 38.3754 88.1863 37.0139 87.1662 36.0137C86.146 35.0135 84.7732 34.4551 83.3445 34.459C81.9159 34.4629 80.5462 35.029 79.5315 36.0348Z" fill="#34A853"./>
</svg>
